  0
SECTION
  2
BLOCKS
  0
ENDSEC
  0
SECTION
  2
ENTITIES
  0
LINE
  8
0
 10
-10
 20
115
 11
-9.78148
 21
112.921
  0
LINE
  8
0
 10
-9.78148
 20
112.921
 11
20.2185
 21
-2.07912
  0
LINE
  8
0
 10
20.2185
 20
-2.07912
 11
20.8645
 21
-4.06737
  0
LINE
  8
0
 10
20.8645
 20
-4.06737
 11
21.9098
 21
-5.87785
  0
LINE
  8
0
 10
21.9098
 20
-5.87785
 11
23.3087
 21
-7.43145
  0
LINE
  8
0
 10
23.3087
 20
-7.43145
 11
25
 21
-8.66025
  0
LINE
  8
0
 10
25
 20
-8.66025
 11
26.9098
 21
-9.51057
  0
LINE
  8
0
 10
26.9098
 20
-9.51057
 11
28.9547
 21
-9.94522
  0
LINE
  8
0
 10
28.9547
 20
-9.94522
 11
191.045
 21
-9.94522
  0
LINE
  8
0
 10
191.045
 20
-9.94522
 11
193.09
 21
-9.51057
  0
LINE
  8
0
 10
193.09
 20
-9.51057
 11
195
 21
-8.66025
  0
LINE
  8
0
 10
195
 20
-8.66025
 11
245
 21
26.3397
  0
LINE
  8
0
 10
245
 20
26.3397
 11
246.691
 21
27.5686
  0
LINE
  8
0
 10
246.691
 20
27.5686
 11
248.09
 21
29.1221
  0
LINE
  8
0
 10
248.09
 20
29.1221
 11
249.135
 21
30.9326
  0
LINE
  8
0
 10
249.135
 20
30.9326
 11
249.781
 21
32.9209
  0
LINE
  8
0
 10
249.781
 20
32.9209
 11
250
 21
35
  0
LINE
  8
0
 10
250
 20
35
 11
249.781
 21
37.0791
  0
LINE
  8
0
 10
249.781
 20
37.0791
 11
249.135
 21
39.0674
  0
LINE
  8
0
 10
249.135
 20
39.0674
 11
248.09
 21
40.8779
  0
LINE
  8
0
 10
248.09
 20
40.8779
 11
246.691
 21
42.4314
  0
LINE
  8
0
 10
246.691
 20
42.4314
 11
245
 21
43.6603
  0
LINE
  8
0
 10
245
 20
43.6603
 11
243.09
 21
44.5106
  0
LINE
  8
0
 10
243.09
 20
44.5106
 11
3.09017
 21
124.511
  0
LINE
  8
0
 10
3.09017
 20
124.511
 11
1.04528
 21
124.945
  0
LINE
  8
0
 10
1.04528
 20
124.945
 11
-1.04528
 21
124.945
  0
LINE
  8
0
 10
-1.04528
 20
124.945
 11
-3.09017
 21
124.511
  0
LINE
  8
0
 10
-3.09017
 20
124.511
 11
-5
 21
123.66
  0
LINE
  8
0
 10
-5
 20
123.66
 11
-6.69131
 21
122.431
  0
LINE
  8
0
 10
-6.69131
 20
122.431
 11
-8.09017
 21
120.878
  0
LINE
  8
0
 10
-8.09017
 20
120.878
 11
-9.13545
 21
119.067
  0
LINE
  8
0
 10
-9.13545
 20
119.067
 11
-9.78148
 21
117.079
  0
LINE
  8
0
 10
-9.78148
 20
117.079
 11
-10
 21
115
  0
ENDSEC
  0
SECTION
  2
OBJECTS
  0
DICTIONARY
  0
ENDSEC
  0
EOF
