<?xml version="1.0" encoding="UTF-8" standalone="no"?>
<!-- Generator: Adobe Illustrator 15.1.0, SVG Export Plug-In . SVG Version: 6.00 Build 0)  -->

<svg
   xmlns:dc="http://purl.org/dc/elements/1.1/"
   xmlns:cc="http://creativecommons.org/ns#"
   xmlns:rdf="http://www.w3.org/1999/02/22-rdf-syntax-ns#"
   xmlns:svg="http://www.w3.org/2000/svg"
   xmlns="http://www.w3.org/2000/svg"
   xmlns:sodipodi="http://sodipodi.sourceforge.net/DTD/sodipodi-0.dtd"
   xmlns:inkscape="http://www.inkscape.org/namespaces/inkscape"
   version="1.1"
   id="Layer_1"
   x="0px"
   y="0px"
   width="144px"
   height="144px"
   viewBox="0 0 144 144"
   enable-background="new 0 0 144 144"
   xml:space="preserve"
   inkscape:version="0.48.1 "
   sodipodi:docname="Katy_Marchese_logo.svg"><metadata
   id="metadata51"><rdf:RDF><cc:Work
       rdf:about=""><dc:format>image/svg+xml</dc:format><dc:type
         rdf:resource="http://purl.org/dc/dcmitype/StillImage" /><dc:title></dc:title></cc:Work></rdf:RDF></metadata><defs
   id="defs49" /><sodipodi:namedview
   pagecolor="#ffffff"
   bordercolor="#666666"
   borderopacity="1"
   objecttolerance="10"
   gridtolerance="10"
   guidetolerance="10"
   inkscape:pageopacity="0"
   inkscape:pageshadow="2"
   inkscape:window-width="640"
   inkscape:window-height="480"
   id="namedview47"
   showgrid="false"
   inkscape:zoom="1.8125"
   inkscape:cx="72"
   inkscape:cy="72"
   inkscape:window-x="0"
   inkscape:window-y="0"
   inkscape:window-maximized="0"
   inkscape:current-layer="Layer_1" />
<path
   fill="none"
   stroke="#000000"
   stroke-width="2"
   stroke-miterlimit="10"
   d="M135.992,71.033  c0,34.24-27.758,61.998-61.999,61.998c-34.243,0-62-27.758-62-61.998c0-34.244,27.757-62.001,62-62.001  C108.234,9.032,135.992,36.789,135.992,71.033z"
   id="path3" />
<g
   id="g5">
	<g
   id="g7">
		<rect
   x="40.855"
   y="40.826"
   width="5.986"
   height="63.188"
   id="rect9" />
		<path
   d="M46.341,41.326v62.188h-4.986V41.326H46.341 M47.341,40.326h-6.986v64.188h6.986V40.326L47.341,40.326z"
   id="path11" />
	</g>
	<g
   id="g13">
		<g
   id="g15">
			<polygon
   points="100.17,104.277 100.17,45.718 106.155,41.343 106.155,104.277    "
   id="polygon17" />
			<path
   d="M105.655,42.328v61.449h-4.985V45.972L105.655,42.328 M106.655,40.358l-6.985,5.105v59.313h6.985V40.358L106.655,40.358z     "
   id="path19" />
		</g>
	</g>
	<g
   id="g21">
		<polygon
   points="84.097,58.067 105.999,41.224 105.916,48.84 87.745,62.816   "
   id="polygon23" />
		<path
   d="M105.488,42.248l-0.069,6.344L87.837,62.115l-3.039-3.956L105.488,42.248 M106.511,40.2L83.396,57.976l4.258,5.542    l18.76-14.429L106.511,40.2L106.511,40.2z"
   id="path25" />
	</g>
	<g
   id="g27">
		<polygon
   points="69.335,48.675 69.366,41.148 91.284,58.001 87.634,62.747   "
   id="polygon29" />
		<path
   d="M69.862,42.16l20.721,15.934l-3.04,3.953L69.836,48.43L69.862,42.16 M68.87,40.136l-0.036,8.785l18.891,14.527l4.26-5.538    L68.87,40.136L68.87,40.136z"
   id="path31" />
	</g>
	<g
   id="g33">
		<polygon
   points="69.458,104.277 69.458,41.343 75.442,45.718 75.442,104.277   "
   id="polygon35" />
		<path
   d="M69.958,42.328l4.985,3.644v57.806h-4.985V42.328 M68.958,40.358v64.419h6.985V45.464L68.958,40.358L68.958,40.358z"
   id="path37" />
	</g>
	
		<rect
   x="54.73"
   y="36.963"
   transform="matrix(-0.6386 -0.7696 0.7696 -0.6386 53.8074 132.8058)"
   stroke="#000000"
   stroke-miterlimit="10"
   width="6.723"
   height="33.609"
   id="rect39" />
	<g
   id="g41">
		<rect
   x="60.65"
   y="54.979"
   transform="matrix(-0.9439 0.3302 -0.3302 -0.9439 150.0509 134.018)"
   width="5.984"
   height="49.55"
   id="rect43" />
		<path
   d="M57.979,56.018l16.031,45.826l-4.705,1.646l-16.03-45.826L57.979,56.018 M58.593,54.743L52,57.05l16.69,47.713    l6.593-2.305L58.593,54.743L58.593,54.743z"
   id="path45" />
	</g>
</g>
</svg>