<?xml version="1.0" encoding="UTF-8" standalone="no"?>
<!-- Generator: Adobe Illustrator 15.1.0, SVG Export Plug-In . SVG Version: 6.00 Build 0)  -->

<svg
   xmlns:dc="http://purl.org/dc/elements/1.1/"
   xmlns:cc="http://creativecommons.org/ns#"
   xmlns:rdf="http://www.w3.org/1999/02/22-rdf-syntax-ns#"
   xmlns:svg="http://www.w3.org/2000/svg"
   xmlns="http://www.w3.org/2000/svg"
   xmlns:sodipodi="http://sodipodi.sourceforge.net/DTD/sodipodi-0.dtd"
   xmlns:inkscape="http://www.inkscape.org/namespaces/inkscape"
   version="1.1"
   id="Layer_1"
   x="0px"
   y="0px"
   width="144px"
   height="144px"
   viewBox="0 0 144 144"
   enable-background="new 0 0 144 144"
   xml:space="preserve"
   inkscape:version="0.48.1 "
   sodipodi:docname="KatyLogoV2.svg"><metadata
   id="metadata51"><rdf:RDF><cc:Work
       rdf:about=""><dc:format>image/svg+xml</dc:format><dc:type
         rdf:resource="http://purl.org/dc/dcmitype/StillImage" /><dc:title></dc:title></cc:Work></rdf:RDF></metadata><defs
   id="defs49" /><sodipodi:namedview
   pagecolor="#ffffff"
   bordercolor="#666666"
   borderopacity="1"
   objecttolerance="10"
   gridtolerance="10"
   guidetolerance="10"
   inkscape:pageopacity="0"
   inkscape:pageshadow="2"
   inkscape:window-width="1418"
   inkscape:window-height="824"
   id="namedview47"
   showgrid="false"
   inkscape:zoom="3.625"
   inkscape:cx="63.512204"
   inkscape:cy="84.681966"
   inkscape:window-x="0"
   inkscape:window-y="0"
   inkscape:window-maximized="0"
   inkscape:current-layer="layer1" />


<g
   inkscape:groupmode="layer"
   id="layer3"
   inkscape:label="Original"
   style="display:none"
   sodipodi:insensitive="true"><path
     style="fill:none;stroke:#000000;stroke-width:2;stroke-miterlimit:10"
     inkscape:connector-curvature="0"
     stroke-miterlimit="10"
     d="m 135.37881,71.449776 c 0,34.240004 -27.758,61.998004 -61.999,61.998004 -34.243,0 -62,-27.758 -62,-61.998004 0,-34.244 27.757,-62.0010004 62,-62.0010004 34.241,0 61.999,27.7570004 61.999,62.0010004 z"
     id="path3" /><g
     style="fill:#00ff00"
     id="g7"
     transform="translate(-0.61318986,0.41677562)"><rect
       style="fill:#00ff00"
       id="rect9"
       height="63.188"
       width="5.9860001"
       y="40.826"
       x="40.855" /><path
       style="fill:#00ff00"
       id="path11"
       d="m 46.341,41.326 v 62.188 H 41.355 V 41.326 h 4.986 m 1,-1 h -6.986 v 64.188 h 6.986 V 40.326 l 0,0 z"
       inkscape:connector-curvature="0" /></g><g
     style="fill:#00ff00"
     id="g13"
     transform="translate(-0.61318986,0.41677562)"><g
       style="fill:#00ff00"
       id="g15"><polygon
         style="fill:#00ff00"
         id="polygon17"
         points="106.155,104.277 100.17,104.277 100.17,45.718 106.155,41.343 " /><path
         style="fill:#00ff00"
         id="path19"
         d="m 105.655,42.328 v 61.449 H 100.67 V 45.972 l 4.985,-3.644 m 1,-1.97 -6.985,5.105 v 59.313 h 6.985 V 40.358 l 0,0 z"
         inkscape:connector-curvature="0" /></g></g><g
     style="fill:#00ff00"
     id="g21"
     transform="translate(-0.61318986,0.41677562)"><polygon
       style="fill:#00ff00"
       id="polygon23"
       points="87.745,62.816 84.097,58.067 105.999,41.224 105.916,48.84 " /><path
       style="fill:#00ff00"
       id="path25"
       d="m 105.488,42.248 -0.069,6.344 -17.582,13.523 -3.039,-3.956 20.69,-15.911 m 1.023,-2.048 -23.115,17.776 4.258,5.542 18.76,-14.429 0.097,-8.889 0,0 z"
       inkscape:connector-curvature="0" /></g><g
     style="fill:#00ff00"
     id="g27"
     transform="translate(-0.61318986,0.41677562)"><polygon
       style="fill:#00ff00"
       id="polygon29"
       points="87.634,62.747 69.335,48.675 69.366,41.148 91.284,58.001 " /><path
       style="fill:#00ff00"
       id="path31"
       d="m 69.862,42.16 20.721,15.934 -3.04,3.953 -17.707,-13.617 0.026,-6.27 m -0.992,-2.024 -0.036,8.785 18.891,14.527 4.26,-5.538 -23.115,-17.774 0,0 z"
       inkscape:connector-curvature="0" /></g><g
     style="fill:#00ff00"
     id="g33"
     transform="translate(-0.61318986,0.41677562)"><polygon
       style="fill:#00ff00"
       id="polygon35"
       points="75.442,104.277 69.458,104.277 69.458,41.343 75.442,45.718 " /><path
       style="fill:#00ff00"
       id="path37"
       d="m 69.958,42.328 4.985,3.644 v 57.806 h -4.985 v -61.45 m -1,-1.97 v 64.419 h 6.985 V 45.464 l -6.985,-5.106 0,0 z"
       inkscape:connector-curvature="0" /></g><rect
     id="rect39"
     height="33.610584"
     width="6.7233162"
     stroke-miterlimit="10"
     transform="matrix(-0.63856995,-0.76956379,0.76956379,-0.63856995,0,0)"
     y="-7.1708579"
     x="-81.758919"
     style="fill:#00ff00;stroke:none" /><g
     style="fill:#00ff00"
     id="g41"
     transform="translate(-0.61318986,0.41677562)"><rect
       style="fill:#00ff00"
       id="rect43"
       height="49.549999"
       width="5.9840002"
       transform="matrix(-0.9439,0.3302,-0.3302,-0.9439,150.0509,134.018)"
       y="54.979"
       x="60.650002" /><path
       style="fill:#00ff00"
       id="path45"
       d="m 57.979,56.018 16.031,45.826 -4.705,1.646 -16.03,-45.826 4.704,-1.646 M 58.593,54.743 52,57.05 l 16.69,47.713 6.593,-2.305 -16.69,-47.715 0,0 z"
       inkscape:connector-curvature="0" /></g></g><g
   inkscape:groupmode="layer"
   id="layer1"
   inkscape:label="Trace"
   style="display:inline"><path
     style="fill:none;stroke:#000000;stroke-width:1px;stroke-linecap:butt;stroke-linejoin:miter;stroke-opacity:1"
     d="m 105.7931,40.827586 0,64.137934 -7.034479,0 0,-50.068968 -11.724138,8.965517 -12,-8.827586 0,50.206897 -6.896552,0 -15.132015,-42.840137 -6.360843,5.460826 -0.02438,36.965521 -6.758621,0 0,-0.13793 -0.413793,-64.275867 7.172414,0 0,18.206897 21.793103,-18.068966 18.62069,14.344828 z"
     id="path3178"
     inkscape:connector-curvature="0"
     sodipodi:nodetypes="ccccccccccccccccccc" /><path
     style="fill:none;stroke:#000000;stroke-width:1px;stroke-linecap:butt;stroke-linejoin:miter;stroke-opacity:1"
     d="m 58.425626,57.728321 9.712305,-8.21108 0,34.896552 z"
     id="path3968"
     inkscape:connector-curvature="0"
     sodipodi:nodetypes="cccc" /><path
     sodipodi:type="arc"
     style="fill:none;stroke:#000000;stroke-opacity:1"
     id="path3972"
     sodipodi:cx="86.413322"
     sodipodi:cy="77.4832"
     sodipodi:rx="61.445141"
     sodipodi:ry="61.445141"
     d="m 147.85846,77.4832 a 61.445141,61.445141 0 1 1 -122.890278,0 61.445141,61.445141 0 1 1 122.890278,0 z"
     transform="matrix(1.0235748,0,0,1.0235748,-15.023353,-7.5666214)" /></g></svg>