  999
file created by gear template generator
  0
SECTION
  2
HEADER
  9
$ACADVER
  1
AC1006
  9
$INSBASE
  10
0.0
  20
0.0
  30
0.0
  9
$EXTMIN
  10
0.0
  20
0.0
  9
$EXTMAX
  10
10000.0
  20
10000.0
  0
ENDSEC
  0
SECTION
  2
ENTITIES
  0
LINE
  8
0
  10
44.97398
  20
24.80728
  30
0
  11
44.97398
  21
24.80728
  31
0
  0
LINE
  8
0
  10
44.97398
  20
24.80728
  30
0
  11
45.03705
  21
24.80337
  31
0
  0
LINE
  8
0
  10
45.03705
  20
24.80337
  30
0
  11
45.1002
  21
24.79792
  31
0
  0
LINE
  8
0
  10
45.1002
  20
24.79792
  30
0
  11
45.16341
  21
24.79114
  31
0
  0
LINE
  8
0
  10
45.16341
  20
24.79114
  30
0
  11
45.28998
  21
24.77418
  31
0
  0
LINE
  8
0
  10
45.28998
  20
24.77418
  30
0
  11
45.4167
  21
24.75324
  31
0
  0
LINE
  8
0
  10
45.4167
  20
24.75324
  30
0
  11
45.54355
  21
24.72875
  31
0
  0
LINE
  8
0
  10
45.54355
  20
24.72875
  30
0
  11
45.79752
  21
24.67032
  31
0
  0
LINE
  8
0
  10
45.79752
  20
24.67032
  30
0
  11
46.05171
  21
24.60052
  31
0
  0
LINE
  8
0
  10
46.05171
  20
24.60052
  30
0
  11
46.30597
  21
24.5204
  31
0
  0
LINE
  8
0
  10
46.30597
  20
24.5204
  30
0
  11
46.56017
  21
24.43066
  31
0
  0
LINE
  8
0
  10
46.56017
  20
24.43066
  30
0
  11
46.81418
  21
24.33183
  31
0
  0
LINE
  8
0
  10
46.81418
  20
24.33183
  30
0
  11
47.06789
  21
24.22432
  31
0
  0
LINE
  8
0
  10
47.06789
  20
24.22432
  30
0
  11
47.32118
  21
24.10846
  31
0
  0
LINE
  8
0
  10
47.32118
  20
24.10846
  30
0
  11
47.5108
  21
24.01625
  31
0
  0
LINE
  8
0
  10
47.5108
  20
24.01625
  30
0
  11
47.47298
  21
22.39107
  31
0
  0
LINE
  8
0
  10
47.47298
  20
22.39107
  30
0
  11
47.27926
  21
22.30777
  31
0
  0
LINE
  8
0
  10
47.27926
  20
22.30777
  30
0
  11
47.02086
  21
22.20382
  31
0
  0
LINE
  8
0
  10
47.02086
  20
22.20382
  30
0
  11
46.76242
  21
22.10824
  31
0
  0
LINE
  8
0
  10
46.76242
  20
22.10824
  30
0
  11
46.50409
  21
22.02134
  31
0
  0
LINE
  8
0
  10
46.50409
  20
22.02134
  30
0
  11
46.24599
  21
21.94352
  31
0
  0
LINE
  8
0
  10
46.24599
  20
21.94352
  30
0
  11
45.98828
  21
21.87531
  31
0
  0
LINE
  8
0
  10
45.98828
  20
21.87531
  30
0
  11
45.73112
  21
21.81742
  31
0
  0
LINE
  8
0
  10
45.73112
  20
21.81742
  30
0
  11
45.47471
  21
21.77086
  31
0
  0
LINE
  8
0
  10
45.47471
  20
21.77086
  30
0
  11
45.34685
  21
21.7523
  31
0
  0
LINE
  8
0
  10
45.34685
  20
21.7523
  30
0
  11
45.21929
  21
21.73728
  31
0
  0
LINE
  8
0
  10
45.21929
  20
21.73728
  30
0
  11
45.09207
  21
21.72622
  31
0
  0
LINE
  8
0
  10
45.09207
  20
21.72622
  30
0
  11
45.02862
  21
21.7224
  31
0
  0
LINE
  8
0
  10
45.02862
  20
21.7224
  30
0
  11
44.96528
  21
21.71989
  31
0
  0
LINE
  8
0
  10
44.96528
  20
21.71989
  30
0
  11
44.90209
  21
21.71891
  31
0
  0
LINE
  8
0
  10
44.90209
  20
21.71891
  30
0
  11
44.64446
  21
19.88577
  31
0
  0
LINE
  8
0
  10
44.64446
  20
19.88577
  30
0
  11
44.70494
  21
19.86742
  31
0
  0
LINE
  8
0
  10
44.70494
  20
19.86742
  30
0
  11
44.76512
  21
19.84755
  31
0
  0
LINE
  8
0
  10
44.76512
  20
19.84755
  30
0
  11
44.82507
  21
19.82638
  31
0
  0
LINE
  8
0
  10
44.82507
  20
19.82638
  30
0
  11
44.94431
  21
19.78069
  31
0
  0
LINE
  8
0
  10
44.94431
  20
19.78069
  30
0
  11
45.06279
  21
19.73108
  31
0
  0
LINE
  8
0
  10
45.06279
  20
19.73108
  30
0
  11
45.18057
  21
19.67801
  31
0
  0
LINE
  8
0
  10
45.18057
  20
19.67801
  30
0
  11
45.41422
  21
19.56258
  31
0
  0
LINE
  8
0
  10
45.41422
  20
19.56258
  30
0
  11
45.64546
  21
19.43604
  31
0
  0
LINE
  8
0
  10
45.64546
  20
19.43604
  30
0
  11
45.87439
  21
19.29944
  31
0
  0
LINE
  8
0
  10
45.87439
  20
19.29944
  30
0
  11
46.10104
  21
19.1535
  31
0
  0
LINE
  8
0
  10
46.10104
  20
19.1535
  30
0
  11
46.32541
  21
18.99875
  31
0
  0
LINE
  8
0
  10
46.32541
  20
18.99875
  30
0
  11
46.54749
  21
18.83564
  31
0
  0
LINE
  8
0
  10
46.54749
  20
18.83564
  30
0
  11
46.76723
  21
18.66449
  31
0
  0
LINE
  8
0
  10
46.76723
  20
18.66449
  30
0
  11
46.93048
  21
18.53103
  31
0
  0
LINE
  8
0
  10
46.93048
  20
18.53103
  30
0
  11
46.51888
  21
16.95838
  31
0
  0
LINE
  8
0
  10
46.51888
  20
16.95838
  30
0
  11
46.31118
  21
16.922
  31
0
  0
LINE
  8
0
  10
46.31118
  20
16.922
  30
0
  11
46.03577
  21
16.88045
  31
0
  0
LINE
  8
0
  10
46.03577
  20
16.88045
  30
0
  11
45.76226
  21
16.84704
  31
0
  0
LINE
  8
0
  10
45.76226
  20
16.84704
  30
0
  11
45.49085
  21
16.82205
  31
0
  0
LINE
  8
0
  10
45.49085
  20
16.82205
  30
0
  11
45.22176
  21
16.80586
  31
0
  0
LINE
  8
0
  10
45.22176
  20
16.80586
  30
0
  11
44.95527
  21
16.79892
  31
0
  0
LINE
  8
0
  10
44.95527
  20
16.79892
  30
0
  11
44.69169
  21
16.80189
  31
0
  0
LINE
  8
0
  10
44.69169
  20
16.80189
  30
0
  11
44.43145
  21
16.81572
  31
0
  0
LINE
  8
0
  10
44.43145
  20
16.81572
  30
0
  11
44.30276
  21
16.82715
  31
0
  0
LINE
  8
0
  10
44.30276
  20
16.82715
  30
0
  11
44.17517
  21
16.84194
  31
0
  0
LINE
  8
0
  10
44.17517
  20
16.84194
  30
0
  11
44.04883
  21
16.86053
  31
0
  0
LINE
  8
0
  10
44.04883
  20
16.86053
  30
0
  11
43.98621
  21
16.87144
  31
0
  0
LINE
  8
0
  10
43.98621
  20
16.87144
  30
0
  11
43.924
  21
16.8836
  31
0
  0
LINE
  8
0
  10
43.924
  20
16.8836
  30
0
  11
43.86229
  21
16.89723
  31
0
  0
LINE
  8
0
  10
43.86229
  20
16.89723
  30
0
  11
43.18885
  21
15.17291
  31
0
  0
LINE
  8
0
  10
43.18885
  20
15.17291
  30
0
  11
43.24346
  21
15.14111
  31
0
  0
LINE
  8
0
  10
43.24346
  20
15.14111
  30
0
  11
43.29745
  21
15.10789
  31
0
  0
LINE
  8
0
  10
43.29745
  20
15.10789
  30
0
  11
43.35089
  21
15.07347
  31
0
  0
LINE
  8
0
  10
43.35089
  20
15.07347
  30
0
  11
43.45638
  21
15.00151
  31
0
  0
LINE
  8
0
  10
43.45638
  20
15.00151
  30
0
  11
43.56023
  21
14.92592
  31
0
  0
LINE
  8
0
  10
43.56023
  20
14.92592
  30
0
  11
43.6626
  21
14.84711
  31
0
  0
LINE
  8
0
  10
43.6626
  20
14.84711
  30
0
  11
43.86333
  21
14.68091
  31
0
  0
LINE
  8
0
  10
43.86333
  20
14.68091
  30
0
  11
44.05916
  21
14.50446
  31
0
  0
LINE
  8
0
  10
44.05916
  20
14.50446
  30
0
  11
44.25041
  21
14.31874
  31
0
  0
LINE
  8
0
  10
44.25041
  20
14.31874
  30
0
  11
44.43729
  21
14.12447
  31
0
  0
LINE
  8
0
  10
44.43729
  20
14.12447
  30
0
  11
44.61993
  21
13.92215
  31
0
  0
LINE
  8
0
  10
44.61993
  20
13.92215
  30
0
  11
44.79841
  21
13.71222
  31
0
  0
LINE
  8
0
  10
44.79841
  20
13.71222
  30
0
  11
44.97276
  21
13.495
  31
0
  0
LINE
  8
0
  10
44.97276
  20
13.495
  30
0
  11
45.10083
  21
13.32749
  31
0
  0
LINE
  8
0
  10
45.10083
  20
13.32749
  30
0
  11
44.33764
  21
11.89216
  31
0
  0
LINE
  8
0
  10
44.33764
  20
11.89216
  30
0
  11
44.12716
  21
11.90466
  31
0
  0
LINE
  8
0
  10
44.12716
  20
11.90466
  30
0
  11
43.84958
  21
11.92774
  31
0
  0
LINE
  8
0
  10
43.84958
  20
11.92774
  30
0
  11
43.57574
  21
11.95831
  31
0
  0
LINE
  8
0
  10
43.57574
  20
11.95831
  30
0
  11
43.30588
  21
11.99659
  31
0
  0
LINE
  8
0
  10
43.30588
  20
11.99659
  30
0
  11
43.04031
  21
12.04288
  31
0
  0
LINE
  8
0
  10
43.04031
  20
12.04288
  30
0
  11
42.7794
  21
12.09759
  31
0
  0
LINE
  8
0
  10
42.7794
  20
12.09759
  30
0
  11
42.52361
  21
12.16127
  31
0
  0
LINE
  8
0
  10
42.52361
  20
12.16127
  30
0
  11
42.27358
  21
12.23474
  31
0
  0
LINE
  8
0
  10
42.27358
  20
12.23474
  30
0
  11
42.151
  21
12.27554
  31
0
  0
LINE
  8
0
  10
42.151
  20
12.27554
  30
0
  11
42.03026
  21
12.31936
  31
0
  0
LINE
  8
0
  10
42.03026
  20
12.31936
  30
0
  11
41.91161
  21
12.36658
  31
0
  0
LINE
  8
0
  10
41.91161
  20
12.36658
  30
0
  11
41.85319
  21
12.39164
  31
0
  0
LINE
  8
0
  10
41.85319
  20
12.39164
  30
0
  11
41.79546
  21
12.41782
  31
0
  0
LINE
  8
0
  10
41.79546
  20
12.41782
  30
0
  11
41.73856
  21
12.44531
  31
0
  0
LINE
  8
0
  10
41.73856
  20
12.44531
  30
0
  11
40.68562
  21
10.92278
  31
0
  0
LINE
  8
0
  10
40.68562
  20
10.92278
  30
0
  11
40.73142
  21
10.87924
  31
0
  0
LINE
  8
0
  10
40.73142
  20
10.87924
  30
0
  11
40.77629
  21
10.83447
  31
0
  0
LINE
  8
0
  10
40.77629
  20
10.83447
  30
0
  11
40.82036
  21
10.78865
  31
0
  0
LINE
  8
0
  10
40.82036
  20
10.78865
  30
0
  11
40.90641
  21
10.6943
  31
0
  0
LINE
  8
0
  10
40.90641
  20
10.6943
  30
0
  11
40.99003
  21
10.5968
  31
0
  0
LINE
  8
0
  10
40.99003
  20
10.5968
  30
0
  11
41.07146
  21
10.4965
  31
0
  0
LINE
  8
0
  10
41.07146
  20
10.4965
  30
0
  11
41.22845
  21
10.28849
  31
0
  0
LINE
  8
0
  10
41.22845
  20
10.28849
  30
0
  11
41.37831
  21
10.07163
  31
0
  0
LINE
  8
0
  10
41.37831
  20
10.07163
  30
0
  11
41.52158
  21
9.84682
  31
0
  0
LINE
  8
0
  10
41.52158
  20
9.84682
  30
0
  11
41.65862
  21
9.61468
  31
0
  0
LINE
  8
0
  10
41.65862
  20
9.61468
  30
0
  11
41.78968
  21
9.3757
  31
0
  0
LINE
  8
0
  10
41.78968
  20
9.3757
  30
0
  11
41.91493
  21
9.13026
  31
0
  0
LINE
  8
0
  10
41.91493
  20
9.13026
  30
0
  11
42.03448
  21
8.8787
  31
0
  0
LINE
  8
0
  10
42.03448
  20
8.8787
  30
0
  11
42.12047
  21
8.68617
  31
0
  0
LINE
  8
0
  10
42.12047
  20
8.68617
  30
0
  11
41.04685
  21
7.46552
  31
0
  0
LINE
  8
0
  10
41.04685
  20
7.46552
  30
0
  11
40.84492
  21
7.52623
  31
0
  0
LINE
  8
0
  10
40.84492
  20
7.52623
  30
0
  11
40.58015
  21
7.6127
  31
0
  0
LINE
  8
0
  10
40.58015
  20
7.6127
  30
0
  11
40.32074
  21
7.7056
  31
0
  0
LINE
  8
0
  10
40.32074
  20
7.7056
  30
0
  11
40.06698
  21
7.80508
  31
0
  0
LINE
  8
0
  10
40.06698
  20
7.80508
  30
0
  11
39.81925
  21
7.91137
  31
0
  0
LINE
  8
0
  10
39.81925
  20
7.91137
  30
0
  11
39.57799
  21
8.02477
  31
0
  0
LINE
  8
0
  10
39.57799
  20
8.02477
  30
0
  11
39.34378
  21
8.14572
  31
0
  0
LINE
  8
0
  10
39.34378
  20
8.14572
  30
0
  11
39.11742
  21
8.27488
  31
0
  0
LINE
  8
0
  10
39.11742
  20
8.27488
  30
0
  11
39.00756
  21
8.34285
  31
0
  0
LINE
  8
0
  10
39.00756
  20
8.34285
  30
0
  11
38.90018
  21
8.41333
  31
0
  0
LINE
  8
0
  10
38.90018
  20
8.41333
  30
0
  11
38.79562
  21
8.48664
  31
0
  0
LINE
  8
0
  10
38.79562
  20
8.48664
  30
0
  11
38.74455
  21
8.5245
  31
0
  0
LINE
  8
0
  10
38.74455
  20
8.5245
  30
0
  11
38.69442
  21
8.56328
  31
0
  0
LINE
  8
0
  10
38.69442
  20
8.56328
  30
0
  11
38.64539
  21
8.60315
  31
0
  0
LINE
  8
0
  10
38.64539
  20
8.60315
  30
0
  11
37.26971
  21
7.36449
  31
0
  0
LINE
  8
0
  10
37.26971
  20
7.36449
  30
0
  11
37.30424
  21
7.31156
  31
0
  0
LINE
  8
0
  10
37.30424
  20
7.31156
  30
0
  11
37.33757
  21
7.25765
  31
0
  0
LINE
  8
0
  10
37.33757
  20
7.25765
  30
0
  11
37.36989
  21
7.2029
  31
0
  0
LINE
  8
0
  10
37.36989
  20
7.2029
  30
0
  11
37.43186
  21
7.09125
  31
0
  0
LINE
  8
0
  10
37.43186
  20
7.09125
  30
0
  11
37.49074
  21
6.9771
  31
0
  0
LINE
  8
0
  10
37.49074
  20
6.9771
  30
0
  11
37.54685
  21
6.86072
  31
0
  0
LINE
  8
0
  10
37.54685
  20
6.86072
  30
0
  11
37.65163
  21
6.62211
  31
0
  0
LINE
  8
0
  10
37.65163
  20
6.62211
  30
0
  11
37.74744
  21
6.37654
  31
0
  0
LINE
  8
0
  10
37.74744
  20
6.37654
  30
0
  11
37.835
  21
6.12475
  31
0
  0
LINE
  8
0
  10
37.835
  20
6.12475
  30
0
  11
37.91482
  21
5.86726
  31
0
  0
LINE
  8
0
  10
37.91482
  20
5.86726
  30
0
  11
37.98723
  21
5.6045
  31
0
  0
LINE
  8
0
  10
37.98723
  20
5.6045
  30
0
  11
38.0525
  21
5.3368
  31
0
  0
LINE
  8
0
  10
38.0525
  20
5.3368
  30
0
  11
38.11082
  21
5.06444
  31
0
  0
LINE
  8
0
  10
38.11082
  20
5.06444
  30
0
  11
38.15009
  21
4.85727
  31
0
  0
LINE
  8
0
  10
38.15009
  20
4.85727
  30
0
  11
36.82391
  21
3.91712
  31
0
  0
LINE
  8
0
  10
36.82391
  20
3.91712
  30
0
  11
36.64142
  21
4.02276
  31
0
  0
LINE
  8
0
  10
36.64142
  20
4.02276
  30
0
  11
36.40373
  21
4.16796
  31
0
  0
LINE
  8
0
  10
36.40373
  20
4.16796
  30
0
  11
36.17273
  21
4.31818
  31
0
  0
LINE
  8
0
  10
36.17273
  20
4.31818
  30
0
  11
35.94876
  21
4.4735
  31
0
  0
LINE
  8
0
  10
35.94876
  20
4.4735
  30
0
  11
35.73222
  21
4.63405
  31
0
  0
LINE
  8
0
  10
35.73222
  20
4.63405
  30
0
  11
35.52361
  21
4.80004
  31
0
  0
LINE
  8
0
  10
35.52361
  20
4.80004
  30
0
  11
35.3236
  21
4.97174
  31
0
  0
LINE
  8
0
  10
35.3236
  20
4.97174
  30
0
  11
35.13314
  21
5.14962
  31
0
  0
LINE
  8
0
  10
35.13314
  20
5.14962
  30
0
  11
35.04191
  21
5.24109
  31
0
  0
LINE
  8
0
  10
35.04191
  20
5.24109
  30
0
  11
34.95368
  21
5.33443
  31
0
  0
LINE
  8
0
  10
34.95368
  20
5.33443
  30
0
  11
34.86884
  21
5.42988
  31
0
  0
LINE
  8
0
  10
34.86884
  20
5.42988
  30
0
  11
34.82788
  21
5.47849
  31
0
  0
LINE
  8
0
  10
34.82788
  20
5.47849
  30
0
  11
34.78805
  21
5.5278
  31
0
  0
LINE
  8
0
  10
34.78805
  20
5.5278
  30
0
  11
34.74953
  21
5.5779
  31
0
  0
LINE
  8
0
  10
34.74953
  20
5.5779
  30
0
  11
33.12528
  21
4.68988
  31
0
  0
LINE
  8
0
  10
33.12528
  20
4.68988
  30
0
  11
33.14667
  21
4.63041
  31
0
  0
LINE
  8
0
  10
33.14667
  20
4.63041
  30
0
  11
33.16667
  21
4.57027
  31
0
  0
LINE
  8
0
  10
33.16667
  20
4.57027
  30
0
  11
33.18549
  21
4.50954
  31
0
  0
LINE
  8
0
  10
33.18549
  20
4.50954
  30
0
  11
33.22005
  21
4.38661
  31
0
  0
LINE
  8
0
  10
33.22005
  20
4.38661
  30
0
  11
33.25101
  21
4.26195
  31
0
  0
LINE
  8
0
  10
33.25101
  20
4.26195
  30
0
  11
33.27877
  21
4.13578
  31
0
  0
LINE
  8
0
  10
33.27877
  20
4.13578
  30
0
  11
33.32571
  21
3.87943
  31
0
  0
LINE
  8
0
  10
33.32571
  20
3.87943
  30
0
  11
33.3623
  21
3.61839
  31
0
  0
LINE
  8
0
  10
33.3623
  20
3.61839
  30
0
  11
33.38943
  21
3.35319
  31
0
  0
LINE
  8
0
  10
33.38943
  20
3.35319
  30
0
  11
33.40771
  21
3.08424
  31
0
  0
LINE
  8
0
  10
33.40771
  20
3.08424
  30
0
  11
33.41758
  21
2.81186
  31
0
  0
LINE
  8
0
  10
33.41758
  20
2.81186
  30
0
  11
33.41935
  21
2.53632
  31
0
  0
LINE
  8
0
  10
33.41935
  20
2.53632
  30
0
  11
33.41329
  21
2.25785
  31
0
  0
LINE
  8
0
  10
33.41329
  20
2.25785
  30
0
  11
33.40372
  21
2.04721
  31
0
  0
LINE
  8
0
  10
33.40372
  20
2.04721
  30
0
  11
31.89648
  21
1.43824
  31
0
  0
LINE
  8
0
  10
31.89648
  20
1.43824
  30
0
  11
31.74327
  21
1.58312
  31
0
  0
LINE
  8
0
  10
31.74327
  20
1.58312
  30
0
  11
31.54547
  21
1.77922
  31
0
  0
LINE
  8
0
  10
31.54547
  20
1.77922
  30
0
  11
31.35534
  21
1.97866
  31
0
  0
LINE
  8
0
  10
31.35534
  20
1.97866
  30
0
  11
31.17323
  21
2.18144
  31
0
  0
LINE
  8
0
  10
31.17323
  20
2.18144
  30
0
  11
30.99955
  21
2.38761
  31
0
  0
LINE
  8
0
  10
30.99955
  20
2.38761
  30
0
  11
30.83484
  21
2.59723
  31
0
  0
LINE
  8
0
  10
30.83484
  20
2.59723
  30
0
  11
30.67983
  21
2.81043
  31
0
  0
LINE
  8
0
  10
30.67983
  20
2.81043
  30
0
  11
30.53552
  21
3.02743
  31
0
  0
LINE
  8
0
  10
30.53552
  20
3.02743
  30
0
  11
30.46784
  21
3.13748
  31
0
  0
LINE
  8
0
  10
30.46784
  20
3.13748
  30
0
  11
30.40351
  21
3.24866
  31
0
  0
LINE
  8
0
  10
30.40351
  20
3.24866
  30
0
  11
30.34298
  21
3.36109
  31
0
  0
LINE
  8
0
  10
30.34298
  20
3.36109
  30
0
  11
30.31433
  21
3.41784
  31
0
  0
LINE
  8
0
  10
30.31433
  20
3.41784
  30
0
  11
30.28694
  21
3.475
  31
0
  0
LINE
  8
0
  10
30.28694
  20
3.475
  30
0
  11
30.26102
  21
3.53264
  31
0
  0
LINE
  8
0
  10
30.26102
  20
3.53264
  30
0
  11
28.47576
  21
3.04313
  31
0
  0
LINE
  8
0
  10
28.47576
  20
3.04313
  30
0
  11
28.48286
  21
2.98033
  31
0
  0
LINE
  8
0
  10
28.48286
  20
2.98033
  30
0
  11
28.48845
  21
2.9172
  31
0
  0
LINE
  8
0
  10
28.48845
  20
2.9172
  30
0
  11
28.49276
  21
2.85377
  31
0
  0
LINE
  8
0
  10
28.49276
  20
2.85377
  30
0
  11
28.49803
  21
2.72618
  31
0
  0
LINE
  8
0
  10
28.49803
  20
2.72618
  30
0
  11
28.49941
  21
2.59775
  31
0
  0
LINE
  8
0
  10
28.49941
  20
2.59775
  30
0
  11
28.49733
  21
2.46857
  31
0
  0
LINE
  8
0
  10
28.49733
  20
2.46857
  30
0
  11
28.48388
  21
2.20831
  31
0
  0
LINE
  8
0
  10
28.48388
  20
2.20831
  30
0
  11
28.45928
  21
1.94587
  31
0
  0
LINE
  8
0
  10
28.45928
  20
1.94587
  30
0
  11
28.42453
  21
1.68156
  31
0
  0
LINE
  8
0
  10
28.42453
  20
1.68156
  30
0
  11
28.38029
  21
1.41564
  31
0
  0
LINE
  8
0
  10
28.38029
  20
1.41564
  30
0
  11
28.32707
  21
1.14832
  31
0
  0
LINE
  8
0
  10
28.32707
  20
1.14832
  30
0
  11
28.26526
  21
0.8798
  31
0
  0
LINE
  8
0
  10
28.26526
  20
0.8798
  30
0
  11
28.19514
  21
0.61024
  31
0
  0
LINE
  8
0
  10
28.19514
  20
0.61024
  30
0
  11
28.13725
  21
0.40748
  31
0
  0
LINE
  8
0
  10
28.13725
  20
0.40748
  30
0
  11
26.5302
  21
0.16253
  31
0
  0
LINE
  8
0
  10
26.5302
  20
0.16253
  30
0
  11
26.41453
  21
0.33883
  31
0
  0
LINE
  8
0
  10
26.41453
  20
0.33883
  30
0
  11
26.26729
  21
0.57526
  31
0
  0
LINE
  8
0
  10
26.26729
  20
0.57526
  30
0
  11
26.12828
  21
0.81317
  31
0
  0
LINE
  8
0
  10
26.12828
  20
0.81317
  30
0
  11
25.99784
  21
1.05249
  31
0
  0
LINE
  8
0
  10
25.99784
  20
1.05249
  30
0
  11
25.87638
  21
1.29315
  31
0
  0
LINE
  8
0
  10
25.87638
  20
1.29315
  30
0
  11
25.76446
  21
1.5351
  31
0
  0
LINE
  8
0
  10
25.76446
  20
1.5351
  30
0
  11
25.66279
  21
1.7783
  31
0
  0
LINE
  8
0
  10
25.66279
  20
1.7783
  30
0
  11
25.57241
  21
2.02274
  31
0
  0
LINE
  8
0
  10
25.57241
  20
2.02274
  30
0
  11
25.53194
  21
2.14543
  31
0
  0
LINE
  8
0
  10
25.53194
  20
2.14543
  30
0
  11
25.49499
  21
2.26844
  31
0
  0
LINE
  8
0
  10
25.49499
  20
2.26844
  30
0
  11
25.46201
  21
2.39181
  31
0
  0
LINE
  8
0
  10
25.46201
  20
2.39181
  30
0
  11
25.44723
  21
2.45364
  31
0
  0
LINE
  8
0
  10
25.44723
  20
2.45364
  30
0
  11
25.43376
  21
2.51557
  31
0
  0
LINE
  8
0
  10
25.43376
  20
2.51557
  30
0
  11
25.42182
  21
2.57763
  31
0
  0
LINE
  8
0
  10
25.42182
  20
2.57763
  30
0
  11
23.5718
  21
2.51303
  31
0
  0
LINE
  8
0
  10
23.5718
  20
2.51303
  30
0
  11
23.56422
  21
2.45029
  31
0
  0
LINE
  8
0
  10
23.56422
  20
2.45029
  30
0
  11
23.55511
  21
2.38756
  31
0
  0
LINE
  8
0
  10
23.55511
  20
2.38756
  30
0
  11
23.54467
  21
2.32485
  31
0
  0
LINE
  8
0
  10
23.54467
  20
2.32485
  30
0
  11
23.52038
  21
2.19949
  31
0
  0
LINE
  8
0
  10
23.52038
  20
2.19949
  30
0
  11
23.4921
  21
2.07419
  31
0
  0
LINE
  8
0
  10
23.4921
  20
2.07419
  30
0
  11
23.46028
  21
1.94898
  31
0
  0
LINE
  8
0
  10
23.46028
  20
1.94898
  30
0
  11
23.38718
  21
1.69884
  31
0
  0
LINE
  8
0
  10
23.38718
  20
1.69884
  30
0
  11
23.30272
  21
1.44914
  31
0
  0
LINE
  8
0
  10
23.30272
  20
1.44914
  30
0
  11
23.20794
  21
1.19997
  31
0
  0
LINE
  8
0
  10
23.20794
  20
1.19997
  30
0
  11
23.10358
  21
0.95142
  31
0
  0
LINE
  8
0
  10
23.10358
  20
0.95142
  30
0
  11
22.99015
  21
0.70358
  31
0
  0
LINE
  8
0
  10
22.99015
  20
0.70358
  30
0
  11
22.86807
  21
0.45656
  31
0
  0
LINE
  8
0
  10
22.86807
  20
0.45656
  30
0
  11
22.73768
  21
0.21043
  31
0
  0
LINE
  8
0
  10
22.73768
  20
0.21043
  30
0
  11
22.63459
  21
0.02649
  31
0
  0
LINE
  8
0
  10
22.63459
  20
0.02649
  30
0
  11
21.01436
  21
0.15875
  31
0
  0
LINE
  8
0
  10
21.01436
  20
0.15875
  30
0
  11
20.94247
  21
0.35697
  31
0
  0
LINE
  8
0
  10
20.94247
  20
0.35697
  30
0
  11
20.85373
  21
0.62099
  31
0
  0
LINE
  8
0
  10
20.85373
  20
0.62099
  30
0
  11
20.77333
  21
0.88454
  31
0
  0
LINE
  8
0
  10
20.77333
  20
0.88454
  30
0
  11
20.70159
  21
1.14749
  31
0
  0
LINE
  8
0
  10
20.70159
  20
1.14749
  30
0
  11
20.63892
  21
1.40968
  31
0
  0
LINE
  8
0
  10
20.63892
  20
1.40968
  30
0
  11
20.58581
  21
1.67092
  31
0
  0
LINE
  8
0
  10
20.58581
  20
1.67092
  30
0
  11
20.54296
  21
1.93101
  31
0
  0
LINE
  8
0
  10
20.54296
  20
1.93101
  30
0
  11
20.51139
  21
2.1897
  31
0
  0
LINE
  8
0
  10
20.51139
  20
2.1897
  30
0
  11
20.5003
  21
2.31841
  31
0
  0
LINE
  8
0
  10
20.5003
  20
2.31841
  30
0
  11
20.49272
  21
2.44663
  31
0
  0
LINE
  8
0
  10
20.49272
  20
2.44663
  30
0
  11
20.48908
  21
2.57428
  31
0
  0
LINE
  8
0
  10
20.48908
  20
2.57428
  30
0
  11
20.48895
  21
2.63785
  31
0
  0
LINE
  8
0
  10
20.48895
  20
2.63785
  30
0
  11
20.49013
  21
2.70122
  31
0
  0
LINE
  8
0
  10
20.49013
  20
2.70122
  30
0
  11
20.49283
  21
2.76436
  31
0
  0
LINE
  8
0
  10
20.49283
  20
2.76436
  30
0
  11
18.67777
  21
3.12814
  31
0
  0
LINE
  8
0
  10
18.67777
  20
3.12814
  30
0
  11
18.65593
  21
3.06884
  31
0
  0
LINE
  8
0
  10
18.65593
  20
3.06884
  30
0
  11
18.6326
  21
3.00991
  31
0
  0
LINE
  8
0
  10
18.6326
  20
3.00991
  30
0
  11
18.60798
  21
2.9513
  31
0
  0
LINE
  8
0
  10
18.60798
  20
2.9513
  30
0
  11
18.55543
  21
2.83491
  31
0
  0
LINE
  8
0
  10
18.55543
  20
2.83491
  30
0
  11
18.49902
  21
2.71952
  31
0
  0
LINE
  8
0
  10
18.49902
  20
2.71952
  30
0
  11
18.43918
  21
2.60502
  31
0
  0
LINE
  8
0
  10
18.43918
  20
2.60502
  30
0
  11
18.31036
  21
2.37848
  31
0
  0
LINE
  8
0
  10
18.31036
  20
2.37848
  30
0
  11
18.1706
  21
2.15499
  31
0
  0
LINE
  8
0
  10
18.1706
  20
2.15499
  30
0
  11
18.02092
  21
1.93439
  31
0
  0
LINE
  8
0
  10
18.02092
  20
1.93439
  30
0
  11
17.86204
  21
1.71661
  31
0
  0
LINE
  8
0
  10
17.86204
  20
1.71661
  30
0
  11
17.69451
  21
1.50161
  31
0
  0
LINE
  8
0
  10
17.69451
  20
1.50161
  30
0
  11
17.51876
  21
1.2894
  31
0
  0
LINE
  8
0
  10
17.51876
  20
1.2894
  30
0
  11
17.33512
  21
1.07998
  31
0
  0
LINE
  8
0
  10
17.33512
  20
1.07998
  30
0
  11
17.1924
  21
0.92476
  31
0
  0
LINE
  8
0
  10
17.1924
  20
0.92476
  30
0
  11
15.64634
  21
1.42711
  31
0
  0
LINE
  8
0
  10
15.64634
  20
1.42711
  30
0
  11
15.6221
  21
1.63657
  31
0
  0
LINE
  8
0
  10
15.6221
  20
1.63657
  30
0
  11
15.59663
  21
1.91393
  31
0
  0
LINE
  8
0
  10
15.59663
  20
1.91393
  30
0
  11
15.57918
  21
2.18893
  31
0
  0
LINE
  8
0
  10
15.57918
  20
2.18893
  30
0
  11
15.57002
  21
2.46133
  31
0
  0
LINE
  8
0
  10
15.57002
  20
2.46133
  30
0
  11
15.5695
  21
2.7309
  31
0
  0
LINE
  8
0
  10
15.5695
  20
2.7309
  30
0
  11
15.57807
  21
2.99735
  31
0
  0
LINE
  8
0
  10
15.57807
  20
2.99735
  30
0
  11
15.59636
  21
3.26031
  31
0
  0
LINE
  8
0
  10
15.59636
  20
3.26031
  30
0
  11
15.6253
  21
3.51931
  31
0
  0
LINE
  8
0
  10
15.6253
  20
3.51931
  30
0
  11
15.64419
  21
3.64711
  31
0
  0
LINE
  8
0
  10
15.64419
  20
3.64711
  30
0
  11
15.66638
  21
3.77362
  31
0
  0
LINE
  8
0
  10
15.66638
  20
3.77362
  30
0
  11
15.69228
  21
3.89867
  31
0
  0
LINE
  8
0
  10
15.69228
  20
3.89867
  30
0
  11
15.70681
  21
3.96055
  31
0
  0
LINE
  8
0
  10
15.70681
  20
3.96055
  30
0
  11
15.72257
  21
4.02195
  31
0
  0
LINE
  8
0
  10
15.72257
  20
4.02195
  30
0
  11
15.73976
  21
4.08276
  31
0
  0
LINE
  8
0
  10
15.73976
  20
4.08276
  30
0
  11
14.05752
  21
4.85532
  31
0
  0
LINE
  8
0
  10
14.05752
  20
4.85532
  30
0
  11
14.0226
  21
4.80265
  31
0
  0
LINE
  8
0
  10
14.0226
  20
4.80265
  30
0
  11
13.9863
  21
4.75069
  31
0
  0
LINE
  8
0
  10
13.9863
  20
4.75069
  30
0
  11
13.94883
  21
4.69934
  31
0
  0
LINE
  8
0
  10
13.94883
  20
4.69934
  30
0
  11
13.87086
  21
4.59821
  31
0
  0
LINE
  8
0
  10
13.87086
  20
4.59821
  30
0
  11
13.78935
  21
4.49893
  31
0
  0
LINE
  8
0
  10
13.78935
  20
4.49893
  30
0
  11
13.70473
  21
4.40132
  31
0
  0
LINE
  8
0
  10
13.70473
  20
4.40132
  30
0
  11
13.52713
  21
4.21059
  31
0
  0
LINE
  8
0
  10
13.52713
  20
4.21059
  30
0
  11
13.33959
  21
4.02536
  31
0
  0
LINE
  8
0
  10
13.33959
  20
4.02536
  30
0
  11
13.14307
  21
3.84522
  31
0
  0
LINE
  8
0
  10
13.14307
  20
3.84522
  30
0
  11
12.93826
  21
3.66995
  31
0
  0
LINE
  8
0
  10
12.93826
  20
3.66995
  30
0
  11
12.72566
  21
3.49939
  31
0
  0
LINE
  8
0
  10
12.72566
  20
3.49939
  30
0
  11
12.50571
  21
3.33342
  31
0
  0
LINE
  8
0
  10
12.50571
  20
3.33342
  30
0
  11
12.27873
  21
3.172
  31
0
  0
LINE
  8
0
  10
12.27873
  20
3.172
  30
0
  11
12.10405
  21
3.05388
  31
0
  0
LINE
  8
0
  10
12.10405
  20
3.05388
  30
0
  11
10.71552
  21
3.89923
  31
0
  0
LINE
  8
0
  10
10.71552
  20
3.89923
  30
0
  11
10.74024
  21
4.10864
  31
0
  0
LINE
  8
0
  10
10.74024
  20
4.10864
  30
0
  11
10.77942
  21
4.3844
  31
0
  0
LINE
  8
0
  10
10.77942
  20
4.3844
  30
0
  11
10.82586
  21
4.656
  31
0
  0
LINE
  8
0
  10
10.82586
  20
4.656
  30
0
  11
10.87976
  21
4.92318
  31
0
  0
LINE
  8
0
  10
10.87976
  20
4.92318
  30
0
  11
10.94142
  21
5.1856
  31
0
  0
LINE
  8
0
  10
10.94142
  20
5.1856
  30
0
  11
11.01121
  21
5.44289
  31
0
  0
LINE
  8
0
  10
11.01121
  20
5.44289
  30
0
  11
11.08965
  21
5.69455
  31
0
  0
LINE
  8
0
  10
11.08965
  20
5.69455
  30
0
  11
11.17754
  21
5.93989
  31
0
  0
LINE
  8
0
  10
11.17754
  20
5.93989
  30
0
  11
11.22539
  21
6.05989
  31
0
  0
LINE
  8
0
  10
11.22539
  20
6.05989
  30
0
  11
11.27616
  21
6.17788
  31
0
  0
LINE
  8
0
  10
11.27616
  20
6.17788
  30
0
  11
11.3302
  21
6.29358
  31
0
  0
LINE
  8
0
  10
11.3302
  20
6.29358
  30
0
  11
11.35861
  21
6.35044
  31
0
  0
LINE
  8
0
  10
11.35861
  20
6.35044
  30
0
  11
11.3881
  21
6.40655
  31
0
  0
LINE
  8
0
  10
11.3881
  20
6.40655
  30
0
  11
11.41886
  21
6.46176
  31
0
  0
LINE
  8
0
  10
11.41886
  20
6.46176
  30
0
  11
9.96012
  21
7.60144
  31
0
  0
LINE
  8
0
  10
9.96012
  20
7.60144
  30
0
  11
9.91399
  21
7.55825
  31
0
  0
LINE
  8
0
  10
9.91399
  20
7.55825
  30
0
  11
9.86669
  21
7.51606
  31
0
  0
LINE
  8
0
  10
9.86669
  20
7.51606
  30
0
  11
9.81839
  21
7.47473
  31
0
  0
LINE
  8
0
  10
9.81839
  20
7.47473
  30
0
  11
9.7192
  21
7.39431
  31
0
  0
LINE
  8
0
  10
9.7192
  20
7.39431
  30
0
  11
9.617
  21
7.3165
  31
0
  0
LINE
  8
0
  10
9.617
  20
7.3165
  30
0
  11
9.51214
  21
7.24104
  31
0
  0
LINE
  8
0
  10
9.51214
  20
7.24104
  30
0
  11
9.29535
  21
7.09641
  31
0
  0
LINE
  8
0
  10
9.29535
  20
7.09641
  30
0
  11
9.07015
  21
6.95942
  31
0
  0
LINE
  8
0
  10
9.07015
  20
6.95942
  30
0
  11
8.83738
  21
6.82946
  31
0
  0
LINE
  8
0
  10
8.83738
  20
6.82946
  30
0
  11
8.59767
  21
6.70615
  31
0
  0
LINE
  8
0
  10
8.59767
  20
6.70615
  30
0
  11
8.35147
  21
6.58921
  31
0
  0
LINE
  8
0
  10
8.35147
  20
6.58921
  30
0
  11
8.09917
  21
6.47844
  31
0
  0
LINE
  8
0
  10
8.09917
  20
6.47844
  30
0
  11
7.84108
  21
6.37371
  31
0
  0
LINE
  8
0
  10
7.84108
  20
6.37371
  30
0
  11
7.64387
  21
6.29906
  31
0
  0
LINE
  8
0
  10
7.64387
  20
6.29906
  30
0
  11
6.48772
  21
7.44184
  31
0
  0
LINE
  8
0
  10
6.48772
  20
7.44184
  30
0
  11
6.56006
  21
7.6399
  31
0
  0
LINE
  8
0
  10
6.56006
  20
7.6399
  30
0
  11
6.66178
  21
7.8992
  31
0
  0
LINE
  8
0
  10
6.66178
  20
7.8992
  30
0
  11
6.7696
  21
8.15277
  31
0
  0
LINE
  8
0
  10
6.7696
  20
8.15277
  30
0
  11
6.88367
  21
8.40031
  31
0
  0
LINE
  8
0
  10
6.88367
  20
8.40031
  30
0
  11
7.00419
  21
8.64144
  31
0
  0
LINE
  8
0
  10
7.00419
  20
8.64144
  30
0
  11
7.13143
  21
8.87571
  31
0
  0
LINE
  8
0
  10
7.13143
  20
8.87571
  30
0
  11
7.26579
  21
9.10249
  31
0
  0
LINE
  8
0
  10
7.26579
  20
9.10249
  30
0
  11
7.40789
  21
9.32095
  31
0
  0
LINE
  8
0
  10
7.40789
  20
9.32095
  30
0
  11
7.48213
  21
9.42668
  31
0
  0
LINE
  8
0
  10
7.48213
  20
9.42668
  30
0
  11
7.55874
  21
9.52977
  31
0
  0
LINE
  8
0
  10
7.55874
  20
9.52977
  30
0
  11
7.638
  21
9.62989
  31
0
  0
LINE
  8
0
  10
7.638
  20
9.62989
  30
0
  11
7.67876
  21
9.67867
  31
0
  0
LINE
  8
0
  10
7.67876
  20
9.67867
  30
0
  11
7.7204
  21
9.72647
  31
0
  0
LINE
  8
0
  10
7.7204
  20
9.72647
  30
0
  11
7.76306
  21
9.77309
  31
0
  0
LINE
  8
0
  10
7.76306
  20
9.77309
  30
0
  11
6.60647
  21
11.21847
  31
0
  0
LINE
  8
0
  10
6.60647
  20
11.21847
  30
0
  11
6.55163
  21
11.18707
  31
0
  0
LINE
  8
0
  10
6.55163
  20
11.18707
  30
0
  11
6.49587
  21
11.15693
  31
0
  0
LINE
  8
0
  10
6.49587
  20
11.15693
  30
0
  11
6.43934
  21
11.12786
  31
0
  0
LINE
  8
0
  10
6.43934
  20
11.12786
  30
0
  11
6.32427
  21
11.07248
  31
0
  0
LINE
  8
0
  10
6.32427
  20
11.07248
  30
0
  11
6.20689
  21
11.02034
  31
0
  0
LINE
  8
0
  10
6.20689
  20
11.02034
  30
0
  11
6.08745
  21
10.97109
  31
0
  0
LINE
  8
0
  10
6.08745
  20
10.97109
  30
0
  11
5.84315
  21
10.88036
  31
0
  0
LINE
  8
0
  10
5.84315
  20
10.88036
  30
0
  11
5.59242
  21
10.79899
  31
0
  0
LINE
  8
0
  10
5.59242
  20
10.79899
  30
0
  11
5.33596
  21
10.72622
  31
0
  0
LINE
  8
0
  10
5.33596
  20
10.72622
  30
0
  11
5.07427
  21
10.66151
  31
0
  0
LINE
  8
0
  10
5.07427
  20
10.66151
  30
0
  11
4.80774
  21
10.6045
  31
0
  0
LINE
  8
0
  10
4.80774
  20
10.6045
  30
0
  11
4.5367
  21
10.5549
  31
0
  0
LINE
  8
0
  10
4.5367
  20
10.5549
  30
0
  11
4.26141
  21
10.51252
  31
0
  0
LINE
  8
0
  10
4.26141
  20
10.51252
  30
0
  11
4.05231
  21
10.48536
  31
0
  0
LINE
  8
0
  10
4.05231
  20
10.48536
  30
0
  11
3.19086
  21
11.86396
  31
0
  0
LINE
  8
0
  10
3.19086
  20
11.86396
  30
0
  11
3.30693
  21
12.04
  31
0
  0
LINE
  8
0
  10
3.30693
  20
12.04
  30
0
  11
3.46571
  21
12.26885
  31
0
  0
LINE
  8
0
  10
3.46571
  20
12.26885
  30
0
  11
3.6291
  21
12.49072
  31
0
  0
LINE
  8
0
  10
3.6291
  20
12.49072
  30
0
  11
3.79718
  21
12.70528
  31
0
  0
LINE
  8
0
  10
3.79718
  20
12.70528
  30
0
  11
3.97006
  21
12.91212
  31
0
  0
LINE
  8
0
  10
3.97006
  20
12.91212
  30
0
  11
4.14789
  21
13.11072
  31
0
  0
LINE
  8
0
  10
4.14789
  20
13.11072
  30
0
  11
4.33093
  21
13.30041
  31
0
  0
LINE
  8
0
  10
4.33093
  20
13.30041
  30
0
  11
4.51958
  21
13.48021
  31
0
  0
LINE
  8
0
  10
4.51958
  20
13.48021
  30
0
  11
4.6162
  21
13.56597
  31
0
  0
LINE
  8
0
  10
4.6162
  20
13.56597
  30
0
  11
4.71452
  21
13.64862
  31
0
  0
LINE
  8
0
  10
4.71452
  20
13.64862
  30
0
  11
4.81474
  21
13.72776
  31
0
  0
LINE
  8
0
  10
4.81474
  20
13.72776
  30
0
  11
4.86565
  21
13.76583
  31
0
  0
LINE
  8
0
  10
4.86565
  20
13.76583
  30
0
  11
4.91719
  21
13.80273
  31
0
  0
LINE
  8
0
  10
4.91719
  20
13.80273
  30
0
  11
4.96944
  21
13.83826
  31
0
  0
LINE
  8
0
  10
4.96944
  20
13.83826
  30
0
  11
4.17736
  21
15.5114
  31
0
  0
LINE
  8
0
  10
4.17736
  20
15.5114
  30
0
  11
4.11676
  21
15.4935
  31
0
  0
LINE
  8
0
  10
4.11676
  20
15.4935
  30
0
  11
4.05555
  21
15.47703
  31
0
  0
LINE
  8
0
  10
4.05555
  20
15.47703
  30
0
  11
3.99384
  21
15.46178
  31
0
  0
LINE
  8
0
  10
3.99384
  20
15.46178
  30
0
  11
3.8691
  21
15.43443
  31
0
  0
LINE
  8
0
  10
3.8691
  20
15.43443
  30
0
  11
3.74286
  21
15.41077
  31
0
  0
LINE
  8
0
  10
3.74286
  20
15.41077
  30
0
  11
3.61528
  21
15.39039
  31
0
  0
LINE
  8
0
  10
3.61528
  20
15.39039
  30
0
  11
3.35664
  21
15.35844
  31
0
  0
LINE
  8
0
  10
3.35664
  20
15.35844
  30
0
  11
3.09391
  21
15.33709
  31
0
  0
LINE
  8
0
  10
3.09391
  20
15.33709
  30
0
  11
2.82758
  21
15.32542
  31
0
  0
LINE
  8
0
  10
2.82758
  20
15.32542
  30
0
  11
2.55802
  21
15.32281
  31
0
  0
LINE
  8
0
  10
2.55802
  20
15.32281
  30
0
  11
2.28553
  21
15.3288
  31
0
  0
LINE
  8
0
  10
2.28553
  20
15.3288
  30
0
  11
2.01035
  21
15.34305
  31
0
  0
LINE
  8
0
  10
2.01035
  20
15.34305
  30
0
  11
1.73271
  21
15.36529
  31
0
  0
LINE
  8
0
  10
1.73271
  20
15.36529
  30
0
  11
1.52298
  21
15.38709
  31
0
  0
LINE
  8
0
  10
1.52298
  20
15.38709
  30
0
  11
1.00268
  21
16.92719
  31
0
  0
LINE
  8
0
  10
1.00268
  20
16.92719
  30
0
  11
1.15622
  21
17.07172
  31
0
  0
LINE
  8
0
  10
1.15622
  20
17.07172
  30
0
  11
1.36349
  21
17.25778
  31
0
  0
LINE
  8
0
  10
1.36349
  20
17.25778
  30
0
  11
1.57365
  21
17.43599
  31
0
  0
LINE
  8
0
  10
1.57365
  20
17.43599
  30
0
  11
1.78668
  21
17.606
  31
0
  0
LINE
  8
0
  10
1.78668
  20
17.606
  30
0
  11
2.0026
  21
17.7674
  31
0
  0
LINE
  8
0
  10
2.0026
  20
17.7674
  30
0
  11
2.22144
  21
17.91964
  31
0
  0
LINE
  8
0
  10
2.22144
  20
17.91964
  30
0
  11
2.44329
  21
18.062
  31
0
  0
LINE
  8
0
  10
2.44329
  20
18.062
  30
0
  11
2.66832
  21
18.19345
  31
0
  0
LINE
  8
0
  10
2.66832
  20
18.19345
  30
0
  11
2.78211
  21
18.25461
  31
0
  0
LINE
  8
0
  10
2.78211
  20
18.25461
  30
0
  11
2.89684
  21
18.31236
  31
0
  0
LINE
  8
0
  10
2.89684
  20
18.31236
  30
0
  11
3.01261
  21
18.36626
  31
0
  0
LINE
  8
0
  10
3.01261
  20
18.36626
  30
0
  11
3.07093
  21
18.39156
  31
0
  0
LINE
  8
0
  10
3.07093
  20
18.39156
  30
0
  11
3.12958
  21
18.41558
  31
0
  0
LINE
  8
0
  10
3.12958
  20
18.41558
  30
0
  11
3.18863
  21
18.4381
  31
0
  0
LINE
  8
0
  10
3.18863
  20
18.4381
  30
0
  11
2.80375
  21
20.24881
  31
0
  0
LINE
  8
0
  10
2.80375
  20
20.24881
  30
0
  11
2.74065
  21
20.24537
  31
0
  0
LINE
  8
0
  10
2.74065
  20
20.24537
  30
0
  11
2.67729
  21
20.24346
  31
0
  0
LINE
  8
0
  10
2.67729
  20
20.24346
  30
0
  11
2.61372
  21
20.24285
  31
0
  0
LINE
  8
0
  10
2.61372
  20
20.24285
  30
0
  11
2.48605
  21
20.245
  31
0
  0
LINE
  8
0
  10
2.48605
  20
20.245
  30
0
  11
2.35775
  21
20.25109
  31
0
  0
LINE
  8
0
  10
2.35775
  20
20.25109
  30
0
  11
2.22891
  21
20.26068
  31
0
  0
LINE
  8
0
  10
2.22891
  20
20.26068
  30
0
  11
1.96987
  21
20.28924
  31
0
  0
LINE
  8
0
  10
1.96987
  20
20.28924
  30
0
  11
1.7093
  21
20.32905
  31
0
  0
LINE
  8
0
  10
1.7093
  20
20.32905
  30
0
  11
1.44746
  21
20.37912
  31
0
  0
LINE
  8
0
  10
1.44746
  20
20.37912
  30
0
  11
1.18456
  21
20.43874
  31
0
  0
LINE
  8
0
  10
1.18456
  20
20.43874
  30
0
  11
0.9208
  21
20.50741
  31
0
  0
LINE
  8
0
  10
0.9208
  20
20.50741
  30
0
  11
0.65632
  21
20.58474
  31
0
  0
LINE
  8
0
  10
0.65632
  20
20.58474
  30
0
  11
0.39129
  21
20.67041
  31
0
  0
LINE
  8
0
  10
0.39129
  20
20.67041
  30
0
  11
0.19224
  21
20.73999
  31
0
  0
LINE
  8
0
  10
0.19224
  20
20.73999
  30
0
  11
0.04114
  21
22.35857
  31
0
  0
LINE
  8
0
  10
0.04114
  20
22.35857
  30
0
  11
0.22388
  21
22.46379
  31
0
  0
LINE
  8
0
  10
0.22388
  20
22.46379
  30
0
  11
0.46847
  21
22.59703
  31
0
  0
LINE
  8
0
  10
0.46847
  20
22.59703
  30
0
  11
0.71406
  21
22.72198
  31
0
  0
LINE
  8
0
  10
0.71406
  20
22.72198
  30
0
  11
0.96056
  21
22.83828
  31
0
  0
LINE
  8
0
  10
0.96056
  20
22.83828
  30
0
  11
1.20787
  21
22.94554
  31
0
  0
LINE
  8
0
  10
1.20787
  20
22.94554
  30
0
  11
1.45592
  21
23.0432
  31
0
  0
LINE
  8
0
  10
1.45592
  20
23.0432
  30
0
  11
1.70462
  21
23.13056
  31
0
  0
LINE
  8
0
  10
1.70462
  20
23.13056
  30
0
  11
1.9539
  21
23.20657
  31
0
  0
LINE
  8
0
  10
1.9539
  20
23.20657
  30
0
  11
2.07873
  21
23.23984
  31
0
  0
LINE
  8
0
  10
2.07873
  20
23.23984
  30
0
  11
2.20369
  21
23.26958
  31
0
  0
LINE
  8
0
  10
2.20369
  20
23.26958
  30
0
  11
2.32876
  21
23.29532
  31
0
  0
LINE
  8
0
  10
2.32876
  20
23.29532
  30
0
  11
2.39135
  21
23.30649
  31
0
  0
LINE
  8
0
  10
2.39135
  20
23.30649
  30
0
  11
2.45396
  21
23.31634
  31
0
  0
LINE
  8
0
  10
2.45396
  20
23.31634
  30
0
  11
2.51661
  21
23.32464
  31
0
  0
LINE
  8
0
  10
2.51661
  20
23.32464
  30
0
  11
2.55968
  21
25.17529
  31
0
  0
LINE
  8
0
  10
2.55968
  20
25.17529
  30
0
  11
2.49749
  21
25.1865
  31
0
  0
LINE
  8
0
  10
2.49749
  20
25.1865
  30
0
  11
2.4354
  21
25.19925
  31
0
  0
LINE
  8
0
  10
2.4354
  20
25.19925
  30
0
  11
2.37341
  21
25.21332
  31
0
  0
LINE
  8
0
  10
2.37341
  20
25.21332
  30
0
  11
2.24966
  21
25.24486
  31
0
  0
LINE
  8
0
  10
2.24966
  20
25.24486
  30
0
  11
2.12623
  21
25.28037
  31
0
  0
LINE
  8
0
  10
2.12623
  20
25.28037
  30
0
  11
2.00308
  21
25.31942
  31
0
  0
LINE
  8
0
  10
2.00308
  20
25.31942
  30
0
  11
1.75761
  21
25.40694
  31
0
  0
LINE
  8
0
  10
1.75761
  20
25.40694
  30
0
  11
1.51324
  21
25.50578
  31
0
  0
LINE
  8
0
  10
1.51324
  20
25.50578
  30
0
  11
1.27
  21
25.61488
  31
0
  0
LINE
  8
0
  10
1.27
  20
25.61488
  30
0
  11
1.02794
  21
25.73352
  31
0
  0
LINE
  8
0
  10
1.02794
  20
25.73352
  30
0
  11
0.78712
  21
25.86117
  31
0
  0
LINE
  8
0
  10
0.78712
  20
25.86117
  30
0
  11
0.54761
  21
25.9974
  31
0
  0
LINE
  8
0
  10
0.54761
  20
25.9974
  30
0
  11
0.30948
  21
26.14188
  31
0
  0
LINE
  8
0
  10
0.30948
  20
26.14188
  30
0
  11
0.13185
  21
26.25549
  31
0
  0
LINE
  8
0
  10
0.13185
  20
26.25549
  30
0
  11
0.35809
  21
27.86529
  31
0
  0
LINE
  8
0
  10
0.35809
  20
27.86529
  30
0
  11
0.56016
  21
27.92553
  31
0
  0
LINE
  8
0
  10
0.56016
  20
27.92553
  30
0
  11
0.82889
  21
27.99878
  31
0
  0
LINE
  8
0
  10
0.82889
  20
27.99878
  30
0
  11
1.09667
  21
28.06372
  31
0
  0
LINE
  8
0
  10
1.09667
  20
28.06372
  30
0
  11
1.36335
  21
28.12004
  31
0
  0
LINE
  8
0
  10
1.36335
  20
28.12004
  30
0
  11
1.62873
  21
28.16737
  31
0
  0
LINE
  8
0
  10
1.62873
  20
28.16737
  30
0
  11
1.89262
  21
28.2052
  31
0
  0
LINE
  8
0
  10
1.89262
  20
28.2052
  30
0
  11
2.15476
  21
28.23284
  31
0
  0
LINE
  8
0
  10
2.15476
  20
28.23284
  30
0
  11
2.41485
  21
28.24932
  31
0
  0
LINE
  8
0
  10
2.41485
  20
28.24932
  30
0
  11
2.54399
  21
28.25291
  31
0
  0
LINE
  8
0
  10
2.54399
  20
28.25291
  30
0
  11
2.67244
  21
28.25302
  31
0
  0
LINE
  8
0
  10
2.67244
  20
28.25302
  30
0
  11
2.80008
  21
28.24923
  31
0
  0
LINE
  8
0
  10
2.80008
  20
28.24923
  30
0
  11
2.86355
  21
28.24566
  31
0
  0
LINE
  8
0
  10
2.86355
  20
28.24566
  30
0
  11
2.92674
  21
28.24081
  31
0
  0
LINE
  8
0
  10
2.92674
  20
28.24081
  30
0
  11
2.98962
  21
28.23444
  31
0
  0
LINE
  8
0
  10
2.98962
  20
28.23444
  30
0
  11
3.45832
  21
30.02527
  31
0
  0
LINE
  8
0
  10
3.45832
  20
30.02527
  30
0
  11
3.40039
  21
30.05052
  31
0
  0
LINE
  8
0
  10
3.40039
  20
30.05052
  30
0
  11
3.34291
  21
30.07725
  31
0
  0
LINE
  8
0
  10
3.34291
  20
30.07725
  30
0
  11
3.28583
  21
30.10523
  31
0
  0
LINE
  8
0
  10
3.28583
  20
30.10523
  30
0
  11
3.1727
  21
30.16445
  31
0
  0
LINE
  8
0
  10
3.1727
  20
30.16445
  30
0
  11
3.06078
  21
30.22748
  31
0
  0
LINE
  8
0
  10
3.06078
  20
30.22748
  30
0
  11
2.94996
  21
30.29387
  31
0
  0
LINE
  8
0
  10
2.94996
  20
30.29387
  30
0
  11
2.73129
  21
30.43565
  31
0
  0
LINE
  8
0
  10
2.73129
  20
30.43565
  30
0
  11
2.5163
  21
30.58817
  31
0
  0
LINE
  8
0
  10
2.5163
  20
30.58817
  30
0
  11
2.30478
  21
30.75043
  31
0
  0
LINE
  8
0
  10
2.30478
  20
30.75043
  30
0
  11
2.09661
  21
30.9217
  31
0
  0
LINE
  8
0
  10
2.09661
  20
30.9217
  30
0
  11
1.89171
  21
31.10144
  31
0
  0
LINE
  8
0
  10
1.89171
  20
31.10144
  30
0
  11
1.69008
  21
31.28924
  31
0
  0
LINE
  8
0
  10
1.69008
  20
31.28924
  30
0
  11
1.49169
  21
31.48474
  31
0
  0
LINE
  8
0
  10
1.49169
  20
31.48474
  30
0
  11
1.34504
  21
31.63625
  31
0
  0
LINE
  8
0
  10
1.34504
  20
31.63625
  30
0
  11
1.93643
  21
33.15048
  31
0
  0
LINE
  8
0
  10
1.93643
  20
33.15048
  30
0
  11
2.14694
  21
33.1625
  31
0
  0
LINE
  8
0
  10
2.14694
  20
33.1625
  30
0
  11
2.42532
  21
33.1718
  31
0
  0
LINE
  8
0
  10
2.42532
  20
33.1718
  30
0
  11
2.70086
  21
33.17323
  31
0
  0
LINE
  8
0
  10
2.70086
  20
33.17323
  30
0
  11
2.97334
  21
33.16654
  31
0
  0
LINE
  8
0
  10
2.97334
  20
33.16654
  30
0
  11
3.24248
  21
33.15139
  31
0
  0
LINE
  8
0
  10
3.24248
  20
33.15139
  30
0
  11
3.50798
  21
33.12734
  31
0
  0
LINE
  8
0
  10
3.50798
  20
33.12734
  30
0
  11
3.76943
  21
33.09379
  31
0
  0
LINE
  8
0
  10
3.76943
  20
33.09379
  30
0
  11
4.02631
  21
33.04984
  31
0
  0
LINE
  8
0
  10
4.02631
  20
33.04984
  30
0
  11
4.1528
  21
33.02355
  31
0
  0
LINE
  8
0
  10
4.1528
  20
33.02355
  30
0
  11
4.27781
  21
32.99404
  31
0
  0
LINE
  8
0
  10
4.27781
  20
32.99404
  30
0
  11
4.40113
  21
32.96091
  31
0
  0
LINE
  8
0
  10
4.40113
  20
32.96091
  30
0
  11
4.46207
  21
32.94281
  31
0
  0
LINE
  8
0
  10
4.46207
  20
32.94281
  30
0
  11
4.52244
  21
32.9235
  31
0
  0
LINE
  8
0
  10
4.52244
  20
32.9235
  30
0
  11
4.58215
  21
32.90281
  31
0
  0
LINE
  8
0
  10
4.58215
  20
32.90281
  30
0
  11
5.45122
  21
34.53728
  31
0
  0
LINE
  8
0
  10
5.45122
  20
34.53728
  30
0
  11
5.40067
  21
34.57521
  31
0
  0
LINE
  8
0
  10
5.40067
  20
34.57521
  30
0
  11
5.35091
  21
34.61447
  31
0
  0
LINE
  8
0
  10
5.35091
  20
34.61447
  30
0
  11
5.30182
  21
34.65486
  31
0
  0
LINE
  8
0
  10
5.30182
  20
34.65486
  30
0
  11
5.2054
  21
34.73858
  31
0
  0
LINE
  8
0
  10
5.2054
  20
34.73858
  30
0
  11
5.11103
  21
34.82572
  31
0
  0
LINE
  8
0
  10
5.11103
  20
34.82572
  30
0
  11
5.0185
  21
34.91588
  31
0
  0
LINE
  8
0
  10
5.0185
  20
34.91588
  30
0
  11
4.83842
  21
35.10426
  31
0
  0
LINE
  8
0
  10
4.83842
  20
35.10426
  30
0
  11
4.6644
  21
35.30225
  31
0
  0
LINE
  8
0
  10
4.6644
  20
35.30225
  30
0
  11
4.496
  21
35.50891
  31
0
  0
LINE
  8
0
  10
4.496
  20
35.50891
  30
0
  11
4.33294
  21
35.72357
  31
0
  0
LINE
  8
0
  10
4.33294
  20
35.72357
  30
0
  11
4.17502
  21
35.94572
  31
0
  0
LINE
  8
0
  10
4.17502
  20
35.94572
  30
0
  11
4.02213
  21
36.17496
  31
0
  0
LINE
  8
0
  10
4.02213
  20
36.17496
  30
0
  11
3.87417
  21
36.41094
  31
0
  0
LINE
  8
0
  10
3.87417
  20
36.41094
  30
0
  11
3.76641
  21
36.59219
  31
0
  0
LINE
  8
0
  10
3.76641
  20
36.59219
  30
0
  11
4.69107
  21
37.92922
  31
0
  0
LINE
  8
0
  10
4.69107
  20
37.92922
  30
0
  11
4.89868
  21
37.89237
  31
0
  0
LINE
  8
0
  10
4.89868
  20
37.89237
  30
0
  11
5.1717
  21
37.83722
  31
0
  0
LINE
  8
0
  10
5.1717
  20
37.83722
  30
0
  11
5.44014
  21
37.77507
  31
0
  0
LINE
  8
0
  10
5.44014
  20
37.77507
  30
0
  11
5.70373
  21
37.70572
  31
0
  0
LINE
  8
0
  10
5.70373
  20
37.70572
  30
0
  11
5.96213
  21
37.6289
  31
0
  0
LINE
  8
0
  10
5.96213
  20
37.6289
  30
0
  11
6.21493
  21
37.54428
  31
0
  0
LINE
  8
0
  10
6.21493
  20
37.54428
  30
0
  11
6.46159
  21
37.45133
  31
0
  0
LINE
  8
0
  10
6.46159
  20
37.45133
  30
0
  11
6.70141
  21
37.34933
  31
0
  0
LINE
  8
0
  10
6.70141
  20
37.34933
  30
0
  11
6.81842
  21
37.29458
  31
0
  0
LINE
  8
0
  10
6.81842
  20
37.29458
  30
0
  11
6.93326
  21
37.23704
  31
0
  0
LINE
  8
0
  10
6.93326
  20
37.23704
  30
0
  11
7.04562
  21
37.17636
  31
0
  0
LINE
  8
0
  10
7.04562
  20
37.17636
  30
0
  11
7.10074
  21
37.14469
  31
0
  0
LINE
  8
0
  10
7.10074
  20
37.14469
  30
0
  11
7.15503
  21
37.11199
  31
0
  0
LINE
  8
0
  10
7.15503
  20
37.11199
  30
0
  11
7.20836
  21
37.07808
  31
0
  0
LINE
  8
0
  10
7.20836
  20
37.07808
  30
0
  11
8.43094
  21
38.46807
  31
0
  0
LINE
  8
0
  10
8.43094
  20
38.46807
  30
0
  11
8.3905
  21
38.51664
  31
0
  0
LINE
  8
0
  10
8.3905
  20
38.51664
  30
0
  11
8.35113
  21
38.56631
  31
0
  0
LINE
  8
0
  10
8.35113
  20
38.56631
  30
0
  11
8.31268
  21
38.61694
  31
0
  0
LINE
  8
0
  10
8.31268
  20
38.61694
  30
0
  11
8.23816
  21
38.72063
  31
0
  0
LINE
  8
0
  10
8.23816
  20
38.72063
  30
0
  11
8.16643
  21
38.82719
  31
0
  0
LINE
  8
0
  10
8.16643
  20
38.82719
  30
0
  11
8.09719
  21
38.93626
  31
0
  0
LINE
  8
0
  10
8.09719
  20
38.93626
  30
0
  11
7.96541
  21
39.16109
  31
0
  0
LINE
  8
0
  10
7.96541
  20
39.16109
  30
0
  11
7.84175
  21
39.39388
  31
0
  0
LINE
  8
0
  10
7.84175
  20
39.39388
  30
0
  11
7.72554
  21
39.6338
  31
0
  0
LINE
  8
0
  10
7.72554
  20
39.6338
  30
0
  11
7.61638
  21
39.88028
  31
0
  0
LINE
  8
0
  10
7.61638
  20
39.88028
  30
0
  11
7.51395
  21
40.13286
  31
0
  0
LINE
  8
0
  10
7.51395
  20
40.13286
  30
0
  11
7.41804
  21
40.39118
  31
0
  0
LINE
  8
0
  10
7.41804
  20
40.39118
  30
0
  11
7.3285
  21
40.65492
  31
0
  0
LINE
  8
0
  10
7.3285
  20
40.65492
  30
0
  11
7.26544
  21
40.85613
  31
0
  0
LINE
  8
0
  10
7.26544
  20
40.85613
  30
0
  11
8.47351
  21
41.94389
  31
0
  0
LINE
  8
0
  10
8.47351
  20
41.94389
  30
0
  11
8.66703
  21
41.86014
  31
0
  0
LINE
  8
0
  10
8.66703
  20
41.86014
  30
0
  11
8.91997
  21
41.74352
  31
0
  0
LINE
  8
0
  10
8.91997
  20
41.74352
  30
0
  11
9.16685
  21
41.62114
  31
0
  0
LINE
  8
0
  10
9.16685
  20
41.62114
  30
0
  11
9.40734
  21
41.49287
  31
0
  0
LINE
  8
0
  10
9.40734
  20
41.49287
  30
0
  11
9.64105
  21
41.35854
  31
0
  0
LINE
  8
0
  10
9.64105
  20
41.35854
  30
0
  11
9.86752
  21
41.21789
  31
0
  0
LINE
  8
0
  10
9.86752
  20
41.21789
  30
0
  11
10.08611
  21
41.07057
  31
0
  0
LINE
  8
0
  10
10.08611
  20
41.07057
  30
0
  11
10.29593
  21
40.91601
  31
0
  0
LINE
  8
0
  10
10.29593
  20
40.91601
  30
0
  11
10.39717
  21
40.83575
  31
0
  0
LINE
  8
0
  10
10.39717
  20
40.83575
  30
0
  11
10.49564
  21
40.75327
  31
0
  0
LINE
  8
0
  10
10.49564
  20
40.75327
  30
0
  11
10.59098
  21
40.66832
  31
0
  0
LINE
  8
0
  10
10.59098
  20
40.66832
  30
0
  11
10.63731
  21
40.62479
  31
0
  0
LINE
  8
0
  10
10.63731
  20
40.62479
  30
0
  11
10.6826
  21
40.58045
  31
0
  0
LINE
  8
0
  10
10.6826
  20
40.58045
  30
0
  11
10.72667
  21
40.53515
  31
0
  0
LINE
  8
0
  10
10.72667
  20
40.53515
  30
0
  11
12.23684
  21
41.60574
  31
0
  0
LINE
  8
0
  10
12.23684
  20
41.60574
  30
0
  11
12.20869
  21
41.66232
  31
0
  0
LINE
  8
0
  10
12.20869
  20
41.66232
  30
0
  11
12.18184
  21
41.71973
  31
0
  0
LINE
  8
0
  10
12.18184
  20
41.71973
  30
0
  11
12.1561
  21
41.77786
  31
0
  0
LINE
  8
0
  10
12.1561
  20
41.77786
  30
0
  11
12.10751
  21
41.89595
  31
0
  0
LINE
  8
0
  10
12.10751
  20
41.89595
  30
0
  11
12.06228
  21
42.01617
  31
0
  0
LINE
  8
0
  10
12.06228
  20
42.01617
  30
0
  11
12.02006
  21
42.13827
  31
0
  0
LINE
  8
0
  10
12.02006
  20
42.13827
  30
0
  11
11.94369
  21
42.38743
  31
0
  0
LINE
  8
0
  10
11.94369
  20
42.38743
  30
0
  11
11.87704
  21
42.64246
  31
0
  0
LINE
  8
0
  10
11.87704
  20
42.64246
  30
0
  11
11.8193
  21
42.90272
  31
0
  0
LINE
  8
0
  10
11.8193
  20
42.90272
  30
0
  11
11.76992
  21
43.16773
  31
0
  0
LINE
  8
0
  10
11.76992
  20
43.16773
  30
0
  11
11.7285
  21
43.43713
  31
0
  0
LINE
  8
0
  10
11.7285
  20
43.43713
  30
0
  11
11.69475
  21
43.7106
  31
0
  0
LINE
  8
0
  10
11.69475
  20
43.7106
  30
0
  11
11.66844
  21
43.98788
  31
0
  0
LINE
  8
0
  10
11.66844
  20
43.98788
  30
0
  11
11.65349
  21
44.19821
  31
0
  0
LINE
  8
0
  10
11.65349
  20
44.19821
  30
0
  11
13.07985
  21
44.97804
  31
0
  0
LINE
  8
0
  10
13.07985
  20
44.97804
  30
0
  11
13.24884
  21
44.85193
  31
0
  0
LINE
  8
0
  10
13.24884
  20
44.85193
  30
0
  11
13.46806
  21
44.68012
  31
0
  0
LINE
  8
0
  10
13.46806
  20
44.68012
  30
0
  11
13.68006
  21
44.5041
  31
0
  0
LINE
  8
0
  10
13.68006
  20
44.5041
  30
0
  11
13.88449
  21
44.32383
  31
0
  0
LINE
  8
0
  10
13.88449
  20
44.32383
  30
0
  11
14.08093
  21
44.13922
  31
0
  0
LINE
  8
0
  10
14.08093
  20
44.13922
  30
0
  11
14.26885
  21
43.95014
  31
0
  0
LINE
  8
0
  10
14.26885
  20
43.95014
  30
0
  11
14.44757
  21
43.75638
  31
0
  0
LINE
  8
0
  10
14.44757
  20
43.75638
  30
0
  11
14.6161
  21
43.55759
  31
0
  0
LINE
  8
0
  10
14.6161
  20
43.55759
  30
0
  11
14.69609
  21
43.45615
  31
0
  0
LINE
  8
0
  10
14.69609
  20
43.45615
  30
0
  11
14.77289
  21
43.35319
  31
0
  0
LINE
  8
0
  10
14.77289
  20
43.35319
  30
0
  11
14.84607
  21
43.24854
  31
0
  0
LINE
  8
0
  10
14.84607
  20
43.24854
  30
0
  11
14.88111
  21
43.1955
  31
0
  0
LINE
  8
0
  10
14.88111
  20
43.1955
  30
0
  11
14.91495
  21
43.14191
  31
0
  0
LINE
  8
0
  10
14.91495
  20
43.14191
  30
0
  11
14.94739
  21
43.08767
  31
0
  0
LINE
  8
0
  10
14.94739
  20
43.08767
  30
0
  11
16.66375
  21
43.78113
  31
0
  0
LINE
  8
0
  10
16.66375
  20
43.78113
  30
0
  11
16.64941
  21
43.84267
  31
0
  0
LINE
  8
0
  10
16.64941
  20
43.84267
  30
0
  11
16.63652
  21
43.90473
  31
0
  0
LINE
  8
0
  10
16.63652
  20
43.90473
  30
0
  11
16.62488
  21
43.96723
  31
0
  0
LINE
  8
0
  10
16.62488
  20
43.96723
  30
0
  11
16.60483
  21
44.09334
  31
0
  0
LINE
  8
0
  10
16.60483
  20
44.09334
  30
0
  11
16.58855
  21
44.22075
  31
0
  0
LINE
  8
0
  10
16.58855
  20
44.22075
  30
0
  11
16.57563
  21
44.34929
  31
0
  0
LINE
  8
0
  10
16.57563
  20
44.34929
  30
0
  11
16.55877
  21
44.60936
  31
0
  0
LINE
  8
0
  10
16.55877
  20
44.60936
  30
0
  11
16.55273
  21
44.87288
  31
0
  0
LINE
  8
0
  10
16.55273
  20
44.87288
  30
0
  11
16.55657
  21
45.13944
  31
0
  0
LINE
  8
0
  10
16.55657
  20
45.13944
  30
0
  11
16.56963
  21
45.4087
  31
0
  0
LINE
  8
0
  10
16.56963
  20
45.4087
  30
0
  11
16.59146
  21
45.68038
  31
0
  0
LINE
  8
0
  10
16.59146
  20
45.68038
  30
0
  11
16.62168
  21
45.95426
  31
0
  0
LINE
  8
0
  10
16.62168
  20
45.95426
  30
0
  11
16.66003
  21
46.23014
  31
0
  0
LINE
  8
0
  10
16.66003
  20
46.23014
  30
0
  11
16.69399
  21
46.43825
  31
0
  0
LINE
  8
0
  10
16.69399
  20
46.43825
  30
0
  11
18.26174
  21
46.86812
  31
0
  0
LINE
  8
0
  10
18.26174
  20
46.86812
  30
0
  11
18.39709
  21
46.70643
  31
0
  0
LINE
  8
0
  10
18.39709
  20
46.70643
  30
0
  11
18.57079
  21
46.4887
  31
0
  0
LINE
  8
0
  10
18.57079
  20
46.4887
  30
0
  11
18.73648
  21
46.26853
  31
0
  0
LINE
  8
0
  10
18.73648
  20
46.26853
  30
0
  11
18.89382
  21
46.04598
  31
0
  0
LINE
  8
0
  10
18.89382
  20
46.04598
  30
0
  11
19.04239
  21
45.82104
  31
0
  0
LINE
  8
0
  10
19.04239
  20
45.82104
  30
0
  11
19.18164
  21
45.59372
  31
0
  0
LINE
  8
0
  10
19.18164
  20
45.59372
  30
0
  11
19.31086
  21
45.36396
  31
0
  0
LINE
  8
0
  10
19.31086
  20
45.36396
  30
0
  11
19.429
  21
45.13167
  31
0
  0
LINE
  8
0
  10
19.429
  20
45.13167
  30
0
  11
19.48345
  21
45.01452
  31
0
  0
LINE
  8
0
  10
19.48345
  20
45.01452
  30
0
  11
19.53443
  21
44.89662
  31
0
  0
LINE
  8
0
  10
19.53443
  20
44.89662
  30
0
  11
19.5815
  21
44.77792
  31
0
  0
LINE
  8
0
  10
19.5815
  20
44.77792
  30
0
  11
19.60337
  21
44.71823
  31
0
  0
LINE
  8
0
  10
19.60337
  20
44.71823
  30
0
  11
19.62394
  21
44.65827
  31
0
  0
LINE
  8
0
  10
19.62394
  20
44.65827
  30
0
  11
19.64299
  21
44.59802
  31
0
  0
LINE
  8
0
  10
19.64299
  20
44.59802
  30
0
  11
21.47301
  21
44.87696
  31
0
  0
LINE
  8
0
  10
21.47301
  20
44.87696
  30
0
  11
21.47325
  21
44.94016
  31
0
  0
LINE
  8
0
  10
21.47325
  20
44.94016
  30
0
  11
21.47503
  21
45.00352
  31
0
  0
LINE
  8
0
  10
21.47503
  20
45.00352
  30
0
  11
21.47811
  21
45.06701
  31
0
  0
LINE
  8
0
  10
21.47811
  20
45.06701
  30
0
  11
21.48768
  21
45.19435
  31
0
  0
LINE
  8
0
  10
21.48768
  20
45.19435
  30
0
  11
21.50122
  21
45.32208
  31
0
  0
LINE
  8
0
  10
21.50122
  20
45.32208
  30
0
  11
21.51829
  21
45.45014
  31
0
  0
LINE
  8
0
  10
21.51829
  20
45.45014
  30
0
  11
21.56186
  21
45.70708
  31
0
  0
LINE
  8
0
  10
21.56186
  20
45.70708
  30
0
  11
21.61676
  21
45.96489
  31
0
  0
LINE
  8
0
  10
21.61676
  20
45.96489
  30
0
  11
21.68197
  21
46.22338
  31
0
  0
LINE
  8
0
  10
21.68197
  20
46.22338
  30
0
  11
21.75678
  21
46.48237
  31
0
  0
LINE
  8
0
  10
21.75678
  20
46.48237
  30
0
  11
21.84067
  21
46.74169
  31
0
  0
LINE
  8
0
  10
21.84067
  20
46.74169
  30
0
  11
21.93324
  21
47.00122
  31
0
  0
LINE
  8
0
  10
21.93324
  20
47.00122
  30
0
  11
22.03417
  21
47.26082
  31
0
  0
LINE
  8
0
  10
22.03417
  20
47.26082
  30
0
  11
22.11521
  21
47.45549
  31
0
  0
LINE
  8
0
  10
22.11521
  20
47.45549
  30
0
  11
23.73984
  21
47.51222
  31
0
  0
LINE
  8
0
  10
23.73984
  20
47.51222
  30
0
  11
23.83425
  21
47.32368
  31
0
  0
LINE
  8
0
  10
23.83425
  20
47.32368
  30
0
  11
23.95305
  21
47.07176
  31
0
  0
LINE
  8
0
  10
23.95305
  20
47.07176
  30
0
  11
24.0635
  21
46.81932
  31
0
  0
LINE
  8
0
  10
24.0635
  20
46.81932
  30
0
  11
24.16528
  21
46.56647
  31
0
  0
LINE
  8
0
  10
24.16528
  20
46.56647
  30
0
  11
24.25797
  21
46.31334
  31
0
  0
LINE
  8
0
  10
24.25797
  20
46.31334
  30
0
  11
24.34105
  21
46.06003
  31
0
  0
LINE
  8
0
  10
24.34105
  20
46.06003
  30
0
  11
24.4138
  21
45.80667
  31
0
  0
LINE
  8
0
  10
24.4138
  20
45.80667
  30
0
  11
24.47518
  21
45.55339
  31
0
  0
LINE
  8
0
  10
24.47518
  20
45.55339
  30
0
  11
24.50114
  21
45.42684
  31
0
  0
LINE
  8
0
  10
24.50114
  20
45.42684
  30
0
  11
24.52356
  21
45.30036
  31
0
  0
LINE
  8
0
  10
24.52356
  20
45.30036
  30
0
  11
24.54199
  21
45.174
  31
0
  0
LINE
  8
0
  10
24.54199
  20
45.174
  30
0
  11
24.5495
  21
45.11088
  31
0
  0
LINE
  8
0
  10
24.5495
  20
45.11088
  30
0
  11
24.55569
  21
45.0478
  31
0
  0
LINE
  8
0
  10
24.55569
  20
45.0478
  30
0
  11
24.56034
  21
44.98477
  31
0
  0
LINE
  8
0
  10
24.56034
  20
44.98477
  30
0
  11
26.40536
  21
44.83416
  31
0
  0
LINE
  8
0
  10
26.40536
  20
44.83416
  30
0
  11
26.42016
  21
44.8956
  31
0
  0
LINE
  8
0
  10
26.42016
  20
44.8956
  30
0
  11
26.4365
  21
44.95684
  31
0
  0
LINE
  8
0
  10
26.4365
  20
44.95684
  30
0
  11
26.45415
  21
45.01792
  31
0
  0
LINE
  8
0
  10
26.45415
  20
45.01792
  30
0
  11
26.49283
  21
45.13961
  31
0
  0
LINE
  8
0
  10
26.49283
  20
45.13961
  30
0
  11
26.53546
  21
45.26078
  31
0
  0
LINE
  8
0
  10
26.53546
  20
45.26078
  30
0
  11
26.5816
  21
45.38145
  31
0
  0
LINE
  8
0
  10
26.5816
  20
45.38145
  30
0
  11
26.68325
  21
45.62141
  31
0
  0
LINE
  8
0
  10
26.68325
  20
45.62141
  30
0
  11
26.79612
  21
45.85962
  31
0
  0
LINE
  8
0
  10
26.79612
  20
45.85962
  30
0
  11
26.91918
  21
46.0961
  31
0
  0
LINE
  8
0
  10
26.91918
  20
46.0961
  30
0
  11
27.0517
  21
46.33086
  31
0
  0
LINE
  8
0
  10
27.0517
  20
46.33086
  30
0
  11
27.19314
  21
46.56385
  31
0
  0
LINE
  8
0
  10
27.19314
  20
46.56385
  30
0
  11
27.34306
  21
46.79503
  31
0
  0
LINE
  8
0
  10
27.34306
  20
46.79503
  30
0
  11
27.50115
  21
47.02435
  31
0
  0
LINE
  8
0
  10
27.50115
  20
47.02435
  30
0
  11
27.62489
  21
47.19509
  31
0
  0
LINE
  8
0
  10
27.62489
  20
47.19509
  30
0
  11
29.21881
  21
46.87563
  31
0
  0
LINE
  8
0
  10
29.21881
  20
46.87563
  30
0
  11
29.2672
  21
46.67039
  31
0
  0
LINE
  8
0
  10
29.2672
  20
46.67039
  30
0
  11
29.3247
  21
46.39786
  31
0
  0
LINE
  8
0
  10
29.3247
  20
46.39786
  30
0
  11
29.37396
  21
46.12676
  31
0
  0
LINE
  8
0
  10
29.37396
  20
46.12676
  30
0
  11
29.41468
  21
45.85726
  31
0
  0
LINE
  8
0
  10
29.41468
  20
45.85726
  30
0
  11
29.4465
  21
45.58957
  31
0
  0
LINE
  8
0
  10
29.4465
  20
45.58957
  30
0
  11
29.46892
  21
45.32393
  31
0
  0
LINE
  8
0
  10
29.46892
  20
45.32393
  30
0
  11
29.48128
  21
45.06062
  31
0
  0
LINE
  8
0
  10
29.48128
  20
45.06062
  30
0
  11
29.4826
  21
44.80002
  31
0
  0
LINE
  8
0
  10
29.4826
  20
44.80002
  30
0
  11
29.47867
  21
44.67088
  31
0
  0
LINE
  8
0
  10
29.47867
  20
44.67088
  30
0
  11
29.47132
  21
44.54265
  31
0
  0
LINE
  8
0
  10
29.47132
  20
44.54265
  30
0
  11
29.46012
  21
44.41545
  31
0
  0
LINE
  8
0
  10
29.46012
  20
44.41545
  30
0
  11
29.45286
  21
44.35229
  31
0
  0
LINE
  8
0
  10
29.45286
  20
44.35229
  30
0
  11
29.44434
  21
44.28948
  31
0
  0
LINE
  8
0
  10
29.44434
  20
44.28948
  30
0
  11
29.43432
  21
44.22708
  31
0
  0
LINE
  8
0
  10
29.43432
  20
44.22708
  30
0
  11
31.19488
  21
43.65505
  31
0
  0
LINE
  8
0
  10
31.19488
  20
43.65505
  30
0
  11
31.22345
  21
43.71141
  31
0
  0
LINE
  8
0
  10
31.22345
  20
43.71141
  30
0
  11
31.25347
  21
43.76724
  31
0
  0
LINE
  8
0
  10
31.25347
  20
43.76724
  30
0
  11
31.28473
  21
43.82259
  31
0
  0
LINE
  8
0
  10
31.28473
  20
43.82259
  30
0
  11
31.35043
  21
43.93209
  31
0
  0
LINE
  8
0
  10
31.35043
  20
43.93209
  30
0
  11
31.41986
  21
44.04015
  31
0
  0
LINE
  8
0
  10
31.41986
  20
44.04015
  30
0
  11
31.49258
  21
44.14693
  31
0
  0
LINE
  8
0
  10
31.49258
  20
44.14693
  30
0
  11
31.64683
  21
44.35699
  31
0
  0
LINE
  8
0
  10
31.64683
  20
44.35699
  30
0
  11
31.8116
  21
44.56274
  31
0
  0
LINE
  8
0
  10
31.8116
  20
44.56274
  30
0
  11
31.98588
  21
44.76447
  31
0
  0
LINE
  8
0
  10
31.98588
  20
44.76447
  30
0
  11
32.16896
  21
44.96234
  31
0
  0
LINE
  8
0
  10
32.16896
  20
44.96234
  30
0
  11
32.36032
  21
45.15643
  31
0
  0
LINE
  8
0
  10
32.36032
  20
45.15643
  30
0
  11
32.55952
  21
45.34681
  31
0
  0
LINE
  8
0
  10
32.55952
  20
45.34681
  30
0
  11
32.76623
  21
45.53349
  31
0
  0
LINE
  8
0
  10
32.76623
  20
45.53349
  30
0
  11
32.92601
  21
45.67109
  31
0
  0
LINE
  8
0
  10
32.92601
  20
45.67109
  30
0
  11
34.40329
  21
44.99265
  31
0
  0
LINE
  8
0
  10
34.40329
  20
44.99265
  30
0
  11
34.40305
  21
44.78179
  31
0
  0
LINE
  8
0
  10
34.40305
  20
44.78179
  30
0
  11
34.39615
  21
44.50335
  31
0
  0
LINE
  8
0
  10
34.39615
  20
44.50335
  30
0
  11
34.38155
  21
44.22819
  31
0
  0
LINE
  8
0
  10
34.38155
  20
44.22819
  30
0
  11
34.35903
  21
43.95656
  31
0
  0
LINE
  8
0
  10
34.35903
  20
43.95656
  30
0
  11
34.32825
  21
43.68875
  31
0
  0
LINE
  8
0
  10
34.32825
  20
43.68875
  30
0
  11
34.28881
  21
43.4251
  31
0
  0
LINE
  8
0
  10
34.28881
  20
43.4251
  30
0
  11
34.24011
  21
43.16604
  31
0
  0
LINE
  8
0
  10
34.24011
  20
43.16604
  30
0
  11
34.1813
  21
42.91216
  31
0
  0
LINE
  8
0
  10
34.1813
  20
42.91216
  30
0
  11
34.1477
  21
42.78741
  31
0
  0
LINE
  8
0
  10
34.1477
  20
42.78741
  30
0
  11
34.11097
  21
42.66433
  31
0
  0
LINE
  8
0
  10
34.11097
  20
42.66433
  30
0
  11
34.07073
  21
42.54314
  31
0
  0
LINE
  8
0
  10
34.07073
  20
42.54314
  30
0
  11
34.04911
  21
42.48336
  31
0
  0
LINE
  8
0
  10
34.04911
  20
42.48336
  30
0
  11
34.02633
  21
42.42421
  31
0
  0
LINE
  8
0
  10
34.02633
  20
42.42421
  30
0
  11
34.0022
  21
42.3658
  31
0
  0
LINE
  8
0
  10
34.0022
  20
42.3658
  30
0
  11
35.58338
  21
41.40317
  31
0
  0
LINE
  8
0
  10
35.58338
  20
41.40317
  30
0
  11
35.62418
  21
41.45143
  31
0
  0
LINE
  8
0
  10
35.62418
  20
41.45143
  30
0
  11
35.66626
  21
41.49882
  31
0
  0
LINE
  8
0
  10
35.66626
  20
41.49882
  30
0
  11
35.70944
  21
41.54548
  31
0
  0
LINE
  8
0
  10
35.70944
  20
41.54548
  30
0
  11
35.79863
  21
41.63687
  31
0
  0
LINE
  8
0
  10
35.79863
  20
41.63687
  30
0
  11
35.8911
  21
41.72601
  31
0
  0
LINE
  8
0
  10
35.8911
  20
41.72601
  30
0
  11
35.98649
  21
41.81314
  31
0
  0
LINE
  8
0
  10
35.98649
  20
41.81314
  30
0
  11
36.18503
  21
41.98196
  31
0
  0
LINE
  8
0
  10
36.18503
  20
41.98196
  30
0
  11
36.3928
  21
42.14418
  31
0
  0
LINE
  8
0
  10
36.3928
  20
42.14418
  30
0
  11
36.60891
  21
42.30027
  31
0
  0
LINE
  8
0
  10
36.60891
  20
42.30027
  30
0
  11
36.83268
  21
42.45058
  31
0
  0
LINE
  8
0
  10
36.83268
  20
42.45058
  30
0
  11
37.06364
  21
42.59532
  31
0
  0
LINE
  8
0
  10
37.06364
  20
42.59532
  30
0
  11
37.30138
  21
42.73462
  31
0
  0
LINE
  8
0
  10
37.30138
  20
42.73462
  30
0
  11
37.54557
  21
42.8686
  31
0
  0
LINE
  8
0
  10
37.54557
  20
42.8686
  30
0
  11
37.73277
  21
42.96564
  31
0
  0
LINE
  8
0
  10
37.73277
  20
42.96564
  30
0
  11
39.01378
  21
41.96481
  31
0
  0
LINE
  8
0
  10
39.01378
  20
41.96481
  30
0
  11
38.96491
  21
41.75969
  31
0
  0
LINE
  8
0
  10
38.96491
  20
41.75969
  30
0
  11
38.89398
  21
41.49034
  31
0
  0
LINE
  8
0
  10
38.89398
  20
41.49034
  30
0
  11
38.81633
  21
41.22597
  31
0
  0
LINE
  8
0
  10
38.81633
  20
41.22597
  30
0
  11
38.73177
  21
40.96686
  31
0
  0
LINE
  8
0
  10
38.73177
  20
40.96686
  30
0
  11
38.64006
  21
40.71336
  31
0
  0
LINE
  8
0
  10
38.64006
  20
40.71336
  30
0
  11
38.54088
  21
40.46591
  31
0
  0
LINE
  8
0
  10
38.54088
  20
40.46591
  30
0
  11
38.43375
  21
40.22507
  31
0
  0
LINE
  8
0
  10
38.43375
  20
40.22507
  30
0
  11
38.31798
  21
39.99159
  31
0
  0
LINE
  8
0
  10
38.31798
  20
39.99159
  30
0
  11
38.25651
  21
39.87795
  31
0
  0
LINE
  8
0
  10
38.25651
  20
39.87795
  30
0
  11
38.19239
  21
39.76666
  31
0
  0
LINE
  8
0
  10
38.19239
  20
39.76666
  30
0
  11
38.12529
  21
39.65802
  31
0
  0
LINE
  8
0
  10
38.12529
  20
39.65802
  30
0
  11
38.09046
  21
39.60483
  31
0
  0
LINE
  8
0
  10
38.09046
  20
39.60483
  30
0
  11
38.05466
  21
39.55253
  31
0
  0
LINE
  8
0
  10
38.05466
  20
39.55253
  30
0
  11
38.0177
  21
39.50126
  31
0
  0
LINE
  8
0
  10
38.0177
  20
39.50126
  30
0
  11
39.33426
  21
38.19994
  31
0
  0
LINE
  8
0
  10
39.33426
  20
38.19994
  30
0
  11
39.38509
  21
38.23748
  31
0
  0
LINE
  8
0
  10
39.38509
  20
38.23748
  30
0
  11
39.43698
  21
38.2739
  31
0
  0
LINE
  8
0
  10
39.43698
  20
38.2739
  30
0
  11
39.48975
  21
38.30934
  31
0
  0
LINE
  8
0
  10
39.48975
  20
38.30934
  30
0
  11
39.59761
  21
38.3777
  31
0
  0
LINE
  8
0
  10
39.59761
  20
38.3777
  30
0
  11
39.70815
  21
38.44311
  31
0
  0
LINE
  8
0
  10
39.70815
  20
38.44311
  30
0
  11
39.82106
  21
38.50589
  31
0
  0
LINE
  8
0
  10
39.82106
  20
38.50589
  30
0
  11
40.05317
  21
38.62438
  31
0
  0
LINE
  8
0
  10
40.05317
  20
38.62438
  30
0
  11
40.29276
  21
38.7343
  31
0
  0
LINE
  8
0
  10
40.29276
  20
38.7343
  30
0
  11
40.53904
  21
38.83636
  31
0
  0
LINE
  8
0
  10
40.53904
  20
38.83636
  30
0
  11
40.79145
  21
38.93101
  31
0
  0
LINE
  8
0
  10
40.79145
  20
38.93101
  30
0
  11
41.04955
  21
39.01857
  31
0
  0
LINE
  8
0
  10
41.04955
  20
39.01857
  30
0
  11
41.31301
  21
39.0993
  31
0
  0
LINE
  8
0
  10
41.31301
  20
39.0993
  30
0
  11
41.58151
  21
39.17336
  31
0
  0
LINE
  8
0
  10
41.58151
  20
39.17336
  30
0
  11
41.78605
  21
39.22461
  31
0
  0
LINE
  8
0
  10
41.78605
  20
39.22461
  30
0
  11
42.80172
  21
37.95533
  31
0
  0
LINE
  8
0
  10
42.80172
  20
37.95533
  30
0
  11
42.70687
  21
37.76701
  31
0
  0
LINE
  8
0
  10
42.70687
  20
37.76701
  30
0
  11
42.57573
  21
37.52128
  31
0
  0
LINE
  8
0
  10
42.57573
  20
37.52128
  30
0
  11
42.4392
  21
37.28194
  31
0
  0
LINE
  8
0
  10
42.4392
  20
37.28194
  30
0
  11
42.29717
  21
37.04931
  31
0
  0
LINE
  8
0
  10
42.29717
  20
37.04931
  30
0
  11
42.14947
  21
36.8238
  31
0
  0
LINE
  8
0
  10
42.14947
  20
36.8238
  30
0
  11
41.9959
  21
36.6059
  31
0
  0
LINE
  8
0
  10
41.9959
  20
36.6059
  30
0
  11
41.83612
  21
36.39625
  31
0
  0
LINE
  8
0
  10
41.83612
  20
36.39625
  30
0
  11
41.66962
  21
36.19576
  31
0
  0
LINE
  8
0
  10
41.66962
  20
36.19576
  30
0
  11
41.5836
  21
36.09937
  31
0
  0
LINE
  8
0
  10
41.5836
  20
36.09937
  30
0
  11
41.49555
  21
36.00586
  31
0
  0
LINE
  8
0
  10
41.49555
  20
36.00586
  30
0
  11
41.4052
  21
35.91562
  31
0
  0
LINE
  8
0
  10
41.4052
  20
35.91562
  30
0
  11
41.35904
  21
35.8719
  31
0
  0
LINE
  8
0
  10
41.35904
  20
35.8719
  30
0
  11
41.31214
  21
35.82927
  31
0
  0
LINE
  8
0
  10
41.31214
  20
35.82927
  30
0
  11
41.26436
  21
35.7879
  31
0
  0
LINE
  8
0
  10
41.26436
  20
35.7879
  30
0
  11
42.24533
  21
34.21803
  31
0
  0
LINE
  8
0
  10
42.24533
  20
34.21803
  30
0
  11
42.30345
  21
34.24285
  31
0
  0
LINE
  8
0
  10
42.30345
  20
34.24285
  30
0
  11
42.36233
  21
34.26631
  31
0
  0
LINE
  8
0
  10
42.36233
  20
34.26631
  30
0
  11
42.42185
  21
34.28863
  31
0
  0
LINE
  8
0
  10
42.42185
  20
34.28863
  30
0
  11
42.54257
  21
34.33027
  31
0
  0
LINE
  8
0
  10
42.54257
  20
34.33027
  30
0
  11
42.66521
  21
34.36843
  31
0
  0
LINE
  8
0
  10
42.66521
  20
34.36843
  30
0
  11
42.78956
  21
34.40348
  31
0
  0
LINE
  8
0
  10
42.78956
  20
34.40348
  30
0
  11
43.04274
  21
34.46524
  31
0
  0
LINE
  8
0
  10
43.04274
  20
34.46524
  30
0
  11
43.30122
  21
34.51695
  31
0
  0
LINE
  8
0
  10
43.30122
  20
34.51695
  30
0
  11
43.56439
  21
34.55946
  31
0
  0
LINE
  8
0
  10
43.56439
  20
34.55946
  30
0
  11
43.83183
  21
34.59335
  31
0
  0
LINE
  8
0
  10
43.83183
  20
34.59335
  30
0
  11
44.10317
  21
34.61903
  31
0
  0
LINE
  8
0
  10
44.10317
  20
34.61903
  30
0
  11
44.37814
  21
34.63682
  31
0
  0
LINE
  8
0
  10
44.37814
  20
34.63682
  30
0
  11
44.65649
  21
34.64696
  31
0
  0
LINE
  8
0
  10
44.65649
  20
34.64696
  30
0
  11
44.86733
  21
34.64966
  31
0
  0
LINE
  8
0
  10
44.86733
  20
34.64966
  30
0
  11
45.56291
  21
33.18037
  31
0
  0
LINE
  8
0
  10
45.56291
  20
33.18037
  30
0
  11
45.42718
  21
33.019
  31
0
  0
LINE
  8
0
  10
45.42718
  20
33.019
  30
0
  11
45.24291
  21
32.81014
  31
0
  0
LINE
  8
0
  10
45.24291
  20
32.81014
  30
0
  11
45.05487
  21
32.60873
  31
0
  0
LINE
  8
0
  10
45.05487
  20
32.60873
  30
0
  11
44.86301
  21
32.41513
  31
0
  0
LINE
  8
0
  10
44.86301
  20
32.41513
  30
0
  11
44.66729
  21
32.22976
  31
0
  0
LINE
  8
0
  10
44.66729
  20
32.22976
  30
0
  11
44.46761
  21
32.05315
  31
0
  0
LINE
  8
0
  10
44.46761
  20
32.05315
  30
0
  11
44.26378
  21
31.886
  31
0
  0
LINE
  8
0
  10
44.26378
  20
31.886
  30
0
  11
44.05554
  21
31.72931
  31
0
  0
LINE
  8
0
  10
44.05554
  20
31.72931
  30
0
  11
43.94961
  21
31.65535
  31
0
  0
LINE
  8
0
  10
43.94961
  20
31.65535
  30
0
  11
43.84236
  21
31.58467
  31
0
  0
LINE
  8
0
  10
43.84236
  20
31.58467
  30
0
  11
43.73364
  21
31.5177
  31
0
  0
LINE
  8
0
  10
43.73364
  20
31.5177
  30
0
  11
43.67865
  21
31.4858
  31
0
  0
LINE
  8
0
  10
43.67865
  20
31.4858
  30
0
  11
43.62318
  21
31.45513
  31
0
  0
LINE
  8
0
  10
43.62318
  20
31.45513
  30
0
  11
43.56715
  21
31.4259
  31
0
  0
LINE
  8
0
  10
43.56715
  20
31.4259
  30
0
  11
44.15963
  21
29.67213
  31
0
  0
LINE
  8
0
  10
44.15963
  20
29.67213
  30
0
  11
44.22191
  21
29.68287
  31
0
  0
LINE
  8
0
  10
44.22191
  20
29.68287
  30
0
  11
44.28461
  21
29.69212
  31
0
  0
LINE
  8
0
  10
44.28461
  20
29.69212
  30
0
  11
44.34768
  21
29.70011
  31
0
  0
LINE
  8
0
  10
44.34768
  20
29.70011
  30
0
  11
44.47474
  21
29.71279
  31
0
  0
LINE
  8
0
  10
44.47474
  20
29.71279
  30
0
  11
44.60288
  21
29.72164
  31
0
  0
LINE
  8
0
  10
44.60288
  20
29.72164
  30
0
  11
44.73196
  21
29.72706
  31
0
  0
LINE
  8
0
  10
44.73196
  20
29.72706
  30
0
  11
44.99256
  21
29.72877
  31
0
  0
LINE
  8
0
  10
44.99256
  20
29.72877
  30
0
  11
45.256
  21
29.71948
  31
0
  0
LINE
  8
0
  10
45.256
  20
29.71948
  30
0
  11
45.52188
  21
29.70015
  31
0
  0
LINE
  8
0
  10
45.52188
  20
29.70015
  30
0
  11
45.78992
  21
29.67145
  31
0
  0
LINE
  8
0
  10
45.78992
  20
29.67145
  30
0
  11
46.05988
  21
29.63387
  31
0
  0
LINE
  8
0
  10
46.05988
  20
29.63387
  30
0
  11
46.33154
  21
29.58777
  31
0
  0
LINE
  8
0
  10
46.33154
  20
29.58777
  30
0
  11
46.60472
  21
29.53344
  31
0
  0
LINE
  8
0
  10
46.60472
  20
29.53344
  30
0
  11
46.8105
  21
29.48744
  31
0
  0
LINE
  8
0
  10
46.8105
  20
29.48744
  30
0
  11
47.14849
  21
27.89735
  31
0
  0
LINE
  8
0
  10
47.14849
  20
27.89735
  30
0
  11
46.9792
  21
27.77163
  31
0
  0
LINE
  8
0
  10
46.9792
  20
27.77163
  30
0
  11
46.75174
  21
27.61089
  31
0
  0
LINE
  8
0
  10
46.75174
  20
27.61089
  30
0
  11
46.52231
  21
27.45828
  31
0
  0
LINE
  8
0
  10
46.52231
  20
27.45828
  30
0
  11
46.29098
  21
27.31414
  31
0
  0
LINE
  8
0
  10
46.29098
  20
27.31414
  30
0
  11
46.05779
  21
27.1789
  31
0
  0
LINE
  8
0
  10
46.05779
  20
27.1789
  30
0
  11
45.82275
  21
27.0531
  31
0
  0
LINE
  8
0
  10
45.82275
  20
27.0531
  30
0
  11
45.58588
  21
26.93746
  31
0
  0
LINE
  8
0
  10
45.58588
  20
26.93746
  30
0
  11
45.34711
  21
26.83302
  31
0
  0
LINE
  8
0
  10
45.34711
  20
26.83302
  30
0
  11
45.22698
  21
26.78548
  31
0
  0
LINE
  8
0
  10
45.22698
  20
26.78548
  30
0
  11
45.10632
  21
26.74144
  31
0
  0
LINE
  8
0
  10
45.10632
  20
26.74144
  30
0
  11
44.98508
  21
26.70135
  31
0
  0
LINE
  8
0
  10
44.98508
  20
26.70135
  30
0
  11
44.92422
  21
26.68299
  31
0
  0
LINE
  8
0
  10
44.92422
  20
26.68299
  30
0
  11
44.86317
  21
26.66595
  31
0
  0
LINE
  8
0
  10
44.86317
  20
26.66595
  30
0
  11
44.80191
  21
26.65043
  31
0
  0
LINE
  8
0
  10
44.80191
  20
26.65043
  30
0
  11
44.97398
  21
24.80728
  31
0
  0
ENDSEC
  0
EOF
