<?xml version="1.0" encoding="UTF-8" standalone="no"?>
<!-- Created with Inkscape (http://www.inkscape.org/) -->

<svg
   xmlns:dc="http://purl.org/dc/elements/1.1/"
   xmlns:cc="http://creativecommons.org/ns#"
   xmlns:rdf="http://www.w3.org/1999/02/22-rdf-syntax-ns#"
   xmlns:svg="http://www.w3.org/2000/svg"
   xmlns="http://www.w3.org/2000/svg"
   xmlns:sodipodi="http://sodipodi.sourceforge.net/DTD/sodipodi-0.dtd"
   xmlns:inkscape="http://www.inkscape.org/namespaces/inkscape"
   width="297mm"
   height="210mm"
   viewBox="0 0 1052.3622 744.09448"
   id="svg3353"
   version="1.1"
   inkscape:version="0.91 r13725"
   sodipodi:docname="MidGear.svg">
  <defs
     id="defs3355" />
  <sodipodi:namedview
     id="base"
     pagecolor="#ffffff"
     bordercolor="#666666"
     borderopacity="1.0"
     inkscape:pageopacity="0.0"
     inkscape:pageshadow="2"
     inkscape:zoom="0.49497475"
     inkscape:cx="296.28729"
     inkscape:cy="472.2079"
     inkscape:document-units="mm"
     inkscape:current-layer="layer1"
     showgrid="false"
     inkscape:window-width="1600"
     inkscape:window-height="1138"
     inkscape:window-x="-8"
     inkscape:window-y="-8"
     inkscape:window-maximized="1" />
  <metadata
     id="metadata3358">
    <rdf:RDF>
      <cc:Work
         rdf:about="">
        <dc:format>image/svg+xml</dc:format>
        <dc:type
           rdf:resource="http://purl.org/dc/dcmitype/StillImage" />
        <dc:title></dc:title>
      </cc:Work>
    </rdf:RDF>
  </metadata>
  <g
     inkscape:label="Layer 1"
     inkscape:groupmode="layer"
     id="layer1"
     transform="translate(0,-308.26772)">
    <g
       id="g3428"
       transform="translate(104.896,945.28604)"
       inkscape:label="Gear27">
      <path
         id="path3430"
         d="m 79.36506,-5.81051 1.18,-0.08639 5.25321,0.89972 6.48255,2.68162 0,4.63112 -6.48255,2.68162 -5.25321,0.89972 -1.18,-0.08639 -0.7993,6.83845 1.16811,0.18806 4.90412,2.08694 5.68939,4.10432 -1.06801,4.50628 -6.92624,1.11436 -5.31909,-0.33601 -1.12828,-0.35618 -2.35481,6.46978 1.09327,0.45239 4.29064,3.16165 4.58951,5.30575 -2.07844,4.13851 -6.99653,-0.51298 -5.09823,-1.55361 -1.01572,-0.60679 -3.78337,5.75234 0.95947,0.69231 3.44586,4.06592 3.24221,6.22115 -2.97682,3.54764 -6.68964,-2.11267 -4.60252,-2.68747 -0.8484,-0.82467 -5.00797,4.72478 0.77394,0.89492 2.41532,4.75099 1.72012,6.80116 -3.71473,2.76551 -6.0221,-3.59845 -3.85869,-3.67645 -0.63535,-0.99809 -5.96259,3.4425 0.5467,1.04928 1.25456,5.17994 0.1053,7.01452 -4.25237,1.83429 -5.02991,-4.89025 -2.90683,-4.46722 -0.38805,-1.11771 -6.59576,1.97464 0.28998,1.14707 0.02616,5.32964 -1.5152,6.84972 -4.56075,0.80419 L 9.97745,85.36255 8.17919,80.34538 8.05936,79.16831 1.18601,79.56863 1.20364,80.75166 0,85.94367 l -3.05401,6.31566 -4.62328,-0.26927 -2.30016,-6.62751 -0.59275,-5.29664 0.15486,-1.17298 -6.78041,-1.19557 -0.25567,1.15521 -2.36855,4.77448 -4.42819,5.44112 -4.43656,-1.32822 -0.70975,-6.97932 0.64472,-5.29056 0.42119,-1.10565 -6.32192,-2.72701 -0.51519,1.0651 -3.40578,4.09956 -5.56363,4.27324 -4.01066,-2.31555 0.91892,-6.95487 1.84743,-4.99927 0.66482,-0.97872 -5.52263,-4.11144 -0.74692,0.91759 -4.25941,3.20362 -6.39914,2.875 -3.36855,-3.17807 2.49806,-6.55548 2.95054,-4.43847 0.8726,-0.79901 -4.42559,-5.27422 -0.93841,0.7206 -4.88339,2.13498 -6.88967,1.32176 -2.54484,-3.86924 3.94252,-5.80269 3.89459,-3.63838 1.03335,-0.57625 -3.08999,-6.15266 -1.07929,0.48476 -5.24412,0.95125 -7.00878,-0.30274 -1.58393,-4.35182 5.17444,-4.73707 4.62868,-2.64216 1.13838,-0.3224 -1.58779,-6.69942 -1.16199,0.2228 -5.32214,-0.28378 -6.75004,-1.91091 -0.53764,-4.5998 6.1274,-3.41607 5.11324,-1.50349 1.18205,-0.05119 0,-6.885 -1.18205,-0.05119 -5.11324,-1.50349 -6.1274,-3.41607 0.53764,-4.5998 6.75004,-1.91091 5.32214,-0.28378 1.16199,0.2228 1.58779,-6.69942 -1.13838,-0.3224 -4.62868,-2.64216 -5.17444,-4.73707 1.58393,-4.35182 7.00878,-0.30274 5.24412,0.95125 1.07929,0.48476 3.08999,-6.15266 -1.03335,-0.57625 -3.89459,-3.63838 -3.94252,-5.80269 2.54484,-3.86924 6.88967,1.32176 4.88339,2.13498 0.93841,0.7206 4.42559,-5.27422 -0.8726,-0.79901 -2.95054,-4.43847 -2.49806,-6.55548 3.36855,-3.17807 6.39914,2.875 4.25941,3.20362 0.74692,0.91759 5.52263,-4.11144 -0.66482,-0.97872 -1.84743,-4.99927 -0.91892,-6.95487 4.01066,-2.31555 5.56363,4.27324 3.40578,4.09956 0.51519,1.0651 6.32192,-2.72701 -0.42119,-1.10565 -0.64472,-5.29056 0.70975,-6.97932 4.43656,-1.32822 4.42819,5.44112 2.36855,4.77448 0.25567,1.15521 6.78041,-1.19557 -0.15486,-1.17298 0.59275,-5.29664 2.30016,-6.62751 4.62328,-0.26927 3.05401,6.31566 1.20364,5.19201 -0.01763,1.18303 6.87335,0.40032 0.11983,-1.17707 1.79826,-5.01717 3.76657,-5.91841 4.56075,0.80419 1.5152,6.84972 -0.02616,5.32964 -0.28998,1.14707 6.59576,1.97464 0.38805,-1.11771 2.90683,-4.46722 5.02991,-4.89025 4.25237,1.83429 -0.1053,7.01452 -1.25456,5.17994 -0.5467,1.04928 5.96259,3.4425 0.63535,-0.99809 3.85869,-3.67645 6.0221,-3.59845 3.71473,2.76551 -1.72012,6.80116 -2.41532,4.75099 -0.77394,0.89492 5.00797,4.72478 0.8484,-0.82467 4.60252,-2.68747 6.68964,-2.11267 2.97682,3.54764 -3.24221,6.22115 -3.44586,4.06592 -0.95947,0.69231 3.78337,5.75234 1.01572,-0.60679 5.09823,-1.55361 6.99653,-0.51298 2.07844,4.13851 -4.58951,5.30575 -4.29064,3.16165 -1.09327,0.45239 2.35481,6.46978 1.12828,-0.35618 5.31909,-0.33601 6.92624,1.11436 1.06801,4.50628 -5.68939,4.10432 -4.90412,2.08694 -1.16811,0.18806 z"
         style="fill:none;stroke:#000000;stroke-width:1"
         inkscape:connector-curvature="0" />
      <circle
         id="path3432"
         style="fill:none;stroke:#000000;stroke-width:1"
         cx="0"
         cy="0"
         r="5" />
    </g>
  </g>
</svg>
