<?xml version="1.0" encoding="UTF-8" standalone="no"?>
<!-- Created with Inkscape (http://www.inkscape.org/) -->

<svg
   xmlns:dc="http://purl.org/dc/elements/1.1/"
   xmlns:cc="http://creativecommons.org/ns#"
   xmlns:rdf="http://www.w3.org/1999/02/22-rdf-syntax-ns#"
   xmlns:svg="http://www.w3.org/2000/svg"
   xmlns="http://www.w3.org/2000/svg"
   xmlns:sodipodi="http://sodipodi.sourceforge.net/DTD/sodipodi-0.dtd"
   xmlns:inkscape="http://www.inkscape.org/namespaces/inkscape"
   width="297mm"
   height="210mm"
   viewBox="0 0 1052.3622 744.09448"
   id="svg3353"
   version="1.1"
   inkscape:version="0.91 r13725"
   sodipodi:docname="30Tooth.svg">
  <defs
     id="defs3355" />
  <sodipodi:namedview
     id="base"
     pagecolor="#ffffff"
     bordercolor="#666666"
     borderopacity="1.0"
     inkscape:pageopacity="0.0"
     inkscape:pageshadow="2"
     inkscape:zoom="0.49497475"
     inkscape:cx="296.28729"
     inkscape:cy="472.2079"
     inkscape:document-units="mm"
     inkscape:current-layer="layer1"
     showgrid="false"
     inkscape:window-width="1600"
     inkscape:window-height="1138"
     inkscape:window-x="-8"
     inkscape:window-y="-8"
     inkscape:window-maximized="1" />
  <metadata
     id="metadata3358">
    <rdf:RDF>
      <cc:Work
         rdf:about="">
        <dc:format>image/svg+xml</dc:format>
        <dc:type
           rdf:resource="http://purl.org/dc/dcmitype/StillImage" />
        <dc:title></dc:title>
      </cc:Work>
    </rdf:RDF>
  </metadata>
  <g
     inkscape:label="Layer 1"
     inkscape:groupmode="layer"
     id="layer1"
     transform="translate(0,-308.26772)">
    <g
       inkscape:label="Gear30"
       transform="translate(143.44166,925.08299)"
       id="g3402">
      <path
         inkscape:connector-curvature="0"
         style="fill:none;stroke:#000000;stroke-width:1"
         d="m 88.92522,-5.99053 0.60589,-0.04081 5.83099,1.03362 6.47002,2.65071 0,4.69402 -6.47002,2.65071 -5.83099,1.03362 -0.60589,-0.04081 -0.69773,6.63844 0.60114,0.08605 5.48866,2.22337 5.77752,3.93798 -0.97594,4.59144 -6.87975,1.24759 -5.91846,-0.20129 -0.58417,-0.1659 -2.06269,6.34832 0.57011,0.20915 4.90645,3.31594 4.83253,5.05314 -1.90923,4.28819 -6.9888,-0.21005 -5.74729,-1.42741 -0.53691,-0.28373 -3.3375,5.78073 0.51417,0.32312 4.10981,4.26359 3.67631,5.94745 -2.75907,3.79754 -6.79241,-1.65852 -5.32491,-2.59114 -0.46619,-0.38916 -4.46646,4.9605 0.43576,0.42296 3.13355,5.02489 2.35944,6.58184 -3.48834,3.14091 -6.29915,-3.0345 -4.66982,-3.64163 -0.37509,-0.47758 -5.4002,3.92347 0.33829,0.50432 2.02035,5.56659 0.93943,6.92856 -4.06514,2.34701 -5.53059,-4.27785 -3.81064,-4.53297 -0.2676,-0.54513 -6.09793,2.71497 0.22605,0.56363 0.81884,5.865 -0.52163,6.97248 -4.46427,1.45053 -4.52032,-5.33425 -2.78491,-5.22619 -0.14842,-0.58885 -6.52914,1.38782 0.10392,0.5983 -0.41846,5.90709 -1.95988,6.71165 -4.66831,0.49066 -3.31248,-6.1575 -1.63747,-5.691 -0.02274,-0.60684 -6.67502,0 -0.02274,0.60684 -1.63747,5.691 -3.31248,6.1575 -4.66831,-0.49066 -1.95988,-6.71165 -0.41846,-5.90709 0.10392,-0.5983 -6.52914,-1.38782 -0.14842,0.58885 -2.78491,5.22619 -4.52032,5.33425 -4.46427,-1.45053 -0.52163,-6.97248 0.81884,-5.865 0.22605,-0.56363 -6.09793,-2.71497 -0.2676,0.54513 -3.81064,4.53297 -5.53059,4.27785 -4.06514,-2.34701 0.93943,-6.92856 2.02035,-5.56659 0.33829,-0.50432 -5.4002,-3.92347 -0.37509,0.47758 -4.66982,3.64163 -6.29915,3.0345 -3.48834,-3.14091 2.35944,-6.58184 3.13355,-5.02489 0.43576,-0.42296 -4.46646,-4.9605 -0.46619,0.38916 -5.32491,2.59114 -6.79241,1.65852 -2.75907,-3.79754 3.67631,-5.94745 4.10981,-4.26359 0.51417,-0.32312 -3.3375,-5.78073 -0.53691,0.28373 -5.74729,1.42741 -6.9888,0.21005 -1.90923,-4.28819 4.83253,-5.05314 4.90645,-3.31594 0.57011,-0.20915 -2.06269,-6.34832 -0.58417,0.1659 -5.91846,0.20129 -6.87975,-1.24759 -0.97594,-4.59144 5.77752,-3.93798 5.48866,-2.22337 0.60114,-0.08605 -0.69773,-6.63844 -0.60589,0.04081 -5.83099,-1.03362 -6.47002,-2.65071 0,-4.69402 6.47002,-2.65071 5.83099,-1.03362 0.60589,0.04081 0.69773,-6.63844 -0.60114,-0.08605 -5.48866,-2.22337 -5.77752,-3.93798 0.97594,-4.59144 6.87975,-1.24759 5.91846,0.20129 0.58417,0.1659 2.06269,-6.34832 -0.57011,-0.20915 -4.90645,-3.31594 -4.83253,-5.05314 1.90923,-4.28819 6.9888,0.21005 5.74729,1.42741 0.53691,0.28373 3.3375,-5.78073 -0.51417,-0.32312 -4.10981,-4.26359 -3.67631,-5.94745 2.75907,-3.79754 6.79241,1.65852 5.32491,2.59114 0.46619,0.38916 4.46646,-4.9605 -0.43576,-0.42296 -3.13355,-5.02489 -2.35944,-6.58184 3.48834,-3.14091 6.29915,3.0345 4.66982,3.64163 0.37509,0.47758 5.4002,-3.92347 -0.33829,-0.50432 -2.02035,-5.56659 -0.93943,-6.92856 4.06514,-2.34701 5.53059,4.27785 3.81064,4.53297 0.2676,0.54513 6.09793,-2.71497 -0.22605,-0.56363 -0.81884,-5.865 0.52163,-6.97248 4.46427,-1.45053 4.52032,5.33425 2.78491,5.22619 0.14842,0.58885 6.52914,-1.38782 -0.10392,-0.5983 0.41846,-5.90709 1.95988,-6.71165 4.66831,-0.49066 3.31248,6.1575 1.63747,5.691 0.02274,0.60684 6.67502,0 0.02274,-0.60684 1.63747,-5.691 3.31248,-6.1575 4.66831,0.49066 1.95988,6.71165 0.41846,5.90709 -0.10392,0.5983 6.52914,1.38782 0.14842,-0.58885 2.78491,-5.22619 4.52032,-5.33425 4.46427,1.45053 0.52163,6.97248 -0.81884,5.865 -0.22605,0.56363 6.09793,2.71497 0.2676,-0.54513 3.81064,-4.53297 5.53059,-4.27785 4.06514,2.34701 -0.93943,6.92856 -2.02035,5.56659 -0.33829,0.50432 5.4002,3.92347 0.37509,-0.47758 4.66982,-3.64163 6.29915,-3.0345 3.48834,3.14091 -2.35944,6.58184 -3.13355,5.02489 -0.43576,0.42296 4.46646,4.9605 0.46619,-0.38916 5.32491,-2.59114 6.79241,-1.65852 2.75907,3.79754 -3.67631,5.94745 -4.10981,4.26359 -0.51417,0.32312 3.3375,5.78073 0.53691,-0.28373 5.74729,-1.42741 6.9888,-0.21005 1.90923,4.28819 -4.83253,5.05314 -4.90645,3.31594 -0.57011,0.20915 2.06269,6.34832 0.58417,-0.1659 5.91846,-0.20129 6.87975,1.24759 0.97594,4.59144 -5.77752,3.93798 -5.48866,2.22337 -0.60114,0.08605 z"
         id="path3404" />
      <circle
         r="5"
         cy="0"
         cx="0"
         style="fill:none;stroke:#000000;stroke-width:1"
         id="path3406" />
    </g>
  </g>
</svg>
