  999
file created by gear template generator
  0
SECTION
  2
HEADER
  9
$ACADVER
  1
AC1006
  9
$INSBASE
  10
0.0
  20
0.0
  30
0.0
  9
$EXTMIN
  10
0.0
  20
0.0
  9
$EXTMAX
  10
10000.0
  20
10000.0
  0
ENDSEC
  0
SECTION
  2
ENTITIES
  0
LINE
  8
0
  10
49.97566
  20
27.33088
  30
0
  11
49.97566
  21
27.33088
  31
0
  0
LINE
  8
0
  10
49.97566
  20
27.33088
  30
0
  11
50.03885
  21
27.32395
  31
0
  0
LINE
  8
0
  10
50.03885
  20
27.32395
  30
0
  11
50.10207
  21
27.31595
  31
0
  0
LINE
  8
0
  10
50.10207
  20
27.31595
  30
0
  11
50.16533
  21
27.30697
  31
0
  0
LINE
  8
0
  10
50.16533
  20
27.30697
  30
0
  11
50.29196
  21
27.28634
  31
0
  0
LINE
  8
0
  10
50.29196
  20
27.28634
  30
0
  11
50.41869
  21
27.26243
  31
0
  0
LINE
  8
0
  10
50.41869
  20
27.26243
  30
0
  11
50.54551
  21
27.23553
  31
0
  0
LINE
  8
0
  10
50.54551
  20
27.23553
  30
0
  11
50.79933
  21
27.17353
  31
0
  0
LINE
  8
0
  10
50.79933
  20
27.17353
  30
0
  11
51.05329
  21
27.1015
  31
0
  0
LINE
  8
0
  10
51.05329
  20
27.1015
  30
0
  11
51.30727
  21
27.02023
  31
0
  0
LINE
  8
0
  10
51.30727
  20
27.02023
  30
0
  11
51.56116
  21
26.9303
  31
0
  0
LINE
  8
0
  10
51.56116
  20
26.9303
  30
0
  11
51.81487
  21
26.83215
  31
0
  0
LINE
  8
0
  10
51.81487
  20
26.83215
  30
0
  11
52.06831
  21
26.7261
  31
0
  0
LINE
  8
0
  10
52.06831
  20
26.7261
  30
0
  11
52.32137
  21
26.61246
  31
0
  0
LINE
  8
0
  10
52.32137
  20
26.61246
  30
0
  11
52.51088
  21
26.52237
  31
0
  0
LINE
  8
0
  10
52.51088
  20
26.52237
  30
0
  11
52.4767
  21
24.89066
  31
0
  0
LINE
  8
0
  10
52.4767
  20
24.89066
  30
0
  11
52.28359
  21
24.80858
  31
0
  0
LINE
  8
0
  10
52.28359
  20
24.80858
  30
0
  11
52.02599
  21
24.70563
  31
0
  0
LINE
  8
0
  10
52.02599
  20
24.70563
  30
0
  11
51.76833
  21
24.6103
  31
0
  0
LINE
  8
0
  10
51.76833
  20
24.6103
  30
0
  11
51.51073
  21
24.52285
  31
0
  0
LINE
  8
0
  10
51.51073
  20
24.52285
  30
0
  11
51.2533
  21
24.44363
  31
0
  0
LINE
  8
0
  10
51.2533
  20
24.44363
  30
0
  11
50.99614
  21
24.37307
  31
0
  0
LINE
  8
0
  10
50.99614
  20
24.37307
  30
0
  11
50.73939
  21
24.31174
  31
0
  0
LINE
  8
0
  10
50.73939
  20
24.31174
  30
0
  11
50.48319
  21
24.26042
  31
0
  0
LINE
  8
0
  10
50.48319
  20
24.26042
  30
0
  11
50.35536
  21
24.23885
  31
0
  0
LINE
  8
0
  10
50.35536
  20
24.23885
  30
0
  11
50.22773
  21
24.22028
  31
0
  0
LINE
  8
0
  10
50.22773
  20
24.22028
  30
0
  11
50.10036
  21
24.20496
  31
0
  0
LINE
  8
0
  10
50.10036
  20
24.20496
  30
0
  11
50.03677
  21
24.19864
  31
0
  0
LINE
  8
0
  10
50.03677
  20
24.19864
  30
0
  11
49.97327
  21
24.1933
  31
0
  0
LINE
  8
0
  10
49.97327
  20
24.1933
  30
0
  11
49.90985
  21
24.18902
  31
0
  0
LINE
  8
0
  10
49.90985
  20
24.18902
  30
0
  11
49.68079
  21
22.37582
  31
0
  0
LINE
  8
0
  10
49.68079
  20
22.37582
  30
0
  11
49.74115
  21
22.35591
  31
0
  0
LINE
  8
0
  10
49.74115
  20
22.35591
  30
0
  11
49.80133
  21
22.33494
  31
0
  0
LINE
  8
0
  10
49.80133
  20
22.33494
  30
0
  11
49.86135
  21
22.313
  31
0
  0
LINE
  8
0
  10
49.86135
  20
22.313
  30
0
  11
49.98091
  21
22.26649
  31
0
  0
LINE
  8
0
  10
49.98091
  20
22.26649
  30
0
  11
50.09991
  21
22.21676
  31
0
  0
LINE
  8
0
  10
50.09991
  20
22.21676
  30
0
  11
50.21836
  21
22.16408
  31
0
  0
LINE
  8
0
  10
50.21836
  20
22.16408
  30
0
  11
50.45375
  21
22.05066
  31
0
  0
LINE
  8
0
  10
50.45375
  20
22.05066
  30
0
  11
50.68718
  21
21.9274
  31
0
  0
LINE
  8
0
  10
50.68718
  20
21.9274
  30
0
  11
50.91871
  21
21.79511
  31
0
  0
LINE
  8
0
  10
50.91871
  20
21.79511
  30
0
  11
51.14836
  21
21.65436
  31
0
  0
LINE
  8
0
  10
51.14836
  20
21.65436
  30
0
  11
51.37612
  21
21.50559
  31
0
  0
LINE
  8
0
  10
51.37612
  20
21.50559
  30
0
  11
51.60197
  21
21.34917
  31
0
  0
LINE
  8
0
  10
51.60197
  20
21.34917
  30
0
  11
51.82587
  21
21.1854
  31
0
  0
LINE
  8
0
  10
51.82587
  20
21.1854
  30
0
  11
51.99251
  21
21.05788
  31
0
  0
LINE
  8
0
  10
51.99251
  20
21.05788
  30
0
  11
51.61982
  21
19.46893
  31
0
  0
LINE
  8
0
  10
51.61982
  20
19.46893
  30
0
  11
51.41387
  21
19.4288
  31
0
  0
LINE
  8
0
  10
51.41387
  20
19.4288
  30
0
  11
51.14049
  21
19.38166
  31
0
  0
LINE
  8
0
  10
51.14049
  20
19.38166
  30
0
  11
50.86865
  21
19.34197
  31
0
  0
LINE
  8
0
  10
50.86865
  20
19.34197
  30
0
  11
50.59849
  21
19.30999
  31
0
  0
LINE
  8
0
  10
50.59849
  20
19.30999
  30
0
  11
50.33021
  21
19.28603
  31
0
  0
LINE
  8
0
  10
50.33021
  20
19.28603
  30
0
  11
50.064
  21
19.27048
  31
0
  0
LINE
  8
0
  10
50.064
  20
19.27048
  30
0
  11
49.80011
  21
19.26387
  31
0
  0
LINE
  8
0
  10
49.80011
  20
19.26387
  30
0
  11
49.53884
  21
19.26694
  31
0
  0
LINE
  8
0
  10
49.53884
  20
19.26694
  30
0
  11
49.40932
  21
19.27242
  31
0
  0
LINE
  8
0
  10
49.40932
  20
19.27242
  30
0
  11
49.28062
  21
19.28078
  31
0
  0
LINE
  8
0
  10
49.28062
  20
19.28078
  30
0
  11
49.15284
  21
19.29229
  31
0
  0
LINE
  8
0
  10
49.15284
  20
19.29229
  30
0
  11
49.08934
  21
19.29932
  31
0
  0
LINE
  8
0
  10
49.08934
  20
19.29932
  30
0
  11
49.02611
  21
19.3073
  31
0
  0
LINE
  8
0
  10
49.02611
  20
19.3073
  30
0
  11
48.96319
  21
19.3163
  31
0
  0
LINE
  8
0
  10
48.96319
  20
19.3163
  30
0
  11
48.36215
  21
17.59035
  31
0
  0
LINE
  8
0
  10
48.36215
  20
17.59035
  30
0
  11
48.41705
  21
17.55832
  31
0
  0
LINE
  8
0
  10
48.41705
  20
17.55832
  30
0
  11
48.47155
  21
17.5253
  31
0
  0
LINE
  8
0
  10
48.47155
  20
17.5253
  30
0
  11
48.5257
  21
17.49137
  31
0
  0
LINE
  8
0
  10
48.5257
  20
17.49137
  30
0
  11
48.63298
  21
17.42101
  31
0
  0
LINE
  8
0
  10
48.63298
  20
17.42101
  30
0
  11
48.73904
  21
17.34763
  31
0
  0
LINE
  8
0
  10
48.73904
  20
17.34763
  30
0
  11
48.84395
  21
17.27147
  31
0
  0
LINE
  8
0
  10
48.84395
  20
17.27147
  30
0
  11
49.05061
  21
17.11159
  31
0
  0
LINE
  8
0
  10
49.05061
  20
17.11159
  30
0
  11
49.25331
  21
16.94249
  31
0
  0
LINE
  8
0
  10
49.25331
  20
16.94249
  30
0
  11
49.45228
  21
16.76495
  31
0
  0
LINE
  8
0
  10
49.45228
  20
16.76495
  30
0
  11
49.64764
  21
16.57953
  31
0
  0
LINE
  8
0
  10
49.64764
  20
16.57953
  30
0
  11
49.8395
  21
16.38666
  31
0
  0
LINE
  8
0
  10
49.8395
  20
16.38666
  30
0
  11
50.02789
  21
16.1867
  31
0
  0
LINE
  8
0
  10
50.02789
  20
16.1867
  30
0
  11
50.21285
  21
15.97995
  31
0
  0
LINE
  8
0
  10
50.21285
  20
15.97995
  30
0
  11
50.34933
  21
15.82058
  31
0
  0
LINE
  8
0
  10
50.34933
  20
15.82058
  30
0
  11
49.65443
  21
14.34383
  31
0
  0
LINE
  8
0
  10
49.65443
  20
14.34383
  30
0
  11
49.44463
  21
14.3474
  31
0
  0
LINE
  8
0
  10
49.44463
  20
14.3474
  30
0
  11
49.16743
  21
14.35813
  31
0
  0
LINE
  8
0
  10
49.16743
  20
14.35813
  30
0
  11
48.89327
  21
14.37583
  31
0
  0
LINE
  8
0
  10
48.89327
  20
14.37583
  30
0
  11
48.62237
  21
14.40072
  31
0
  0
LINE
  8
0
  10
48.62237
  20
14.40072
  30
0
  11
48.35497
  21
14.43306
  31
0
  0
LINE
  8
0
  10
48.35497
  20
14.43306
  30
0
  11
48.09135
  21
14.47319
  31
0
  0
LINE
  8
0
  10
48.09135
  20
14.47319
  30
0
  11
47.83185
  21
14.52159
  31
0
  0
LINE
  8
0
  10
47.83185
  20
14.52159
  30
0
  11
47.57693
  21
14.57891
  31
0
  0
LINE
  8
0
  10
47.57693
  20
14.57891
  30
0
  11
47.45138
  21
14.61121
  31
0
  0
LINE
  8
0
  10
47.45138
  20
14.61121
  30
0
  11
47.32723
  21
14.64615
  31
0
  0
LINE
  8
0
  10
47.32723
  20
14.64615
  30
0
  11
47.20463
  21
14.68396
  31
0
  0
LINE
  8
0
  10
47.20463
  20
14.68396
  30
0
  11
47.14398
  21
14.70405
  31
0
  0
LINE
  8
0
  10
47.14398
  20
14.70405
  30
0
  11
47.08379
  21
14.725
  31
0
  0
LINE
  8
0
  10
47.08379
  20
14.725
  30
0
  11
47.02411
  21
14.74688
  31
0
  0
LINE
  8
0
  10
47.02411
  20
14.74688
  30
0
  11
46.07736
  21
13.18362
  31
0
  0
LINE
  8
0
  10
46.07736
  20
13.18362
  30
0
  11
46.12441
  21
13.14087
  31
0
  0
LINE
  8
0
  10
46.12441
  20
13.14087
  30
0
  11
46.17086
  21
13.09724
  31
0
  0
LINE
  8
0
  10
46.17086
  20
13.09724
  30
0
  11
46.21676
  21
13.05279
  31
0
  0
LINE
  8
0
  10
46.21676
  20
13.05279
  30
0
  11
46.30707
  21
12.96167
  31
0
  0
LINE
  8
0
  10
46.30707
  20
12.96167
  30
0
  11
46.39555
  21
12.86783
  31
0
  0
LINE
  8
0
  10
46.39555
  20
12.86783
  30
0
  11
46.48234
  21
12.77153
  31
0
  0
LINE
  8
0
  10
46.48234
  20
12.77153
  30
0
  11
46.65124
  21
12.57218
  31
0
  0
LINE
  8
0
  10
46.65124
  20
12.57218
  30
0
  11
46.81436
  21
12.36463
  31
0
  0
LINE
  8
0
  10
46.81436
  20
12.36463
  30
0
  11
46.97206
  21
12.1496
  31
0
  0
LINE
  8
0
  10
46.97206
  20
12.1496
  30
0
  11
47.12461
  21
11.92761
  31
0
  0
LINE
  8
0
  10
47.12461
  20
11.92761
  30
0
  11
47.27217
  21
11.69907
  31
0
  0
LINE
  8
0
  10
47.27217
  20
11.69907
  30
0
  11
47.41487
  21
11.46431
  31
0
  0
LINE
  8
0
  10
47.41487
  20
11.46431
  30
0
  11
47.5528
  21
11.22362
  31
0
  0
LINE
  8
0
  10
47.5528
  20
11.22362
  30
0
  11
47.65316
  21
11.03936
  31
0
  0
LINE
  8
0
  10
47.65316
  20
11.03936
  30
0
  11
46.66642
  21
9.73936
  31
0
  0
LINE
  8
0
  10
46.66642
  20
9.73936
  30
0
  11
46.46195
  21
9.78647
  31
0
  0
LINE
  8
0
  10
46.46195
  20
9.78647
  30
0
  11
46.19303
  21
9.8546
  31
0
  0
LINE
  8
0
  10
46.19303
  20
9.8546
  30
0
  11
45.92855
  21
9.92891
  31
0
  0
LINE
  8
0
  10
45.92855
  20
9.92891
  30
0
  11
45.66874
  21
10.00958
  31
0
  0
LINE
  8
0
  10
45.66874
  20
10.00958
  30
0
  11
45.41391
  21
10.09681
  31
0
  0
LINE
  8
0
  10
45.41391
  20
10.09681
  30
0
  11
45.16439
  21
10.19088
  31
0
  0
LINE
  8
0
  10
45.16439
  20
10.19088
  30
0
  11
44.92062
  21
10.29217
  31
0
  0
LINE
  8
0
  10
44.92062
  20
10.29217
  30
0
  11
44.68319
  21
10.40124
  31
0
  0
LINE
  8
0
  10
44.68319
  20
10.40124
  30
0
  11
44.5671
  21
10.45893
  31
0
  0
LINE
  8
0
  10
44.5671
  20
10.45893
  30
0
  11
44.45293
  21
10.51892
  31
0
  0
LINE
  8
0
  10
44.45293
  20
10.51892
  30
0
  11
44.34087
  21
10.5814
  31
0
  0
LINE
  8
0
  10
44.34087
  20
10.5814
  30
0
  11
44.28572
  21
10.61366
  31
0
  0
LINE
  8
0
  10
44.28572
  20
10.61366
  30
0
  11
44.2312
  21
10.64667
  31
0
  0
LINE
  8
0
  10
44.2312
  20
10.64667
  30
0
  11
44.17738
  21
10.68048
  31
0
  0
LINE
  8
0
  10
44.17738
  20
10.68048
  30
0
  11
42.9263
  21
9.34821
  31
0
  0
LINE
  8
0
  10
42.9263
  20
9.34821
  30
0
  11
42.96342
  21
9.29662
  31
0
  0
LINE
  8
0
  10
42.96342
  20
9.29662
  30
0
  11
42.99979
  21
9.24428
  31
0
  0
LINE
  8
0
  10
42.99979
  20
9.24428
  30
0
  11
43.03545
  21
9.19126
  31
0
  0
LINE
  8
0
  10
43.03545
  20
9.19126
  30
0
  11
43.10484
  21
9.08335
  31
0
  0
LINE
  8
0
  10
43.10484
  20
9.08335
  30
0
  11
43.17188
  21
8.97318
  31
0
  0
LINE
  8
0
  10
43.17188
  20
8.97318
  30
0
  11
43.23675
  21
8.86093
  31
0
  0
LINE
  8
0
  10
43.23675
  20
8.86093
  30
0
  11
43.36051
  21
8.63082
  31
0
  0
LINE
  8
0
  10
43.36051
  20
8.63082
  30
0
  11
43.47691
  21
8.39389
  31
0
  0
LINE
  8
0
  10
43.47691
  20
8.39389
  30
0
  11
43.58646
  21
8.15077
  31
0
  0
LINE
  8
0
  10
43.58646
  20
8.15077
  30
0
  11
43.68952
  21
7.90192
  31
0
  0
LINE
  8
0
  10
43.68952
  20
7.90192
  30
0
  11
43.78634
  21
7.64769
  31
0
  0
LINE
  8
0
  10
43.78634
  20
7.64769
  30
0
  11
43.87711
  21
7.3884
  31
0
  0
LINE
  8
0
  10
43.87711
  20
7.3884
  30
0
  11
43.96199
  21
7.12429
  31
0
  0
LINE
  8
0
  10
43.96199
  20
7.12429
  30
0
  11
44.02185
  21
6.92318
  31
0
  0
LINE
  8
0
  10
44.02185
  20
6.92318
  30
0
  11
42.78638
  21
5.85675
  31
0
  0
LINE
  8
0
  10
42.78638
  20
5.85675
  30
0
  11
42.59617
  21
5.94534
  31
0
  0
LINE
  8
0
  10
42.59617
  20
5.94534
  30
0
  11
42.34729
  21
6.06789
  31
0
  0
LINE
  8
0
  10
42.34729
  20
6.06789
  30
0
  11
42.10404
  21
6.19557
  31
0
  0
LINE
  8
0
  10
42.10404
  20
6.19557
  30
0
  11
41.86669
  21
6.32849
  31
0
  0
LINE
  8
0
  10
41.86669
  20
6.32849
  30
0
  11
41.63556
  21
6.4668
  31
0
  0
LINE
  8
0
  10
41.63556
  20
6.4668
  30
0
  11
41.41105
  21
6.61069
  31
0
  0
LINE
  8
0
  10
41.41105
  20
6.61069
  30
0
  11
41.19367
  21
6.76045
  31
0
  0
LINE
  8
0
  10
41.19367
  20
6.76045
  30
0
  11
40.9841
  21
6.9165
  31
0
  0
LINE
  8
0
  10
40.9841
  20
6.9165
  30
0
  11
40.88254
  21
6.99707
  31
0
  0
LINE
  8
0
  10
40.88254
  20
6.99707
  30
0
  11
40.78334
  21
7.07949
  31
0
  0
LINE
  8
0
  10
40.78334
  20
7.07949
  30
0
  11
40.68672
  21
7.1639
  31
0
  0
LINE
  8
0
  10
40.68672
  20
7.1639
  30
0
  11
40.63948
  21
7.20692
  31
0
  0
LINE
  8
0
  10
40.63948
  20
7.20692
  30
0
  11
40.59302
  21
7.25054
  31
0
  0
LINE
  8
0
  10
40.59302
  20
7.25054
  30
0
  11
40.5474
  21
7.2948
  31
0
  0
LINE
  8
0
  10
40.5474
  20
7.2948
  30
0
  11
39.04666
  21
6.25177
  31
0
  0
LINE
  8
0
  10
39.04666
  20
6.25177
  30
0
  11
39.07225
  21
6.19358
  31
0
  0
LINE
  8
0
  10
39.07225
  20
6.19358
  30
0
  11
39.09694
  21
6.13483
  31
0
  0
LINE
  8
0
  10
39.09694
  20
6.13483
  30
0
  11
39.1208
  21
6.07555
  31
0
  0
LINE
  8
0
  10
39.1208
  20
6.07555
  30
0
  11
39.16624
  21
5.95557
  31
0
  0
LINE
  8
0
  10
39.16624
  20
5.95557
  30
0
  11
39.2089
  21
5.83387
  31
0
  0
LINE
  8
0
  10
39.2089
  20
5.83387
  30
0
  11
39.24902
  21
5.71059
  31
0
  0
LINE
  8
0
  10
39.24902
  20
5.71059
  30
0
  11
39.32223
  21
5.45977
  31
0
  0
LINE
  8
0
  10
39.32223
  20
5.45977
  30
0
  11
39.38683
  21
5.20382
  31
0
  0
LINE
  8
0
  10
39.38683
  20
5.20382
  30
0
  11
39.44344
  21
4.94324
  31
0
  0
LINE
  8
0
  10
39.44344
  20
4.94324
  30
0
  11
39.4925
  21
4.67839
  31
0
  0
LINE
  8
0
  10
39.4925
  20
4.67839
  30
0
  11
39.53435
  21
4.40959
  31
0
  0
LINE
  8
0
  10
39.53435
  20
4.40959
  30
0
  11
39.56923
  21
4.13709
  31
0
  0
LINE
  8
0
  10
39.56923
  20
4.13709
  30
0
  11
39.59734
  21
3.86111
  31
0
  0
LINE
  8
0
  10
39.59734
  20
3.86111
  30
0
  11
39.61408
  21
3.65195
  31
0
  0
LINE
  8
0
  10
39.61408
  20
3.65195
  30
0
  11
38.18388
  21
2.86569
  31
0
  0
LINE
  8
0
  10
38.18388
  20
2.86569
  30
0
  11
38.01625
  21
2.99189
  31
0
  0
LINE
  8
0
  10
38.01625
  20
2.99189
  30
0
  11
37.7983
  21
3.16351
  31
0
  0
LINE
  8
0
  10
37.7983
  20
3.16351
  30
0
  11
37.5869
  21
3.33898
  31
0
  0
LINE
  8
0
  10
37.5869
  20
3.33898
  30
0
  11
37.38237
  21
3.51834
  31
0
  0
LINE
  8
0
  10
37.38237
  20
3.51834
  30
0
  11
37.18505
  21
3.70168
  31
0
  0
LINE
  8
0
  10
37.18505
  20
3.70168
  30
0
  11
36.99536
  21
3.8891
  31
0
  0
LINE
  8
0
  10
36.99536
  20
3.8891
  30
0
  11
36.81387
  21
4.08079
  31
0
  0
LINE
  8
0
  10
36.81387
  20
4.08079
  30
0
  11
36.64133
  21
4.277
  31
0
  0
LINE
  8
0
  10
36.64133
  20
4.277
  30
0
  11
36.55874
  21
4.37693
  31
0
  0
LINE
  8
0
  10
36.55874
  20
4.37693
  30
0
  11
36.47884
  21
4.47816
  31
0
  0
LINE
  8
0
  10
36.47884
  20
4.47816
  30
0
  11
36.40188
  21
4.58082
  31
0
  0
LINE
  8
0
  10
36.40188
  20
4.58082
  30
0
  11
36.36462
  21
4.63272
  31
0
  0
LINE
  8
0
  10
36.36462
  20
4.63272
  30
0
  11
36.32824
  21
4.68505
  31
0
  0
LINE
  8
0
  10
36.32824
  20
4.68505
  30
0
  11
36.29282
  21
4.73783
  31
0
  0
LINE
  8
0
  10
36.29282
  20
4.73783
  30
0
  11
34.60802
  21
4.0296
  31
0
  0
LINE
  8
0
  10
34.60802
  20
4.0296
  30
0
  11
34.62095
  21
3.96737
  31
0
  0
LINE
  8
0
  10
34.62095
  20
3.96737
  30
0
  11
34.63289
  21
3.90477
  31
0
  0
LINE
  8
0
  10
34.63289
  20
3.90477
  30
0
  11
34.6439
  21
3.84183
  31
0
  0
LINE
  8
0
  10
34.6439
  20
3.84183
  30
0
  11
34.6634
  21
3.71502
  31
0
  0
LINE
  8
0
  10
34.6634
  20
3.71502
  30
0
  11
34.67983
  21
3.5871
  31
0
  0
LINE
  8
0
  10
34.67983
  20
3.5871
  30
0
  11
34.69343
  21
3.45818
  31
0
  0
LINE
  8
0
  10
34.69343
  20
3.45818
  30
0
  11
34.7129
  21
3.19762
  31
0
  0
LINE
  8
0
  10
34.7129
  20
3.19762
  30
0
  11
34.72287
  21
2.93384
  31
0
  0
LINE
  8
0
  10
34.72287
  20
2.93384
  30
0
  11
34.72407
  21
2.66718
  31
0
  0
LINE
  8
0
  10
34.72407
  20
2.66718
  30
0
  11
34.717
  21
2.39792
  31
0
  0
LINE
  8
0
  10
34.717
  20
2.39792
  30
0
  11
34.70204
  21
2.12629
  31
0
  0
LINE
  8
0
  10
34.70204
  20
2.12629
  30
0
  11
34.67951
  21
1.85249
  31
0
  0
LINE
  8
0
  10
34.67951
  20
1.85249
  30
0
  11
34.64962
  21
1.57669
  31
0
  0
LINE
  8
0
  10
34.64962
  20
1.57669
  30
0
  11
34.62251
  21
1.36863
  31
0
  0
LINE
  8
0
  10
34.62251
  20
1.36863
  30
0
  11
33.06009
  21
0.89691
  31
0
  0
LINE
  8
0
  10
33.06009
  20
0.89691
  30
0
  11
32.92236
  21
1.0552
  31
0
  0
LINE
  8
0
  10
32.92236
  20
1.0552
  30
0
  11
32.74485
  21
1.26838
  31
0
  0
LINE
  8
0
  10
32.74485
  20
1.26838
  30
0
  11
32.57456
  21
1.48397
  31
0
  0
LINE
  8
0
  10
32.57456
  20
1.48397
  30
0
  11
32.41179
  21
1.70193
  31
0
  0
LINE
  8
0
  10
32.41179
  20
1.70193
  30
0
  11
32.25689
  21
1.92229
  31
0
  0
LINE
  8
0
  10
32.25689
  20
1.92229
  30
0
  11
32.11032
  21
2.14506
  31
0
  0
LINE
  8
0
  10
32.11032
  20
2.14506
  30
0
  11
31.97265
  21
2.37029
  31
0
  0
LINE
  8
0
  10
31.97265
  20
2.37029
  30
0
  11
31.84467
  21
2.59809
  31
0
  0
LINE
  8
0
  10
31.84467
  20
2.59809
  30
0
  11
31.78466
  21
2.713
  31
0
  0
LINE
  8
0
  10
31.78466
  20
2.713
  30
0
  11
31.72756
  21
2.82864
  31
0
  0
LINE
  8
0
  10
31.72756
  20
2.82864
  30
0
  11
31.67363
  21
2.94505
  31
0
  0
LINE
  8
0
  10
31.67363
  20
2.94505
  30
0
  11
31.64797
  21
3.00357
  31
0
  0
LINE
  8
0
  10
31.64797
  20
3.00357
  30
0
  11
31.62326
  21
3.06231
  31
0
  0
LINE
  8
0
  10
31.62326
  20
3.06231
  30
0
  11
31.59959
  21
3.1213
  31
0
  0
LINE
  8
0
  10
31.59959
  20
3.1213
  30
0
  11
29.80436
  21
2.77885
  31
0
  0
LINE
  8
0
  10
29.80436
  20
2.77885
  30
0
  11
29.80407
  21
2.71529
  31
0
  0
LINE
  8
0
  10
29.80407
  20
2.71529
  30
0
  11
29.80273
  21
2.65157
  31
0
  0
LINE
  8
0
  10
29.80273
  20
2.65157
  30
0
  11
29.80041
  21
2.58771
  31
0
  0
LINE
  8
0
  10
29.80041
  20
2.58771
  30
0
  11
29.79312
  21
2.45963
  31
0
  0
LINE
  8
0
  10
29.79312
  20
2.45963
  30
0
  11
29.7826
  21
2.33109
  31
0
  0
LINE
  8
0
  10
29.7826
  20
2.33109
  30
0
  11
29.7691
  21
2.20215
  31
0
  0
LINE
  8
0
  10
29.7691
  20
2.20215
  30
0
  11
29.73397
  21
1.94324
  31
0
  0
LINE
  8
0
  10
29.73397
  20
1.94324
  30
0
  11
29.68888
  21
1.68315
  31
0
  0
LINE
  8
0
  10
29.68888
  20
1.68315
  30
0
  11
29.63461
  21
1.42206
  31
0
  0
LINE
  8
0
  10
29.63461
  20
1.42206
  30
0
  11
29.57171
  21
1.16016
  31
0
  0
LINE
  8
0
  10
29.57171
  20
1.16016
  30
0
  11
29.50061
  21
0.89758
  31
0
  0
LINE
  8
0
  10
29.50061
  20
0.89758
  30
0
  11
29.42164
  21
0.63445
  31
0
  0
LINE
  8
0
  10
29.42164
  20
0.63445
  30
0
  11
29.33506
  21
0.37089
  31
0
  0
LINE
  8
0
  10
29.33506
  20
0.37089
  30
0
  11
29.26528
  21
0.17301
  31
0
  0
LINE
  8
0
  10
29.26528
  20
0.17301
  30
0
  11
27.63893
  21
0.03644
  31
0
  0
LINE
  8
0
  10
27.63893
  20
0.03644
  30
0
  11
27.53713
  21
0.21991
  31
0
  0
LINE
  8
0
  10
27.53713
  20
0.21991
  30
0
  11
27.40781
  21
0.46534
  31
0
  0
LINE
  8
0
  10
27.40781
  20
0.46534
  30
0
  11
27.28607
  21
0.71162
  31
0
  0
LINE
  8
0
  10
27.28607
  20
0.71162
  30
0
  11
27.17217
  21
0.95867
  31
0
  0
LINE
  8
0
  10
27.17217
  20
0.95867
  30
0
  11
27.06648
  21
1.20641
  31
0
  0
LINE
  8
0
  10
27.06648
  20
1.20641
  30
0
  11
26.96942
  21
1.45479
  31
0
  0
LINE
  8
0
  10
26.96942
  20
1.45479
  30
0
  11
26.88159
  21
1.70372
  31
0
  0
LINE
  8
0
  10
26.88159
  20
1.70372
  30
0
  11
26.80377
  21
1.95315
  31
0
  0
LINE
  8
0
  10
26.80377
  20
1.95315
  30
0
  11
26.76896
  21
2.07803
  31
0
  0
LINE
  8
0
  10
26.76896
  20
2.07803
  30
0
  11
26.73715
  21
2.20301
  31
0
  0
LINE
  8
0
  10
26.73715
  20
2.20301
  30
0
  11
26.7086
  21
2.32809
  31
0
  0
LINE
  8
0
  10
26.7086
  20
2.32809
  30
0
  11
26.69567
  21
2.39066
  31
0
  0
LINE
  8
0
  10
26.69567
  20
2.39066
  30
0
  11
26.68371
  21
2.45326
  31
0
  0
LINE
  8
0
  10
26.68371
  20
2.45326
  30
0
  11
26.67283
  21
2.51588
  31
0
  0
LINE
  8
0
  10
26.67283
  20
2.51588
  30
0
  11
24.84563
  21
2.55416
  31
0
  0
LINE
  8
0
  10
24.84563
  20
2.55416
  30
0
  11
24.83213
  21
2.49205
  31
0
  0
LINE
  8
0
  10
24.83213
  20
2.49205
  30
0
  11
24.81756
  21
2.43
  31
0
  0
LINE
  8
0
  10
24.81756
  20
2.43
  30
0
  11
24.80202
  21
2.36802
  31
0
  0
LINE
  8
0
  10
24.80202
  20
2.36802
  30
0
  11
24.76826
  21
2.24425
  31
0
  0
LINE
  8
0
  10
24.76826
  20
2.24425
  30
0
  11
24.73124
  21
2.12071
  31
0
  0
LINE
  8
0
  10
24.73124
  20
2.12071
  30
0
  11
24.69124
  21
1.9974
  31
0
  0
LINE
  8
0
  10
24.69124
  20
1.9974
  30
0
  11
24.60304
  21
1.75145
  31
0
  0
LINE
  8
0
  10
24.60304
  20
1.75145
  30
0
  11
24.50486
  21
1.50641
  31
0
  0
LINE
  8
0
  10
24.50486
  20
1.50641
  30
0
  11
24.39749
  21
1.26232
  31
0
  0
LINE
  8
0
  10
24.39749
  20
1.26232
  30
0
  11
24.28151
  21
1.01922
  31
0
  0
LINE
  8
0
  10
24.28151
  20
1.01922
  30
0
  11
24.15737
  21
0.77715
  31
0
  0
LINE
  8
0
  10
24.15737
  20
0.77715
  30
0
  11
24.02542
  21
0.53619
  31
0
  0
LINE
  8
0
  10
24.02542
  20
0.53619
  30
0
  11
23.88594
  21
0.29639
  31
0
  0
LINE
  8
0
  10
23.88594
  20
0.29639
  30
0
  11
23.77654
  21
0.11735
  31
0
  0
LINE
  8
0
  10
23.77654
  20
0.11735
  30
0
  11
22.15734
  21
0.3219
  31
0
  0
LINE
  8
0
  10
22.15734
  20
0.3219
  30
0
  11
22.0959
  21
0.52253
  31
0
  0
LINE
  8
0
  10
22.0959
  20
0.52253
  30
0
  11
22.02044
  21
0.78948
  31
0
  0
LINE
  8
0
  10
22.02044
  20
0.78948
  30
0
  11
21.95256
  21
1.05569
  31
0
  0
LINE
  8
0
  10
21.95256
  20
1.05569
  30
0
  11
21.89252
  21
1.32102
  31
0
  0
LINE
  8
0
  10
21.89252
  20
1.32102
  30
0
  11
21.84064
  21
1.58532
  31
0
  0
LINE
  8
0
  10
21.84064
  20
1.58532
  30
0
  11
21.79735
  21
1.84845
  31
0
  0
LINE
  8
0
  10
21.79735
  20
1.84845
  30
0
  11
21.76319
  21
2.1102
  31
0
  0
LINE
  8
0
  10
21.76319
  20
2.1102
  30
0
  11
21.73893
  21
2.37036
  31
0
  0
LINE
  8
0
  10
21.73893
  20
2.37036
  30
0
  11
21.73085
  21
2.49975
  31
0
  0
LINE
  8
0
  10
21.73085
  20
2.49975
  30
0
  11
21.72571
  21
2.62861
  31
0
  0
LINE
  8
0
  10
21.72571
  20
2.62861
  30
0
  11
21.72379
  21
2.7569
  31
0
  0
LINE
  8
0
  10
21.72379
  20
2.7569
  30
0
  11
21.72416
  21
2.82079
  31
0
  0
LINE
  8
0
  10
21.72416
  20
2.82079
  30
0
  11
21.72548
  21
2.88451
  31
0
  0
LINE
  8
0
  10
21.72548
  20
2.88451
  30
0
  11
21.72785
  21
2.94802
  31
0
  0
LINE
  8
0
  10
21.72785
  20
2.94802
  30
0
  11
19.94854
  21
3.36536
  31
0
  0
LINE
  8
0
  10
19.94854
  20
3.36536
  30
0
  11
19.92242
  21
3.30741
  31
0
  0
LINE
  8
0
  10
19.92242
  20
3.30741
  30
0
  11
19.89527
  21
3.24975
  31
0
  0
LINE
  8
0
  10
19.89527
  20
3.24975
  30
0
  11
19.86719
  21
3.19236
  31
0
  0
LINE
  8
0
  10
19.86719
  20
3.19236
  30
0
  11
19.80843
  21
3.07831
  31
0
  0
LINE
  8
0
  10
19.80843
  20
3.07831
  30
0
  11
19.74653
  21
2.96516
  31
0
  0
LINE
  8
0
  10
19.74653
  20
2.96516
  30
0
  11
19.68176
  21
2.85286
  31
0
  0
LINE
  8
0
  10
19.68176
  20
2.85286
  30
0
  11
19.54436
  21
2.63063
  31
0
  0
LINE
  8
0
  10
19.54436
  20
2.63063
  30
0
  11
19.39738
  21
2.41136
  31
0
  0
LINE
  8
0
  10
19.39738
  20
2.41136
  30
0
  11
19.2416
  21
2.19492
  31
0
  0
LINE
  8
0
  10
19.2416
  20
2.19492
  30
0
  11
19.07762
  21
1.98125
  31
0
  0
LINE
  8
0
  10
19.07762
  20
1.98125
  30
0
  11
18.90586
  21
1.77028
  31
0
  0
LINE
  8
0
  10
18.90586
  20
1.77028
  30
0
  11
18.72669
  21
1.56202
  31
0
  0
LINE
  8
0
  10
18.72669
  20
1.56202
  30
0
  11
18.54041
  21
1.35646
  31
0
  0
LINE
  8
0
  10
18.54041
  20
1.35646
  30
0
  11
18.39617
  21
1.20407
  31
0
  0
LINE
  8
0
  10
18.39617
  20
1.20407
  30
0
  11
16.85488
  21
1.74081
  31
0
  0
LINE
  8
0
  10
16.85488
  20
1.74081
  30
0
  11
16.8365
  21
1.94982
  31
0
  0
LINE
  8
0
  10
16.8365
  20
1.94982
  30
0
  11
16.81819
  21
2.22663
  31
0
  0
LINE
  8
0
  10
16.81819
  20
2.22663
  30
0
  11
16.80714
  21
2.50114
  31
0
  0
LINE
  8
0
  10
16.80714
  20
2.50114
  30
0
  11
16.80357
  21
2.77315
  31
0
  0
LINE
  8
0
  10
16.80357
  20
2.77315
  30
0
  11
16.80778
  21
3.04247
  31
0
  0
LINE
  8
0
  10
16.80778
  20
3.04247
  30
0
  11
16.82015
  21
3.30884
  31
0
  0
LINE
  8
0
  10
16.82015
  20
3.30884
  30
0
  11
16.84116
  21
3.57198
  31
0
  0
LINE
  8
0
  10
16.84116
  20
3.57198
  30
0
  11
16.87151
  21
3.8315
  31
0
  0
LINE
  8
0
  10
16.87151
  20
3.8315
  30
0
  11
16.89051
  21
3.95974
  31
0
  0
LINE
  8
0
  10
16.89051
  20
3.95974
  30
0
  11
16.91228
  21
4.08686
  31
0
  0
LINE
  8
0
  10
16.91228
  20
4.08686
  30
0
  11
16.93707
  21
4.21273
  31
0
  0
LINE
  8
0
  10
16.93707
  20
4.21273
  30
0
  11
16.95071
  21
4.27516
  31
0
  0
LINE
  8
0
  10
16.95071
  20
4.27516
  30
0
  11
16.96525
  21
4.33721
  31
0
  0
LINE
  8
0
  10
16.96525
  20
4.33721
  30
0
  11
16.98078
  21
4.39884
  31
0
  0
LINE
  8
0
  10
16.98078
  20
4.39884
  30
0
  11
15.32712
  21
5.177
  31
0
  0
LINE
  8
0
  10
15.32712
  20
5.177
  30
0
  11
15.28952
  21
5.12575
  31
0
  0
LINE
  8
0
  10
15.28952
  20
5.12575
  30
0
  11
15.25098
  21
5.07499
  31
0
  0
LINE
  8
0
  10
15.25098
  20
5.07499
  30
0
  11
15.21158
  21
5.02469
  31
0
  0
LINE
  8
0
  10
15.21158
  20
5.02469
  30
0
  11
15.13039
  21
4.92535
  31
0
  0
LINE
  8
0
  10
15.13039
  20
4.92535
  30
0
  11
15.04632
  21
4.82755
  31
0
  0
LINE
  8
0
  10
15.04632
  20
4.82755
  30
0
  11
14.95962
  21
4.73117
  31
0
  0
LINE
  8
0
  10
14.95962
  20
4.73117
  30
0
  11
14.77901
  21
4.54235
  31
0
  0
LINE
  8
0
  10
14.77901
  20
4.54235
  30
0
  11
14.58965
  21
4.35844
  31
0
  0
LINE
  8
0
  10
14.58965
  20
4.35844
  30
0
  11
14.39228
  21
4.17912
  31
0
  0
LINE
  8
0
  10
14.39228
  20
4.17912
  30
0
  11
14.18745
  21
4.0042
  31
0
  0
LINE
  8
0
  10
14.18745
  20
4.0042
  30
0
  11
13.97559
  21
3.83356
  31
0
  0
LINE
  8
0
  10
13.97559
  20
3.83356
  30
0
  11
13.75704
  21
3.6671
  31
0
  0
LINE
  8
0
  10
13.75704
  20
3.6671
  30
0
  11
13.53208
  21
3.50476
  31
0
  0
LINE
  8
0
  10
13.53208
  20
3.50476
  30
0
  11
13.35932
  21
3.38569
  31
0
  0
LINE
  8
0
  10
13.35932
  20
3.38569
  30
0
  11
11.9633
  21
4.23115
  31
0
  0
LINE
  8
0
  10
11.9633
  20
4.23115
  30
0
  11
11.98878
  21
4.43942
  31
0
  0
LINE
  8
0
  10
11.98878
  20
4.43942
  30
0
  11
12.02842
  21
4.71399
  31
0
  0
LINE
  8
0
  10
12.02842
  20
4.71399
  30
0
  11
12.07468
  21
4.98479
  31
0
  0
LINE
  8
0
  10
12.07468
  20
4.98479
  30
0
  11
12.12775
  21
5.2516
  31
0
  0
LINE
  8
0
  10
12.12775
  20
5.2516
  30
0
  11
12.18787
  21
5.51416
  31
0
  0
LINE
  8
0
  10
12.18787
  20
5.51416
  30
0
  11
12.25534
  21
5.77215
  31
0
  0
LINE
  8
0
  10
12.25534
  20
5.77215
  30
0
  11
12.3306
  21
6.02516
  31
0
  0
LINE
  8
0
  10
12.3306
  20
6.02516
  30
0
  11
12.41425
  21
6.2727
  31
0
  0
LINE
  8
0
  10
12.41425
  20
6.2727
  30
0
  11
12.45949
  21
6.39419
  31
0
  0
LINE
  8
0
  10
12.45949
  20
6.39419
  30
0
  11
12.50722
  21
6.514
  31
0
  0
LINE
  8
0
  10
12.50722
  20
6.514
  30
0
  11
12.55764
  21
6.63197
  31
0
  0
LINE
  8
0
  10
12.55764
  20
6.63197
  30
0
  11
12.58396
  21
6.6902
  31
0
  0
LINE
  8
0
  10
12.58396
  20
6.6902
  30
0
  11
12.61108
  21
6.74786
  31
0
  0
LINE
  8
0
  10
12.61108
  20
6.74786
  30
0
  11
12.63909
  21
6.80493
  31
0
  0
LINE
  8
0
  10
12.63909
  20
6.80493
  30
0
  11
11.18335
  21
7.90989
  31
0
  0
LINE
  8
0
  10
11.18335
  20
7.90989
  30
0
  11
11.13592
  21
7.86758
  31
0
  0
LINE
  8
0
  10
11.13592
  20
7.86758
  30
0
  11
11.08767
  21
7.82594
  31
0
  0
LINE
  8
0
  10
11.08767
  20
7.82594
  30
0
  11
11.03866
  21
7.78494
  31
0
  0
LINE
  8
0
  10
11.03866
  20
7.78494
  30
0
  11
10.9386
  21
7.70464
  31
0
  0
LINE
  8
0
  10
10.9386
  20
7.70464
  30
0
  11
10.83603
  21
7.62646
  31
0
  0
LINE
  8
0
  10
10.83603
  20
7.62646
  30
0
  11
10.73118
  21
7.55021
  31
0
  0
LINE
  8
0
  10
10.73118
  20
7.55021
  30
0
  11
10.51527
  21
7.40308
  31
0
  0
LINE
  8
0
  10
10.51527
  20
7.40308
  30
0
  11
10.29181
  21
7.26255
  31
0
  0
LINE
  8
0
  10
10.29181
  20
7.26255
  30
0
  11
10.06147
  21
7.12818
  31
0
  0
LINE
  8
0
  10
10.06147
  20
7.12818
  30
0
  11
9.82475
  21
6.99968
  31
0
  0
LINE
  8
0
  10
9.82475
  20
6.99968
  30
0
  11
9.58204
  21
6.87681
  31
0
  0
LINE
  8
0
  10
9.58204
  20
6.87681
  30
0
  11
9.33365
  21
6.75943
  31
0
  0
LINE
  8
0
  10
9.33365
  20
6.75943
  30
0
  11
9.07986
  21
6.64741
  31
0
  0
LINE
  8
0
  10
9.07986
  20
6.64741
  30
0
  11
8.88611
  21
6.56686
  31
0
  0
LINE
  8
0
  10
8.88611
  20
6.56686
  30
0
  11
7.69639
  21
7.68409
  31
0
  0
LINE
  8
0
  10
7.69639
  20
7.68409
  30
0
  11
7.76461
  21
7.88252
  31
0
  0
LINE
  8
0
  10
7.76461
  20
7.88252
  30
0
  11
7.86047
  21
8.14284
  31
0
  0
LINE
  8
0
  10
7.86047
  20
8.14284
  30
0
  11
7.96203
  21
8.39811
  31
0
  0
LINE
  8
0
  10
7.96203
  20
8.39811
  30
0
  11
8.06941
  21
8.64805
  31
0
  0
LINE
  8
0
  10
8.06941
  20
8.64805
  30
0
  11
8.1828
  21
8.89238
  31
0
  0
LINE
  8
0
  10
8.1828
  20
8.89238
  30
0
  11
8.30243
  21
9.13069
  31
0
  0
LINE
  8
0
  10
8.30243
  20
9.13069
  30
0
  11
8.42865
  21
9.36254
  31
0
  0
LINE
  8
0
  10
8.42865
  20
9.36254
  30
0
  11
8.56194
  21
9.58727
  31
0
  0
LINE
  8
0
  10
8.56194
  20
9.58727
  30
0
  11
8.63145
  21
9.69669
  31
0
  0
LINE
  8
0
  10
8.63145
  20
9.69669
  30
0
  11
8.70305
  21
9.80397
  31
0
  0
LINE
  8
0
  10
8.70305
  20
9.80397
  30
0
  11
8.7769
  21
9.90888
  31
0
  0
LINE
  8
0
  10
8.7769
  20
9.90888
  30
0
  11
8.81475
  21
9.96036
  31
0
  0
LINE
  8
0
  10
8.81475
  20
9.96036
  30
0
  11
8.85327
  21
10.01113
  31
0
  0
LINE
  8
0
  10
8.85327
  20
10.01113
  30
0
  11
8.89252
  21
10.06112
  31
0
  0
LINE
  8
0
  10
8.89252
  20
10.06112
  30
0
  11
7.69833
  21
11.44461
  31
0
  0
LINE
  8
0
  10
7.69833
  20
11.44461
  30
0
  11
7.64314
  21
11.41308
  31
0
  0
LINE
  8
0
  10
7.64314
  20
11.41308
  30
0
  11
7.58729
  21
11.38238
  31
0
  0
LINE
  8
0
  10
7.58729
  20
11.38238
  30
0
  11
7.53083
  21
11.35246
  31
0
  0
LINE
  8
0
  10
7.53083
  20
11.35246
  30
0
  11
7.41626
  21
11.29473
  31
0
  0
LINE
  8
0
  10
7.41626
  20
11.29473
  30
0
  11
7.29968
  21
11.23958
  31
0
  0
LINE
  8
0
  10
7.29968
  20
11.23958
  30
0
  11
7.18127
  21
11.1868
  31
0
  0
LINE
  8
0
  10
7.18127
  20
11.1868
  30
0
  11
6.93948
  21
11.08777
  31
0
  0
LINE
  8
0
  10
6.93948
  20
11.08777
  30
0
  11
6.69168
  21
10.99677
  31
0
  0
LINE
  8
0
  10
6.69168
  20
10.99677
  30
0
  11
6.43844
  21
10.91323
  31
0
  0
LINE
  8
0
  10
6.43844
  20
10.91323
  30
0
  11
6.18018
  21
10.83675
  31
0
  0
LINE
  8
0
  10
6.18018
  20
10.83675
  30
0
  11
5.91722
  21
10.76703
  31
0
  0
LINE
  8
0
  10
5.91722
  20
10.76703
  30
0
  11
5.64986
  21
10.70386
  31
0
  0
LINE
  8
0
  10
5.64986
  20
10.70386
  30
0
  11
5.37833
  21
10.64705
  31
0
  0
LINE
  8
0
  10
5.37833
  20
10.64705
  30
0
  11
5.17207
  21
10.60854
  31
0
  0
LINE
  8
0
  10
5.17207
  20
10.60854
  30
0
  11
4.24062
  21
11.94872
  31
0
  0
LINE
  8
0
  10
4.24062
  20
11.94872
  30
0
  11
4.34861
  21
12.12862
  31
0
  0
LINE
  8
0
  10
4.34861
  20
12.12862
  30
0
  11
4.4965
  21
12.36333
  31
0
  0
LINE
  8
0
  10
4.4965
  20
12.36333
  30
0
  11
4.64891
  21
12.5919
  31
0
  0
LINE
  8
0
  10
4.64891
  20
12.5919
  30
0
  11
4.80591
  21
12.81406
  31
0
  0
LINE
  8
0
  10
4.80591
  20
12.81406
  30
0
  11
4.96762
  21
13.02947
  31
0
  0
LINE
  8
0
  10
4.96762
  20
13.02947
  30
0
  11
5.13419
  21
13.23771
  31
0
  0
LINE
  8
0
  10
5.13419
  20
13.23771
  30
0
  11
5.30585
  21
13.43824
  31
0
  0
LINE
  8
0
  10
5.30585
  20
13.43824
  30
0
  11
5.48295
  21
13.63035
  31
0
  0
LINE
  8
0
  10
5.48295
  20
13.63035
  30
0
  11
5.5737
  21
13.72293
  31
0
  0
LINE
  8
0
  10
5.5737
  20
13.72293
  30
0
  11
5.66603
  21
13.81298
  31
0
  0
LINE
  8
0
  10
5.66603
  20
13.81298
  30
0
  11
5.76008
  21
13.90024
  31
0
  0
LINE
  8
0
  10
5.76008
  20
13.90024
  30
0
  11
5.8078
  21
13.94272
  31
0
  0
LINE
  8
0
  10
5.8078
  20
13.94272
  30
0
  11
5.85604
  21
13.98437
  31
0
  0
LINE
  8
0
  10
5.85604
  20
13.98437
  30
0
  11
5.90483
  21
14.02511
  31
0
  0
LINE
  8
0
  10
5.90483
  20
14.02511
  30
0
  11
5.02437
  21
15.62665
  31
0
  0
LINE
  8
0
  10
5.02437
  20
15.62665
  30
0
  11
4.96384
  21
15.60729
  31
0
  0
LINE
  8
0
  10
4.96384
  20
15.60729
  30
0
  11
4.90282
  21
15.58888
  31
0
  0
LINE
  8
0
  10
4.90282
  20
15.58888
  30
0
  11
4.84138
  21
15.57135
  31
0
  0
LINE
  8
0
  10
4.84138
  20
15.57135
  30
0
  11
4.71731
  21
15.5387
  31
0
  0
LINE
  8
0
  10
4.71731
  20
15.5387
  30
0
  11
4.59181
  21
15.50899
  31
0
  0
LINE
  8
0
  10
4.59181
  20
15.50899
  30
0
  11
4.46501
  21
15.48198
  31
0
  0
LINE
  8
0
  10
4.46501
  20
15.48198
  30
0
  11
4.20791
  21
15.43538
  31
0
  0
LINE
  8
0
  10
4.20791
  20
15.43538
  30
0
  11
3.94662
  21
15.39789
  31
0
  0
LINE
  8
0
  10
3.94662
  20
15.39789
  30
0
  11
3.68154
  21
15.36883
  31
0
  0
LINE
  8
0
  10
3.68154
  20
15.36883
  30
0
  11
3.41302
  21
15.34772
  31
0
  0
LINE
  8
0
  10
3.41302
  20
15.34772
  30
0
  11
3.14132
  21
15.3342
  31
0
  0
LINE
  8
0
  10
3.14132
  20
15.3342
  30
0
  11
2.86666
  21
15.32799
  31
0
  0
LINE
  8
0
  10
2.86666
  20
15.32799
  30
0
  11
2.58925
  21
15.32888
  31
0
  0
LINE
  8
0
  10
2.58925
  20
15.32888
  30
0
  11
2.37949
  21
15.3341
  31
0
  0
LINE
  8
0
  10
2.37949
  20
15.3341
  30
0
  11
1.74704
  21
16.83865
  31
0
  0
LINE
  8
0
  10
1.74704
  20
16.83865
  30
0
  11
1.89007
  21
16.99217
  31
0
  0
LINE
  8
0
  10
1.89007
  20
16.99217
  30
0
  11
2.08353
  21
17.191
  31
0
  0
LINE
  8
0
  10
2.08353
  20
17.191
  30
0
  11
2.28013
  21
17.38289
  31
0
  0
LINE
  8
0
  10
2.28013
  20
17.38289
  30
0
  11
2.47989
  21
17.56755
  31
0
  0
LINE
  8
0
  10
2.47989
  20
17.56755
  30
0
  11
2.68285
  21
17.74463
  31
0
  0
LINE
  8
0
  10
2.68285
  20
17.74463
  30
0
  11
2.88907
  21
17.91368
  31
0
  0
LINE
  8
0
  10
2.88907
  20
17.91368
  30
0
  11
3.09868
  21
18.07414
  31
0
  0
LINE
  8
0
  10
3.09868
  20
18.07414
  30
0
  11
3.31185
  21
18.22523
  31
0
  0
LINE
  8
0
  10
3.31185
  20
18.22523
  30
0
  11
3.41986
  21
18.29693
  31
0
  0
LINE
  8
0
  10
3.41986
  20
18.29693
  30
0
  11
3.5289
  21
18.36581
  31
0
  0
LINE
  8
0
  10
3.5289
  20
18.36581
  30
0
  11
3.63903
  21
18.43161
  31
0
  0
LINE
  8
0
  10
3.63903
  20
18.43161
  30
0
  11
3.69455
  21
18.46324
  31
0
  0
LINE
  8
0
  10
3.69455
  20
18.46324
  30
0
  11
3.75039
  21
18.49395
  31
0
  0
LINE
  8
0
  10
3.75039
  20
18.49395
  30
0
  11
3.80659
  21
18.52366
  31
0
  0
LINE
  8
0
  10
3.80659
  20
18.52366
  30
0
  11
3.27835
  21
20.27326
  31
0
  0
LINE
  8
0
  10
3.27835
  20
20.27326
  30
0
  11
3.21511
  21
20.2669
  31
0
  0
LINE
  8
0
  10
3.21511
  20
20.2669
  30
0
  11
3.1516
  21
20.26158
  31
0
  0
LINE
  8
0
  10
3.1516
  20
20.26158
  30
0
  11
3.08785
  21
20.25721
  31
0
  0
LINE
  8
0
  10
3.08785
  20
20.25721
  30
0
  11
2.9597
  21
20.25107
  31
0
  0
LINE
  8
0
  10
2.9597
  20
20.25107
  30
0
  11
2.83077
  21
20.2481
  31
0
  0
LINE
  8
0
  10
2.83077
  20
20.2481
  30
0
  11
2.70113
  21
20.24805
  31
0
  0
LINE
  8
0
  10
2.70113
  20
20.24805
  30
0
  11
2.43996
  21
20.25592
  31
0
  0
LINE
  8
0
  10
2.43996
  20
20.25592
  30
0
  11
2.17658
  21
20.27358
  31
0
  0
LINE
  8
0
  10
2.17658
  20
20.27358
  30
0
  11
1.91126
  21
20.30026
  31
0
  0
LINE
  8
0
  10
1.91126
  20
20.30026
  30
0
  11
1.64421
  21
20.33544
  31
0
  0
LINE
  8
0
  10
1.64421
  20
20.33544
  30
0
  11
1.37564
  21
20.3787
  31
0
  0
LINE
  8
0
  10
1.37564
  20
20.3787
  30
0
  11
1.10569
  21
20.42974
  31
0
  0
LINE
  8
0
  10
1.10569
  20
20.42974
  30
0
  11
0.83453
  21
20.48829
  31
0
  0
LINE
  8
0
  10
0.83453
  20
20.48829
  30
0
  11
0.63044
  21
20.537
  31
0
  0
LINE
  8
0
  10
0.63044
  20
20.537
  30
0
  11
0.32462
  21
22.14017
  31
0
  0
LINE
  8
0
  10
0.32462
  20
22.14017
  30
0
  11
0.49644
  21
22.26059
  31
0
  0
LINE
  8
0
  10
0.49644
  20
22.26059
  30
0
  11
0.72701
  21
22.41485
  31
0
  0
LINE
  8
0
  10
0.72701
  20
22.41485
  30
0
  11
0.95921
  21
22.56168
  31
0
  0
LINE
  8
0
  10
0.95921
  20
22.56168
  30
0
  11
1.193
  21
22.70077
  31
0
  0
LINE
  8
0
  10
1.193
  20
22.70077
  30
0
  11
1.42834
  21
22.83178
  31
0
  0
LINE
  8
0
  10
1.42834
  20
22.83178
  30
0
  11
1.66521
  21
22.95427
  31
0
  0
LINE
  8
0
  10
1.66521
  20
22.95427
  30
0
  11
1.9036
  21
23.06764
  31
0
  0
LINE
  8
0
  10
1.9036
  20
23.06764
  30
0
  11
2.14353
  21
23.17111
  31
0
  0
LINE
  8
0
  10
2.14353
  20
23.17111
  30
0
  11
2.26408
  21
23.21878
  31
0
  0
LINE
  8
0
  10
2.26408
  20
23.21878
  30
0
  11
2.38506
  21
23.26348
  31
0
  0
LINE
  8
0
  10
2.38506
  20
23.26348
  30
0
  11
2.50647
  21
23.30495
  31
0
  0
LINE
  8
0
  10
2.50647
  20
23.30495
  30
0
  11
2.56735
  21
23.32435
  31
0
  0
LINE
  8
0
  10
2.56735
  20
23.32435
  30
0
  11
2.62835
  21
23.34278
  31
0
  0
LINE
  8
0
  10
2.62835
  20
23.34278
  30
0
  11
2.68949
  21
23.36015
  31
0
  0
LINE
  8
0
  10
2.68949
  20
23.36015
  30
0
  11
2.53656
  21
25.18135
  31
0
  0
LINE
  8
0
  10
2.53656
  20
25.18135
  30
0
  11
2.47338
  21
25.18828
  31
0
  0
LINE
  8
0
  10
2.47338
  20
25.18828
  30
0
  11
2.41016
  21
25.19628
  31
0
  0
LINE
  8
0
  10
2.41016
  20
25.19628
  30
0
  11
2.34689
  21
25.20525
  31
0
  0
LINE
  8
0
  10
2.34689
  20
25.20525
  30
0
  11
2.22027
  21
25.22589
  31
0
  0
LINE
  8
0
  10
2.22027
  20
25.22589
  30
0
  11
2.09353
  21
25.24979
  31
0
  0
LINE
  8
0
  10
2.09353
  20
25.24979
  30
0
  11
1.96671
  21
25.27669
  31
0
  0
LINE
  8
0
  10
1.96671
  20
25.27669
  30
0
  11
1.71289
  21
25.3387
  31
0
  0
LINE
  8
0
  10
1.71289
  20
25.3387
  30
0
  11
1.45894
  21
25.41073
  31
0
  0
LINE
  8
0
  10
1.45894
  20
25.41073
  30
0
  11
1.20496
  21
25.49199
  31
0
  0
LINE
  8
0
  10
1.20496
  20
25.49199
  30
0
  11
0.95106
  21
25.58192
  31
0
  0
LINE
  8
0
  10
0.95106
  20
25.58192
  30
0
  11
0.69735
  21
25.68008
  31
0
  0
LINE
  8
0
  10
0.69735
  20
25.68008
  30
0
  11
0.44392
  21
25.78612
  31
0
  0
LINE
  8
0
  10
0.44392
  20
25.78612
  30
0
  11
0.19085
  21
25.89977
  31
0
  0
LINE
  8
0
  10
0.19085
  20
25.89977
  30
0
  11
0.00135
  21
25.98986
  31
0
  0
LINE
  8
0
  10
0.00135
  20
25.98986
  30
0
  11
0.03553
  21
27.62157
  31
0
  0
LINE
  8
0
  10
0.03553
  20
27.62157
  30
0
  11
0.22864
  21
27.70364
  31
0
  0
LINE
  8
0
  10
0.22864
  20
27.70364
  30
0
  11
0.48624
  21
27.80659
  31
0
  0
LINE
  8
0
  10
0.48624
  20
27.80659
  30
0
  11
0.74389
  21
27.90193
  31
0
  0
LINE
  8
0
  10
0.74389
  20
27.90193
  30
0
  11
1.00149
  21
27.98938
  31
0
  0
LINE
  8
0
  10
1.00149
  20
27.98938
  30
0
  11
1.25893
  21
28.0686
  31
0
  0
LINE
  8
0
  10
1.25893
  20
28.0686
  30
0
  11
1.51609
  21
28.13916
  31
0
  0
LINE
  8
0
  10
1.51609
  20
28.13916
  30
0
  11
1.77284
  21
28.20049
  31
0
  0
LINE
  8
0
  10
1.77284
  20
28.20049
  30
0
  11
2.02903
  21
28.25181
  31
0
  0
LINE
  8
0
  10
2.02903
  20
28.25181
  30
0
  11
2.15687
  21
28.27337
  31
0
  0
LINE
  8
0
  10
2.15687
  20
28.27337
  30
0
  11
2.28449
  21
28.29195
  31
0
  0
LINE
  8
0
  10
2.28449
  20
28.29195
  30
0
  11
2.41187
  21
28.30727
  31
0
  0
LINE
  8
0
  10
2.41187
  20
28.30727
  30
0
  11
2.47545
  21
28.31359
  31
0
  0
LINE
  8
0
  10
2.47545
  20
28.31359
  30
0
  11
2.53896
  21
28.31893
  31
0
  0
LINE
  8
0
  10
2.53896
  20
28.31893
  30
0
  11
2.60238
  21
28.32321
  31
0
  0
LINE
  8
0
  10
2.60238
  20
28.32321
  30
0
  11
2.83144
  21
30.1364
  31
0
  0
LINE
  8
0
  10
2.83144
  20
30.1364
  30
0
  11
2.77108
  21
30.15632
  31
0
  0
LINE
  8
0
  10
2.77108
  20
30.15632
  30
0
  11
2.71089
  21
30.17729
  31
0
  0
LINE
  8
0
  10
2.71089
  20
30.17729
  30
0
  11
2.65088
  21
30.19922
  31
0
  0
LINE
  8
0
  10
2.65088
  20
30.19922
  30
0
  11
2.53131
  21
30.24574
  31
0
  0
LINE
  8
0
  10
2.53131
  20
30.24574
  30
0
  11
2.41232
  21
30.29547
  31
0
  0
LINE
  8
0
  10
2.41232
  20
30.29547
  30
0
  11
2.29386
  21
30.34815
  31
0
  0
LINE
  8
0
  10
2.29386
  20
30.34815
  30
0
  11
2.05848
  21
30.46157
  31
0
  0
LINE
  8
0
  10
2.05848
  20
30.46157
  30
0
  11
1.82505
  21
30.58482
  31
0
  0
LINE
  8
0
  10
1.82505
  20
30.58482
  30
0
  11
1.59352
  21
30.71712
  31
0
  0
LINE
  8
0
  10
1.59352
  20
30.71712
  30
0
  11
1.36387
  21
30.85787
  31
0
  0
LINE
  8
0
  10
1.36387
  20
30.85787
  30
0
  11
1.13611
  21
31.00663
  31
0
  0
LINE
  8
0
  10
1.13611
  20
31.00663
  30
0
  11
0.91026
  21
31.16305
  31
0
  0
LINE
  8
0
  10
0.91026
  20
31.16305
  30
0
  11
0.68635
  21
31.32683
  31
0
  0
LINE
  8
0
  10
0.68635
  20
31.32683
  30
0
  11
0.51972
  21
31.45435
  31
0
  0
LINE
  8
0
  10
0.51972
  20
31.45435
  30
0
  11
0.89241
  21
33.0433
  31
0
  0
LINE
  8
0
  10
0.89241
  20
33.0433
  30
0
  11
1.09836
  21
33.08343
  31
0
  0
LINE
  8
0
  10
1.09836
  20
33.08343
  30
0
  11
1.37174
  21
33.13057
  31
0
  0
LINE
  8
0
  10
1.37174
  20
33.13057
  30
0
  11
1.64358
  21
33.17025
  31
0
  0
LINE
  8
0
  10
1.64358
  20
33.17025
  30
0
  11
1.91373
  21
33.20223
  31
0
  0
LINE
  8
0
  10
1.91373
  20
33.20223
  30
0
  11
2.18202
  21
33.2262
  31
0
  0
LINE
  8
0
  10
2.18202
  20
33.2262
  30
0
  11
2.44822
  21
33.24175
  31
0
  0
LINE
  8
0
  10
2.44822
  20
33.24175
  30
0
  11
2.71212
  21
33.24836
  31
0
  0
LINE
  8
0
  10
2.71212
  20
33.24836
  30
0
  11
2.97338
  21
33.24529
  31
0
  0
LINE
  8
0
  10
2.97338
  20
33.24529
  30
0
  11
3.10291
  21
33.23981
  31
0
  0
LINE
  8
0
  10
3.10291
  20
33.23981
  30
0
  11
3.2316
  21
33.23144
  31
0
  0
LINE
  8
0
  10
3.2316
  20
33.23144
  30
0
  11
3.35938
  21
33.21994
  31
0
  0
LINE
  8
0
  10
3.35938
  20
33.21994
  30
0
  11
3.42289
  21
33.2129
  31
0
  0
LINE
  8
0
  10
3.42289
  20
33.2129
  30
0
  11
3.48612
  21
33.20493
  31
0
  0
LINE
  8
0
  10
3.48612
  20
33.20493
  30
0
  11
3.54904
  21
33.19593
  31
0
  0
LINE
  8
0
  10
3.54904
  20
33.19593
  30
0
  11
4.15008
  21
34.92187
  31
0
  0
LINE
  8
0
  10
4.15008
  20
34.92187
  30
0
  11
4.09518
  21
34.95391
  31
0
  0
LINE
  8
0
  10
4.09518
  20
34.95391
  30
0
  11
4.04067
  21
34.98693
  31
0
  0
LINE
  8
0
  10
4.04067
  20
34.98693
  30
0
  11
3.98653
  21
35.02086
  31
0
  0
LINE
  8
0
  10
3.98653
  20
35.02086
  30
0
  11
3.87925
  21
35.09122
  31
0
  0
LINE
  8
0
  10
3.87925
  20
35.09122
  30
0
  11
3.77319
  21
35.1646
  31
0
  0
LINE
  8
0
  10
3.77319
  20
35.1646
  30
0
  11
3.66828
  21
35.24076
  31
0
  0
LINE
  8
0
  10
3.66828
  20
35.24076
  30
0
  11
3.46162
  21
35.40064
  31
0
  0
LINE
  8
0
  10
3.46162
  20
35.40064
  30
0
  11
3.25892
  21
35.56973
  31
0
  0
LINE
  8
0
  10
3.25892
  20
35.56973
  30
0
  11
3.05995
  21
35.74728
  31
0
  0
LINE
  8
0
  10
3.05995
  20
35.74728
  30
0
  11
2.86458
  21
35.9327
  31
0
  0
LINE
  8
0
  10
2.86458
  20
35.9327
  30
0
  11
2.67273
  21
36.12557
  31
0
  0
LINE
  8
0
  10
2.67273
  20
36.12557
  30
0
  11
2.48434
  21
36.32552
  31
0
  0
LINE
  8
0
  10
2.48434
  20
36.32552
  30
0
  11
2.29938
  21
36.53228
  31
0
  0
LINE
  8
0
  10
2.29938
  20
36.53228
  30
0
  11
2.1629
  21
36.69165
  31
0
  0
LINE
  8
0
  10
2.1629
  20
36.69165
  30
0
  11
2.8578
  21
38.16839
  31
0
  0
LINE
  8
0
  10
2.8578
  20
38.16839
  30
0
  11
3.06759
  21
38.16482
  31
0
  0
LINE
  8
0
  10
3.06759
  20
38.16482
  30
0
  11
3.3448
  21
38.1541
  31
0
  0
LINE
  8
0
  10
3.3448
  20
38.1541
  30
0
  11
3.61895
  21
38.1364
  31
0
  0
LINE
  8
0
  10
3.61895
  20
38.1364
  30
0
  11
3.88985
  21
38.11151
  31
0
  0
LINE
  8
0
  10
3.88985
  20
38.11151
  30
0
  11
4.15725
  21
38.07917
  31
0
  0
LINE
  8
0
  10
4.15725
  20
38.07917
  30
0
  11
4.42088
  21
38.03903
  31
0
  0
LINE
  8
0
  10
4.42088
  20
38.03903
  30
0
  11
4.68038
  21
37.99063
  31
0
  0
LINE
  8
0
  10
4.68038
  20
37.99063
  30
0
  11
4.9353
  21
37.93331
  31
0
  0
LINE
  8
0
  10
4.9353
  20
37.93331
  30
0
  11
5.06085
  21
37.90102
  31
0
  0
LINE
  8
0
  10
5.06085
  20
37.90102
  30
0
  11
5.185
  21
37.86608
  31
0
  0
LINE
  8
0
  10
5.185
  20
37.86608
  30
0
  11
5.30759
  21
37.82826
  31
0
  0
LINE
  8
0
  10
5.30759
  20
37.82826
  30
0
  11
5.36825
  21
37.80817
  31
0
  0
LINE
  8
0
  10
5.36825
  20
37.80817
  30
0
  11
5.42844
  21
37.78723
  31
0
  0
LINE
  8
0
  10
5.42844
  20
37.78723
  30
0
  11
5.48811
  21
37.76534
  31
0
  0
LINE
  8
0
  10
5.48811
  20
37.76534
  30
0
  11
6.43486
  21
39.32861
  31
0
  0
LINE
  8
0
  10
6.43486
  20
39.32861
  30
0
  11
6.38782
  21
39.37135
  31
0
  0
LINE
  8
0
  10
6.38782
  20
39.37135
  30
0
  11
6.34137
  21
39.41499
  31
0
  0
LINE
  8
0
  10
6.34137
  20
39.41499
  30
0
  11
6.29547
  21
39.45944
  31
0
  0
LINE
  8
0
  10
6.29547
  20
39.45944
  30
0
  11
6.20515
  21
39.55056
  31
0
  0
LINE
  8
0
  10
6.20515
  20
39.55056
  30
0
  11
6.11668
  21
39.64439
  31
0
  0
LINE
  8
0
  10
6.11668
  20
39.64439
  30
0
  11
6.02989
  21
39.7407
  31
0
  0
LINE
  8
0
  10
6.02989
  20
39.7407
  30
0
  11
5.86099
  21
39.94005
  31
0
  0
LINE
  8
0
  10
5.86099
  20
39.94005
  30
0
  11
5.69787
  21
40.1476
  31
0
  0
LINE
  8
0
  10
5.69787
  20
40.1476
  30
0
  11
5.54016
  21
40.36263
  31
0
  0
LINE
  8
0
  10
5.54016
  20
40.36263
  30
0
  11
5.38762
  21
40.58462
  31
0
  0
LINE
  8
0
  10
5.38762
  20
40.58462
  30
0
  11
5.24006
  21
40.81316
  31
0
  0
LINE
  8
0
  10
5.24006
  20
40.81316
  30
0
  11
5.09736
  21
41.04791
  31
0
  0
LINE
  8
0
  10
5.09736
  20
41.04791
  30
0
  11
4.95942
  21
41.2886
  31
0
  0
LINE
  8
0
  10
4.95942
  20
41.2886
  30
0
  11
4.85906
  21
41.47287
  31
0
  0
LINE
  8
0
  10
4.85906
  20
41.47287
  30
0
  11
5.84581
  21
42.77286
  31
0
  0
LINE
  8
0
  10
5.84581
  20
42.77286
  30
0
  11
6.05028
  21
42.72576
  31
0
  0
LINE
  8
0
  10
6.05028
  20
42.72576
  30
0
  11
6.3192
  21
42.65763
  31
0
  0
LINE
  8
0
  10
6.3192
  20
42.65763
  30
0
  11
6.58368
  21
42.58331
  31
0
  0
LINE
  8
0
  10
6.58368
  20
42.58331
  30
0
  11
6.84348
  21
42.50265
  31
0
  0
LINE
  8
0
  10
6.84348
  20
42.50265
  30
0
  11
7.09832
  21
42.41542
  31
0
  0
LINE
  8
0
  10
7.09832
  20
42.41542
  30
0
  11
7.34784
  21
42.32135
  31
0
  0
LINE
  8
0
  10
7.34784
  20
42.32135
  30
0
  11
7.5916
  21
42.22005
  31
0
  0
LINE
  8
0
  10
7.5916
  20
42.22005
  30
0
  11
7.82904
  21
42.11099
  31
0
  0
LINE
  8
0
  10
7.82904
  20
42.11099
  30
0
  11
7.94513
  21
42.05329
  31
0
  0
LINE
  8
0
  10
7.94513
  20
42.05329
  30
0
  11
8.0593
  21
41.99331
  31
0
  0
LINE
  8
0
  10
8.0593
  20
41.99331
  30
0
  11
8.17135
  21
41.93083
  31
0
  0
LINE
  8
0
  10
8.17135
  20
41.93083
  30
0
  11
8.22651
  21
41.89856
  31
0
  0
LINE
  8
0
  10
8.22651
  20
41.89856
  30
0
  11
8.28103
  21
41.86556
  31
0
  0
LINE
  8
0
  10
8.28103
  20
41.86556
  30
0
  11
8.33485
  21
41.83175
  31
0
  0
LINE
  8
0
  10
8.33485
  20
41.83175
  30
0
  11
9.58593
  21
43.16401
  31
0
  0
LINE
  8
0
  10
9.58593
  20
43.16401
  30
0
  11
9.5488
  21
43.21561
  31
0
  0
LINE
  8
0
  10
9.5488
  20
43.21561
  30
0
  11
9.51244
  21
43.26794
  31
0
  0
LINE
  8
0
  10
9.51244
  20
43.26794
  30
0
  11
9.47678
  21
43.32096
  31
0
  0
LINE
  8
0
  10
9.47678
  20
43.32096
  30
0
  11
9.40739
  21
43.42887
  31
0
  0
LINE
  8
0
  10
9.40739
  20
43.42887
  30
0
  11
9.34035
  21
43.53905
  31
0
  0
LINE
  8
0
  10
9.34035
  20
43.53905
  30
0
  11
9.27548
  21
43.65129
  31
0
  0
LINE
  8
0
  10
9.27548
  20
43.65129
  30
0
  11
9.15172
  21
43.88141
  31
0
  0
LINE
  8
0
  10
9.15172
  20
43.88141
  30
0
  11
9.03532
  21
44.11833
  31
0
  0
LINE
  8
0
  10
9.03532
  20
44.11833
  30
0
  11
8.92577
  21
44.36145
  31
0
  0
LINE
  8
0
  10
8.92577
  20
44.36145
  30
0
  11
8.82271
  21
44.61031
  31
0
  0
LINE
  8
0
  10
8.82271
  20
44.61031
  30
0
  11
8.72589
  21
44.86453
  31
0
  0
LINE
  8
0
  10
8.72589
  20
44.86453
  30
0
  11
8.63511
  21
45.12383
  31
0
  0
LINE
  8
0
  10
8.63511
  20
45.12383
  30
0
  11
8.55024
  21
45.38794
  31
0
  0
LINE
  8
0
  10
8.55024
  20
45.38794
  30
0
  11
8.49038
  21
45.58904
  31
0
  0
LINE
  8
0
  10
8.49038
  20
45.58904
  30
0
  11
9.72585
  21
46.65547
  31
0
  0
LINE
  8
0
  10
9.72585
  20
46.65547
  30
0
  11
9.91606
  21
46.56688
  31
0
  0
LINE
  8
0
  10
9.91606
  20
46.56688
  30
0
  11
10.16493
  21
46.44433
  31
0
  0
LINE
  8
0
  10
10.16493
  20
46.44433
  30
0
  11
10.40819
  21
46.31665
  31
0
  0
LINE
  8
0
  10
10.40819
  20
46.31665
  30
0
  11
10.64554
  21
46.18373
  31
0
  0
LINE
  8
0
  10
10.64554
  20
46.18373
  30
0
  11
10.87667
  21
46.04543
  31
0
  0
LINE
  8
0
  10
10.87667
  20
46.04543
  30
0
  11
11.10118
  21
45.90154
  31
0
  0
LINE
  8
0
  10
11.10118
  20
45.90154
  30
0
  11
11.31856
  21
45.75177
  31
0
  0
LINE
  8
0
  10
11.31856
  20
45.75177
  30
0
  11
11.52812
  21
45.59572
  31
0
  0
LINE
  8
0
  10
11.52812
  20
45.59572
  30
0
  11
11.62969
  21
45.51515
  31
0
  0
LINE
  8
0
  10
11.62969
  20
45.51515
  30
0
  11
11.72889
  21
45.43274
  31
0
  0
LINE
  8
0
  10
11.72889
  20
45.43274
  30
0
  11
11.82551
  21
45.34833
  31
0
  0
LINE
  8
0
  10
11.82551
  20
45.34833
  30
0
  11
11.87275
  21
45.30531
  31
0
  0
LINE
  8
0
  10
11.87275
  20
45.30531
  30
0
  11
11.91921
  21
45.26169
  31
0
  0
LINE
  8
0
  10
11.91921
  20
45.26169
  30
0
  11
11.96483
  21
45.21742
  31
0
  0
LINE
  8
0
  10
11.96483
  20
45.21742
  30
0
  11
13.46556
  21
46.26046
  31
0
  0
LINE
  8
0
  10
13.46556
  20
46.26046
  30
0
  11
13.43997
  21
46.31865
  31
0
  0
LINE
  8
0
  10
13.43997
  20
46.31865
  30
0
  11
13.41529
  21
46.3774
  31
0
  0
LINE
  8
0
  10
13.41529
  20
46.3774
  30
0
  11
13.39143
  21
46.43668
  31
0
  0
LINE
  8
0
  10
13.39143
  20
46.43668
  30
0
  11
13.34599
  21
46.55665
  31
0
  0
LINE
  8
0
  10
13.34599
  20
46.55665
  30
0
  11
13.30333
  21
46.67836
  31
0
  0
LINE
  8
0
  10
13.30333
  20
46.67836
  30
0
  11
13.26321
  21
46.80164
  31
0
  0
LINE
  8
0
  10
13.26321
  20
46.80164
  30
0
  11
13.19
  21
47.05246
  31
0
  0
LINE
  8
0
  10
13.19
  20
47.05246
  30
0
  11
13.1254
  21
47.30841
  31
0
  0
LINE
  8
0
  10
13.1254
  20
47.30841
  30
0
  11
13.06879
  21
47.56899
  31
0
  0
LINE
  8
0
  10
13.06879
  20
47.56899
  30
0
  11
13.01972
  21
47.83383
  31
0
  0
LINE
  8
0
  10
13.01972
  20
47.83383
  30
0
  11
12.97788
  21
48.10263
  31
0
  0
LINE
  8
0
  10
12.97788
  20
48.10263
  30
0
  11
12.94299
  21
48.37514
  31
0
  0
LINE
  8
0
  10
12.94299
  20
48.37514
  30
0
  11
12.91488
  21
48.65112
  31
0
  0
LINE
  8
0
  10
12.91488
  20
48.65112
  30
0
  11
12.89815
  21
48.86028
  31
0
  0
LINE
  8
0
  10
12.89815
  20
48.86028
  30
0
  11
14.32834
  21
49.64653
  31
0
  0
LINE
  8
0
  10
14.32834
  20
49.64653
  30
0
  11
14.49597
  21
49.52033
  31
0
  0
LINE
  8
0
  10
14.49597
  20
49.52033
  30
0
  11
14.71393
  21
49.34872
  31
0
  0
LINE
  8
0
  10
14.71393
  20
49.34872
  30
0
  11
14.92532
  21
49.17325
  31
0
  0
LINE
  8
0
  10
14.92532
  20
49.17325
  30
0
  11
15.12985
  21
48.99389
  31
0
  0
LINE
  8
0
  10
15.12985
  20
48.99389
  30
0
  11
15.32718
  21
48.81055
  31
0
  0
LINE
  8
0
  10
15.32718
  20
48.81055
  30
0
  11
15.51686
  21
48.62312
  31
0
  0
LINE
  8
0
  10
15.51686
  20
48.62312
  30
0
  11
15.69835
  21
48.43144
  31
0
  0
LINE
  8
0
  10
15.69835
  20
48.43144
  30
0
  11
15.8709
  21
48.23523
  31
0
  0
LINE
  8
0
  10
15.8709
  20
48.23523
  30
0
  11
15.95349
  21
48.1353
  31
0
  0
LINE
  8
0
  10
15.95349
  20
48.1353
  30
0
  11
16.03339
  21
48.03407
  31
0
  0
LINE
  8
0
  10
16.03339
  20
48.03407
  30
0
  11
16.11034
  21
47.93141
  31
0
  0
LINE
  8
0
  10
16.11034
  20
47.93141
  30
0
  11
16.14761
  21
47.8795
  31
0
  0
LINE
  8
0
  10
16.14761
  20
47.8795
  30
0
  11
16.18399
  21
47.82718
  31
0
  0
LINE
  8
0
  10
16.18399
  20
47.82718
  30
0
  11
16.2194
  21
47.7744
  31
0
  0
LINE
  8
0
  10
16.2194
  20
47.7744
  30
0
  11
17.9042
  21
48.48262
  31
0
  0
LINE
  8
0
  10
17.9042
  20
48.48262
  30
0
  11
17.89127
  21
48.54486
  31
0
  0
LINE
  8
0
  10
17.89127
  20
48.54486
  30
0
  11
17.87934
  21
48.60746
  31
0
  0
LINE
  8
0
  10
17.87934
  20
48.60746
  30
0
  11
17.86833
  21
48.6704
  31
0
  0
LINE
  8
0
  10
17.86833
  20
48.6704
  30
0
  11
17.84883
  21
48.7972
  31
0
  0
LINE
  8
0
  10
17.84883
  20
48.7972
  30
0
  11
17.8324
  21
48.92512
  31
0
  0
LINE
  8
0
  10
17.8324
  20
48.92512
  30
0
  11
17.81879
  21
49.05405
  31
0
  0
LINE
  8
0
  10
17.81879
  20
49.05405
  30
0
  11
17.79933
  21
49.31461
  31
0
  0
LINE
  8
0
  10
17.79933
  20
49.31461
  30
0
  11
17.78935
  21
49.57839
  31
0
  0
LINE
  8
0
  10
17.78935
  20
49.57839
  30
0
  11
17.78816
  21
49.84505
  31
0
  0
LINE
  8
0
  10
17.78816
  20
49.84505
  30
0
  11
17.79523
  21
50.11431
  31
0
  0
LINE
  8
0
  10
17.79523
  20
50.11431
  30
0
  11
17.81018
  21
50.38594
  31
0
  0
LINE
  8
0
  10
17.81018
  20
50.38594
  30
0
  11
17.83272
  21
50.65974
  31
0
  0
LINE
  8
0
  10
17.83272
  20
50.65974
  30
0
  11
17.8626
  21
50.93553
  31
0
  0
LINE
  8
0
  10
17.8626
  20
50.93553
  30
0
  11
17.88972
  21
51.1436
  31
0
  0
LINE
  8
0
  10
17.88972
  20
51.1436
  30
0
  11
19.45214
  21
51.61532
  31
0
  0
LINE
  8
0
  10
19.45214
  20
51.61532
  30
0
  11
19.58986
  21
51.45702
  31
0
  0
LINE
  8
0
  10
19.58986
  20
51.45702
  30
0
  11
19.76738
  21
51.24384
  31
0
  0
LINE
  8
0
  10
19.76738
  20
51.24384
  30
0
  11
19.93767
  21
51.02826
  31
0
  0
LINE
  8
0
  10
19.93767
  20
51.02826
  30
0
  11
20.10044
  21
50.81029
  31
0
  0
LINE
  8
0
  10
20.10044
  20
50.81029
  30
0
  11
20.25533
  21
50.58994
  31
0
  0
LINE
  8
0
  10
20.25533
  20
50.58994
  30
0
  11
20.40191
  21
50.36717
  31
0
  0
LINE
  8
0
  10
20.40191
  20
50.36717
  30
0
  11
20.53958
  21
50.14194
  31
0
  0
LINE
  8
0
  10
20.53958
  20
50.14194
  30
0
  11
20.66755
  21
49.91414
  31
0
  0
LINE
  8
0
  10
20.66755
  20
49.91414
  30
0
  11
20.72757
  21
49.79923
  31
0
  0
LINE
  8
0
  10
20.72757
  20
49.79923
  30
0
  11
20.78467
  21
49.68359
  31
0
  0
LINE
  8
0
  10
20.78467
  20
49.68359
  30
0
  11
20.8386
  21
49.56718
  31
0
  0
LINE
  8
0
  10
20.8386
  20
49.56718
  30
0
  11
20.86426
  21
49.50866
  31
0
  0
LINE
  8
0
  10
20.86426
  20
49.50866
  30
0
  11
20.88897
  21
49.44991
  31
0
  0
LINE
  8
0
  10
20.88897
  20
49.44991
  30
0
  11
20.91263
  21
49.39092
  31
0
  0
LINE
  8
0
  10
20.91263
  20
49.39092
  30
0
  11
22.70786
  21
49.73338
  31
0
  0
LINE
  8
0
  10
22.70786
  20
49.73338
  30
0
  11
22.70815
  21
49.79694
  31
0
  0
LINE
  8
0
  10
22.70815
  20
49.79694
  30
0
  11
22.7095
  21
49.86066
  31
0
  0
LINE
  8
0
  10
22.7095
  20
49.86066
  30
0
  11
22.71181
  21
49.92451
  31
0
  0
LINE
  8
0
  10
22.71181
  20
49.92451
  30
0
  11
22.7191
  21
50.0526
  31
0
  0
LINE
  8
0
  10
22.7191
  20
50.0526
  30
0
  11
22.72963
  21
50.18114
  31
0
  0
LINE
  8
0
  10
22.72963
  20
50.18114
  30
0
  11
22.74312
  21
50.31008
  31
0
  0
LINE
  8
0
  10
22.74312
  20
50.31008
  30
0
  11
22.77826
  21
50.56899
  31
0
  0
LINE
  8
0
  10
22.77826
  20
50.56899
  30
0
  11
22.82335
  21
50.82908
  31
0
  0
LINE
  8
0
  10
22.82335
  20
50.82908
  30
0
  11
22.87762
  21
51.09016
  31
0
  0
LINE
  8
0
  10
22.87762
  20
51.09016
  30
0
  11
22.94052
  21
51.35207
  31
0
  0
LINE
  8
0
  10
22.94052
  20
51.35207
  30
0
  11
23.01162
  21
51.61465
  31
0
  0
LINE
  8
0
  10
23.01162
  20
51.61465
  30
0
  11
23.09059
  21
51.87778
  31
0
  0
LINE
  8
0
  10
23.09059
  20
51.87778
  30
0
  11
23.17716
  21
52.14134
  31
0
  0
LINE
  8
0
  10
23.17716
  20
52.14134
  30
0
  11
23.24695
  21
52.33922
  31
0
  0
LINE
  8
0
  10
23.24695
  20
52.33922
  30
0
  11
24.87329
  21
52.47579
  31
0
  0
LINE
  8
0
  10
24.87329
  20
52.47579
  30
0
  11
24.9751
  21
52.29232
  31
0
  0
LINE
  8
0
  10
24.9751
  20
52.29232
  30
0
  11
25.10441
  21
52.04689
  31
0
  0
LINE
  8
0
  10
25.10441
  20
52.04689
  30
0
  11
25.22616
  21
51.80061
  31
0
  0
LINE
  8
0
  10
25.22616
  20
51.80061
  30
0
  11
25.34006
  21
51.55356
  31
0
  0
LINE
  8
0
  10
25.34006
  20
51.55356
  30
0
  11
25.44575
  21
51.30581
  31
0
  0
LINE
  8
0
  10
25.44575
  20
51.30581
  30
0
  11
25.5428
  21
51.05744
  31
0
  0
LINE
  8
0
  10
25.5428
  20
51.05744
  30
0
  11
25.63064
  21
50.80851
  31
0
  0
LINE
  8
0
  10
25.63064
  20
50.80851
  30
0
  11
25.70846
  21
50.55908
  31
0
  0
LINE
  8
0
  10
25.70846
  20
50.55908
  30
0
  11
25.74327
  21
50.4342
  31
0
  0
LINE
  8
0
  10
25.74327
  20
50.4342
  30
0
  11
25.77508
  21
50.30922
  31
0
  0
LINE
  8
0
  10
25.77508
  20
50.30922
  30
0
  11
25.80363
  21
50.18414
  31
0
  0
LINE
  8
0
  10
25.80363
  20
50.18414
  30
0
  11
25.81656
  21
50.12156
  31
0
  0
LINE
  8
0
  10
25.81656
  20
50.12156
  30
0
  11
25.82851
  21
50.05897
  31
0
  0
LINE
  8
0
  10
25.82851
  20
50.05897
  30
0
  11
25.8394
  21
49.99634
  31
0
  0
LINE
  8
0
  10
25.8394
  20
49.99634
  30
0
  11
27.6666
  21
49.95807
  31
0
  0
LINE
  8
0
  10
27.6666
  20
49.95807
  30
0
  11
27.6801
  21
50.02018
  31
0
  0
LINE
  8
0
  10
27.6801
  20
50.02018
  30
0
  11
27.69466
  21
50.08222
  31
0
  0
LINE
  8
0
  10
27.69466
  20
50.08222
  30
0
  11
27.7102
  21
50.1442
  31
0
  0
LINE
  8
0
  10
27.7102
  20
50.1442
  30
0
  11
27.74396
  21
50.26798
  31
0
  0
LINE
  8
0
  10
27.74396
  20
50.26798
  30
0
  11
27.78098
  21
50.39152
  31
0
  0
LINE
  8
0
  10
27.78098
  20
50.39152
  30
0
  11
27.82099
  21
50.51483
  31
0
  0
LINE
  8
0
  10
27.82099
  20
50.51483
  30
0
  11
27.90919
  21
50.76078
  31
0
  0
LINE
  8
0
  10
27.90919
  20
50.76078
  30
0
  11
28.00737
  21
51.00582
  31
0
  0
LINE
  8
0
  10
28.00737
  20
51.00582
  30
0
  11
28.11474
  21
51.24991
  31
0
  0
LINE
  8
0
  10
28.11474
  20
51.24991
  30
0
  11
28.23071
  21
51.49301
  31
0
  0
LINE
  8
0
  10
28.23071
  20
51.49301
  30
0
  11
28.35486
  21
51.73507
  31
0
  0
LINE
  8
0
  10
28.35486
  20
51.73507
  30
0
  11
28.48681
  21
51.97603
  31
0
  0
LINE
  8
0
  10
28.48681
  20
51.97603
  30
0
  11
28.62629
  21
52.21583
  31
0
  0
LINE
  8
0
  10
28.62629
  20
52.21583
  30
0
  11
28.73569
  21
52.39488
  31
0
  0
LINE
  8
0
  10
28.73569
  20
52.39488
  30
0
  11
30.35489
  21
52.19033
  31
0
  0
LINE
  8
0
  10
30.35489
  20
52.19033
  30
0
  11
30.41632
  21
51.9897
  31
0
  0
LINE
  8
0
  10
30.41632
  20
51.9897
  30
0
  11
30.49178
  21
51.72275
  31
0
  0
LINE
  8
0
  10
30.49178
  20
51.72275
  30
0
  11
30.55967
  21
51.45654
  31
0
  0
LINE
  8
0
  10
30.55967
  20
51.45654
  30
0
  11
30.61971
  21
51.19121
  31
0
  0
LINE
  8
0
  10
30.61971
  20
51.19121
  30
0
  11
30.67159
  21
50.9269
  31
0
  0
LINE
  8
0
  10
30.67159
  20
50.9269
  30
0
  11
30.71488
  21
50.66378
  31
0
  0
LINE
  8
0
  10
30.71488
  20
50.66378
  30
0
  11
30.74904
  21
50.40202
  31
0
  0
LINE
  8
0
  10
30.74904
  20
50.40202
  30
0
  11
30.7733
  21
50.14187
  31
0
  0
LINE
  8
0
  10
30.7733
  20
50.14187
  30
0
  11
30.78138
  21
50.01248
  31
0
  0
LINE
  8
0
  10
30.78138
  20
50.01248
  30
0
  11
30.78652
  21
49.88361
  31
0
  0
LINE
  8
0
  10
30.78652
  20
49.88361
  30
0
  11
30.78843
  21
49.75533
  31
0
  0
LINE
  8
0
  10
30.78843
  20
49.75533
  30
0
  11
30.78807
  21
49.69143
  31
0
  0
LINE
  8
0
  10
30.78807
  20
49.69143
  30
0
  11
30.78675
  21
49.62772
  31
0
  0
LINE
  8
0
  10
30.78675
  20
49.62772
  30
0
  11
30.78438
  21
49.5642
  31
0
  0
LINE
  8
0
  10
30.78438
  20
49.5642
  30
0
  11
32.56369
  21
49.14687
  31
0
  0
LINE
  8
0
  10
32.56369
  20
49.14687
  30
0
  11
32.58981
  21
49.20481
  31
0
  0
LINE
  8
0
  10
32.58981
  20
49.20481
  30
0
  11
32.61695
  21
49.26247
  31
0
  0
LINE
  8
0
  10
32.61695
  20
49.26247
  30
0
  11
32.64504
  21
49.31987
  31
0
  0
LINE
  8
0
  10
32.64504
  20
49.31987
  30
0
  11
32.7038
  21
49.43392
  31
0
  0
LINE
  8
0
  10
32.7038
  20
49.43392
  30
0
  11
32.76569
  21
49.54706
  31
0
  0
LINE
  8
0
  10
32.76569
  20
49.54706
  30
0
  11
32.83047
  21
49.65936
  31
0
  0
LINE
  8
0
  10
32.83047
  20
49.65936
  30
0
  11
32.96787
  21
49.8816
  31
0
  0
LINE
  8
0
  10
32.96787
  20
49.8816
  30
0
  11
33.11485
  21
50.10087
  31
0
  0
LINE
  8
0
  10
33.11485
  20
50.10087
  30
0
  11
33.27062
  21
50.3173
  31
0
  0
LINE
  8
0
  10
33.27062
  20
50.3173
  30
0
  11
33.43461
  21
50.53098
  31
0
  0
LINE
  8
0
  10
33.43461
  20
50.53098
  30
0
  11
33.60637
  21
50.74194
  31
0
  0
LINE
  8
0
  10
33.60637
  20
50.74194
  30
0
  11
33.78553
  21
50.9502
  31
0
  0
LINE
  8
0
  10
33.78553
  20
50.9502
  30
0
  11
33.97182
  21
51.15577
  31
0
  0
LINE
  8
0
  10
33.97182
  20
51.15577
  30
0
  11
34.11606
  21
51.30816
  31
0
  0
LINE
  8
0
  10
34.11606
  20
51.30816
  30
0
  11
35.65735
  21
50.77142
  31
0
  0
LINE
  8
0
  10
35.65735
  20
50.77142
  30
0
  11
35.67573
  21
50.5624
  31
0
  0
LINE
  8
0
  10
35.67573
  20
50.5624
  30
0
  11
35.69404
  21
50.28559
  31
0
  0
LINE
  8
0
  10
35.69404
  20
50.28559
  30
0
  11
35.70509
  21
50.01109
  31
0
  0
LINE
  8
0
  10
35.70509
  20
50.01109
  30
0
  11
35.70865
  21
49.73908
  31
0
  0
LINE
  8
0
  10
35.70865
  20
49.73908
  30
0
  11
35.70444
  21
49.46976
  31
0
  0
LINE
  8
0
  10
35.70444
  20
49.46976
  30
0
  11
35.69208
  21
49.20338
  31
0
  0
LINE
  8
0
  10
35.69208
  20
49.20338
  30
0
  11
35.67107
  21
48.94025
  31
0
  0
LINE
  8
0
  10
35.67107
  20
48.94025
  30
0
  11
35.64071
  21
48.68073
  31
0
  0
LINE
  8
0
  10
35.64071
  20
48.68073
  30
0
  11
35.62172
  21
48.55249
  31
0
  0
LINE
  8
0
  10
35.62172
  20
48.55249
  30
0
  11
35.59995
  21
48.42537
  31
0
  0
LINE
  8
0
  10
35.59995
  20
48.42537
  30
0
  11
35.57515
  21
48.29949
  31
0
  0
LINE
  8
0
  10
35.57515
  20
48.29949
  30
0
  11
35.56151
  21
48.23707
  31
0
  0
LINE
  8
0
  10
35.56151
  20
48.23707
  30
0
  11
35.54697
  21
48.17502
  31
0
  0
LINE
  8
0
  10
35.54697
  20
48.17502
  30
0
  11
35.53145
  21
48.11339
  31
0
  0
LINE
  8
0
  10
35.53145
  20
48.11339
  30
0
  11
37.18511
  21
47.33523
  31
0
  0
LINE
  8
0
  10
37.18511
  20
47.33523
  30
0
  11
37.22271
  21
47.38648
  31
0
  0
LINE
  8
0
  10
37.22271
  20
47.38648
  30
0
  11
37.26125
  21
47.43724
  31
0
  0
LINE
  8
0
  10
37.26125
  20
47.43724
  30
0
  11
37.30065
  21
47.48754
  31
0
  0
LINE
  8
0
  10
37.30065
  20
47.48754
  30
0
  11
37.38184
  21
47.58688
  31
0
  0
LINE
  8
0
  10
37.38184
  20
47.58688
  30
0
  11
37.46591
  21
47.68468
  31
0
  0
LINE
  8
0
  10
37.46591
  20
47.68468
  30
0
  11
37.55261
  21
47.78106
  31
0
  0
LINE
  8
0
  10
37.55261
  20
47.78106
  30
0
  11
37.73322
  21
47.96987
  31
0
  0
LINE
  8
0
  10
37.73322
  20
47.96987
  30
0
  11
37.92258
  21
48.15379
  31
0
  0
LINE
  8
0
  10
37.92258
  20
48.15379
  30
0
  11
38.11994
  21
48.33311
  31
0
  0
LINE
  8
0
  10
38.11994
  20
48.33311
  30
0
  11
38.32477
  21
48.50802
  31
0
  0
LINE
  8
0
  10
38.32477
  20
48.50802
  30
0
  11
38.53664
  21
48.67867
  31
0
  0
LINE
  8
0
  10
38.53664
  20
48.67867
  30
0
  11
38.75519
  21
48.84512
  31
0
  0
LINE
  8
0
  10
38.75519
  20
48.84512
  30
0
  11
38.98014
  21
49.00746
  31
0
  0
LINE
  8
0
  10
38.98014
  20
49.00746
  30
0
  11
39.15291
  21
49.12653
  31
0
  0
LINE
  8
0
  10
39.15291
  20
49.12653
  30
0
  11
40.54893
  21
48.28108
  31
0
  0
LINE
  8
0
  10
40.54893
  20
48.28108
  30
0
  11
40.52345
  21
48.0728
  31
0
  0
LINE
  8
0
  10
40.52345
  20
48.0728
  30
0
  11
40.4838
  21
47.79824
  31
0
  0
LINE
  8
0
  10
40.4838
  20
47.79824
  30
0
  11
40.43754
  21
47.52744
  31
0
  0
LINE
  8
0
  10
40.43754
  20
47.52744
  30
0
  11
40.38447
  21
47.26062
  31
0
  0
LINE
  8
0
  10
40.38447
  20
47.26062
  30
0
  11
40.32436
  21
46.99807
  31
0
  0
LINE
  8
0
  10
40.32436
  20
46.99807
  30
0
  11
40.25689
  21
46.74008
  31
0
  0
LINE
  8
0
  10
40.25689
  20
46.74008
  30
0
  11
40.18163
  21
46.48706
  31
0
  0
LINE
  8
0
  10
40.18163
  20
46.48706
  30
0
  11
40.09798
  21
46.23953
  31
0
  0
LINE
  8
0
  10
40.09798
  20
46.23953
  30
0
  11
40.05273
  21
46.11804
  31
0
  0
LINE
  8
0
  10
40.05273
  20
46.11804
  30
0
  11
40.00501
  21
45.99823
  31
0
  0
LINE
  8
0
  10
40.00501
  20
45.99823
  30
0
  11
39.95459
  21
45.88026
  31
0
  0
LINE
  8
0
  10
39.95459
  20
45.88026
  30
0
  11
39.92827
  21
45.82203
  31
0
  0
LINE
  8
0
  10
39.92827
  20
45.82203
  30
0
  11
39.90114
  21
45.76436
  31
0
  0
LINE
  8
0
  10
39.90114
  20
45.76436
  30
0
  11
39.87314
  21
45.7073
  31
0
  0
LINE
  8
0
  10
39.87314
  20
45.7073
  30
0
  11
41.32888
  21
44.60233
  31
0
  0
LINE
  8
0
  10
41.32888
  20
44.60233
  30
0
  11
41.37631
  21
44.64465
  31
0
  0
LINE
  8
0
  10
41.37631
  20
44.64465
  30
0
  11
41.42456
  21
44.68628
  31
0
  0
LINE
  8
0
  10
41.42456
  20
44.68628
  30
0
  11
41.47356
  21
44.72729
  31
0
  0
LINE
  8
0
  10
41.47356
  20
44.72729
  30
0
  11
41.57363
  21
44.80758
  31
0
  0
LINE
  8
0
  10
41.57363
  20
44.80758
  30
0
  11
41.67619
  21
44.88577
  31
0
  0
LINE
  8
0
  10
41.67619
  20
44.88577
  30
0
  11
41.78104
  21
44.96201
  31
0
  0
LINE
  8
0
  10
41.78104
  20
44.96201
  30
0
  11
41.99696
  21
45.10915
  31
0
  0
LINE
  8
0
  10
41.99696
  20
45.10915
  30
0
  11
42.22042
  21
45.24968
  31
0
  0
LINE
  8
0
  10
42.22042
  20
45.24968
  30
0
  11
42.45076
  21
45.38405
  31
0
  0
LINE
  8
0
  10
42.45076
  20
45.38405
  30
0
  11
42.68748
  21
45.51255
  31
0
  0
LINE
  8
0
  10
42.68748
  20
45.51255
  30
0
  11
42.93019
  21
45.63541
  31
0
  0
LINE
  8
0
  10
42.93019
  20
45.63541
  30
0
  11
43.17857
  21
45.7528
  31
0
  0
LINE
  8
0
  10
43.17857
  20
45.7528
  30
0
  11
43.43236
  21
45.86482
  31
0
  0
LINE
  8
0
  10
43.43236
  20
45.86482
  30
0
  11
43.62611
  21
45.94537
  31
0
  0
LINE
  8
0
  10
43.62611
  20
45.94537
  30
0
  11
44.81584
  21
44.82813
  31
0
  0
LINE
  8
0
  10
44.81584
  20
44.82813
  30
0
  11
44.74762
  21
44.62971
  31
0
  0
LINE
  8
0
  10
44.74762
  20
44.62971
  30
0
  11
44.65175
  21
44.36939
  31
0
  0
LINE
  8
0
  10
44.65175
  20
44.36939
  30
0
  11
44.5502
  21
44.11412
  31
0
  0
LINE
  8
0
  10
44.5502
  20
44.11412
  30
0
  11
44.44282
  21
43.86417
  31
0
  0
LINE
  8
0
  10
44.44282
  20
43.86417
  30
0
  11
44.32943
  21
43.61985
  31
0
  0
LINE
  8
0
  10
44.32943
  20
43.61985
  30
0
  11
44.20979
  21
43.38153
  31
0
  0
LINE
  8
0
  10
44.20979
  20
43.38153
  30
0
  11
44.08357
  21
43.14969
  31
0
  0
LINE
  8
0
  10
44.08357
  20
43.14969
  30
0
  11
43.95028
  21
42.92496
  31
0
  0
LINE
  8
0
  10
43.95028
  20
42.92496
  30
0
  11
43.88077
  21
42.81553
  31
0
  0
LINE
  8
0
  10
43.88077
  20
42.81553
  30
0
  11
43.80918
  21
42.70826
  31
0
  0
LINE
  8
0
  10
43.80918
  20
42.70826
  30
0
  11
43.73533
  21
42.60335
  31
0
  0
LINE
  8
0
  10
43.73533
  20
42.60335
  30
0
  11
43.69748
  21
42.55187
  31
0
  0
LINE
  8
0
  10
43.69748
  20
42.55187
  30
0
  11
43.65896
  21
42.5011
  31
0
  0
LINE
  8
0
  10
43.65896
  20
42.5011
  30
0
  11
43.61971
  21
42.45111
  31
0
  0
LINE
  8
0
  10
43.61971
  20
42.45111
  30
0
  11
44.8139
  21
41.06762
  31
0
  0
LINE
  8
0
  10
44.8139
  20
41.06762
  30
0
  11
44.86909
  21
41.09915
  31
0
  0
LINE
  8
0
  10
44.86909
  20
41.09915
  30
0
  11
44.92494
  21
41.12984
  31
0
  0
LINE
  8
0
  10
44.92494
  20
41.12984
  30
0
  11
44.9814
  21
41.15977
  31
0
  0
LINE
  8
0
  10
44.9814
  20
41.15977
  30
0
  11
45.09597
  21
41.2175
  31
0
  0
LINE
  8
0
  10
45.09597
  20
41.2175
  30
0
  11
45.21255
  21
41.27265
  31
0
  0
LINE
  8
0
  10
45.21255
  20
41.27265
  30
0
  11
45.33096
  21
41.32543
  31
0
  0
LINE
  8
0
  10
45.33096
  20
41.32543
  30
0
  11
45.57275
  21
41.42446
  31
0
  0
LINE
  8
0
  10
45.57275
  20
41.42446
  30
0
  11
45.82054
  21
41.51546
  31
0
  0
LINE
  8
0
  10
45.82054
  20
41.51546
  30
0
  11
46.07378
  21
41.599
  31
0
  0
LINE
  8
0
  10
46.07378
  20
41.599
  30
0
  11
46.33205
  21
41.67548
  31
0
  0
LINE
  8
0
  10
46.33205
  20
41.67548
  30
0
  11
46.595
  21
41.7452
  31
0
  0
LINE
  8
0
  10
46.595
  20
41.7452
  30
0
  11
46.86237
  21
41.80837
  31
0
  0
LINE
  8
0
  10
46.86237
  20
41.80837
  30
0
  11
47.1339
  21
41.86518
  31
0
  0
LINE
  8
0
  10
47.1339
  20
41.86518
  30
0
  11
47.34016
  21
41.90368
  31
0
  0
LINE
  8
0
  10
47.34016
  20
41.90368
  30
0
  11
48.27161
  21
40.56351
  31
0
  0
LINE
  8
0
  10
48.27161
  20
40.56351
  30
0
  11
48.16362
  21
40.3836
  31
0
  0
LINE
  8
0
  10
48.16362
  20
40.3836
  30
0
  11
48.01573
  21
40.1489
  31
0
  0
LINE
  8
0
  10
48.01573
  20
40.1489
  30
0
  11
47.86332
  21
39.92033
  31
0
  0
LINE
  8
0
  10
47.86332
  20
39.92033
  30
0
  11
47.70632
  21
39.69817
  31
0
  0
LINE
  8
0
  10
47.70632
  20
39.69817
  30
0
  11
47.54461
  21
39.48276
  31
0
  0
LINE
  8
0
  10
47.54461
  20
39.48276
  30
0
  11
47.37804
  21
39.27452
  31
0
  0
LINE
  8
0
  10
47.37804
  20
39.27452
  30
0
  11
47.20637
  21
39.07399
  31
0
  0
LINE
  8
0
  10
47.20637
  20
39.07399
  30
0
  11
47.02927
  21
38.88188
  31
0
  0
LINE
  8
0
  10
47.02927
  20
38.88188
  30
0
  11
46.93853
  21
38.7893
  31
0
  0
LINE
  8
0
  10
46.93853
  20
38.7893
  30
0
  11
46.8462
  21
38.69925
  31
0
  0
LINE
  8
0
  10
46.8462
  20
38.69925
  30
0
  11
46.75215
  21
38.61199
  31
0
  0
LINE
  8
0
  10
46.75215
  20
38.61199
  30
0
  11
46.70442
  21
38.5695
  31
0
  0
LINE
  8
0
  10
46.70442
  20
38.5695
  30
0
  11
46.65619
  21
38.52785
  31
0
  0
LINE
  8
0
  10
46.65619
  20
38.52785
  30
0
  11
46.6074
  21
38.48711
  31
0
  0
LINE
  8
0
  10
46.6074
  20
38.48711
  30
0
  11
47.48785
  21
36.88557
  31
0
  0
LINE
  8
0
  10
47.48785
  20
36.88557
  30
0
  11
47.54839
  21
36.90494
  31
0
  0
LINE
  8
0
  10
47.54839
  20
36.90494
  30
0
  11
47.6094
  21
36.92335
  31
0
  0
LINE
  8
0
  10
47.6094
  20
36.92335
  30
0
  11
47.67085
  21
36.94088
  31
0
  0
LINE
  8
0
  10
47.67085
  20
36.94088
  30
0
  11
47.79492
  21
36.97353
  31
0
  0
LINE
  8
0
  10
47.79492
  20
36.97353
  30
0
  11
47.92042
  21
37.00324
  31
0
  0
LINE
  8
0
  10
47.92042
  20
37.00324
  30
0
  11
48.04722
  21
37.03025
  31
0
  0
LINE
  8
0
  10
48.04722
  20
37.03025
  30
0
  11
48.30431
  21
37.07684
  31
0
  0
LINE
  8
0
  10
48.30431
  20
37.07684
  30
0
  11
48.56561
  21
37.11433
  31
0
  0
LINE
  8
0
  10
48.56561
  20
37.11433
  30
0
  11
48.83069
  21
37.14339
  31
0
  0
LINE
  8
0
  10
48.83069
  20
37.14339
  30
0
  11
49.09921
  21
37.16451
  31
0
  0
LINE
  8
0
  10
49.09921
  20
37.16451
  30
0
  11
49.37091
  21
37.17803
  31
0
  0
LINE
  8
0
  10
49.37091
  20
37.17803
  30
0
  11
49.64557
  21
37.18424
  31
0
  0
LINE
  8
0
  10
49.64557
  20
37.18424
  30
0
  11
49.92298
  21
37.18334
  31
0
  0
LINE
  8
0
  10
49.92298
  20
37.18334
  30
0
  11
50.13274
  21
37.17813
  31
0
  0
LINE
  8
0
  10
50.13274
  20
37.17813
  30
0
  11
50.76519
  21
35.67358
  31
0
  0
LINE
  8
0
  10
50.76519
  20
35.67358
  30
0
  11
50.62216
  21
35.52006
  31
0
  0
LINE
  8
0
  10
50.62216
  20
35.52006
  30
0
  11
50.4287
  21
35.32123
  31
0
  0
LINE
  8
0
  10
50.4287
  20
35.32123
  30
0
  11
50.2321
  21
35.12934
  31
0
  0
LINE
  8
0
  10
50.2321
  20
35.12934
  30
0
  11
50.03234
  21
34.94468
  31
0
  0
LINE
  8
0
  10
50.03234
  20
34.94468
  30
0
  11
49.82938
  21
34.7676
  31
0
  0
LINE
  8
0
  10
49.82938
  20
34.7676
  30
0
  11
49.62315
  21
34.59854
  31
0
  0
LINE
  8
0
  10
49.62315
  20
34.59854
  30
0
  11
49.41355
  21
34.43808
  31
0
  0
LINE
  8
0
  10
49.41355
  20
34.43808
  30
0
  11
49.20037
  21
34.287
  31
0
  0
LINE
  8
0
  10
49.20037
  20
34.287
  30
0
  11
49.09236
  21
34.2153
  31
0
  0
LINE
  8
0
  10
49.09236
  20
34.2153
  30
0
  11
48.98333
  21
34.14642
  31
0
  0
LINE
  8
0
  10
48.98333
  20
34.14642
  30
0
  11
48.87319
  21
34.08062
  31
0
  0
LINE
  8
0
  10
48.87319
  20
34.08062
  30
0
  11
48.81768
  21
34.04898
  31
0
  0
LINE
  8
0
  10
48.81768
  20
34.04898
  30
0
  11
48.76183
  21
34.01827
  31
0
  0
LINE
  8
0
  10
48.76183
  20
34.01827
  30
0
  11
48.70564
  21
33.98857
  31
0
  0
LINE
  8
0
  10
48.70564
  20
33.98857
  30
0
  11
49.23388
  21
32.23897
  31
0
  0
LINE
  8
0
  10
49.23388
  20
32.23897
  30
0
  11
49.29712
  21
32.24532
  31
0
  0
LINE
  8
0
  10
49.29712
  20
32.24532
  30
0
  11
49.36063
  21
32.25064
  31
0
  0
LINE
  8
0
  10
49.36063
  20
32.25064
  30
0
  11
49.42437
  21
32.25502
  31
0
  0
LINE
  8
0
  10
49.42437
  20
32.25502
  30
0
  11
49.55252
  21
32.26116
  31
0
  0
LINE
  8
0
  10
49.55252
  20
32.26116
  30
0
  11
49.68146
  21
32.26413
  31
0
  0
LINE
  8
0
  10
49.68146
  20
32.26413
  30
0
  11
49.8111
  21
32.26418
  31
0
  0
LINE
  8
0
  10
49.8111
  20
32.26418
  30
0
  11
50.07226
  21
32.2563
  31
0
  0
LINE
  8
0
  10
50.07226
  20
32.2563
  30
0
  11
50.33565
  21
32.23865
  31
0
  0
LINE
  8
0
  10
50.33565
  20
32.23865
  30
0
  11
50.60097
  21
32.21196
  31
0
  0
LINE
  8
0
  10
50.60097
  20
32.21196
  30
0
  11
50.86801
  21
32.17679
  31
0
  0
LINE
  8
0
  10
50.86801
  20
32.17679
  30
0
  11
51.13659
  21
32.13352
  31
0
  0
LINE
  8
0
  10
51.13659
  20
32.13352
  30
0
  11
51.40653
  21
32.08249
  31
0
  0
LINE
  8
0
  10
51.40653
  20
32.08249
  30
0
  11
51.6777
  21
32.02394
  31
0
  0
LINE
  8
0
  10
51.6777
  20
32.02394
  30
0
  11
51.88179
  21
31.97522
  31
0
  0
LINE
  8
0
  10
51.88179
  20
31.97522
  30
0
  11
52.18761
  21
30.37206
  31
0
  0
LINE
  8
0
  10
52.18761
  20
30.37206
  30
0
  11
52.01578
  21
30.25163
  31
0
  0
LINE
  8
0
  10
52.01578
  20
30.25163
  30
0
  11
51.78522
  21
30.09737
  31
0
  0
LINE
  8
0
  10
51.78522
  20
30.09737
  30
0
  11
51.55301
  21
29.95055
  31
0
  0
LINE
  8
0
  10
51.55301
  20
29.95055
  30
0
  11
51.31923
  21
29.81146
  31
0
  0
LINE
  8
0
  10
51.31923
  20
29.81146
  30
0
  11
51.08388
  21
29.68044
  31
0
  0
LINE
  8
0
  10
51.08388
  20
29.68044
  30
0
  11
50.84702
  21
29.55796
  31
0
  0
LINE
  8
0
  10
50.84702
  20
29.55796
  30
0
  11
50.60863
  21
29.44459
  31
0
  0
LINE
  8
0
  10
50.60863
  20
29.44459
  30
0
  11
50.3687
  21
29.34112
  31
0
  0
LINE
  8
0
  10
50.3687
  20
29.34112
  30
0
  11
50.24814
  21
29.29345
  31
0
  0
LINE
  8
0
  10
50.24814
  20
29.29345
  30
0
  11
50.12717
  21
29.24874
  31
0
  0
LINE
  8
0
  10
50.12717
  20
29.24874
  30
0
  11
50.00576
  21
29.20728
  31
0
  0
LINE
  8
0
  10
50.00576
  20
29.20728
  30
0
  11
49.94488
  21
29.18788
  31
0
  0
LINE
  8
0
  10
49.94488
  20
29.18788
  30
0
  11
49.88387
  21
29.16945
  31
0
  0
LINE
  8
0
  10
49.88387
  20
29.16945
  30
0
  11
49.82273
  21
29.15208
  31
0
  0
LINE
  8
0
  10
49.82273
  20
29.15208
  30
0
  11
49.97566
  21
27.33088
  31
0
  0
ENDSEC
  0
EOF
