  999
file created by gear template generator
  0
SECTION
  2
HEADER
  9
$ACADVER
  1
AC1006
  9
$INSBASE
  10
0.0
  20
0.0
  30
0.0
  9
$EXTMIN
  10
0.0
  20
0.0
  9
$EXTMAX
  10
10000.0
  20
10000.0
  0
ENDSEC
  0
SECTION
  2
ENTITIES
  0
LINE
  8
0
  10
2.52744
  20
8.32056
  30
0
  11
2.52744
  21
8.32056
  31
0
  0
LINE
  8
0
  10
2.52744
  20
8.32056
  30
0
  11
2.47957
  21
9.09641
  31
0
  0
LINE
  8
0
  10
2.47957
  20
9.09641
  30
0
  11
2.44077
  21
9.15017
  31
0
  0
LINE
  8
0
  10
2.44077
  20
9.15017
  30
0
  11
2.40138
  21
9.18961
  31
0
  0
LINE
  8
0
  10
2.40138
  20
9.18961
  30
0
  11
2.36164
  21
9.22129
  31
0
  0
LINE
  8
0
  10
2.36164
  20
9.22129
  30
0
  11
2.32163
  21
9.24776
  31
0
  0
LINE
  8
0
  10
2.32163
  20
9.24776
  30
0
  11
2.24096
  21
9.28988
  31
0
  0
LINE
  8
0
  10
2.24096
  20
9.28988
  30
0
  11
2.15959
  21
9.32166
  31
0
  0
LINE
  8
0
  10
2.15959
  20
9.32166
  30
0
  11
2.07763
  21
9.34575
  31
0
  0
LINE
  8
0
  10
2.07763
  20
9.34575
  30
0
  11
1.99515
  21
9.36367
  31
0
  0
LINE
  8
0
  10
1.99515
  20
9.36367
  30
0
  11
1.82887
  21
9.38451
  31
0
  0
LINE
  8
0
  10
1.82887
  20
9.38451
  30
0
  11
1.66233
  21
9.4024
  31
0
  0
LINE
  8
0
  10
1.66233
  20
9.4024
  30
0
  11
1.49887
  21
9.45319
  31
0
  0
LINE
  8
0
  10
1.49887
  20
9.45319
  30
0
  11
1.3373
  21
9.52095
  31
0
  0
LINE
  8
0
  10
1.3373
  20
9.52095
  30
0
  11
1.17758
  21
9.60219
  31
0
  0
LINE
  8
0
  10
1.17758
  20
9.60219
  30
0
  11
1.01982
  21
9.69527
  31
0
  0
LINE
  8
0
  10
1.01982
  20
9.69527
  30
0
  11
0.86418
  21
9.79922
  31
0
  0
LINE
  8
0
  10
0.86418
  20
9.79922
  30
0
  11
0.71086
  21
9.91338
  31
0
  0
LINE
  8
0
  10
0.71086
  20
9.91338
  30
0
  11
0.5601
  21
10.03725
  31
0
  0
LINE
  8
0
  10
0.5601
  20
10.03725
  30
0
  11
0.41211
  21
10.17046
  31
0
  0
LINE
  8
0
  10
0.41211
  20
10.17046
  30
0
  11
0.26714
  21
10.31269
  31
0
  0
LINE
  8
0
  10
0.26714
  20
10.31269
  30
0
  11
0.16054
  21
10.42512
  31
0
  0
LINE
  8
0
  10
0.16054
  20
10.42512
  30
0
  11
0.3392
  21
11.16963
  31
0
  0
LINE
  8
0
  10
0.3392
  20
11.16963
  30
0
  11
0.58221
  21
11.89568
  31
0
  0
LINE
  8
0
  10
0.58221
  20
11.89568
  30
0
  11
0.7322
  21
11.93453
  31
0
  0
LINE
  8
0
  10
0.7322
  20
11.93453
  30
0
  11
0.93051
  21
11.97832
  31
0
  0
LINE
  8
0
  10
0.93051
  20
11.97832
  30
0
  11
1.1266
  21
12.01287
  31
0
  0
LINE
  8
0
  10
1.1266
  20
12.01287
  30
0
  11
1.3201
  21
12.03803
  31
0
  0
LINE
  8
0
  10
1.3201
  20
12.03803
  30
0
  11
1.51061
  21
12.0536
  31
0
  0
LINE
  8
0
  10
1.51061
  20
12.0536
  30
0
  11
1.69769
  21
12.05928
  31
0
  0
LINE
  8
0
  10
1.69769
  20
12.05928
  30
0
  11
1.88081
  21
12.05461
  31
0
  0
LINE
  8
0
  10
1.88081
  20
12.05461
  30
0
  11
2.0593
  21
12.03886
  31
0
  0
LINE
  8
0
  10
2.0593
  20
12.03886
  30
0
  11
2.23223
  21
12.01072
  31
0
  0
LINE
  8
0
  10
2.23223
  20
12.01072
  30
0
  11
2.39776
  21
11.96717
  31
0
  0
LINE
  8
0
  10
2.39776
  20
11.96717
  30
0
  11
2.54848
  21
11.89408
  31
0
  0
LINE
  8
0
  10
2.54848
  20
11.89408
  30
0
  11
2.70054
  21
11.82364
  31
0
  0
LINE
  8
0
  10
2.70054
  20
11.82364
  30
0
  11
2.77998
  21
11.79513
  31
0
  0
LINE
  8
0
  10
2.77998
  20
11.79513
  30
0
  11
2.86225
  21
11.77213
  31
0
  0
LINE
  8
0
  10
2.86225
  20
11.77213
  30
0
  11
2.9481
  21
11.75596
  31
0
  0
LINE
  8
0
  10
2.9481
  20
11.75596
  30
0
  11
3.03883
  21
11.74893
  31
0
  0
LINE
  8
0
  10
3.03883
  20
11.74893
  30
0
  11
3.08679
  21
11.75017
  31
0
  0
LINE
  8
0
  10
3.08679
  20
11.75017
  30
0
  11
3.13728
  21
11.75598
  31
0
  0
LINE
  8
0
  10
3.13728
  20
11.75598
  30
0
  11
3.19158
  21
11.76856
  31
0
  0
LINE
  8
0
  10
3.19158
  20
11.76856
  30
0
  11
3.25297
  21
11.79358
  31
0
  0
LINE
  8
0
  10
3.25297
  20
11.79358
  30
0
  11
3.7047
  21
12.42618
  31
0
  0
LINE
  8
0
  10
3.7047
  20
12.42618
  30
0
  11
3.7047
  21
12.42618
  31
0
  0
LINE
  8
0
  10
3.7047
  20
12.42618
  30
0
  11
3.7047
  21
12.42618
  31
0
  0
LINE
  8
0
  10
3.7047
  20
12.42618
  30
0
  11
4.16675
  21
13.05128
  31
0
  0
LINE
  8
0
  10
4.16675
  20
13.05128
  30
0
  11
4.17157
  21
13.1174
  31
0
  0
LINE
  8
0
  10
4.17157
  20
13.1174
  30
0
  11
4.16676
  21
13.17294
  31
0
  0
LINE
  8
0
  10
4.16676
  20
13.17294
  30
0
  11
4.15668
  21
13.22275
  31
0
  0
LINE
  8
0
  10
4.15668
  20
13.22275
  30
0
  11
4.14304
  21
13.26874
  31
0
  0
LINE
  8
0
  10
4.14304
  20
13.26874
  30
0
  11
4.10832
  21
13.35286
  31
0
  0
LINE
  8
0
  10
4.10832
  20
13.35286
  30
0
  11
4.06641
  21
13.42951
  31
0
  0
LINE
  8
0
  10
4.06641
  20
13.42951
  30
0
  11
4.01911
  21
13.50065
  31
0
  0
LINE
  8
0
  10
4.01911
  20
13.50065
  30
0
  11
3.96745
  21
13.56739
  31
0
  0
LINE
  8
0
  10
3.96745
  20
13.56739
  30
0
  11
3.85346
  21
13.69024
  31
0
  0
LINE
  8
0
  10
3.85346
  20
13.69024
  30
0
  11
3.73738
  21
13.811
  31
0
  0
LINE
  8
0
  10
3.73738
  20
13.811
  30
0
  11
3.64481
  21
13.95497
  31
0
  0
LINE
  8
0
  10
3.64481
  20
13.95497
  30
0
  11
3.5646
  21
14.11073
  31
0
  0
LINE
  8
0
  10
3.5646
  20
14.11073
  30
0
  11
3.49447
  21
14.27563
  31
0
  0
LINE
  8
0
  10
3.49447
  20
14.27563
  30
0
  11
3.43344
  21
14.44834
  31
0
  0
LINE
  8
0
  10
3.43344
  20
14.44834
  30
0
  11
3.38103
  21
14.62802
  31
0
  0
LINE
  8
0
  10
3.38103
  20
14.62802
  30
0
  11
3.33697
  21
14.81402
  31
0
  0
LINE
  8
0
  10
3.33697
  20
14.81402
  30
0
  11
3.3011
  21
15.00582
  31
0
  0
LINE
  8
0
  10
3.3011
  20
15.00582
  30
0
  11
3.27337
  21
15.20299
  31
0
  0
LINE
  8
0
  10
3.27337
  20
15.20299
  30
0
  11
3.25373
  21
15.40513
  31
0
  0
LINE
  8
0
  10
3.25373
  20
15.40513
  30
0
  11
3.24434
  21
15.55978
  31
0
  0
LINE
  8
0
  10
3.24434
  20
15.55978
  30
0
  11
3.85976
  21
16.01526
  31
0
  0
LINE
  8
0
  10
3.85976
  20
16.01526
  30
0
  11
4.51261
  21
16.41524
  31
0
  0
LINE
  8
0
  10
4.51261
  20
16.41524
  30
0
  11
4.65248
  21
16.3486
  31
0
  0
LINE
  8
0
  10
4.65248
  20
16.3486
  30
0
  11
4.83255
  21
16.25467
  31
0
  0
LINE
  8
0
  10
4.83255
  20
16.25467
  30
0
  11
5.00497
  21
16.15509
  31
0
  0
LINE
  8
0
  10
5.00497
  20
16.15509
  30
0
  11
5.16937
  21
16.04999
  31
0
  0
LINE
  8
0
  10
5.16937
  20
16.04999
  30
0
  11
5.32532
  21
15.93946
  31
0
  0
LINE
  8
0
  10
5.32532
  20
15.93946
  30
0
  11
5.47228
  21
15.82356
  31
0
  0
LINE
  8
0
  10
5.47228
  20
15.82356
  30
0
  11
5.60956
  21
15.70227
  31
0
  0
LINE
  8
0
  10
5.60956
  20
15.70227
  30
0
  11
5.73617
  21
15.57547
  31
0
  0
LINE
  8
0
  10
5.73617
  20
15.57547
  30
0
  11
5.85054
  21
15.44276
  31
0
  0
LINE
  8
0
  10
5.85054
  20
15.44276
  30
0
  11
5.94936
  21
15.30299
  31
0
  0
LINE
  8
0
  10
5.94936
  20
15.30299
  30
0
  11
6.01784
  21
15.15013
  31
0
  0
LINE
  8
0
  10
6.01784
  20
15.15013
  30
0
  11
6.08904
  21
14.99842
  31
0
  0
LINE
  8
0
  10
6.08904
  20
14.99842
  30
0
  11
6.13157
  21
14.92552
  31
0
  0
LINE
  8
0
  10
6.13157
  20
14.92552
  30
0
  11
6.17981
  21
14.85502
  31
0
  0
LINE
  8
0
  10
6.17981
  20
14.85502
  30
0
  11
6.23518
  21
14.78745
  31
0
  0
LINE
  8
0
  10
6.23518
  20
14.78745
  30
0
  11
6.30016
  21
14.72374
  31
0
  0
LINE
  8
0
  10
6.30016
  20
14.72374
  30
0
  11
6.3377
  21
14.69387
  31
0
  0
LINE
  8
0
  10
6.3377
  20
14.69387
  30
0
  11
6.38011
  21
14.66586
  31
0
  0
LINE
  8
0
  10
6.38011
  20
14.66586
  30
0
  11
6.4298
  21
14.6406
  31
0
  0
LINE
  8
0
  10
6.4298
  20
14.6406
  30
0
  11
6.49291
  21
14.6203
  31
0
  0
LINE
  8
0
  10
6.49291
  20
14.6203
  30
0
  11
7.24558
  21
14.81453
  31
0
  0
LINE
  8
0
  10
7.24558
  20
14.81453
  30
0
  11
7.24558
  21
14.81453
  31
0
  0
LINE
  8
0
  10
7.24558
  20
14.81453
  30
0
  11
7.24558
  21
14.81453
  31
0
  0
LINE
  8
0
  10
7.24558
  20
14.81453
  30
0
  11
8.00133
  21
14.99639
  31
0
  0
LINE
  8
0
  10
8.00133
  20
14.99639
  30
0
  11
8.04753
  21
15.04394
  31
0
  0
LINE
  8
0
  10
8.04753
  20
15.04394
  30
0
  11
8.07954
  21
15.08958
  31
0
  0
LINE
  8
0
  10
8.07954
  20
15.08958
  30
0
  11
8.10384
  21
15.13421
  31
0
  0
LINE
  8
0
  10
8.10384
  20
15.13421
  30
0
  11
8.12296
  21
15.17822
  31
0
  0
LINE
  8
0
  10
8.12296
  20
15.17822
  30
0
  11
8.15043
  21
15.26497
  31
0
  0
LINE
  8
0
  10
8.15043
  20
15.26497
  30
0
  11
8.16759
  21
15.35062
  31
0
  0
LINE
  8
0
  10
8.16759
  20
15.35062
  30
0
  11
8.17709
  21
15.43552
  31
0
  0
LINE
  8
0
  10
8.17709
  20
15.43552
  30
0
  11
8.18041
  21
15.51986
  31
0
  0
LINE
  8
0
  10
8.18041
  20
15.51986
  30
0
  11
8.17206
  21
15.68723
  31
0
  0
LINE
  8
0
  10
8.17206
  20
15.68723
  30
0
  11
8.16076
  21
15.85436
  31
0
  0
LINE
  8
0
  10
8.16076
  20
15.85436
  30
0
  11
8.18239
  21
16.02415
  31
0
  0
LINE
  8
0
  10
8.18239
  20
16.02415
  30
0
  11
8.22107
  21
16.19503
  31
0
  0
LINE
  8
0
  10
8.22107
  20
16.19503
  30
0
  11
8.27333
  21
16.36643
  31
0
  0
LINE
  8
0
  10
8.27333
  20
16.36643
  30
0
  11
8.3376
  21
16.53796
  31
0
  0
LINE
  8
0
  10
8.3376
  20
16.53796
  30
0
  11
8.41295
  21
16.70929
  31
0
  0
LINE
  8
0
  10
8.41295
  20
16.70929
  30
0
  11
8.49875
  21
16.88009
  31
0
  0
LINE
  8
0
  10
8.49875
  20
16.88009
  30
0
  11
8.59457
  21
17.05008
  31
0
  0
LINE
  8
0
  10
8.59457
  20
17.05008
  30
0
  11
8.70006
  21
17.21895
  31
0
  0
LINE
  8
0
  10
8.70006
  20
17.21895
  30
0
  11
8.81495
  21
17.38642
  31
0
  0
LINE
  8
0
  10
8.81495
  20
17.38642
  30
0
  11
8.90716
  21
17.51092
  31
0
  0
LINE
  8
0
  10
8.90716
  20
17.51092
  30
0
  11
9.67138
  21
17.46426
  31
0
  0
LINE
  8
0
  10
9.67138
  20
17.46426
  30
0
  11
10.4286
  21
17.35101
  31
0
  0
LINE
  8
0
  10
10.4286
  20
17.35101
  30
0
  11
10.4929
  21
17.21005
  31
0
  0
LINE
  8
0
  10
10.4929
  20
17.21005
  30
0
  11
10.57047
  21
17.02236
  31
0
  0
LINE
  8
0
  10
10.57047
  20
17.02236
  30
0
  11
10.63854
  21
16.83525
  31
0
  0
LINE
  8
0
  10
10.63854
  20
16.83525
  30
0
  11
10.69692
  21
16.64906
  31
0
  0
LINE
  8
0
  10
10.69692
  20
16.64906
  30
0
  11
10.74534
  21
16.46414
  31
0
  0
LINE
  8
0
  10
10.74534
  20
16.46414
  30
0
  11
10.78341
  21
16.2809
  31
0
  0
LINE
  8
0
  10
10.78341
  20
16.2809
  30
0
  11
10.81062
  21
16.09975
  31
0
  0
LINE
  8
0
  10
10.81062
  20
16.09975
  30
0
  11
10.8261
  21
15.92123
  31
0
  0
LINE
  8
0
  10
10.8261
  20
15.92123
  30
0
  11
10.82841
  21
15.74604
  31
0
  0
LINE
  8
0
  10
10.82841
  20
15.74604
  30
0
  11
10.81427
  21
15.57546
  31
0
  0
LINE
  8
0
  10
10.81427
  20
15.57546
  30
0
  11
10.76847
  21
15.41434
  31
0
  0
LINE
  8
0
  10
10.76847
  20
15.41434
  30
0
  11
10.7255
  21
15.25236
  31
0
  0
LINE
  8
0
  10
10.7255
  20
15.25236
  30
0
  11
10.71122
  21
15.16918
  31
0
  0
LINE
  8
0
  10
10.71122
  20
15.16918
  30
0
  11
10.70285
  21
15.08416
  31
0
  0
LINE
  8
0
  10
10.70285
  20
15.08416
  30
0
  11
10.70183
  21
14.99681
  31
0
  0
LINE
  8
0
  10
10.70183
  20
14.99681
  30
0
  11
10.71067
  21
14.90624
  31
0
  0
LINE
  8
0
  10
10.71067
  20
14.90624
  30
0
  11
10.72022
  21
14.85922
  31
0
  0
LINE
  8
0
  10
10.72022
  20
14.85922
  30
0
  11
10.7347
  21
14.81051
  31
0
  0
LINE
  8
0
  10
10.7347
  20
14.81051
  30
0
  11
10.75653
  21
14.75921
  31
0
  0
LINE
  8
0
  10
10.75653
  20
14.75921
  30
0
  11
10.79182
  21
14.7031
  31
0
  0
LINE
  8
0
  10
10.79182
  20
14.7031
  30
0
  11
11.49325
  21
14.36808
  31
0
  0
LINE
  8
0
  10
11.49325
  20
14.36808
  30
0
  11
11.49325
  21
14.36808
  31
0
  0
LINE
  8
0
  10
11.49325
  20
14.36808
  30
0
  11
11.49325
  21
14.36808
  31
0
  0
LINE
  8
0
  10
11.49325
  20
14.36808
  30
0
  11
12.18909
  21
14.0216
  31
0
  0
LINE
  8
0
  10
12.18909
  20
14.0216
  30
0
  11
12.25505
  21
14.02834
  31
0
  0
LINE
  8
0
  10
12.25505
  20
14.02834
  30
0
  11
12.3089
  21
14.04272
  31
0
  0
LINE
  8
0
  10
12.3089
  20
14.04272
  30
0
  11
12.3562
  21
14.0613
  31
0
  0
LINE
  8
0
  10
12.3562
  20
14.0613
  30
0
  11
12.39913
  21
14.08272
  31
0
  0
LINE
  8
0
  10
12.39913
  20
14.08272
  30
0
  11
12.47594
  21
14.13152
  31
0
  0
LINE
  8
0
  10
12.47594
  20
14.13152
  30
0
  11
12.54415
  21
14.1861
  31
0
  0
LINE
  8
0
  10
12.54415
  20
14.1861
  30
0
  11
12.60599
  21
14.24503
  31
0
  0
LINE
  8
0
  10
12.60599
  20
14.24503
  30
0
  11
12.66275
  21
14.3075
  31
0
  0
LINE
  8
0
  10
12.66275
  20
14.3075
  30
0
  11
12.76394
  21
14.44108
  31
0
  0
LINE
  8
0
  10
12.76394
  20
14.44108
  30
0
  11
12.86271
  21
14.57637
  31
0
  0
LINE
  8
0
  10
12.86271
  20
14.57637
  30
0
  11
12.98842
  21
14.69254
  31
0
  0
LINE
  8
0
  10
12.98842
  20
14.69254
  30
0
  11
13.12789
  21
14.79857
  31
0
  0
LINE
  8
0
  10
13.12789
  20
14.79857
  30
0
  11
13.2781
  21
14.89628
  31
0
  0
LINE
  8
0
  10
13.2781
  20
14.89628
  30
0
  11
13.43759
  21
14.98637
  31
0
  0
LINE
  8
0
  10
13.43759
  20
14.98637
  30
0
  11
13.60544
  21
15.06918
  31
0
  0
LINE
  8
0
  10
13.60544
  20
15.06918
  30
0
  11
13.78096
  21
15.14487
  31
0
  0
LINE
  8
0
  10
13.78096
  20
15.14487
  30
0
  11
13.96362
  21
15.2135
  31
0
  0
LINE
  8
0
  10
13.96362
  20
15.2135
  30
0
  11
14.15298
  21
15.27505
  31
0
  0
LINE
  8
0
  10
14.15298
  20
15.27505
  30
0
  11
14.34864
  21
15.32949
  31
0
  0
LINE
  8
0
  10
14.34864
  20
15.32949
  30
0
  11
14.4993
  21
15.3656
  31
0
  0
LINE
  8
0
  10
14.4993
  20
15.3656
  30
0
  11
15.05473
  21
14.83862
  31
0
  0
LINE
  8
0
  10
15.05473
  20
14.83862
  30
0
  11
15.56201
  21
14.26514
  31
0
  0
LINE
  8
0
  10
15.56201
  20
14.26514
  30
0
  11
15.52066
  21
14.11582
  31
0
  0
LINE
  8
0
  10
15.52066
  20
14.11582
  30
0
  11
15.45943
  21
13.92218
  31
0
  0
LINE
  8
0
  10
15.45943
  20
13.92218
  30
0
  11
15.39131
  21
13.73509
  31
0
  0
LINE
  8
0
  10
15.39131
  20
13.73509
  30
0
  11
15.31635
  21
13.55493
  31
0
  0
LINE
  8
0
  10
15.31635
  20
13.55493
  30
0
  11
15.23457
  21
13.38216
  31
0
  0
LINE
  8
0
  10
15.23457
  20
13.38216
  30
0
  11
15.14595
  21
13.21731
  31
0
  0
LINE
  8
0
  10
15.14595
  20
13.21731
  30
0
  11
15.05035
  21
13.06105
  31
0
  0
LINE
  8
0
  10
15.05035
  20
13.06105
  30
0
  11
14.94746
  21
12.91434
  31
0
  0
LINE
  8
0
  10
14.94746
  20
12.91434
  30
0
  11
14.83663
  21
12.77866
  31
0
  0
LINE
  8
0
  10
14.83663
  20
12.77866
  30
0
  11
14.71614
  21
12.65708
  31
0
  0
LINE
  8
0
  10
14.71614
  20
12.65708
  30
0
  11
14.57749
  21
12.56309
  31
0
  0
LINE
  8
0
  10
14.57749
  20
12.56309
  30
0
  11
14.44046
  21
12.46663
  31
0
  0
LINE
  8
0
  10
14.44046
  20
12.46663
  30
0
  11
14.37605
  21
12.41209
  31
0
  0
LINE
  8
0
  10
14.37605
  20
12.41209
  30
0
  11
14.31499
  21
12.35234
  31
0
  0
LINE
  8
0
  10
14.31499
  20
12.35234
  30
0
  11
14.25806
  21
12.28608
  31
0
  0
LINE
  8
0
  10
14.25806
  20
12.28608
  30
0
  11
14.20661
  21
12.21102
  31
0
  0
LINE
  8
0
  10
14.20661
  20
12.21102
  30
0
  11
14.18371
  21
12.16886
  31
0
  0
LINE
  8
0
  10
14.18371
  20
12.16886
  30
0
  11
14.16349
  21
12.12224
  31
0
  0
LINE
  8
0
  10
14.16349
  20
12.12224
  30
0
  11
14.14724
  21
12.06892
  31
0
  0
LINE
  8
0
  10
14.14724
  20
12.06892
  30
0
  11
14.13821
  21
12.00324
  31
0
  0
LINE
  8
0
  10
14.13821
  20
12.00324
  30
0
  11
14.46019
  21
11.29573
  31
0
  0
LINE
  8
0
  10
14.46019
  20
11.29573
  30
0
  11
14.46019
  21
11.29573
  31
0
  0
LINE
  8
0
  10
14.46019
  20
11.29573
  30
0
  11
14.46019
  21
11.29573
  31
0
  0
LINE
  8
0
  10
14.46019
  20
11.29573
  30
0
  11
14.77052
  21
10.58304
  31
0
  0
LINE
  8
0
  10
14.77052
  20
10.58304
  30
0
  11
14.82537
  21
10.5458
  31
0
  0
LINE
  8
0
  10
14.82537
  20
10.5458
  30
0
  11
14.87587
  21
10.5222
  31
0
  0
LINE
  8
0
  10
14.87587
  20
10.5222
  30
0
  11
14.92405
  21
10.50603
  31
0
  0
LINE
  8
0
  10
14.92405
  20
10.50603
  30
0
  11
14.9707
  21
10.49484
  31
0
  0
LINE
  8
0
  10
14.9707
  20
10.49484
  30
0
  11
15.06091
  21
10.48285
  31
0
  0
LINE
  8
0
  10
15.06091
  20
10.48285
  30
0
  11
15.14824
  21
10.48082
  31
0
  0
LINE
  8
0
  10
15.14824
  20
10.48082
  30
0
  11
15.2335
  21
10.48621
  31
0
  0
LINE
  8
0
  10
15.2335
  20
10.48621
  30
0
  11
15.31713
  21
10.49758
  31
0
  0
LINE
  8
0
  10
15.31713
  20
10.49758
  30
0
  11
15.48051
  21
10.53487
  31
0
  0
LINE
  8
0
  10
15.48051
  20
10.53487
  30
0
  11
15.64314
  21
10.57502
  31
0
  0
LINE
  8
0
  10
15.64314
  20
10.57502
  30
0
  11
15.81411
  21
10.5832
  31
0
  0
LINE
  8
0
  10
15.81411
  20
10.5832
  30
0
  11
15.9891
  21
10.57478
  31
0
  0
LINE
  8
0
  10
15.9891
  20
10.57478
  30
0
  11
16.16698
  21
10.55308
  31
0
  0
LINE
  8
0
  10
16.16698
  20
10.55308
  30
0
  11
16.34706
  21
10.51957
  31
0
  0
LINE
  8
0
  10
16.34706
  20
10.51957
  30
0
  11
16.52887
  21
10.47512
  31
0
  0
LINE
  8
0
  10
16.52887
  20
10.47512
  30
0
  11
16.71198
  21
10.42028
  31
0
  0
LINE
  8
0
  10
16.71198
  20
10.42028
  30
0
  11
16.89602
  21
10.35544
  31
0
  0
LINE
  8
0
  10
16.89602
  20
10.35544
  30
0
  11
17.08064
  21
10.28088
  31
0
  0
LINE
  8
0
  10
17.08064
  20
10.28088
  30
0
  11
17.26552
  21
10.19681
  31
0
  0
LINE
  8
0
  10
17.26552
  20
10.19681
  30
0
  11
17.40415
  21
10.12762
  31
0
  0
LINE
  8
0
  10
17.40415
  20
10.12762
  30
0
  11
17.4909
  21
9.36691
  31
0
  0
LINE
  8
0
  10
17.4909
  20
9.36691
  30
0
  11
17.51086
  21
8.60153
  31
0
  0
LINE
  8
0
  10
17.51086
  20
8.60153
  30
0
  11
17.38321
  21
8.51372
  31
0
  0
LINE
  8
0
  10
17.38321
  20
8.51372
  30
0
  11
17.21184
  21
8.40474
  31
0
  0
LINE
  8
0
  10
17.21184
  20
8.40474
  30
0
  11
17.03939
  21
8.30521
  31
0
  0
LINE
  8
0
  10
17.03939
  20
8.30521
  30
0
  11
16.86616
  21
8.21539
  31
0
  0
LINE
  8
0
  10
16.86616
  20
8.21539
  30
0
  11
16.69247
  21
8.1356
  31
0
  0
LINE
  8
0
  10
16.69247
  20
8.1356
  30
0
  11
16.51861
  21
8.06628
  31
0
  0
LINE
  8
0
  10
16.51861
  20
8.06628
  30
0
  11
16.34494
  21
8.00803
  31
0
  0
LINE
  8
0
  10
16.34494
  20
8.00803
  30
0
  11
16.17182
  21
7.96178
  31
0
  0
LINE
  8
0
  10
16.17182
  20
7.96178
  30
0
  11
15.9997
  21
7.92909
  31
0
  0
LINE
  8
0
  10
15.9997
  20
7.92909
  30
0
  11
15.82925
  21
7.9134
  31
0
  0
LINE
  8
0
  10
15.82925
  20
7.9134
  30
0
  11
15.66263
  21
7.93052
  31
0
  0
LINE
  8
0
  10
15.66263
  20
7.93052
  30
0
  11
15.49565
  21
7.94471
  31
0
  0
LINE
  8
0
  10
15.49565
  20
7.94471
  30
0
  11
15.41125
  21
7.94433
  31
0
  0
LINE
  8
0
  10
15.41125
  20
7.94433
  30
0
  11
15.32607
  21
7.9378
  31
0
  0
LINE
  8
0
  10
15.32607
  20
7.9378
  30
0
  11
15.23987
  21
7.92364
  31
0
  0
LINE
  8
0
  10
15.23987
  20
7.92364
  30
0
  11
15.15221
  21
7.89921
  31
0
  0
LINE
  8
0
  10
15.15221
  20
7.89921
  30
0
  11
15.10757
  21
7.88164
  31
0
  0
LINE
  8
0
  10
15.10757
  20
7.88164
  30
0
  11
15.06211
  21
7.85892
  31
0
  0
LINE
  8
0
  10
15.06211
  20
7.85892
  30
0
  11
15.01538
  21
7.82852
  31
0
  0
LINE
  8
0
  10
15.01538
  20
7.82852
  30
0
  11
14.96625
  21
7.78401
  31
0
  0
LINE
  8
0
  10
14.96625
  20
7.78401
  30
0
  11
14.75812
  21
7.03507
  31
0
  0
LINE
  8
0
  10
14.75812
  20
7.03507
  30
0
  11
14.75812
  21
7.03507
  31
0
  0
LINE
  8
0
  10
14.75812
  20
7.03507
  30
0
  11
14.75812
  21
7.03507
  31
0
  0
LINE
  8
0
  10
14.75812
  20
7.03507
  30
0
  11
14.53774
  21
6.28963
  31
0
  0
LINE
  8
0
  10
14.53774
  20
6.28963
  30
0
  11
14.55582
  21
6.22585
  31
0
  0
LINE
  8
0
  10
14.55582
  20
6.22585
  30
0
  11
14.57934
  21
6.17531
  31
0
  0
LINE
  8
0
  10
14.57934
  20
6.17531
  30
0
  11
14.60585
  21
6.13195
  31
0
  0
LINE
  8
0
  10
14.60585
  20
6.13195
  30
0
  11
14.6344
  21
6.09339
  31
0
  0
LINE
  8
0
  10
14.6344
  20
6.09339
  30
0
  11
14.69579
  21
6.02622
  31
0
  0
LINE
  8
0
  10
14.69579
  20
6.02622
  30
0
  11
14.76139
  21
5.96853
  31
0
  0
LINE
  8
0
  10
14.76139
  20
5.96853
  30
0
  11
14.83017
  21
5.91786
  31
0
  0
LINE
  8
0
  10
14.83017
  20
5.91786
  30
0
  11
14.90154
  21
5.87281
  31
0
  0
LINE
  8
0
  10
14.90154
  20
5.87281
  30
0
  11
15.05067
  21
5.79636
  31
0
  0
LINE
  8
0
  10
15.05067
  20
5.79636
  30
0
  11
15.20105
  21
5.72259
  31
0
  0
LINE
  8
0
  10
15.20105
  20
5.72259
  30
0
  11
15.33728
  21
5.61895
  31
0
  0
LINE
  8
0
  10
15.33728
  20
5.61895
  30
0
  11
15.46592
  21
5.50002
  31
0
  0
LINE
  8
0
  10
15.46592
  20
5.50002
  30
0
  11
15.58823
  21
5.36906
  31
0
  0
LINE
  8
0
  10
15.58823
  20
5.36906
  30
0
  11
15.70465
  21
5.22763
  31
0
  0
LINE
  8
0
  10
15.70465
  20
5.22763
  30
0
  11
15.81535
  21
5.07671
  31
0
  0
LINE
  8
0
  10
15.81535
  20
5.07671
  30
0
  11
15.92037
  21
4.917
  31
0
  0
LINE
  8
0
  10
15.92037
  20
4.917
  30
0
  11
16.01967
  21
4.74903
  31
0
  0
LINE
  8
0
  10
16.01967
  20
4.74903
  30
0
  11
16.11317
  21
4.57324
  31
0
  0
LINE
  8
0
  10
16.11317
  20
4.57324
  30
0
  11
16.20076
  21
4.39001
  31
0
  0
LINE
  8
0
  10
16.20076
  20
4.39001
  30
0
  11
16.26248
  21
4.2479
  31
0
  0
LINE
  8
0
  10
16.26248
  20
4.2479
  30
0
  11
15.83996
  21
3.6094
  31
0
  0
LINE
  8
0
  10
15.83996
  20
3.6094
  30
0
  11
15.36327
  21
3.01025
  31
0
  0
LINE
  8
0
  10
15.36327
  20
3.01025
  30
0
  11
15.20905
  21
3.02504
  31
0
  0
LINE
  8
0
  10
15.20905
  20
3.02504
  30
0
  11
15.00772
  21
3.05171
  31
0
  0
LINE
  8
0
  10
15.00772
  20
3.05171
  30
0
  11
14.81164
  21
3.08631
  31
0
  0
LINE
  8
0
  10
14.81164
  20
3.08631
  30
0
  11
14.6212
  21
3.12885
  31
0
  0
LINE
  8
0
  10
14.6212
  20
3.12885
  30
0
  11
14.43685
  21
3.17938
  31
0
  0
LINE
  8
0
  10
14.43685
  20
3.17938
  30
0
  11
14.25912
  21
3.23803
  31
0
  0
LINE
  8
0
  10
14.25912
  20
3.23803
  30
0
  11
14.08864
  21
3.30504
  31
0
  0
LINE
  8
0
  10
14.08864
  20
3.30504
  30
0
  11
13.92629
  21
3.38089
  31
0
  0
LINE
  8
0
  10
13.92629
  20
3.38089
  30
0
  11
13.77342
  21
3.46649
  31
0
  0
LINE
  8
0
  10
13.77342
  20
3.46649
  30
0
  11
13.63277
  21
3.56403
  31
0
  0
LINE
  8
0
  10
13.63277
  20
3.56403
  30
0
  11
13.51613
  21
3.68425
  31
0
  0
LINE
  8
0
  10
13.51613
  20
3.68425
  30
0
  11
13.39734
  21
3.80245
  31
0
  0
LINE
  8
0
  10
13.39734
  20
3.80245
  30
0
  11
13.33244
  21
3.85641
  31
0
  0
LINE
  8
0
  10
13.33244
  20
3.85641
  30
0
  11
13.26299
  21
3.90617
  31
0
  0
LINE
  8
0
  10
13.26299
  20
3.90617
  30
0
  11
13.18785
  21
3.95072
  31
0
  0
LINE
  8
0
  10
13.18785
  20
3.95072
  30
0
  11
13.105
  21
3.98836
  31
0
  0
LINE
  8
0
  10
13.105
  20
3.98836
  30
0
  11
13.05951
  21
4.00359
  31
0
  0
LINE
  8
0
  10
13.05951
  20
4.00359
  30
0
  11
13.01008
  21
4.01541
  31
0
  0
LINE
  8
0
  10
13.01008
  20
4.01541
  30
0
  11
12.95475
  21
4.02216
  31
0
  0
LINE
  8
0
  10
12.95475
  20
4.02216
  30
0
  11
12.8885
  21
4.01964
  31
0
  0
LINE
  8
0
  10
12.8885
  20
4.01964
  30
0
  11
12.24765
  21
3.5797
  31
0
  0
LINE
  8
0
  10
12.24765
  20
3.5797
  30
0
  11
12.24765
  21
3.5797
  31
0
  0
LINE
  8
0
  10
12.24765
  20
3.5797
  30
0
  11
12.24765
  21
3.5797
  31
0
  0
LINE
  8
0
  10
12.24765
  20
3.5797
  30
0
  11
11.59967
  21
3.15032
  31
0
  0
LINE
  8
0
  10
11.59967
  20
3.15032
  30
0
  11
11.57253
  21
3.08984
  31
0
  0
LINE
  8
0
  10
11.57253
  20
3.08984
  30
0
  11
11.55806
  21
3.03601
  31
0
  0
LINE
  8
0
  10
11.55806
  20
3.03601
  30
0
  11
11.55049
  21
2.98575
  31
0
  0
LINE
  8
0
  10
11.55049
  20
2.98575
  30
0
  11
11.54758
  21
2.93786
  31
0
  0
LINE
  8
0
  10
11.54758
  20
2.93786
  30
0
  11
11.55143
  21
2.84694
  31
0
  0
LINE
  8
0
  10
11.55143
  20
2.84694
  30
0
  11
11.5646
  21
2.76059
  31
0
  0
LINE
  8
0
  10
11.5646
  20
2.76059
  30
0
  11
11.58471
  21
2.67756
  31
0
  0
LINE
  8
0
  10
11.58471
  20
2.67756
  30
0
  11
11.61043
  21
2.59717
  31
0
  0
LINE
  8
0
  10
11.61043
  20
2.59717
  30
0
  11
11.67553
  21
2.44275
  31
0
  0
LINE
  8
0
  10
11.67553
  20
2.44275
  30
0
  11
11.74331
  21
2.28957
  31
0
  0
LINE
  8
0
  10
11.74331
  20
2.28957
  30
0
  11
11.78105
  21
2.12262
  31
0
  0
LINE
  8
0
  10
11.78105
  20
2.12262
  30
0
  11
11.80315
  21
1.94882
  31
0
  0
LINE
  8
0
  10
11.80315
  20
1.94882
  30
0
  11
11.81266
  21
1.76988
  31
0
  0
LINE
  8
0
  10
11.81266
  20
1.76988
  30
0
  11
11.81093
  21
1.58671
  31
0
  0
LINE
  8
0
  10
11.81093
  20
1.58671
  30
0
  11
11.79873
  21
1.39994
  31
0
  0
LINE
  8
0
  10
11.79873
  20
1.39994
  30
0
  11
11.77652
  21
1.21009
  31
0
  0
LINE
  8
0
  10
11.77652
  20
1.21009
  30
0
  11
11.74462
  21
1.01759
  31
0
  0
LINE
  8
0
  10
11.74462
  20
1.01759
  30
0
  11
11.70325
  21
0.82282
  31
0
  0
LINE
  8
0
  10
11.70325
  20
0.82282
  30
0
  11
11.65256
  21
0.62616
  31
0
  0
LINE
  8
0
  10
11.65256
  20
0.62616
  30
0
  11
11.6085
  21
0.47762
  31
0
  0
LINE
  8
0
  10
11.6085
  20
0.47762
  30
0
  11
10.87441
  21
0.26009
  31
0
  0
LINE
  8
0
  10
10.87441
  20
0.26009
  30
0
  11
10.12412
  21
0.10753
  31
0
  0
LINE
  8
0
  10
10.12412
  20
0.10753
  30
0
  11
10.01548
  21
0.21799
  31
0
  0
LINE
  8
0
  10
10.01548
  20
0.21799
  30
0
  11
9.8784
  21
0.36784
  31
0
  0
LINE
  8
0
  10
9.8784
  20
0.36784
  30
0
  11
9.75044
  21
0.52038
  31
0
  0
LINE
  8
0
  10
9.75044
  20
0.52038
  30
0
  11
9.6319
  21
0.67538
  31
0
  0
LINE
  8
0
  10
9.6319
  20
0.67538
  30
0
  11
9.52316
  21
0.83258
  31
0
  0
LINE
  8
0
  10
9.52316
  20
0.83258
  30
0
  11
9.4247
  21
0.99175
  31
0
  0
LINE
  8
0
  10
9.4247
  20
0.99175
  30
0
  11
9.33718
  21
1.15267
  31
0
  0
LINE
  8
0
  10
9.33718
  20
1.15267
  30
0
  11
9.26157
  21
1.31513
  31
0
  0
LINE
  8
0
  10
9.26157
  20
1.31513
  30
0
  11
9.19949
  21
1.47896
  31
0
  0
LINE
  8
0
  10
9.19949
  20
1.47896
  30
0
  11
9.15444
  21
1.64409
  31
0
  0
LINE
  8
0
  10
9.15444
  20
1.64409
  30
0
  11
9.14237
  21
1.81116
  31
0
  0
LINE
  8
0
  10
9.14237
  20
1.81116
  30
0
  11
9.12734
  21
1.97807
  31
0
  0
LINE
  8
0
  10
9.12734
  20
1.97807
  30
0
  11
9.11231
  21
2.06112
  31
0
  0
LINE
  8
0
  10
9.11231
  20
2.06112
  30
0
  11
9.0911
  21
2.14387
  31
0
  0
LINE
  8
0
  10
9.0911
  20
2.14387
  30
0
  11
9.06218
  21
2.2263
  31
0
  0
LINE
  8
0
  10
9.06218
  20
2.2263
  30
0
  11
9.0229
  21
2.30839
  31
0
  0
LINE
  8
0
  10
9.0229
  20
2.30839
  30
0
  11
8.99784
  21
2.3493
  31
0
  0
LINE
  8
0
  10
8.99784
  20
2.3493
  30
0
  11
8.96757
  21
2.39013
  31
0
  0
LINE
  8
0
  10
8.96757
  20
2.39013
  30
0
  11
8.92952
  21
2.43086
  31
0
  0
LINE
  8
0
  10
8.92952
  20
2.43086
  30
0
  11
8.87716
  21
2.47152
  31
0
  0
LINE
  8
0
  10
8.87716
  20
2.47152
  30
0
  11
8.10345
  21
2.54643
  31
0
  0
LINE
  8
0
  10
8.10345
  20
2.54643
  30
0
  11
8.10345
  21
2.54643
  31
0
  0
LINE
  8
0
  10
8.10345
  20
2.54643
  30
0
  11
8.10345
  21
2.54643
  31
0
  0
LINE
  8
0
  10
8.10345
  20
2.54643
  30
0
  11
7.33107
  21
2.63402
  31
0
  0
LINE
  8
0
  10
7.33107
  20
2.63402
  30
0
  11
7.2714
  21
2.60514
  31
0
  0
LINE
  8
0
  10
7.2714
  20
2.60514
  30
0
  11
7.22571
  21
2.5732
  31
0
  0
LINE
  8
0
  10
7.22571
  20
2.5732
  30
0
  11
7.18761
  21
2.53957
  31
0
  0
LINE
  8
0
  10
7.18761
  20
2.53957
  30
0
  11
7.1546
  21
2.50476
  31
0
  0
LINE
  8
0
  10
7.1546
  20
2.50476
  30
0
  11
7.09911
  21
2.43263
  31
0
  0
LINE
  8
0
  10
7.09911
  20
2.43263
  30
0
  11
7.05369
  21
2.35801
  31
0
  0
LINE
  8
0
  10
7.05369
  20
2.35801
  30
0
  11
7.01573
  21
2.28148
  31
0
  0
LINE
  8
0
  10
7.01573
  20
2.28148
  30
0
  11
6.98376
  21
2.20337
  31
0
  0
LINE
  8
0
  10
6.98376
  20
2.20337
  30
0
  11
6.93436
  21
2.04323
  31
0
  0
LINE
  8
0
  10
6.93436
  20
2.04323
  30
0
  11
6.88782
  21
1.88232
  31
0
  0
LINE
  8
0
  10
6.88782
  20
1.88232
  30
0
  11
6.80942
  21
1.73017
  31
0
  0
LINE
  8
0
  10
6.80942
  20
1.73017
  30
0
  11
6.71463
  21
1.58283
  31
0
  0
LINE
  8
0
  10
6.71463
  20
1.58283
  30
0
  11
6.6069
  21
1.43964
  31
0
  0
LINE
  8
0
  10
6.6069
  20
1.43964
  30
0
  11
6.48784
  21
1.30043
  31
0
  0
LINE
  8
0
  10
6.48784
  20
1.30043
  30
0
  11
6.35844
  21
1.1652
  31
0
  0
LINE
  8
0
  10
6.35844
  20
1.1652
  30
0
  11
6.21939
  21
1.03405
  31
0
  0
LINE
  8
0
  10
6.21939
  20
1.03405
  30
0
  11
6.07121
  21
0.90708
  31
0
  0
LINE
  8
0
  10
6.07121
  20
0.90708
  30
0
  11
5.91433
  21
0.78448
  31
0
  0
LINE
  8
0
  10
5.91433
  20
0.78448
  30
0
  11
5.74909
  21
0.66641
  31
0
  0
LINE
  8
0
  10
5.74909
  20
0.66641
  30
0
  11
5.61986
  21
0.58094
  31
0
  0
LINE
  8
0
  10
5.61986
  20
0.58094
  30
0
  11
4.91769
  21
0.88617
  31
0
  0
LINE
  8
0
  10
4.91769
  20
0.88617
  30
0
  11
4.24486
  21
1.25157
  31
0
  0
LINE
  8
0
  10
4.24486
  20
1.25157
  30
0
  11
4.23265
  21
1.40602
  31
0
  0
LINE
  8
0
  10
4.23265
  20
1.40602
  30
0
  11
4.22395
  21
1.60893
  31
0
  0
LINE
  8
0
  10
4.22395
  20
1.60893
  30
0
  11
4.22398
  21
1.80804
  31
0
  0
LINE
  8
0
  10
4.22398
  20
1.80804
  30
0
  11
4.2328
  21
2.00297
  31
0
  0
LINE
  8
0
  10
4.2328
  20
2.00297
  30
0
  11
4.25055
  21
2.19329
  31
0
  0
LINE
  8
0
  10
4.25055
  20
2.19329
  30
0
  11
4.27745
  21
2.37851
  31
0
  0
LINE
  8
0
  10
4.27745
  20
2.37851
  30
0
  11
4.31384
  21
2.55804
  31
0
  0
LINE
  8
0
  10
4.31384
  20
2.55804
  30
0
  11
4.36035
  21
2.73109
  31
0
  0
LINE
  8
0
  10
4.36035
  20
2.73109
  30
0
  11
4.41809
  21
2.89649
  31
0
  0
LINE
  8
0
  10
4.41809
  20
2.89649
  30
0
  11
4.48973
  21
3.05195
  31
0
  0
LINE
  8
0
  10
4.48973
  20
3.05195
  30
0
  11
4.58787
  21
3.18769
  31
0
  0
LINE
  8
0
  10
4.58787
  20
3.18769
  30
0
  11
4.68365
  21
3.32521
  31
0
  0
LINE
  8
0
  10
4.68365
  20
3.32521
  30
0
  11
4.72552
  21
3.39849
  31
0
  0
LINE
  8
0
  10
4.72552
  20
3.39849
  30
0
  11
4.76246
  21
3.47552
  31
0
  0
LINE
  8
0
  10
4.76246
  20
3.47552
  30
0
  11
4.79329
  21
3.55725
  31
0
  0
LINE
  8
0
  10
4.79329
  20
3.55725
  30
0
  11
4.81597
  21
3.64538
  31
0
  0
LINE
  8
0
  10
4.81597
  20
3.64538
  30
0
  11
4.82307
  21
3.69283
  31
0
  0
LINE
  8
0
  10
4.82307
  20
3.69283
  30
0
  11
4.82612
  21
3.74356
  31
0
  0
LINE
  8
0
  10
4.82612
  20
3.74356
  30
0
  11
4.82316
  21
3.79922
  31
0
  0
LINE
  8
0
  10
4.82316
  20
3.79922
  30
0
  11
4.80918
  21
3.86403
  31
0
  0
LINE
  8
0
  10
4.80918
  20
3.86403
  30
0
  11
4.26464
  21
4.41875
  31
0
  0
LINE
  8
0
  10
4.26464
  20
4.41875
  30
0
  11
4.26464
  21
4.41875
  31
0
  0
LINE
  8
0
  10
4.26464
  20
4.41875
  30
0
  11
4.26464
  21
4.41875
  31
0
  0
LINE
  8
0
  10
4.26464
  20
4.41875
  30
0
  11
3.72926
  21
4.98232
  31
0
  0
LINE
  8
0
  10
3.72926
  20
4.98232
  30
0
  11
3.66499
  21
4.99855
  31
0
  0
LINE
  8
0
  10
3.66499
  20
4.99855
  30
0
  11
3.60946
  21
5.00345
  31
0
  0
LINE
  8
0
  10
3.60946
  20
5.00345
  30
0
  11
3.55865
  21
5.00217
  31
0
  0
LINE
  8
0
  10
3.55865
  20
5.00217
  30
0
  11
3.51099
  21
4.99673
  31
0
  0
LINE
  8
0
  10
3.51099
  20
4.99673
  30
0
  11
3.42212
  21
4.97714
  31
0
  0
LINE
  8
0
  10
3.42212
  20
4.97714
  30
0
  11
3.33936
  21
4.94918
  31
0
  0
LINE
  8
0
  10
3.33936
  20
4.94918
  30
0
  11
3.26109
  21
4.91496
  31
0
  0
LINE
  8
0
  10
3.26109
  20
4.91496
  30
0
  11
3.18639
  21
4.87567
  31
0
  0
LINE
  8
0
  10
3.18639
  20
4.87567
  30
0
  11
3.04562
  21
4.78475
  31
0
  0
LINE
  8
0
  10
3.04562
  20
4.78475
  30
0
  11
2.90653
  21
4.6914
  31
0
  0
LINE
  8
0
  10
2.90653
  20
4.6914
  30
0
  11
2.74867
  21
4.62523
  31
0
  0
LINE
  8
0
  10
2.74867
  20
4.62523
  30
0
  11
2.58135
  21
4.5733
  31
0
  0
LINE
  8
0
  10
2.58135
  20
4.5733
  30
0
  11
2.40678
  21
4.53286
  31
0
  0
LINE
  8
0
  10
2.40678
  20
4.53286
  30
0
  11
2.22609
  21
4.50275
  31
0
  0
LINE
  8
0
  10
2.22609
  20
4.50275
  30
0
  11
2.04004
  21
4.48234
  31
0
  0
LINE
  8
0
  10
2.04004
  20
4.48234
  30
0
  11
1.84922
  21
4.47124
  31
0
  0
LINE
  8
0
  10
1.84922
  20
4.47124
  30
0
  11
1.6541
  21
4.46923
  31
0
  0
LINE
  8
0
  10
1.6541
  20
4.46923
  30
0
  11
1.45511
  21
4.47615
  31
0
  0
LINE
  8
0
  10
1.45511
  20
4.47615
  30
0
  11
1.25263
  21
4.49192
  31
0
  0
LINE
  8
0
  10
1.25263
  20
4.49192
  30
0
  11
1.0987
  21
4.50952
  31
0
  0
LINE
  8
0
  10
1.0987
  20
4.50952
  30
0
  11
0.75701
  21
5.19468
  31
0
  0
LINE
  8
0
  10
0.75701
  20
5.19468
  30
0
  11
0.47647
  21
5.90708
  31
0
  0
LINE
  8
0
  10
0.47647
  20
5.90708
  30
0
  11
0.56639
  21
6.03325
  31
0
  0
LINE
  8
0
  10
0.56639
  20
6.03325
  30
0
  11
0.69016
  21
6.19427
  31
0
  0
LINE
  8
0
  10
0.69016
  20
6.19427
  30
0
  11
0.81816
  21
6.34678
  31
0
  0
LINE
  8
0
  10
0.81816
  20
6.34678
  30
0
  11
0.95022
  21
6.49043
  31
0
  0
LINE
  8
0
  10
0.95022
  20
6.49043
  30
0
  11
1.08615
  21
6.62481
  31
0
  0
LINE
  8
0
  10
1.08615
  20
6.62481
  30
0
  11
1.22581
  21
6.74942
  31
0
  0
LINE
  8
0
  10
1.22581
  20
6.74942
  30
0
  11
1.36909
  21
6.86355
  31
0
  0
LINE
  8
0
  10
1.36909
  20
6.86355
  30
0
  11
1.51595
  21
6.96622
  31
0
  0
LINE
  8
0
  10
1.51595
  20
6.96622
  30
0
  11
1.66651
  21
7.05581
  31
0
  0
LINE
  8
0
  10
1.66651
  20
7.05581
  30
0
  11
1.82131
  21
7.12885
  31
0
  0
LINE
  8
0
  10
1.82131
  20
7.12885
  30
0
  11
1.98374
  21
7.16975
  31
0
  0
LINE
  8
0
  10
1.98374
  20
7.16975
  30
0
  11
2.14551
  21
7.21353
  31
0
  0
LINE
  8
0
  10
2.14551
  20
7.21353
  30
0
  11
2.22469
  21
7.24275
  31
0
  0
LINE
  8
0
  10
2.22469
  20
7.24275
  30
0
  11
2.3025
  21
7.27802
  31
0
  0
LINE
  8
0
  10
2.3025
  20
7.27802
  30
0
  11
2.37865
  21
7.32081
  31
0
  0
LINE
  8
0
  10
2.37865
  20
7.32081
  30
0
  11
2.45267
  21
7.37374
  31
0
  0
LINE
  8
0
  10
2.45267
  20
7.37374
  30
0
  11
2.48861
  21
7.40552
  31
0
  0
LINE
  8
0
  10
2.48861
  20
7.40552
  30
0
  11
2.52356
  21
7.44242
  31
0
  0
LINE
  8
0
  10
2.52356
  20
7.44242
  30
0
  11
2.55707
  21
7.48697
  31
0
  0
LINE
  8
0
  10
2.55707
  20
7.48697
  30
0
  11
2.58802
  21
7.5456
  31
0
  0
LINE
  8
0
  10
2.58802
  20
7.5456
  30
0
  11
2.52744
  21
8.32056
  31
0
  0
LINE
  8
0
  10
2.52744
  20
8.32056
  30
0
  11
2.52744
  21
8.32056
  31
0
  0
LINE
  8
0
  10
2.52744
  20
8.32056
  30
0
  11
2.52744
  21
8.32056
  31
0
  0
LINE
  8
0
  10
9.54611
  20
8.75611
  30
0
  11
9.54611
  21
8.75611
  31
0
  0
LINE
  8
0
  10
9.54611
  20
8.75611
  30
0
  11
9.51919
  21
8.96058
  31
0
  0
LINE
  8
0
  10
9.51919
  20
8.96058
  30
0
  11
9.44027
  21
9.15111
  31
0
  0
LINE
  8
0
  10
9.44027
  20
9.15111
  30
0
  11
9.31473
  21
9.31473
  31
0
  0
LINE
  8
0
  10
9.31473
  20
9.31473
  30
0
  11
9.15111
  21
9.44027
  31
0
  0
LINE
  8
0
  10
9.15111
  20
9.44027
  30
0
  11
8.96058
  21
9.51919
  31
0
  0
LINE
  8
0
  10
8.96058
  20
9.51919
  30
0
  11
8.75611
  21
9.54611
  31
0
  0
LINE
  8
0
  10
8.75611
  20
9.54611
  30
0
  11
8.55165
  21
9.51919
  31
0
  0
LINE
  8
0
  10
8.55165
  20
9.51919
  30
0
  11
8.36111
  21
9.44027
  31
0
  0
LINE
  8
0
  10
8.36111
  20
9.44027
  30
0
  11
8.1975
  21
9.31473
  31
0
  0
LINE
  8
0
  10
8.1975
  20
9.31473
  30
0
  11
8.07195
  21
9.15111
  31
0
  0
LINE
  8
0
  10
8.07195
  20
9.15111
  30
0
  11
7.99303
  21
8.96058
  31
0
  0
LINE
  8
0
  10
7.99303
  20
8.96058
  30
0
  11
7.96611
  21
8.75611
  31
0
  0
LINE
  8
0
  10
7.96611
  20
8.75611
  30
0
  11
7.99303
  21
8.55165
  31
0
  0
LINE
  8
0
  10
7.99303
  20
8.55165
  30
0
  11
8.07195
  21
8.36111
  31
0
  0
LINE
  8
0
  10
8.07195
  20
8.36111
  30
0
  11
8.1975
  21
8.1975
  31
0
  0
LINE
  8
0
  10
8.1975
  20
8.1975
  30
0
  11
8.36111
  21
8.07195
  31
0
  0
LINE
  8
0
  10
8.36111
  20
8.07195
  30
0
  11
8.55165
  21
7.99303
  31
0
  0
LINE
  8
0
  10
8.55165
  20
7.99303
  30
0
  11
8.75611
  21
7.96611
  31
0
  0
LINE
  8
0
  10
8.75611
  20
7.96611
  30
0
  11
8.96058
  21
7.99303
  31
0
  0
LINE
  8
0
  10
8.96058
  20
7.99303
  30
0
  11
9.15111
  21
8.07195
  31
0
  0
LINE
  8
0
  10
9.15111
  20
8.07195
  30
0
  11
9.31473
  21
8.1975
  31
0
  0
LINE
  8
0
  10
9.31473
  20
8.1975
  30
0
  11
9.44027
  21
8.36111
  31
0
  0
LINE
  8
0
  10
9.44027
  20
8.36111
  30
0
  11
9.51919
  21
8.55165
  31
0
  0
LINE
  8
0
  10
9.51919
  20
8.55165
  30
0
  11
9.54611
  21
8.75611
  31
0
  0
LINE
  8
0
  10
9.54611
  20
8.75611
  30
0
  11
9.54611
  21
8.75611
  31
0
  0
ENDSEC
  0
EOF
