  999
file created by gear template generator
  0
SECTION
  2
HEADER
  9
$ACADVER
  1
AC1006
  9
$INSBASE
  10
0.0
  20
0.0
  30
0.0
  9
$EXTMIN
  10
0.0
  20
0.0
  9
$EXTMAX
  10
10000.0
  20
10000.0
  0
ENDSEC
  0
SECTION
  2
ENTITIES
  0
LINE
  8
0
  10
3.08805
  20
6.1371
  30
0
  11
3.08805
  21
6.1371
  31
0
  0
LINE
  8
0
  10
3.08805
  20
6.1371
  30
0
  11
2.7678
  21
6.84539
  31
0
  0
LINE
  8
0
  10
2.7678
  20
6.84539
  30
0
  11
2.71244
  21
6.88186
  31
0
  0
LINE
  8
0
  10
2.71244
  20
6.88186
  30
0
  11
2.66161
  21
6.90475
  31
0
  0
LINE
  8
0
  10
2.66161
  20
6.90475
  30
0
  11
2.61321
  21
6.92025
  31
0
  0
LINE
  8
0
  10
2.61321
  20
6.92025
  30
0
  11
2.56641
  21
6.93079
  31
0
  0
LINE
  8
0
  10
2.56641
  20
6.93079
  30
0
  11
2.47604
  21
6.94152
  31
0
  0
LINE
  8
0
  10
2.47604
  20
6.94152
  30
0
  11
2.38869
  21
6.94233
  31
0
  0
LINE
  8
0
  10
2.38869
  20
6.94233
  30
0
  11
2.30351
  21
6.93574
  31
0
  0
LINE
  8
0
  10
2.30351
  20
6.93574
  30
0
  11
2.22005
  21
6.92321
  31
0
  0
LINE
  8
0
  10
2.22005
  20
6.92321
  30
0
  11
2.0572
  21
6.88364
  31
0
  0
LINE
  8
0
  10
2.0572
  20
6.88364
  30
0
  11
1.89516
  21
6.84123
  31
0
  0
LINE
  8
0
  10
1.89516
  20
6.84123
  30
0
  11
1.72432
  21
6.83066
  31
0
  0
LINE
  8
0
  10
1.72432
  20
6.83066
  30
0
  11
1.54922
  21
6.83663
  31
0
  0
LINE
  8
0
  10
1.54922
  20
6.83663
  30
0
  11
1.37106
  21
6.85585
  31
0
  0
LINE
  8
0
  10
1.37106
  20
6.85585
  30
0
  11
1.19052
  21
6.88684
  31
0
  0
LINE
  8
0
  10
1.19052
  20
6.88684
  30
0
  11
1.00811
  21
6.92875
  31
0
  0
LINE
  8
0
  10
1.00811
  20
6.92875
  30
0
  11
0.82425
  21
6.98103
  31
0
  0
LINE
  8
0
  10
0.82425
  20
6.98103
  30
0
  11
0.63933
  21
7.04329
  31
0
  0
LINE
  8
0
  10
0.63933
  20
7.04329
  30
0
  11
0.45368
  21
7.11527
  31
0
  0
LINE
  8
0
  10
0.45368
  20
7.11527
  30
0
  11
0.26765
  21
7.19675
  31
0
  0
LINE
  8
0
  10
0.26765
  20
7.19675
  30
0
  11
0.12807
  21
7.264
  31
0
  0
LINE
  8
0
  10
0.12807
  20
7.264
  30
0
  11
0.03071
  21
8.02342
  31
0
  0
LINE
  8
0
  10
0.03071
  20
8.02342
  30
0
  11
0.00006
  21
8.78845
  31
0
  0
LINE
  8
0
  10
0.00006
  20
8.78845
  30
0
  11
0.12647
  21
8.87803
  31
0
  0
LINE
  8
0
  10
0.12647
  20
8.87803
  30
0
  11
0.29631
  21
8.98939
  31
0
  0
LINE
  8
0
  10
0.29631
  20
8.98939
  30
0
  11
0.46735
  21
9.09132
  31
0
  0
LINE
  8
0
  10
0.46735
  20
9.09132
  30
0
  11
0.6393
  21
9.18355
  31
0
  0
LINE
  8
0
  10
0.6393
  20
9.18355
  30
0
  11
0.81187
  21
9.26576
  31
0
  0
LINE
  8
0
  10
0.81187
  20
9.26576
  30
0
  11
0.98474
  21
9.3375
  31
0
  0
LINE
  8
0
  10
0.98474
  20
9.3375
  30
0
  11
1.15758
  21
9.39817
  31
0
  0
LINE
  8
0
  10
1.15758
  20
9.39817
  30
0
  11
1.33004
  21
9.44683
  31
0
  0
LINE
  8
0
  10
1.33004
  20
9.44683
  30
0
  11
1.50168
  21
9.48192
  31
0
  0
LINE
  8
0
  10
1.50168
  20
9.48192
  30
0
  11
1.6719
  21
9.49999
  31
0
  0
LINE
  8
0
  10
1.6719
  20
9.49999
  30
0
  11
1.83875
  21
9.4852
  31
0
  0
LINE
  8
0
  10
1.83875
  20
9.4852
  30
0
  11
2.00591
  21
9.47334
  31
0
  0
LINE
  8
0
  10
2.00591
  20
9.47334
  30
0
  11
2.09029
  21
9.4749
  31
0
  0
LINE
  8
0
  10
2.09029
  20
9.4749
  30
0
  11
2.17537
  21
9.48261
  31
0
  0
LINE
  8
0
  10
2.17537
  20
9.48261
  30
0
  11
2.26137
  21
9.49798
  31
0
  0
LINE
  8
0
  10
2.26137
  20
9.49798
  30
0
  11
2.34868
  21
9.52363
  31
0
  0
LINE
  8
0
  10
2.34868
  20
9.52363
  30
0
  11
2.39307
  21
9.54182
  31
0
  0
LINE
  8
0
  10
2.39307
  20
9.54182
  30
0
  11
2.43821
  21
9.56518
  31
0
  0
LINE
  8
0
  10
2.43821
  20
9.56518
  30
0
  11
2.4845
  21
9.59622
  31
0
  0
LINE
  8
0
  10
2.4845
  20
9.59622
  30
0
  11
2.53301
  21
9.64141
  31
0
  0
LINE
  8
0
  10
2.53301
  20
9.64141
  30
0
  11
2.73066
  21
10.39319
  31
0
  0
LINE
  8
0
  10
2.73066
  20
10.39319
  30
0
  11
2.73066
  21
10.39319
  31
0
  0
LINE
  8
0
  10
2.73066
  20
10.39319
  30
0
  11
2.73066
  21
10.39319
  31
0
  0
LINE
  8
0
  10
2.73066
  20
10.39319
  30
0
  11
2.94061
  21
11.14163
  31
0
  0
LINE
  8
0
  10
2.94061
  20
11.14163
  30
0
  11
2.92164
  21
11.20515
  31
0
  0
LINE
  8
0
  10
2.92164
  20
11.20515
  30
0
  11
2.89742
  21
11.25536
  31
0
  0
LINE
  8
0
  10
2.89742
  20
11.25536
  30
0
  11
2.87031
  21
11.29834
  31
0
  0
LINE
  8
0
  10
2.87031
  20
11.29834
  30
0
  11
2.84123
  21
11.3365
  31
0
  0
LINE
  8
0
  10
2.84123
  20
11.3365
  30
0
  11
2.7789
  21
11.40281
  31
0
  0
LINE
  8
0
  10
2.7789
  20
11.40281
  30
0
  11
2.7125
  21
11.45957
  31
0
  0
LINE
  8
0
  10
2.7125
  20
11.45957
  30
0
  11
2.64302
  21
11.50928
  31
0
  0
LINE
  8
0
  10
2.64302
  20
11.50928
  30
0
  11
2.57103
  21
11.55333
  31
0
  0
LINE
  8
0
  10
2.57103
  20
11.55333
  30
0
  11
2.42085
  21
11.62769
  31
0
  0
LINE
  8
0
  10
2.42085
  20
11.62769
  30
0
  11
2.26945
  21
11.69936
  31
0
  0
LINE
  8
0
  10
2.26945
  20
11.69936
  30
0
  11
2.13179
  21
11.80108
  31
0
  0
LINE
  8
0
  10
2.13179
  20
11.80108
  30
0
  11
2.0015
  21
11.91821
  31
0
  0
LINE
  8
0
  10
2.0015
  20
11.91821
  30
0
  11
1.87737
  21
12.04745
  31
0
  0
LINE
  8
0
  10
1.87737
  20
12.04745
  30
0
  11
1.75899
  21
12.18724
  31
0
  0
LINE
  8
0
  10
1.75899
  20
12.18724
  30
0
  11
1.6462
  21
12.33659
  31
0
  0
LINE
  8
0
  10
1.6462
  20
12.33659
  30
0
  11
1.53895
  21
12.49482
  31
0
  0
LINE
  8
0
  10
1.53895
  20
12.49482
  30
0
  11
1.43732
  21
12.66139
  31
0
  0
LINE
  8
0
  10
1.43732
  20
12.66139
  30
0
  11
1.34137
  21
12.83585
  31
0
  0
LINE
  8
0
  10
1.34137
  20
12.83585
  30
0
  11
1.25124
  21
13.01785
  31
0
  0
LINE
  8
0
  10
1.25124
  20
13.01785
  30
0
  11
1.18753
  21
13.15908
  31
0
  0
LINE
  8
0
  10
1.18753
  20
13.15908
  30
0
  11
1.6011
  21
13.80342
  31
0
  0
LINE
  8
0
  10
1.6011
  20
13.80342
  30
0
  11
2.06937
  21
14.40917
  31
0
  0
LINE
  8
0
  10
2.06937
  20
14.40917
  30
0
  11
2.22379
  21
14.39653
  31
0
  0
LINE
  8
0
  10
2.22379
  20
14.39653
  30
0
  11
2.42548
  21
14.37267
  31
0
  0
LINE
  8
0
  10
2.42548
  20
14.37267
  30
0
  11
2.62202
  21
14.34081
  31
0
  0
LINE
  8
0
  10
2.62202
  20
14.34081
  30
0
  11
2.81303
  21
14.30094
  31
0
  0
LINE
  8
0
  10
2.81303
  20
14.30094
  30
0
  11
2.99806
  21
14.25299
  31
0
  0
LINE
  8
0
  10
2.99806
  20
14.25299
  30
0
  11
3.1766
  21
14.19683
  31
0
  0
LINE
  8
0
  10
3.1766
  20
14.19683
  30
0
  11
3.348
  21
14.1322
  31
0
  0
LINE
  8
0
  10
3.348
  20
14.1322
  30
0
  11
3.51139
  21
14.05862
  31
0
  0
LINE
  8
0
  10
3.51139
  20
14.05862
  30
0
  11
3.66544
  21
13.97517
  31
0
  0
LINE
  8
0
  10
3.66544
  20
13.97517
  30
0
  11
3.80744
  21
13.87961
  31
0
  0
LINE
  8
0
  10
3.80744
  20
13.87961
  30
0
  11
3.92575
  21
13.76102
  31
0
  0
LINE
  8
0
  10
3.92575
  20
13.76102
  30
0
  11
4.04618
  21
13.64449
  31
0
  0
LINE
  8
0
  10
4.04618
  20
13.64449
  30
0
  11
4.11182
  21
13.59144
  31
0
  0
LINE
  8
0
  10
4.11182
  20
13.59144
  30
0
  11
4.18196
  21
13.54266
  31
0
  0
LINE
  8
0
  10
4.18196
  20
13.54266
  30
0
  11
4.25771
  21
13.49916
  31
0
  0
LINE
  8
0
  10
4.25771
  20
13.49916
  30
0
  11
4.34108
  21
13.46268
  31
0
  0
LINE
  8
0
  10
4.34108
  20
13.46268
  30
0
  11
4.38678
  21
13.44809
  31
0
  0
LINE
  8
0
  10
4.38678
  20
13.44809
  30
0
  11
4.43637
  21
13.43696
  31
0
  0
LINE
  8
0
  10
4.43637
  20
13.43696
  30
0
  11
4.49179
  21
13.43099
  31
0
  0
LINE
  8
0
  10
4.49179
  20
13.43099
  30
0
  11
4.558
  21
13.43442
  31
0
  0
LINE
  8
0
  10
4.558
  20
13.43442
  30
0
  11
5.19264
  21
13.88328
  31
0
  0
LINE
  8
0
  10
5.19264
  20
13.88328
  30
0
  11
5.19264
  21
13.88328
  31
0
  0
LINE
  8
0
  10
5.19264
  20
13.88328
  30
0
  11
5.19264
  21
13.88328
  31
0
  0
LINE
  8
0
  10
5.19264
  20
13.88328
  30
0
  11
5.83456
  21
14.32166
  31
0
  0
LINE
  8
0
  10
5.83456
  20
14.32166
  30
0
  11
5.86086
  21
14.38251
  31
0
  0
LINE
  8
0
  10
5.86086
  20
14.38251
  30
0
  11
5.87458
  21
14.43654
  31
0
  0
LINE
  8
0
  10
5.87458
  20
14.43654
  30
0
  11
5.88144
  21
14.4869
  31
0
  0
LINE
  8
0
  10
5.88144
  20
14.4869
  30
0
  11
5.88369
  21
14.53482
  31
0
  0
LINE
  8
0
  10
5.88369
  20
14.53482
  30
0
  11
5.87856
  21
14.62568
  31
0
  0
LINE
  8
0
  10
5.87856
  20
14.62568
  30
0
  11
5.86419
  21
14.71184
  31
0
  0
LINE
  8
0
  10
5.86419
  20
14.71184
  30
0
  11
5.84292
  21
14.79458
  31
0
  0
LINE
  8
0
  10
5.84292
  20
14.79458
  30
0
  11
5.81608
  21
14.8746
  31
0
  0
LINE
  8
0
  10
5.81608
  20
14.8746
  30
0
  11
5.74883
  21
15.0281
  31
0
  0
LINE
  8
0
  10
5.74883
  20
15.0281
  30
0
  11
5.67892
  21
15.18032
  31
0
  0
LINE
  8
0
  10
5.67892
  20
15.18032
  30
0
  11
5.63885
  21
15.34673
  31
0
  0
LINE
  8
0
  10
5.63885
  20
15.34673
  30
0
  11
5.61433
  21
15.5202
  31
0
  0
LINE
  8
0
  10
5.61433
  20
15.5202
  30
0
  11
5.60232
  21
15.69899
  31
0
  0
LINE
  8
0
  10
5.60232
  20
15.69899
  30
0
  11
5.60149
  21
15.88217
  31
0
  0
LINE
  8
0
  10
5.60149
  20
15.88217
  30
0
  11
5.61109
  21
16.06909
  31
0
  0
LINE
  8
0
  10
5.61109
  20
16.06909
  30
0
  11
5.63064
  21
16.25923
  31
0
  0
LINE
  8
0
  10
5.63064
  20
16.25923
  30
0
  11
5.65985
  21
16.45216
  31
0
  0
LINE
  8
0
  10
5.65985
  20
16.45216
  30
0
  11
5.6985
  21
16.64748
  31
0
  0
LINE
  8
0
  10
5.6985
  20
16.64748
  30
0
  11
5.74644
  21
16.84483
  31
0
  0
LINE
  8
0
  10
5.74644
  20
16.84483
  30
0
  11
5.78842
  21
16.99397
  31
0
  0
LINE
  8
0
  10
5.78842
  20
16.99397
  30
0
  11
6.5194
  21
17.22173
  31
0
  0
LINE
  8
0
  10
6.5194
  20
17.22173
  30
0
  11
7.26748
  21
17.38476
  31
0
  0
LINE
  8
0
  10
7.26748
  20
17.38476
  30
0
  11
7.37766
  21
17.27582
  31
0
  0
LINE
  8
0
  10
7.37766
  20
17.27582
  30
0
  11
7.51682
  21
17.1279
  31
0
  0
LINE
  8
0
  10
7.51682
  20
17.1279
  30
0
  11
7.6469
  21
16.97716
  31
0
  0
LINE
  8
0
  10
7.6469
  20
16.97716
  30
0
  11
7.76759
  21
16.82383
  31
0
  0
LINE
  8
0
  10
7.76759
  20
16.82383
  30
0
  11
7.87851
  21
16.66817
  31
0
  0
LINE
  8
0
  10
7.87851
  20
16.66817
  30
0
  11
7.97918
  21
16.51038
  31
0
  0
LINE
  8
0
  10
7.97918
  20
16.51038
  30
0
  11
8.06894
  21
16.3507
  31
0
  0
LINE
  8
0
  10
8.06894
  20
16.3507
  30
0
  11
8.14681
  21
16.18931
  31
0
  0
LINE
  8
0
  10
8.14681
  20
16.18931
  30
0
  11
8.21118
  21
16.02637
  31
0
  0
LINE
  8
0
  10
8.21118
  20
16.02637
  30
0
  11
8.25853
  21
15.86188
  31
0
  0
LINE
  8
0
  10
8.25853
  20
15.86188
  30
0
  11
8.27293
  21
15.69499
  31
0
  0
LINE
  8
0
  10
8.27293
  20
15.69499
  30
0
  11
8.29028
  21
15.52831
  31
0
  0
LINE
  8
0
  10
8.29028
  20
15.52831
  30
0
  11
8.30647
  21
15.44548
  31
0
  0
LINE
  8
0
  10
8.30647
  20
15.44548
  30
0
  11
8.32884
  21
15.36303
  31
0
  0
LINE
  8
0
  10
8.32884
  20
15.36303
  30
0
  11
8.35891
  21
15.28101
  31
0
  0
LINE
  8
0
  10
8.35891
  20
15.28101
  30
0
  11
8.39933
  21
15.19948
  31
0
  0
LINE
  8
0
  10
8.39933
  20
15.19948
  30
0
  11
8.42495
  21
15.15892
  31
0
  0
LINE
  8
0
  10
8.42495
  20
15.15892
  30
0
  11
8.45579
  21
15.11853
  31
0
  0
LINE
  8
0
  10
8.45579
  20
15.11853
  30
0
  11
8.49441
  21
15.07833
  31
0
  0
LINE
  8
0
  10
8.49441
  20
15.07833
  30
0
  11
8.54733
  21
15.0384
  31
0
  0
LINE
  8
0
  10
8.54733
  20
15.0384
  30
0
  11
9.32201
  21
14.9743
  31
0
  0
LINE
  8
0
  10
9.32201
  20
14.9743
  30
0
  11
9.32201
  21
14.9743
  31
0
  0
LINE
  8
0
  10
9.32201
  20
14.9743
  30
0
  11
9.32201
  21
14.9743
  31
0
  0
LINE
  8
0
  10
9.32201
  20
14.9743
  30
0
  11
10.09554
  21
14.8975
  31
0
  0
LINE
  8
0
  10
10.09554
  20
14.8975
  30
0
  11
10.1548
  21
14.92722
  31
0
  0
LINE
  8
0
  10
10.1548
  20
14.92722
  30
0
  11
10.20004
  21
14.95979
  31
0
  0
LINE
  8
0
  10
10.20004
  20
14.95979
  30
0
  11
10.23766
  21
14.99395
  31
0
  0
LINE
  8
0
  10
10.23766
  20
14.99395
  30
0
  11
10.27019
  21
15.02922
  31
0
  0
LINE
  8
0
  10
10.27019
  20
15.02922
  30
0
  11
10.32466
  21
15.10212
  31
0
  0
LINE
  8
0
  10
10.32466
  20
15.10212
  30
0
  11
10.36904
  21
15.17736
  31
0
  0
LINE
  8
0
  10
10.36904
  20
15.17736
  30
0
  11
10.40593
  21
15.25441
  31
0
  0
LINE
  8
0
  10
10.40593
  20
15.25441
  30
0
  11
10.4368
  21
15.33296
  31
0
  0
LINE
  8
0
  10
10.4368
  20
15.33296
  30
0
  11
10.48396
  21
15.49378
  31
0
  0
LINE
  8
0
  10
10.48396
  20
15.49378
  30
0
  11
10.52825
  21
15.65532
  31
0
  0
LINE
  8
0
  10
10.52825
  20
15.65532
  30
0
  11
10.60452
  21
15.80856
  31
0
  0
LINE
  8
0
  10
10.60452
  20
15.80856
  30
0
  11
10.69724
  21
15.95721
  31
0
  0
LINE
  8
0
  10
10.69724
  20
15.95721
  30
0
  11
10.80297
  21
16.10188
  31
0
  0
LINE
  8
0
  10
10.80297
  20
16.10188
  30
0
  11
10.92007
  21
16.24274
  31
0
  0
LINE
  8
0
  10
10.92007
  20
16.24274
  30
0
  11
11.04757
  21
16.37976
  31
0
  0
LINE
  8
0
  10
11.04757
  20
16.37976
  30
0
  11
11.18477
  21
16.51285
  31
0
  0
LINE
  8
0
  10
11.18477
  20
16.51285
  30
0
  11
11.33116
  21
16.64187
  31
0
  0
LINE
  8
0
  10
11.33116
  20
16.64187
  30
0
  11
11.48632
  21
16.76665
  31
0
  0
LINE
  8
0
  10
11.48632
  20
16.76665
  30
0
  11
11.6499
  21
16.88702
  31
0
  0
LINE
  8
0
  10
11.6499
  20
16.88702
  30
0
  11
11.77792
  21
16.97428
  31
0
  0
LINE
  8
0
  10
11.77792
  20
16.97428
  30
0
  11
12.48429
  21
16.67888
  31
0
  0
LINE
  8
0
  10
12.48429
  20
16.67888
  30
0
  11
13.16214
  21
16.32291
  31
0
  0
LINE
  8
0
  10
13.16214
  20
16.32291
  30
0
  11
13.17652
  21
16.16864
  31
0
  0
LINE
  8
0
  10
13.17652
  20
16.16864
  30
0
  11
13.18804
  21
15.96588
  31
0
  0
LINE
  8
0
  10
13.18804
  20
15.96588
  30
0
  11
13.19079
  21
15.76679
  31
0
  0
LINE
  8
0
  10
13.19079
  20
15.76679
  30
0
  11
13.18469
  21
15.57176
  31
0
  0
LINE
  8
0
  10
13.18469
  20
15.57176
  30
0
  11
13.1696
  21
15.38121
  31
0
  0
LINE
  8
0
  10
13.1696
  20
15.38121
  30
0
  11
13.1453
  21
15.19563
  31
0
  0
LINE
  8
0
  10
13.1453
  20
15.19563
  30
0
  11
13.11141
  21
15.01561
  31
0
  0
LINE
  8
0
  10
13.11141
  20
15.01561
  30
0
  11
13.06733
  21
14.84193
  31
0
  0
LINE
  8
0
  10
13.06733
  20
14.84193
  30
0
  11
13.0119
  21
14.67573
  31
0
  0
LINE
  8
0
  10
13.0119
  20
14.67573
  30
0
  11
12.94244
  21
14.51929
  31
0
  0
LINE
  8
0
  10
12.94244
  20
14.51929
  30
0
  11
12.8462
  21
14.38219
  31
0
  0
LINE
  8
0
  10
12.8462
  20
14.38219
  30
0
  11
12.75235
  21
14.24335
  31
0
  0
LINE
  8
0
  10
12.75235
  20
14.24335
  30
0
  11
12.71151
  21
14.16949
  31
0
  0
LINE
  8
0
  10
12.71151
  20
14.16949
  30
0
  11
12.67565
  21
14.09195
  31
0
  0
LINE
  8
0
  10
12.67565
  20
14.09195
  30
0
  11
12.64596
  21
14.0098
  31
0
  0
LINE
  8
0
  10
12.64596
  20
14.0098
  30
0
  11
12.62452
  21
13.92136
  31
0
  0
LINE
  8
0
  10
12.62452
  20
13.92136
  30
0
  11
12.61808
  21
13.87382
  31
0
  0
LINE
  8
0
  10
12.61808
  20
13.87382
  30
0
  11
12.61573
  21
13.82305
  31
0
  0
LINE
  8
0
  10
12.61573
  20
13.82305
  30
0
  11
12.61947
  21
13.76743
  31
0
  0
LINE
  8
0
  10
12.61947
  20
13.76743
  30
0
  11
12.63436
  21
13.70283
  31
0
  0
LINE
  8
0
  10
12.63436
  20
13.70283
  30
0
  11
13.18659
  21
13.15577
  31
0
  0
LINE
  8
0
  10
13.18659
  20
13.15577
  30
0
  11
13.18659
  21
13.15577
  31
0
  0
LINE
  8
0
  10
13.18659
  20
13.15577
  30
0
  11
13.18659
  21
13.15577
  31
0
  0
LINE
  8
0
  10
13.18659
  20
13.15577
  30
0
  11
13.72978
  21
12.59973
  31
0
  0
LINE
  8
0
  10
13.72978
  20
12.59973
  30
0
  11
13.79428
  21
12.5844
  31
0
  0
LINE
  8
0
  10
13.79428
  20
12.5844
  30
0
  11
13.84987
  21
12.58027
  31
0
  0
LINE
  8
0
  10
13.84987
  20
12.58027
  30
0
  11
13.90065
  21
12.58226
  31
0
  0
LINE
  8
0
  10
13.90065
  20
12.58226
  30
0
  11
13.94824
  21
12.58836
  31
0
  0
LINE
  8
0
  10
13.94824
  20
12.58836
  30
0
  11
14.03682
  21
12.60919
  31
0
  0
LINE
  8
0
  10
14.03682
  20
12.60919
  30
0
  11
14.11919
  21
12.6383
  31
0
  0
LINE
  8
0
  10
14.11919
  20
12.6383
  30
0
  11
14.19697
  21
12.67362
  31
0
  0
LINE
  8
0
  10
14.19697
  20
12.67362
  30
0
  11
14.27112
  21
12.71395
  31
0
  0
LINE
  8
0
  10
14.27112
  20
12.71395
  30
0
  11
14.41061
  21
12.80682
  31
0
  0
LINE
  8
0
  10
14.41061
  20
12.80682
  30
0
  11
14.54837
  21
12.9021
  31
0
  0
LINE
  8
0
  10
14.54837
  20
12.9021
  30
0
  11
14.7053
  21
12.97047
  31
0
  0
LINE
  8
0
  10
14.7053
  20
12.97047
  30
0
  11
14.87188
  21
13.02474
  31
0
  0
LINE
  8
0
  10
14.87188
  20
13.02474
  30
0
  11
15.04586
  21
13.06761
  31
0
  0
LINE
  8
0
  10
15.04586
  20
13.06761
  30
0
  11
15.22611
  21
13.10024
  31
0
  0
LINE
  8
0
  10
15.22611
  20
13.10024
  30
0
  11
15.41186
  21
13.12324
  31
0
  0
LINE
  8
0
  10
15.41186
  20
13.12324
  30
0
  11
15.60251
  21
13.137
  31
0
  0
LINE
  8
0
  10
15.60251
  20
13.137
  30
0
  11
15.79758
  21
13.14174
  31
0
  0
LINE
  8
0
  10
15.79758
  20
13.14174
  30
0
  11
15.99664
  21
13.1376
  31
0
  0
LINE
  8
0
  10
15.99664
  20
13.1376
  30
0
  11
16.19932
  21
13.12466
  31
0
  0
LINE
  8
0
  10
16.19932
  20
13.12466
  30
0
  11
16.35349
  21
13.10921
  31
0
  0
LINE
  8
0
  10
16.35349
  20
13.10921
  30
0
  11
16.70472
  21
12.42888
  31
0
  0
LINE
  8
0
  10
16.70472
  20
12.42888
  30
0
  11
16.99517
  21
11.72048
  31
0
  0
LINE
  8
0
  10
16.99517
  20
11.72048
  30
0
  11
16.90702
  21
11.59306
  31
0
  0
LINE
  8
0
  10
16.90702
  20
11.59306
  30
0
  11
16.78552
  21
11.43033
  31
0
  0
LINE
  8
0
  10
16.78552
  20
11.43033
  30
0
  11
16.65965
  21
11.27605
  31
0
  0
LINE
  8
0
  10
16.65965
  20
11.27605
  30
0
  11
16.52961
  21
11.13056
  31
0
  0
LINE
  8
0
  10
16.52961
  20
11.13056
  30
0
  11
16.39557
  21
10.99429
  31
0
  0
LINE
  8
0
  10
16.39557
  20
10.99429
  30
0
  11
16.25766
  21
10.86775
  31
0
  0
LINE
  8
0
  10
16.25766
  20
10.86775
  30
0
  11
16.11599
  21
10.75163
  31
0
  0
LINE
  8
0
  10
16.11599
  20
10.75163
  30
0
  11
15.97058
  21
10.64692
  31
0
  0
LINE
  8
0
  10
15.97058
  20
10.64692
  30
0
  11
15.82129
  21
10.55524
  31
0
  0
LINE
  8
0
  10
15.82129
  20
10.55524
  30
0
  11
15.66752
  21
10.48004
  31
0
  0
LINE
  8
0
  10
15.66752
  20
10.48004
  30
0
  11
15.50567
  21
10.43688
  31
0
  0
LINE
  8
0
  10
15.50567
  20
10.43688
  30
0
  11
15.34454
  21
10.39085
  31
0
  0
LINE
  8
0
  10
15.34454
  20
10.39085
  30
0
  11
15.26577
  21
10.36052
  31
0
  0
LINE
  8
0
  10
15.26577
  20
10.36052
  30
0
  11
15.18846
  21
10.32417
  31
0
  0
LINE
  8
0
  10
15.18846
  20
10.32417
  30
0
  11
15.11291
  21
10.28032
  31
0
  0
LINE
  8
0
  10
15.11291
  20
10.28032
  30
0
  11
15.03964
  21
10.22636
  31
0
  0
LINE
  8
0
  10
15.03964
  20
10.22636
  30
0
  11
15.00415
  21
10.19408
  31
0
  0
LINE
  8
0
  10
15.00415
  20
10.19408
  30
0
  11
14.96972
  21
10.15669
  31
0
  0
LINE
  8
0
  10
14.96972
  20
10.15669
  30
0
  11
14.93683
  21
10.11169
  31
0
  0
LINE
  8
0
  10
14.93683
  20
10.11169
  30
0
  11
14.90671
  21
10.05263
  31
0
  0
LINE
  8
0
  10
14.90671
  20
10.05263
  30
0
  11
14.9781
  21
9.27859
  31
0
  0
LINE
  8
0
  10
14.9781
  20
9.27859
  30
0
  11
14.9781
  21
9.27859
  31
0
  0
LINE
  8
0
  10
14.9781
  20
9.27859
  30
0
  11
14.9781
  21
9.27859
  31
0
  0
LINE
  8
0
  10
14.9781
  20
9.27859
  30
0
  11
15.03679
  21
8.50348
  31
0
  0
LINE
  8
0
  10
15.03679
  20
8.50348
  30
0
  11
15.07635
  21
8.45028
  31
0
  0
LINE
  8
0
  10
15.07635
  20
8.45028
  30
0
  11
15.11628
  21
8.41138
  31
0
  0
LINE
  8
0
  10
15.11628
  20
8.41138
  30
0
  11
15.15646
  21
8.38026
  31
0
  0
LINE
  8
0
  10
15.15646
  20
8.38026
  30
0
  11
15.19683
  21
8.35435
  31
0
  0
LINE
  8
0
  10
15.19683
  20
8.35435
  30
0
  11
15.27808
  21
8.31337
  31
0
  0
LINE
  8
0
  10
15.27808
  20
8.31337
  30
0
  11
15.35989
  21
8.28273
  31
0
  0
LINE
  8
0
  10
15.35989
  20
8.28273
  30
0
  11
15.44218
  21
8.25978
  31
0
  0
LINE
  8
0
  10
15.44218
  20
8.25978
  30
0
  11
15.5249
  21
8.24301
  31
0
  0
LINE
  8
0
  10
15.5249
  20
8.24301
  30
0
  11
15.69145
  21
8.2245
  31
0
  0
LINE
  8
0
  10
15.69145
  20
8.2245
  30
0
  11
15.85823
  21
8.20893
  31
0
  0
LINE
  8
0
  10
15.85823
  20
8.20893
  30
0
  11
16.02239
  21
8.16043
  31
0
  0
LINE
  8
0
  10
16.02239
  20
8.16043
  30
0
  11
16.18488
  21
8.09493
  31
0
  0
LINE
  8
0
  10
16.18488
  20
8.09493
  30
0
  11
16.34572
  21
8.01594
  31
0
  0
LINE
  8
0
  10
16.34572
  20
8.01594
  30
0
  11
16.50477
  21
7.92507
  31
0
  0
LINE
  8
0
  10
16.50477
  20
7.92507
  30
0
  11
16.66185
  21
7.8233
  31
0
  0
LINE
  8
0
  10
16.66185
  20
7.8233
  30
0
  11
16.81674
  21
7.71129
  31
0
  0
LINE
  8
0
  10
16.81674
  20
7.71129
  30
0
  11
16.96922
  21
7.58953
  31
0
  0
LINE
  8
0
  10
16.96922
  20
7.58953
  30
0
  11
17.11905
  21
7.4584
  31
0
  0
LINE
  8
0
  10
17.11905
  20
7.4584
  30
0
  11
17.26599
  21
7.31821
  31
0
  0
LINE
  8
0
  10
17.26599
  20
7.31821
  30
0
  11
17.37416
  21
7.20728
  31
0
  0
LINE
  8
0
  10
17.37416
  20
7.20728
  30
0
  11
17.20591
  21
6.46036
  31
0
  0
LINE
  8
0
  10
17.20591
  20
6.46036
  30
0
  11
16.97305
  21
5.73098
  31
0
  0
LINE
  8
0
  10
16.97305
  20
5.73098
  30
0
  11
16.82363
  21
5.69004
  31
0
  0
LINE
  8
0
  10
16.82363
  20
5.69004
  30
0
  11
16.62594
  21
5.64348
  31
0
  0
LINE
  8
0
  10
16.62594
  20
5.64348
  30
0
  11
16.43036
  21
5.6062
  31
0
  0
LINE
  8
0
  10
16.43036
  20
5.6062
  30
0
  11
16.23723
  21
5.57834
  31
0
  0
LINE
  8
0
  10
16.23723
  20
5.57834
  30
0
  11
16.04695
  21
5.56011
  31
0
  0
LINE
  8
0
  10
16.04695
  20
5.56011
  30
0
  11
15.85997
  21
5.55182
  31
0
  0
LINE
  8
0
  10
15.85997
  20
5.55182
  30
0
  11
15.6768
  21
5.55393
  31
0
  0
LINE
  8
0
  10
15.6768
  20
5.55393
  30
0
  11
15.4981
  21
5.56719
  31
0
  0
LINE
  8
0
  10
15.4981
  20
5.56719
  30
0
  11
15.32481
  21
5.59292
  31
0
  0
LINE
  8
0
  10
15.32481
  20
5.59292
  30
0
  11
15.15868
  21
5.63415
  31
0
  0
LINE
  8
0
  10
15.15868
  20
5.63415
  30
0
  11
15.00695
  21
5.70512
  31
0
  0
LINE
  8
0
  10
15.00695
  20
5.70512
  30
0
  11
14.85393
  21
5.77344
  31
0
  0
LINE
  8
0
  10
14.85393
  20
5.77344
  30
0
  11
14.7741
  21
5.80083
  31
0
  0
LINE
  8
0
  10
14.7741
  20
5.80083
  30
0
  11
14.69151
  21
5.82268
  31
0
  0
LINE
  8
0
  10
14.69151
  20
5.82268
  30
0
  11
14.60545
  21
5.83765
  31
0
  0
LINE
  8
0
  10
14.60545
  20
5.83765
  30
0
  11
14.51463
  21
5.84342
  31
0
  0
LINE
  8
0
  10
14.51463
  20
5.84342
  30
0
  11
14.46669
  21
5.8415
  31
0
  0
LINE
  8
0
  10
14.46669
  20
5.8415
  30
0
  11
14.41629
  21
5.83499
  31
0
  0
LINE
  8
0
  10
14.41629
  20
5.83499
  30
0
  11
14.36216
  21
5.82165
  31
0
  0
LINE
  8
0
  10
14.36216
  20
5.82165
  30
0
  11
14.30113
  21
5.79578
  31
0
  0
LINE
  8
0
  10
14.30113
  20
5.79578
  30
0
  11
13.85827
  21
5.15694
  31
0
  0
LINE
  8
0
  10
13.85827
  20
5.15694
  30
0
  11
13.85827
  21
5.15694
  31
0
  0
LINE
  8
0
  10
13.85827
  20
5.15694
  30
0
  11
13.85827
  21
5.15694
  31
0
  0
LINE
  8
0
  10
13.85827
  20
5.15694
  30
0
  11
13.405
  21
4.52544
  31
0
  0
LINE
  8
0
  10
13.405
  20
4.52544
  30
0
  11
13.4011
  21
4.45926
  31
0
  0
LINE
  8
0
  10
13.4011
  20
4.45926
  30
0
  11
13.40669
  21
4.4038
  31
0
  0
LINE
  8
0
  10
13.40669
  20
4.4038
  30
0
  11
13.41747
  21
4.35413
  31
0
  0
LINE
  8
0
  10
13.41747
  20
4.35413
  30
0
  11
13.43174
  21
4.30833
  31
0
  0
LINE
  8
0
  10
13.43174
  20
4.30833
  30
0
  11
13.46764
  21
4.22471
  31
0
  0
LINE
  8
0
  10
13.46764
  20
4.22471
  30
0
  11
13.51061
  21
4.14865
  31
0
  0
LINE
  8
0
  10
13.51061
  20
4.14865
  30
0
  11
13.5589
  21
4.07818
  31
0
  0
LINE
  8
0
  10
13.5589
  20
4.07818
  30
0
  11
13.61149
  21
4.01217
  31
0
  0
LINE
  8
0
  10
13.61149
  20
4.01217
  30
0
  11
13.72718
  21
3.89092
  31
0
  0
LINE
  8
0
  10
13.72718
  20
3.89092
  30
0
  11
13.84493
  21
3.7718
  31
0
  0
LINE
  8
0
  10
13.84493
  20
3.7718
  30
0
  11
13.93951
  21
3.62913
  31
0
  0
LINE
  8
0
  10
13.93951
  20
3.62913
  30
0
  11
14.02188
  21
3.4745
  31
0
  0
LINE
  8
0
  10
14.02188
  20
3.4745
  30
0
  11
14.09431
  21
3.3106
  31
0
  0
LINE
  8
0
  10
14.09431
  20
3.3106
  30
0
  11
14.15774
  21
3.13876
  31
0
  0
LINE
  8
0
  10
14.15774
  20
3.13876
  30
0
  11
14.21265
  21
2.95983
  31
0
  0
LINE
  8
0
  10
14.21265
  20
2.95983
  30
0
  11
14.25931
  21
2.77446
  31
0
  0
LINE
  8
0
  10
14.25931
  20
2.77446
  30
0
  11
14.29785
  21
2.58318
  31
0
  0
LINE
  8
0
  10
14.29785
  20
2.58318
  30
0
  11
14.32834
  21
2.38642
  31
0
  0
LINE
  8
0
  10
14.32834
  20
2.38642
  30
0
  11
14.35079
  21
2.18457
  31
0
  0
LINE
  8
0
  10
14.35079
  20
2.18457
  30
0
  11
14.36235
  21
2.03007
  31
0
  0
LINE
  8
0
  10
14.36235
  20
2.03007
  30
0
  11
13.75335
  21
1.56604
  31
0
  0
LINE
  8
0
  10
13.75335
  20
1.56604
  30
0
  11
13.10614
  21
1.15698
  31
0
  0
LINE
  8
0
  10
13.10614
  20
1.15698
  30
0
  11
12.96535
  21
1.22167
  31
0
  0
LINE
  8
0
  10
12.96535
  20
1.22167
  30
0
  11
12.78399
  21
1.31307
  31
0
  0
LINE
  8
0
  10
12.78399
  20
1.31307
  30
0
  11
12.6102
  21
1.41023
  31
0
  0
LINE
  8
0
  10
12.6102
  20
1.41023
  30
0
  11
12.44434
  21
1.51303
  31
0
  0
LINE
  8
0
  10
12.44434
  20
1.51303
  30
0
  11
12.28687
  21
1.62137
  31
0
  0
LINE
  8
0
  10
12.28687
  20
1.62137
  30
0
  11
12.1383
  21
1.73521
  31
0
  0
LINE
  8
0
  10
12.1383
  20
1.73521
  30
0
  11
11.99935
  21
1.85456
  31
0
  0
LINE
  8
0
  10
11.99935
  20
1.85456
  30
0
  11
11.87097
  21
1.97958
  31
0
  0
LINE
  8
0
  10
11.87097
  20
1.97958
  30
0
  11
11.75476
  21
2.11069
  31
0
  0
LINE
  8
0
  10
11.75476
  20
2.11069
  30
0
  11
11.654
  21
2.24906
  31
0
  0
LINE
  8
0
  10
11.654
  20
2.24906
  30
0
  11
11.58339
  21
2.40096
  31
0
  0
LINE
  8
0
  10
11.58339
  20
2.40096
  30
0
  11
11.51008
  21
2.55165
  31
0
  0
LINE
  8
0
  10
11.51008
  20
2.55165
  30
0
  11
11.46654
  21
2.62395
  31
0
  0
LINE
  8
0
  10
11.46654
  20
2.62395
  30
0
  11
11.41732
  21
2.69378
  31
0
  0
LINE
  8
0
  10
11.41732
  20
2.69378
  30
0
  11
11.36101
  21
2.76056
  31
0
  0
LINE
  8
0
  10
11.36101
  20
2.76056
  30
0
  11
11.29514
  21
2.82336
  31
0
  0
LINE
  8
0
  10
11.29514
  20
2.82336
  30
0
  11
11.25719
  21
2.8527
  31
0
  0
LINE
  8
0
  10
11.25719
  20
2.8527
  30
0
  11
11.2144
  21
2.88012
  31
0
  0
LINE
  8
0
  10
11.2144
  20
2.88012
  30
0
  11
11.16436
  21
2.90469
  31
0
  0
LINE
  8
0
  10
11.16436
  20
2.90469
  30
0
  11
11.10097
  21
2.9241
  31
0
  0
LINE
  8
0
  10
11.10097
  20
2.9241
  30
0
  11
10.35109
  21
2.71938
  31
0
  0
LINE
  8
0
  10
10.35109
  20
2.71938
  30
0
  11
10.35109
  21
2.71938
  31
0
  0
LINE
  8
0
  10
10.35109
  20
2.71938
  30
0
  11
10.35109
  21
2.71938
  31
0
  0
LINE
  8
0
  10
10.35109
  20
2.71938
  30
0
  11
9.59795
  21
2.52698
  31
0
  0
LINE
  8
0
  10
9.59795
  20
2.52698
  30
0
  11
9.55242
  21
2.47879
  31
0
  0
LINE
  8
0
  10
9.55242
  20
2.47879
  30
0
  11
9.52105
  21
2.43271
  31
0
  0
LINE
  8
0
  10
9.52105
  20
2.43271
  30
0
  11
9.49738
  21
2.38774
  31
0
  0
LINE
  8
0
  10
9.49738
  20
2.38774
  30
0
  11
9.47888
  21
2.34348
  31
0
  0
LINE
  8
0
  10
9.47888
  20
2.34348
  30
0
  11
9.45262
  21
2.25635
  31
0
  0
LINE
  8
0
  10
9.45262
  20
2.25635
  30
0
  11
9.43665
  21
2.17046
  31
0
  0
LINE
  8
0
  10
9.43665
  20
2.17046
  30
0
  11
9.42834
  21
2.08544
  31
0
  0
LINE
  8
0
  10
9.42834
  20
2.08544
  30
0
  11
9.4262
  21
2.00106
  31
0
  0
LINE
  8
0
  10
9.4262
  20
2.00106
  30
0
  11
9.43689
  21
1.83382
  31
0
  0
LINE
  8
0
  10
9.43689
  20
1.83382
  30
0
  11
9.45052
  21
1.66688
  31
0
  0
LINE
  8
0
  10
9.45052
  20
1.66688
  30
0
  11
9.43126
  21
1.49679
  31
0
  0
LINE
  8
0
  10
9.43126
  20
1.49679
  30
0
  11
9.39497
  21
1.3254
  31
0
  0
LINE
  8
0
  10
9.39497
  20
1.3254
  30
0
  11
9.3451
  21
1.15328
  31
0
  0
LINE
  8
0
  10
9.3451
  20
1.15328
  30
0
  11
9.28323
  21
0.98087
  31
0
  0
LINE
  8
0
  10
9.28323
  20
0.98087
  30
0
  11
9.21029
  21
0.80851
  31
0
  0
LINE
  8
0
  10
9.21029
  20
0.80851
  30
0
  11
9.12688
  21
0.63652
  31
0
  0
LINE
  8
0
  10
9.12688
  20
0.63652
  30
0
  11
9.03345
  21
0.46521
  31
0
  0
LINE
  8
0
  10
9.03345
  20
0.46521
  30
0
  11
8.93033
  21
0.29489
  31
0
  0
LINE
  8
0
  10
8.93033
  20
0.29489
  30
0
  11
8.81778
  21
0.12583
  31
0
  0
LINE
  8
0
  10
8.81778
  20
0.12583
  30
0
  11
8.72732
  21
0.00005
  31
0
  0
LINE
  8
0
  10
8.72732
  20
0.00005
  30
0
  11
7.96252
  21
0.03604
  31
0
  0
LINE
  8
0
  10
7.96252
  20
0.03604
  30
0
  11
7.2038
  21
0.1387
  31
0
  0
LINE
  8
0
  10
7.2038
  20
0.1387
  30
0
  11
7.13753
  21
0.27875
  31
0
  0
LINE
  8
0
  10
7.13753
  20
0.27875
  30
0
  11
7.05735
  21
0.46534
  31
0
  0
LINE
  8
0
  10
7.05735
  20
0.46534
  30
0
  11
6.98667
  21
0.65148
  31
0
  0
LINE
  8
0
  10
6.98667
  20
0.65148
  30
0
  11
6.9257
  21
0.83684
  31
0
  0
LINE
  8
0
  10
6.9257
  20
0.83684
  30
0
  11
6.87471
  21
1.02106
  31
0
  0
LINE
  8
0
  10
6.87471
  20
1.02106
  30
0
  11
6.83407
  21
1.20376
  31
0
  0
LINE
  8
0
  10
6.83407
  20
1.20376
  30
0
  11
6.80434
  21
1.38451
  31
0
  0
LINE
  8
0
  10
6.80434
  20
1.38451
  30
0
  11
6.78637
  21
1.5628
  31
0
  0
LINE
  8
0
  10
6.78637
  20
1.5628
  30
0
  11
6.78161
  21
1.73793
  31
0
  0
LINE
  8
0
  10
6.78161
  20
1.73793
  30
0
  11
6.79337
  21
1.90869
  31
0
  0
LINE
  8
0
  10
6.79337
  20
1.90869
  30
0
  11
6.83692
  21
2.07044
  31
0
  0
LINE
  8
0
  10
6.83692
  20
2.07044
  30
0
  11
6.87762
  21
2.233
  31
0
  0
LINE
  8
0
  10
6.87762
  20
2.233
  30
0
  11
6.89074
  21
2.31638
  31
0
  0
LINE
  8
0
  10
6.89074
  20
2.31638
  30
0
  11
6.89792
  21
2.4015
  31
0
  0
LINE
  8
0
  10
6.89792
  20
2.4015
  30
0
  11
6.89772
  21
2.48886
  31
0
  0
LINE
  8
0
  10
6.89772
  20
2.48886
  30
0
  11
6.88762
  21
2.5793
  31
0
  0
LINE
  8
0
  10
6.88762
  20
2.5793
  30
0
  11
6.87741
  21
2.62618
  31
0
  0
LINE
  8
0
  10
6.87741
  20
2.62618
  30
0
  11
6.86225
  21
2.67468
  31
0
  0
LINE
  8
0
  10
6.86225
  20
2.67468
  30
0
  11
6.83971
  21
2.72567
  31
0
  0
LINE
  8
0
  10
6.83971
  20
2.72567
  30
0
  11
6.80363
  21
2.78129
  31
0
  0
LINE
  8
0
  10
6.80363
  20
2.78129
  30
0
  11
6.0976
  21
3.10648
  31
0
  0
LINE
  8
0
  10
6.0976
  20
3.10648
  30
0
  11
6.0976
  21
3.10648
  31
0
  0
LINE
  8
0
  10
6.0976
  20
3.10648
  30
0
  11
6.0976
  21
3.10648
  31
0
  0
LINE
  8
0
  10
6.0976
  20
3.10648
  30
0
  11
5.39699
  21
3.4432
  31
0
  0
LINE
  8
0
  10
5.39699
  20
3.4432
  30
0
  11
5.33113
  21
3.43555
  31
0
  0
LINE
  8
0
  10
5.33113
  20
3.43555
  30
0
  11
5.27749
  21
3.42042
  31
0
  0
LINE
  8
0
  10
5.27749
  20
3.42042
  30
0
  11
5.23045
  21
3.40118
  31
0
  0
LINE
  8
0
  10
5.23045
  20
3.40118
  30
0
  11
5.18782
  21
3.37917
  31
0
  0
LINE
  8
0
  10
5.18782
  20
3.37917
  30
0
  11
5.1117
  21
3.3293
  31
0
  0
LINE
  8
0
  10
5.1117
  20
3.3293
  30
0
  11
5.04426
  21
3.27377
  31
0
  0
LINE
  8
0
  10
5.04426
  20
3.27377
  30
0
  11
4.98324
  21
3.21398
  31
0
  0
LINE
  8
0
  10
4.98324
  20
3.21398
  30
0
  11
4.92737
  21
3.15072
  31
0
  0
LINE
  8
0
  10
4.92737
  20
3.15072
  30
0
  11
4.82805
  21
3.01574
  31
0
  0
LINE
  8
0
  10
4.82805
  20
3.01574
  30
0
  11
4.73118
  21
2.87909
  31
0
  0
LINE
  8
0
  10
4.73118
  20
2.87909
  30
0
  11
4.6071
  21
2.76118
  31
0
  0
LINE
  8
0
  10
4.6071
  20
2.76118
  30
0
  11
4.46913
  21
2.65321
  31
0
  0
LINE
  8
0
  10
4.46913
  20
2.65321
  30
0
  11
4.3203
  21
2.55341
  31
0
  0
LINE
  8
0
  10
4.3203
  20
2.55341
  30
0
  11
4.16208
  21
2.4611
  31
0
  0
LINE
  8
0
  10
4.16208
  20
2.4611
  30
0
  11
3.99541
  21
2.37596
  31
0
  0
LINE
  8
0
  10
3.99541
  20
2.37596
  30
0
  11
3.82096
  21
2.29782
  31
0
  0
LINE
  8
0
  10
3.82096
  20
2.29782
  30
0
  11
3.63927
  21
2.22665
  31
0
  0
LINE
  8
0
  10
3.63927
  20
2.22665
  30
0
  11
3.4508
  21
2.16246
  31
0
  0
LINE
  8
0
  10
3.4508
  20
2.16246
  30
0
  11
3.25592
  21
2.1053
  31
0
  0
LINE
  8
0
  10
3.25592
  20
2.1053
  30
0
  11
3.10577
  21
2.06709
  31
0
  0
LINE
  8
0
  10
3.10577
  20
2.06709
  30
0
  11
2.54303
  21
2.58626
  31
0
  0
LINE
  8
0
  10
2.54303
  20
2.58626
  30
0
  11
2.0278
  21
3.1526
  31
0
  0
LINE
  8
0
  10
2.0278
  20
3.1526
  30
0
  11
2.06706
  21
3.30248
  31
0
  0
LINE
  8
0
  10
2.06706
  20
3.30248
  30
0
  11
2.12558
  21
3.49696
  31
0
  0
LINE
  8
0
  10
2.12558
  20
3.49696
  30
0
  11
2.19109
  21
3.68498
  31
0
  0
LINE
  8
0
  10
2.19109
  20
3.68498
  30
0
  11
2.26352
  21
3.86617
  31
0
  0
LINE
  8
0
  10
2.26352
  20
3.86617
  30
0
  11
2.34287
  21
4.04006
  31
0
  0
LINE
  8
0
  10
2.34287
  20
4.04006
  30
0
  11
2.42918
  21
4.20614
  31
0
  0
LINE
  8
0
  10
2.42918
  20
4.20614
  30
0
  11
2.5226
  21
4.36371
  31
0
  0
LINE
  8
0
  10
2.5226
  20
4.36371
  30
0
  11
2.62343
  21
4.51184
  31
0
  0
LINE
  8
0
  10
2.62343
  20
4.51184
  30
0
  11
2.73236
  21
4.64906
  31
0
  0
LINE
  8
0
  10
2.73236
  20
4.64906
  30
0
  11
2.85113
  21
4.77231
  31
0
  0
LINE
  8
0
  10
2.85113
  20
4.77231
  30
0
  11
2.98846
  21
4.86822
  31
0
  0
LINE
  8
0
  10
2.98846
  20
4.86822
  30
0
  11
3.12413
  21
4.96659
  31
0
  0
LINE
  8
0
  10
3.12413
  20
4.96659
  30
0
  11
3.18777
  21
5.02203
  31
0
  0
LINE
  8
0
  10
3.18777
  20
5.02203
  30
0
  11
3.24799
  21
5.08263
  31
0
  0
LINE
  8
0
  10
3.24799
  20
5.08263
  30
0
  11
3.30399
  21
5.14967
  31
0
  0
LINE
  8
0
  10
3.30399
  20
5.14967
  30
0
  11
3.35439
  21
5.22544
  31
0
  0
LINE
  8
0
  10
3.35439
  20
5.22544
  30
0
  11
3.3767
  21
5.26792
  31
0
  0
LINE
  8
0
  10
3.3767
  20
5.26792
  30
0
  11
3.39626
  21
5.31482
  31
0
  0
LINE
  8
0
  10
3.39626
  20
5.31482
  30
0
  11
3.41177
  21
5.36836
  31
0
  0
LINE
  8
0
  10
3.41177
  20
5.36836
  30
0
  11
3.41988
  21
5.43416
  31
0
  0
LINE
  8
0
  10
3.41988
  20
5.43416
  30
0
  11
3.08805
  21
6.1371
  31
0
  0
LINE
  8
0
  10
3.08805
  20
6.1371
  30
0
  11
3.08805
  21
6.1371
  31
0
  0
LINE
  8
0
  10
3.08805
  20
6.1371
  30
0
  11
3.08805
  21
6.1371
  31
0
  0
ENDSEC
  0
EOF
