  0
SECTION
  2
HEADER
  9
$ACADVER
  1
AC1014
  9
$HANDSEED
  5
FFFF
  9
$MEASUREMENT
 70
     1
  0
ENDSEC
  0
SECTION
  2
TABLES
  0
TABLE
  2
VPORT
  5
8
330
0
100
AcDbSymbolTable
 70
     4
  0
VPORT
  5
2E
330
8
100
AcDbSymbolTableRecord
100
AcDbViewportTableRecord
  2
*ACTIVE
 70
     0
 10
0.0
 20
0.0
 11
1.0
 21
1.0
 12
210.0
 22
148.5
 13
0.0
 23
0.0
 14
10.0
 24
10.0
 15
10.0
 25
10.0
 16
0.0
 26
0.0
 36
1.0
 17
0.0
 27
0.0
 37
0.0
 40
341.0
 41
1.24
 42
50.0
 43
0.0
 44
0.0
 50
0.0
 51
0.0
 71
     0
 72
   100
 73
     1
 74
     3
 75
     0
 76
     0
 77
     0
 78
     0
  0
ENDTAB
  0
TABLE
  2
LTYPE
  5
5
330
0
100
AcDbSymbolTable
 70
     1
  0
LTYPE
  5
14
330
5
100
AcDbSymbolTableRecord
100
AcDbLinetypeTableRecord
  2
BYBLOCK
 70
     0
  3

 72
    65
 73
     0
 40
0.0
  0
LTYPE
  5
15
330
5
100
AcDbSymbolTableRecord
100
AcDbLinetypeTableRecord
  2
BYLAYER
 70
     0
  3

 72
    65
 73
     0
 40
0.0
  0
LTYPE
  5
16
330
5
100
AcDbSymbolTableRecord
100
AcDbLinetypeTableRecord
  2
CONTINUOUS
 70
     0
  3
Solid line
 72
    65
 73
     0
 40
0.0
  0
ENDTAB
  0
TABLE
  2
LAYER
  5
2
100
AcDbSymbolTable
 70
2
  0
LAYER
  5
50
100
AcDbSymbolTableRecord
100
AcDbLayerTableRecord
  2
0
 70
0
  6
CONTINUOUS
  0
LAYER
  5
51
100
AcDbSymbolTableRecord
100
AcDbLayerTableRecord
  2
Layer_1
 70
0
  6
CONTINUOUS
  0
ENDTAB
  0
TABLE
  2
STYLE
  5
3
330
0
100
AcDbSymbolTable
 70
     1
  0
STYLE
  5
11
330
3
100
AcDbSymbolTableRecord
100
AcDbTextStyleTableRecord
  2
STANDARD
 70
     0
 40
0.0
 41
1.0
 50
0.0
 71
     0
 42
2.5
  3
txt
  4

  0
ENDTAB
  0
TABLE
  2
VIEW
  5
6
330
0
100
AcDbSymbolTable
 70
     0
  0
ENDTAB
  0
TABLE
  2
UCS
  5
7
330
0
100
AcDbSymbolTable
 70
     0
  0
ENDTAB
  0
TABLE
  2
APPID
  5
9
330
0
100
AcDbSymbolTable
 70
     2
  0
APPID
  5
12
330
9
100
AcDbSymbolTableRecord
100
AcDbRegAppTableRecord
  2
ACAD
 70
     0
  0
ENDTAB
  0
TABLE
  2
DIMSTYLE
  5
A
330
0
100
AcDbSymbolTable
 70
     1
  0
DIMSTYLE
105
27
330
A
100
AcDbSymbolTableRecord
100
AcDbDimStyleTableRecord
  2
ISO-25
 70
     0
  3

  4

  5

  6

  7

 40
1.0
 41
2.5
 42
0.625
 43
3.75
 44
1.25
 45
0.0
 46
0.0
 47
0.0
 48
0.0
140
2.5
141
2.5
142
0.0
143
0.03937007874016
144
1.0
145
0.0
146
1.0
147
0.625
 71
     0
 72
     0
 73
     0
 74
     0
 75
     0
 76
     0
 77
     1
 78
     8
170
     0
171
     3
172
     1
173
     0
174
     0
175
     0
176
     0
177
     0
178
     0
270
     2
271
     2
272
     2
273
     2
274
     3
340
11
275
     0
280
     0
281
     0
282
     0
283
     0
284
     8
285
     0
286
     0
287
     3
288
     0
  0
ENDTAB
  0
TABLE
  2
BLOCK_RECORD
  5
1
330
0
100
AcDbSymbolTable
 70
     1
  0
BLOCK_RECORD
  5
1F
330
1
100
AcDbSymbolTableRecord
100
AcDbBlockTableRecord
  2
*MODEL_SPACE
  0
BLOCK_RECORD
  5
1B
330
1
100
AcDbSymbolTableRecord
100
AcDbBlockTableRecord
  2
*PAPER_SPACE
  0
ENDTAB
  0
ENDSEC
  0
SECTION
  2
BLOCKS
  0
BLOCK
  5
20
330
1F
100
AcDbEntity
  8
0
100
AcDbBlockBegin
  2
*MODEL_SPACE
 70
     0
 10
0.0
 20
0.0
 30
0.0
  3
*MODEL_SPACE
  1

  0
ENDBLK
  5
21
330
1F
100
AcDbEntity
  8
0
100
AcDbBlockEnd
  0
BLOCK
  5
1C
330
1B
100
AcDbEntity
 67
     1
  8
0
100
AcDbBlockBegin
  2
*PAPER_SPACE
  1

  0
ENDBLK
  5
1D
330
1B
100
AcDbEntity
 67
     1
  8
0
100
AcDbBlockEnd
  0
ENDSEC
  0
SECTION
  2
ENTITIES
  0
LWPOLYLINE
  5
100
100
AcDbEntity
  8
Layer_1
 62
7
100
AcDbPolyline
 90
13
 70
0
 10
6.686241
 20
4.216797
 30
0.0
 10
6.402365
 20
2.459795
 30
0.0
 10
5.550738
 20
1.168572
 30
0.0
 10
4.168565
 20
0.374822
 30
0.0
 10
2.282031
 20
0.110238
 30
0.0
 10
0.000000
 20
0.110238
 30
0.0
 10
0.000000
 20
8.169009
 30
0.0
 10
2.530078
 20
8.169009
 30
0.0
 10
4.282943
 20
7.908575
 30
0.0
 10
5.594835
 20
7.127214
 30
0.0
 10
6.413390
 20
5.878719
 30
0.0
 10
6.686241
 20
4.216797
 30
0.0
 10
6.686241
 20
4.216797
 30
0.0
  0
LWPOLYLINE
  5
101
100
AcDbEntity
  8
Layer_1
 62
7
100
AcDbPolyline
 90
13
 70
0
 10
4.911328
 20
4.172686
 30
0.0
 10
4.768012
 20
5.308546
 30
0.0
 10
4.338064
 20
6.119878
 30
0.0
 10
3.621484
 20
6.606655
 30
0.0
 10
2.618272
 20
6.768933
 30
0.0
 10
1.708767
 20
6.768933
 30
0.0
 10
1.708767
 20
1.521349
 30
0.0
 10
2.441883
 20
1.521349
 30
0.0
 10
3.522265
 20
1.687070
 30
0.0
 10
4.293967
 20
2.184177
 30
0.0
 10
4.756988
 20
3.012725
 30
0.0
 10
4.911328
 20
4.172686
 30
0.0
 10
4.911328
 20
4.172686
 30
0.0
  0
LWPOLYLINE
  5
102
100
AcDbEntity
  8
Layer_1
 62
7
100
AcDbPolyline
 90
29
 70
0
 10
11.779470
 20
6.862631
 30
0.0
 10
10.923709
 20
6.680739
 30
0.0
 10
10.285677
 20
6.135034
 30
0.0
 10
9.888802
 20
5.269627
 30
0.0
 10
9.756510
 20
4.117568
 30
0.0
 10
9.882945
 20
2.938331
 30
0.0
 10
10.262250
 20
2.095982
 30
0.0
 10
10.894425
 20
1.590607
 30
0.0
 10
11.779470
 20
1.422148
 30
0.0
 10
13.835503
 20
1.846582
 30
0.0
 10
13.835503
 20
0.413401
 30
0.0
 10
12.785438
 20
0.103352
 30
0.0
 10
11.619618
 20
0.000002
 30
0.0
 10
10.067947
 20
0.265969
 30
0.0
 10
8.929688
 20
1.063839
 30
0.0
 10
8.231022
 20
2.364714
 30
0.0
 10
7.998133
 20
4.128603
 30
0.0
 10
8.112511
 20
5.306824
 30
0.0
 10
8.455642
 20
6.327961
 30
0.0
 10
9.012370
 20
7.164411
 30
0.0
 10
9.767535
 20
7.777652
 30
0.0
 10
10.700467
 20
8.157974
 30
0.0
 10
11.779470
 20
8.284777
 30
0.0
 10
12.956315
 20
8.142819
 30
0.0
 10
14.138672
 20
7.717002
 30
0.0
 10
13.587457
 20
6.327961
 30
0.0
 10
12.677951
 20
6.702780
 30
0.0
 10
11.779470
 20
6.862631
 30
0.0
 10
11.779470
 20
6.862631
 30
0.0
  0
LWPOLYLINE
  5
103
100
AcDbEntity
  8
Layer_1
 62
7
100
AcDbPolyline
 90
15
 70
0
 10
21.888758
 20
0.110238
 30
0.0
 10
20.208764
 20
5.755614
 30
0.0
 10
20.288690
 20
0.110238
 30
0.0
 10
18.476736
 20
0.110238
 30
0.0
 10
18.476736
 20
8.169009
 30
0.0
 10
20.802864
 20
8.169009
 30
0.0
 10
22.726606
 20
2.790418
 30
0.0
 10
24.766102
 20
8.169009
 30
0.0
 10
27.092231
 20
8.169009
 30
0.0
 10
27.092231
 20
0.110238
 30
0.0
 10
25.321039
 20
0.110238
 30
0.0
 10
25.378909
 20
5.744579
 30
0.0
 10
23.454203
 20
0.110238
 30
0.0
 10
21.888750
 20
0.110238
 30
0.0
 10
21.888758
 20
0.110238
 30
0.0
  0
LWPOLYLINE
  5
104
100
AcDbEntity
  8
Layer_1
 62
7
100
AcDbPolyline
 90
9
 70
0
 10
34.059591
 20
0.110238
 30
0.0
 10
33.475303
 20
2.028475
 30
0.0
 10
30.537325
 20
2.028475
 30
0.0
 10
29.953037
 20
0.110238
 30
0.0
 10
28.111979
 20
0.110238
 30
0.0
 10
30.956250
 20
8.202086
 30
0.0
 10
33.045355
 20
8.202086
 30
0.0
 10
35.900651
 20
0.110238
 30
0.0
 10
34.059591
 20
0.110238
 30
0.0
  0
LWPOLYLINE
  5
105
100
AcDbEntity
  8
Layer_1
 62
7
100
AcDbPolyline
 90
4
 70
0
 10
33.067405
 20
3.461627
 30
0.0
 10
32.009072
 20
6.772658
 30
0.0
 10
30.967274
 20
3.461627
 30
0.0
 10
33.067405
 20
3.461627
 30
0.0
  0
LWPOLYLINE
  5
106
100
AcDbEntity
  8
Layer_1
 62
7
100
AcDbPolyline
 90
14
 70
0
 10
43.790001
 20
0.110013
 30
0.0
 10
41.864511
 20
0.110013
 30
0.0
 10
40.015171
 20
3.158238
 30
0.0
 10
38.165828
 20
0.110013
 30
0.0
 10
36.360001
 20
0.110013
 30
0.0
 10
38.998031
 20
4.266186
 30
0.0
 10
36.528618
 20
8.168783
 30
0.0
 10
38.388835
 20
8.168783
 30
0.0
 10
40.102197
 20
5.269402
 30
0.0
 10
41.782921
 20
8.168783
 30
0.0
 10
43.599628
 20
8.168783
 30
0.0
 10
41.103019
 20
4.172460
 30
0.0
 10
43.790001
 20
0.110013
 30
0.0
 10
43.790001
 20
0.110013
 30
0.0
  0
LWPOLYLINE
  5
107
100
AcDbEntity
  8
Layer_1
 62
7
100
AcDbPolyline
 90
14
 70
1
 10
49.091232
 20
0.110238
 30
0.0
 10
44.450000
 20
0.110238
 30
0.0
 10
44.450000
 20
8.169009
 30
0.0
 10
49.091232
 20
8.169009
 30
0.0
 10
49.091232
 20
6.768933
 30
0.0
 10
46.158765
 20
6.768933
 30
0.0
 10
46.158765
 20
4.999513
 30
0.0
 10
48.887281
 20
4.999513
 30
0.0
 10
48.887281
 20
3.599436
 30
0.0
 10
46.158765
 20
3.599436
 30
0.0
 10
46.158765
 20
1.521349
 30
0.0
 10
49.091232
 20
1.521349
 30
0.0
 10
49.091232
 20
0.110238
 30
0.0
 10
49.091232
 20
0.110238
 30
0.0
  0
LWPOLYLINE
  5
108
100
AcDbEntity
  8
Layer_1
 62
7
100
AcDbPolyline
 90
29
 70
0
 10
54.200998
 20
6.862631
 30
0.0
 10
53.345235
 20
6.680739
 30
0.0
 10
52.707204
 20
6.135034
 30
0.0
 10
52.310329
 20
5.269627
 30
0.0
 10
52.178037
 20
4.117568
 30
0.0
 10
52.304473
 20
2.938331
 30
0.0
 10
52.683777
 20
2.095982
 30
0.0
 10
53.315952
 20
1.590607
 30
0.0
 10
54.200998
 20
1.422148
 30
0.0
 10
56.257029
 20
1.846582
 30
0.0
 10
56.257029
 20
0.413401
 30
0.0
 10
55.206965
 20
0.103352
 30
0.0
 10
54.041144
 20
0.000002
 30
0.0
 10
52.489473
 20
0.265969
 30
0.0
 10
51.351214
 20
1.063839
 30
0.0
 10
50.652550
 20
2.364714
 30
0.0
 10
50.419660
 20
4.128603
 30
0.0
 10
50.534037
 20
5.306824
 30
0.0
 10
50.877168
 20
6.327961
 30
0.0
 10
51.433897
 20
7.164411
 30
0.0
 10
52.189061
 20
7.777652
 30
0.0
 10
53.121995
 20
8.157974
 30
0.0
 10
54.200998
 20
8.284777
 30
0.0
 10
55.377842
 20
8.142819
 30
0.0
 10
56.560198
 20
7.717002
 30
0.0
 10
56.008984
 20
6.327961
 30
0.0
 10
55.099478
 20
6.702780
 30
0.0
 10
54.200998
 20
6.862631
 30
0.0
 10
54.200998
 20
6.862631
 30
0.0
  0
LWPOLYLINE
  5
109
100
AcDbEntity
  8
Layer_1
 62
7
100
AcDbPolyline
 90
25
 70
0
 10
64.525260
 20
8.169009
 30
0.0
 10
64.525260
 20
2.954502
 30
0.0
 10
64.424662
 20
2.116669
 30
0.0
 10
64.122873
 20
1.389072
 30
0.0
 10
63.636426
 20
0.795135
 30
0.0
 10
62.970833
 20
0.358283
 30
0.0
 10
61.184894
 20
0.000002
 30
0.0
 10
59.804100
 20
0.198433
 30
0.0
 10
58.770571
 20
0.793752
 30
0.0
 10
58.125651
 20
1.739084
 30
0.0
 10
57.910676
 20
2.976572
 30
0.0
 10
57.910676
 20
8.169009
 30
0.0
 10
59.613933
 20
8.169009
 30
0.0
 10
59.613933
 20
3.235624
 30
0.0
 10
59.707639
 20
2.428101
 30
0.0
 10
59.988758
 20
1.868624
 30
0.0
 10
60.486231
 20
1.542036
 30
0.0
 10
61.228992
 20
1.433155
 30
0.0
 10
61.951083
 20
1.542036
 30
0.0
 10
62.441667
 20
1.868624
 30
0.0
 10
62.726920
 20
2.433605
 30
0.0
 10
62.822003
 20
3.246659
 30
0.0
 10
62.822003
 20
8.169009
 30
0.0
 10
64.525260
 20
8.169009
 30
0.0
 10
64.525260
 20
8.169009
 30
0.0
  0
LWPOLYLINE
  5
10a
100
AcDbEntity
  8
Layer_1
 62
7
100
AcDbPolyline
 90
10
 70
1
 10
69.607464
 20
0.110238
 30
0.0
 10
67.898696
 20
0.110238
 30
0.0
 10
67.898696
 20
6.746863
 30
0.0
 10
65.710373
 20
6.746863
 30
0.0
 10
65.710373
 20
8.169009
 30
0.0
 10
71.795790
 20
8.169009
 30
0.0
 10
71.795790
 20
6.746863
 30
0.0
 10
69.607464
 20
6.746863
 30
0.0
 10
69.607464
 20
0.110238
 30
0.0
 10
69.607464
 20
0.110238
 30
0.0
  0
LWPOLYLINE
  5
10b
100
AcDbEntity
  8
Layer_1
 62
7
100
AcDbPolyline
 90
14
 70
1
 10
77.688279
 20
0.110238
 30
0.0
 10
73.047047
 20
0.110238
 30
0.0
 10
73.047047
 20
8.169009
 30
0.0
 10
77.688279
 20
8.169009
 30
0.0
 10
77.688279
 20
6.768933
 30
0.0
 10
74.755815
 20
6.768933
 30
0.0
 10
74.755815
 20
4.999513
 30
0.0
 10
77.484331
 20
4.999513
 30
0.0
 10
77.484331
 20
3.599436
 30
0.0
 10
74.755815
 20
3.599436
 30
0.0
 10
74.755815
 20
1.521349
 30
0.0
 10
77.688279
 20
1.521349
 30
0.0
 10
77.688279
 20
0.110238
 30
0.0
 10
77.688279
 20
0.110238
 30
0.0
  0
LWPOLYLINE
  5
10c
100
AcDbEntity
  8
Layer_1
 62
7
100
AcDbPolyline
 90
11
 70
0
 10
81.083765
 20
4.591617
 30
0.0
 10
81.634982
 20
4.591617
 30
0.0
 10
82.831119
 20
4.861732
 30
0.0
 10
83.120507
 20
5.208978
 30
0.0
 10
83.216970
 20
5.710600
 30
0.0
 10
83.117752
 20
6.201158
 30
0.0
 10
82.820095
 20
6.526391
 30
0.0
 10
81.601908
 20
6.768933
 30
0.0
 10
81.083765
 20
6.768933
 30
0.0
 10
81.083765
 20
4.591617
 30
0.0
 10
81.083765
 20
4.591617
 30
0.0
  0
LWPOLYLINE
  5
10d
100
AcDbEntity
  8
Layer_1
 62
7
100
AcDbPolyline
 90
16
 70
0
 10
81.083765
 20
3.202547
 30
0.0
 10
81.083765
 20
0.110238
 30
0.0
 10
79.375000
 20
0.110238
 30
0.0
 10
79.375000
 20
8.169009
 30
0.0
 10
81.723176
 20
8.169009
 30
0.0
 10
83.152203
 20
8.018811
 30
0.0
 10
84.154035
 20
7.568186
 30
0.0
 10
84.745215
 20
6.817165
 30
0.0
 10
84.942274
 20
5.754683
 30
0.0
 10
84.550910
 20
4.486884
 30
0.0
 10
83.442968
 20
3.621478
 30
0.0
 10
85.813194
 20
0.110238
 30
0.0
 10
83.917014
 20
0.110238
 30
0.0
 10
81.993272
 20
3.202547
 30
0.0
 10
81.083765
 20
3.202547
 30
0.0
 10
81.083765
 20
3.202547
 30
0.0
  0
LWPOLYLINE
  5
10e
100
AcDbEntity
  8
Layer_1
 62
7
100
AcDbPolyline
 90
36
 70
0
 10
91.584419
 20
2.348176
 30
0.0
 10
91.387360
 20
1.372534
 30
0.0
 10
90.796181
 20
0.628398
 30
0.0
 10
89.859112
 20
0.157087
 30
0.0
 10
88.613367
 20
0.000002
 30
0.0
 10
87.397937
 20
0.121273
 30
0.0
 10
86.331335
 20
0.485058
 30
0.0
 10
86.331335
 20
2.072558
 30
0.0
 10
87.709375
 20
1.559929
 30
0.0
 10
88.745658
 20
1.411113
 30
0.0
 10
89.605556
 20
1.626082
 30
0.0
 10
89.908724
 20
2.265485
 30
0.0
 10
89.776433
 20
2.684415
 30
0.0
 10
89.385069
 20
3.042697
 30
0.0
 10
88.343272
 20
3.588401
 30
0.0
 10
87.235329
 20
4.255377
 30
0.0
 10
86.645530
 20
4.999513
 30
0.0
 10
86.425044
 20
5.991721
 30
0.0
 10
86.605567
 20
6.946705
 30
0.0
 10
87.147135
 20
7.672919
 30
0.0
 10
88.012541
 20
8.131812
 30
0.0
 10
89.153557
 20
8.284777
 30
0.0
 10
90.349697
 20
8.135933
 30
0.0
 10
91.545833
 20
7.717002
 30
0.0
 10
90.994617
 20
6.388582
 30
0.0
 10
89.925260
 20
6.757898
 30
0.0
 10
89.098436
 20
6.862631
 30
0.0
 10
88.354295
 20
6.636627
 30
0.0
 10
88.095224
 20
6.046839
 30
0.0
 10
88.199956
 20
5.649950
 30
0.0
 10
88.530684
 20
5.324745
 30
0.0
 10
89.616579
 20
4.762502
 30
0.0
 10
91.165494
 20
3.676596
 30
0.0
 10
91.479689
 20
3.074390
 30
0.0
 10
91.584419
 20
2.348176
 30
0.0
 10
91.584419
 20
2.348176
 30
0.0
  0
ENDSEC
  0
SECTION
  2
OBJECTS
  0
DICTIONARY
  5
C
330
0
100
AcDbDictionary
  3
ACAD_GROUP
350
D
  3
ACAD_MLINESTYLE
350
17
  0
DICTIONARY
  5
D
330
C
100
AcDbDictionary
  0
DICTIONARY
  5
1A
330
C
100
AcDbDictionary
  0
DICTIONARY
  5
17
330
C
100
AcDbDictionary
  3
STANDARD
350
18
  0
DICTIONARY
  5
19
330
C
100
AcDbDictionary
  0
ENDSEC
  0
EOF
