<?xml version="1.0" encoding="UTF-8" standalone="no"?>
<!-- Created with Inkscape (http://www.inkscape.org/) -->

<svg
   xmlns:dc="http://purl.org/dc/elements/1.1/"
   xmlns:cc="http://creativecommons.org/ns#"
   xmlns:rdf="http://www.w3.org/1999/02/22-rdf-syntax-ns#"
   xmlns:svg="http://www.w3.org/2000/svg"
   xmlns="http://www.w3.org/2000/svg"
   xmlns:sodipodi="http://sodipodi.sourceforge.net/DTD/sodipodi-0.dtd"
   xmlns:inkscape="http://www.inkscape.org/namespaces/inkscape"
   width="297mm"
   height="210mm"
   viewBox="0 0 1052.3622 744.09448"
   id="svg3336"
   version="1.1"
   inkscape:version="0.91 r13725"
   sodipodi:docname="MaxLogo.svg">
  <sodipodi:namedview
     id="base"
     pagecolor="#ffffff"
     bordercolor="#666666"
     borderopacity="1.0"
     inkscape:pageopacity="0.0"
     inkscape:pageshadow="2"
     inkscape:zoom="7.9195959"
     inkscape:cx="84.259907"
     inkscape:cy="-27.879219"
     inkscape:document-units="mm"
     inkscape:current-layer="layer1"
     showgrid="false"
     inkscape:window-width="1600"
     inkscape:window-height="1138"
     inkscape:window-x="-8"
     inkscape:window-y="-8"
     inkscape:window-maximized="1" />
  <defs
     id="defs3338" />
  <metadata
     id="metadata3341">
    <rdf:RDF>
      <cc:Work
         rdf:about="">
        <dc:format>image/svg+xml</dc:format>
        <dc:type
           rdf:resource="http://purl.org/dc/dcmitype/StillImage" />
        <dc:title></dc:title>
      </cc:Work>
    </rdf:RDF>
  </metadata>
  <g
     transform="translate(0,-308.26772)"
     id="layer1"
     inkscape:groupmode="layer"
     inkscape:label="Layer 1">
    <path
       id="path5427"
       style="font-style:normal;font-variant:normal;font-weight:bold;font-stretch:normal;font-size:40px;line-height:125%;font-family:'Open Sans';-inkscape-font-specification:'Open Sans, Bold';text-align:start;letter-spacing:0px;word-spacing:0px;writing-mode:lr-tb;text-anchor:start;fill:#000000;fill-opacity:1;stroke:none;stroke-width:1px;stroke-linecap:butt;stroke-linejoin:miter;stroke-opacity:1"
       d="m 23.691406,1037.4208 -1.00586,6.2256 -3.017578,4.5752 -4.897461,2.8125 -6.68457,0.9375 -8.085937,0 0,-28.5547 8.964843,0 6.210938,0.9228 4.648437,2.7686 2.900391,4.4238 0.966797,5.8887 0,0 m -6.289063,0.1563 -0.507813,-4.0247 -1.523437,-2.8748 -2.539063,-1.7248 -3.554687,-0.575 -3.222656,0 0,18.5938 2.597656,0 3.828125,-0.5872 2.734375,-1.7614 1.640625,-2.9358 0.546875,-4.1101 0,0"
       inkscape:connector-curvature="0" />
    <path
       id="path5429"
       style="font-style:normal;font-variant:normal;font-weight:bold;font-stretch:normal;font-size:40px;line-height:125%;font-family:'Open Sans';-inkscape-font-specification:'Open Sans, Bold';text-align:start;letter-spacing:0px;word-spacing:0px;writing-mode:lr-tb;text-anchor:start;fill:#000000;fill-opacity:1;stroke:none;stroke-width:1px;stroke-linecap:butt;stroke-linejoin:miter;stroke-opacity:1"
       d="m 41.738281,1028.0458 -3.032227,0.6445 -2.260742,1.9336 -1.40625,3.0664 -0.46875,4.0821 0.447998,4.1784 1.343994,2.9847 2.239991,1.7907 3.135986,0.5969 7.285156,-1.5039 0,5.0782 -3.720703,1.0986 -4.130859,0.3662 -5.498047,-0.9424 -4.033203,-2.8271 -2.475587,-4.6094 -0.825195,-6.25 0.405273,-4.1748 1.215821,-3.6182 1.972656,-2.9638 2.675782,-2.1729 3.305664,-1.3476 3.823242,-0.4493 4.169922,0.503 4.189453,1.5088 -1.953125,4.9218 -3.222656,-1.3281 -3.183594,-0.5664 0,0"
       inkscape:connector-curvature="0" />
    <path
       id="path5431"
       style="font-style:normal;font-variant:normal;font-weight:bold;font-stretch:normal;font-size:40px;line-height:125%;font-family:'Open Sans';-inkscape-font-specification:'Open Sans, Bold';text-align:start;letter-spacing:0px;word-spacing:0px;writing-mode:lr-tb;text-anchor:start;fill:#000000;fill-opacity:1;stroke:none;stroke-width:1px;stroke-linecap:butt;stroke-linejoin:miter;stroke-opacity:1"
       d="m 77.558593,1051.9716 -6.875,-22.4024 -0.175781,0 0.371094,9.1211 0,13.2813 -5.410156,0 0,-28.5547 8.242187,0 6.757816,21.8359 0.11718,0 7.16797,-21.8359 8.24219,0 0,28.5547 -5.64453,0 0,-13.5156 0.0195,-2.2071 0.27344,-6.6406 -0.17578,0 -7.36328,22.3633 -5.54688,0 3e-5,0"
       inkscape:connector-curvature="0" />
    <path
       sodipodi:nodetypes="ccccccccccccc"
       inkscape:connector-curvature="0"
       id="path5433"
       style="font-style:normal;font-variant:normal;font-weight:bold;font-stretch:normal;font-size:40px;line-height:125%;font-family:'Open Sans';-inkscape-font-specification:'Open Sans, Bold';text-align:start;letter-spacing:0px;word-spacing:0px;writing-mode:lr-tb;text-anchor:start;fill:#000000;fill-opacity:1;stroke:none;stroke-width:1px;stroke-linecap:butt;stroke-linejoin:miter;stroke-opacity:1"
       d="m 120.68359,1051.9716 -2.07031,-6.7969 -10.41016,0 -2.07031,6.7969 -6.523437,0 10.078127,-28.6719 7.40234,0 10.11719,28.6719 -6.52344,0 m -3.51562,-11.875 -3.75,-12.3633 -3.69141,12.3633 7.44141,0" />
    <path
       id="path5435"
       style="font-style:normal;font-variant:normal;font-weight:bold;font-stretch:normal;font-size:40px;line-height:125%;font-family:'Open Sans';-inkscape-font-specification:'Open Sans, Bold';text-align:start;letter-spacing:0px;word-spacing:0px;writing-mode:lr-tb;text-anchor:start;fill:#000000;fill-opacity:1;stroke:none;stroke-width:1px;stroke-linecap:butt;stroke-linejoin:miter;stroke-opacity:1"
       d="m 155.16142,1051.9724 -6.8226,0 -6.55278,-10.8008 -6.55279,10.8008 -6.3986,0 9.34735,-14.7266 -8.74989,-13.8281 6.59132,0 6.07097,10.2734 5.95532,-10.2734 6.43715,0 -8.84625,14.1602 9.5208,14.3945 0,0"
       inkscape:connector-curvature="0" />
    <path
       id="path5437"
       style="font-style:normal;font-variant:normal;font-weight:bold;font-stretch:normal;font-size:40px;line-height:125%;font-family:'Open Sans';-inkscape-font-specification:'Open Sans, Bold';text-align:start;letter-spacing:0px;word-spacing:0px;writing-mode:lr-tb;text-anchor:start;fill:#000000;fill-opacity:1;stroke:none;stroke-width:1px;stroke-linecap:butt;stroke-linejoin:miter;stroke-opacity:1"
       d="m 173.94531,1051.9716 -16.44531,0 0,-28.5547 16.44531,0 0,4.9609 -10.39063,0 0,6.2696 9.66797,0 0,4.9609 -9.66797,0 0,7.3633 10.39063,0 0,5 z"
       inkscape:connector-curvature="0" />
    <path
       id="path5439"
       style="font-style:normal;font-variant:normal;font-weight:bold;font-stretch:normal;font-size:40px;line-height:125%;font-family:'Open Sans';-inkscape-font-specification:'Open Sans, Bold';text-align:start;letter-spacing:0px;word-spacing:0px;writing-mode:lr-tb;text-anchor:start;fill:#000000;fill-opacity:1;stroke:none;stroke-width:1px;stroke-linecap:butt;stroke-linejoin:miter;stroke-opacity:1"
       d="m 192.05078,1028.0458 -3.03223,0.6445 -2.26074,1.9336 -1.40625,3.0664 -0.46875,4.0821 0.448,4.1784 1.34399,2.9847 2.23999,1.7907 3.13599,0.5969 7.28515,-1.5039 0,5.0782 -3.7207,1.0986 -4.13086,0.3662 -5.49805,-0.9424 -4.0332,-2.8271 -2.47558,-4.6094 -0.8252,-6.25 0.40527,-4.1748 1.21582,-3.6182 1.97266,-2.9638 2.67578,-2.1729 3.30567,-1.3476 3.82324,-0.4493 4.16992,0.503 4.18945,1.5088 -1.95312,4.9218 -3.22266,-1.3281 -3.18359,-0.5664 0,0"
       inkscape:connector-curvature="0" />
    <path
       id="path5441"
       style="font-style:normal;font-variant:normal;font-weight:bold;font-stretch:normal;font-size:40px;line-height:125%;font-family:'Open Sans';-inkscape-font-specification:'Open Sans, Bold';text-align:start;letter-spacing:0px;word-spacing:0px;writing-mode:lr-tb;text-anchor:start;fill:#000000;fill-opacity:1;stroke:none;stroke-width:1px;stroke-linecap:butt;stroke-linejoin:miter;stroke-opacity:1"
       d="m 228.63281,1023.4169 0,18.4766 -0.35645,2.9687 -1.06933,2.5781 -1.72363,2.1045 -2.3584,1.5479 -6.32813,1.2695 -4.89258,-0.7031 -3.66211,-2.1094 -2.28515,-3.3496 -0.76172,-4.3848 0,-18.3984 6.03516,0 0,17.4805 0.33203,2.8613 0.99609,1.9824 1.7627,1.1572 2.63183,0.3858 2.55859,-0.3858 1.73829,-1.1572 1.01074,-2.0019 0.33691,-2.8809 0,-17.4414 6.03516,0 0,0"
       inkscape:connector-curvature="0" />
    <path
       id="path5443"
       style="font-style:normal;font-variant:normal;font-weight:bold;font-stretch:normal;font-size:40px;line-height:125%;font-family:'Open Sans';-inkscape-font-specification:'Open Sans, Bold';text-align:start;letter-spacing:0px;word-spacing:0px;writing-mode:lr-tb;text-anchor:start;fill:#000000;fill-opacity:1;stroke:none;stroke-width:1px;stroke-linecap:butt;stroke-linejoin:miter;stroke-opacity:1"
       d="m 246.64062,1051.9716 -6.05469,0 0,-23.5156 -7.7539,0 0,-5.0391 21.5625,0 0,5.0391 -7.75391,0 0,23.5156 z"
       inkscape:connector-curvature="0" />
    <path
       id="path5445"
       style="font-style:normal;font-variant:normal;font-weight:bold;font-stretch:normal;font-size:40px;line-height:125%;font-family:'Open Sans';-inkscape-font-specification:'Open Sans, Bold';text-align:start;letter-spacing:0px;word-spacing:0px;writing-mode:lr-tb;text-anchor:start;fill:#000000;fill-opacity:1;stroke:none;stroke-width:1px;stroke-linecap:butt;stroke-linejoin:miter;stroke-opacity:1"
       d="m 275.27343,1051.9716 -16.44531,0 0,-28.5547 16.44531,0 0,4.9609 -10.39062,0 0,6.2696 9.66797,0 0,4.9609 -9.66797,0 0,7.3633 10.39062,0 0,5 z"
       inkscape:connector-curvature="0" />
    <path
       id="path5447"
       style="font-style:normal;font-variant:normal;font-weight:bold;font-stretch:normal;font-size:40px;line-height:125%;font-family:'Open Sans';-inkscape-font-specification:'Open Sans, Bold';text-align:start;letter-spacing:0px;word-spacing:0px;writing-mode:lr-tb;text-anchor:start;fill:#000000;fill-opacity:1;stroke:none;stroke-width:1px;stroke-linecap:butt;stroke-linejoin:miter;stroke-opacity:1"
       d="m 287.30468,1036.0927 1.95313,0 4.23828,-0.9571 1.02539,-1.2304 0.3418,-1.7774 -0.35156,-1.7382 -1.05469,-1.1524 -4.31641,-0.8594 -1.83594,0 0,7.7149 0,0 m 0,4.9219 0,10.957 -6.05468,0 0,-28.5547 8.32031,0 5.06348,0.5322 3.5498,1.5967 2.09473,2.6611 0.69824,3.7647 -1.38672,4.4922 -3.92578,3.0664 8.39844,12.4414 -6.71875,0 -6.81641,-10.957 -3.22266,0 0,0"
       inkscape:connector-curvature="0" />
    <path
       id="path5449"
       style="font-style:normal;font-variant:normal;font-weight:bold;font-stretch:normal;font-size:40px;line-height:125%;font-family:'Open Sans';-inkscape-font-specification:'Open Sans, Bold';text-align:start;letter-spacing:0px;word-spacing:0px;writing-mode:lr-tb;text-anchor:start;fill:#000000;fill-opacity:1;stroke:none;stroke-width:1px;stroke-linecap:butt;stroke-linejoin:miter;stroke-opacity:1"
       d="m 324.51172,1044.0419 -0.69824,3.457 -2.09473,2.6367 -3.32032,1.67 -4.41406,0.5566 -4.30664,-0.4297 -3.7793,-1.289 0,-5.625 4.88282,1.8164 3.67187,0.5273 3.04688,-0.7617 1.07422,-2.2656 -0.46875,-1.4844 -1.38672,-1.2695 -3.69141,-1.9336 -3.92578,-2.3633 -2.08984,-2.6367 -0.78125,-3.5157 0.63965,-3.3838 1.91894,-2.5732 3.0664,-1.626 4.04297,-0.542 4.23829,0.5274 4.23828,1.4844 -1.95313,4.707 -3.78906,-1.3086 -2.92969,-0.3711 -2.63672,0.8008 -0.91797,2.0898 0.3711,1.4063 1.17187,1.1523 3.84766,1.9922 5.48828,3.8477 1.11329,2.1338 0.37109,2.5732 0,0"
       inkscape:connector-curvature="0" />
  </g>
</svg>
