<?xml version="1.0" encoding="UTF-8" standalone="no"?>
<svg
   xmlns:dc="http://purl.org/dc/elements/1.1/"
   xmlns:cc="http://creativecommons.org/ns#"
   xmlns:rdf="http://www.w3.org/1999/02/22-rdf-syntax-ns#"
   xmlns:svg="http://www.w3.org/2000/svg"
   xmlns="http://www.w3.org/2000/svg"
   xmlns:sodipodi="http://sodipodi.sourceforge.net/DTD/sodipodi-0.dtd"
   xmlns:inkscape="http://www.inkscape.org/namespaces/inkscape"
   height="51.950802mm"
   version="1.2"
   viewBox="0 0 120.18502 51.950802"
   width="120.18503mm"
   id="svg5750"
   inkscape:version="0.91 r"
   sodipodi:docname="example.svg">
  <metadata
     id="metadata5776">
    <rdf:RDF>
      <cc:Work
         rdf:about="">
        <dc:format>image/svg+xml</dc:format>
        <dc:type
           rdf:resource="http://purl.org/dc/dcmitype/StillImage" />
        <dc:title></dc:title>
      </cc:Work>
    </rdf:RDF>
  </metadata>
  <sodipodi:namedview
     pagecolor="#ffffff"
     bordercolor="#666666"
     borderopacity="1"
     objecttolerance="10"
     gridtolerance="10"
     guidetolerance="10"
     inkscape:pageopacity="0"
     inkscape:pageshadow="2"
     inkscape:window-width="640"
     inkscape:window-height="480"
     id="namedview5774"
     showgrid="false"
     inkscape:document-units="mm"
     fit-margin-top="10"
     fit-margin-left="10"
     fit-margin-right="10"
     fit-margin-bottom="10"
     inkscape:zoom="1.6238632"
     inkscape:cx="216.77536"
     inkscape:cy="-18.732382"
     inkscape:current-layer="svg5750" />
  <defs
     id="defs5752" />
  <g
     transform="matrix(1,0,0,-1,60.091416,19.925119)"
     id="g5754">
    <path
       d="m -49.96642,1.8321854 0.05854,0.2320107 0.05506,0.1370745 0.107518,0.2031966 0.211299,0.3044617 0.417393,0.4670188 0.414829,0.3970658 0.826982,0.7211807 1.027361,0.7278425 1.021718,0.5739459 1.0182,0.4780104 1.015744,0.4110554 2.026763,0.6931975 2.022732,0.5832713 2.01925,0.4883352 2.016319,0.4083888 2.013791,0.3394352 2.011482,0.2764776 2.0091,0.2115211 2.006792,0.1485635 2.004849,0.095599 2.003238,0.051629 2.002028,0.018651 2.001148,-0.00533 2.000526,-0.022322 1.999829,-0.041309 1.999097,-0.061295 1.998253,-0.08428 L -9.6592032,9.4773141 -7.6627451,9.3440669 -5.667203,9.1858366 -3.6725037,9.0046217 -1.6785373,8.8034203 0.31469617,8.5822322 2.3072335,8.342057 4.2991478,8.0848931 6.2904026,7.8097414 8.2809977,7.5166017 10.270897,7.2044748 l 1.989312,-0.3281161 1.988653,-0.3461041 1.988104,-0.361094 1.98759,-0.3750846 1.987114,-0.3880759 1.986674,-0.4000678 1.986235,-0.4120597 1.985795,-0.4240517 1.985355,-0.4360436 1.984915,-0.4480356 1.984513,-0.4590281 1.984109,-0.4700208 1.983706,-0.4810134 1.98334,-0.4910067 1.982936,-0.50199932 1.982607,-0.51099326 1.982167,-0.52298519 1.981801,-0.53297848 0.990791,-0.26948722 0.99068,-0.27248523 0.99068,-0.2724852 0.990644,-0.2734845"
       id="path5756"
       inkscape:connector-curvature="0"
       style="fill:none;stroke:#ff0000;stroke-width:0.25" />
    <path
       d="m -49.96642,1.8321854 0.03285,-0.4685185 0.04531,-0.1287469 0.09308,-0.1905388 0.189972,-0.27714739 0.38588,-0.39240362 0.389911,-0.28247749 0.78737,-0.35909334 0.990754,-0.27048655 0.99233,-0.22751543 0.993721,-0.18954095 0.995371,-0.14457113 1.993783,-0.2061981 1.995286,-0.1652257 1.996531,-0.1312484 1.997631,-0.1012686 1.99862,-0.074287 1.99939,-0.053301 2.000049,-0.035313 2.000599,-0.020323 2.000929,-0.011329 2.001222,-0.00333 2.001405,0.00166 2.001442,0.00266 2.001405,0.00166 2.001368,6.629e-4 2.001332,-3.365e-4 2.001332,-3.364e-4 2.001331,-3.365e-4 2.0013321,-3.364e-4 2.0013318,-3.365e-4 2.0013318,-3.364e-4 2.0013684,6.629e-4 2.00136843,6.629e-4 2.00133177,-3.365e-4 2.0013684,6.629e-4 2.0013318,-3.364e-4 2.0013684,6.628e-4 2.0013318,-3.364e-4 2.0013313,-3.364e-4 2.001369,6.628e-4 2.001332,-3.364e-4 2.001368,6.629e-4 2.001332,-3.365e-4 2.001368,6.629e-4 2.001332,-3.364e-4 2.001369,6.629e-4 2.001331,-3.365e-4 2.001369,6.629e-4 2.001331,-3.365e-4 2.001332,-3.364e-4 2.001369,6.629e-4 2.001331,-3.365e-4 2.001369,6.629e-4 2.001332,-3.364e-4 2.001368,6.629e-4 2.001332,-3.365e-4 1.000684,3.315e-4 1.000684,3.314e-4 1.000648,-6.679e-4 1.000684,3.315e-4 0.0044,0.1199194"
       id="path5758"
       inkscape:connector-curvature="0"
       style="fill:none;stroke:#ff0000;stroke-width:0.25" />
    <path
       d="m -49.96642,-1.9006826 4.7625,0 0,7.9375 -4.7625,0 z"
       id="path5760"
       inkscape:connector-curvature="0"
       style="fill:none;stroke:#0000ff;stroke-width:0.25" />
    <path
       d="m -16.987857,3.4087074 2.38125,0 0,6.35 -2.38125,0 z"
       id="path5762"
       inkscape:connector-curvature="0"
       style="fill:none;stroke:#0000ff;stroke-width:0.25" />
    <path
       d="m 37.268618,-1.9006826 12.7,0 0,3.96875 -12.7,0 z"
       id="path5764"
       inkscape:connector-curvature="0"
       style="fill:none;stroke:#0000ff;stroke-width:0.25" />
    <rect
       height="11.7008"
       width="99.935036"
       x="-49.966419"
       y="-1.9006826"
       id="rect5766"
       style="fill:none;stroke:#7f7f7f;stroke-width:0.25" />
  </g>
  <g
     transform="matrix(1,0,0,-1,60.091416,39.925119)"
     id="g5768">
    <path
       d="m -49.96642,-1.9006826 99.935038,0 0,11.7007997 -99.935038,0 z"
       id="path5770"
       inkscape:connector-curvature="0"
       style="fill:none;stroke:#7f7f7f;stroke-width:0.25" />
    <path
       d="m -22.084,-1.899 2.002,0.003 2.001,0.002 6.004,0 2.001,-0.001 4.003,0 2.001,-10e-4 2.002,10e-4 2.001,0.001 2,-0.001 2.002,0.001 12.008,0 2.001,10e-4 2.001,-10e-4 2.002,10e-4 6.004,0 2.001,0.001 2.002,-0.001 2.001,0 2.001,0.001 1.314,-0.001 0,3.477 -1.176,0.291 -1.983,0.481 -1.984,0.47 L 30.14,3.285 28.155,3.733 26.17,4.169 24.184,4.593 22.198,5.005 20.211,5.406 18.224,5.794 16.236,6.169 14.248,6.53 12.26,6.876 10.27,7.204 8.28,7.516 6.29,7.809 4.299,8.084 2.307,8.342 l -1.993,0.24 -1.992,0.221 -1.994,0.201 -1.995,0.181 -1.995,0.159 -1.997,0.133 -1.997,0.108 -1.998,0.084 -0.952,0.03 0,-6.291 -2.381,0 0,6.35 0.017,0 -0.683,0.014 -2.001,0.022 -2.001,0.006 -2.002,-0.019 -2.003,-0.052 -2.005,-0.095 -2.007,-0.149 -2.009,-0.211 -2.011,-0.277 -2.014,-0.339 -2.017,-0.409 -2.019,-0.488 -2.023,-0.583 -2.026,-0.693 -1.016,-0.412 -0.396,-0.186 0,-6.815 0.138,-0.026 0.996,-0.144 1.993,-0.207 1.996,-0.165 1.996,-0.131 1.998,-0.101 1.998,-0.075 2,-0.053 2,-0.035 2.001,-0.021 2,-0.011 2.002,-0.003 z"
       id="path5772"
       inkscape:connector-curvature="0"
       style="fill:none;stroke:#ff0000;stroke-width:0.25" />
  </g>
</svg>
