<?xml version="1.0" encoding="UTF-8" standalone="no"?>
<!-- Created with Inkscape (http://www.inkscape.org/) -->

<svg
   xmlns:dc="http://purl.org/dc/elements/1.1/"
   xmlns:cc="http://creativecommons.org/ns#"
   xmlns:rdf="http://www.w3.org/1999/02/22-rdf-syntax-ns#"
   xmlns:svg="http://www.w3.org/2000/svg"
   xmlns="http://www.w3.org/2000/svg"
   xmlns:sodipodi="http://sodipodi.sourceforge.net/DTD/sodipodi-0.dtd"
   xmlns:inkscape="http://www.inkscape.org/namespaces/inkscape"
   sodipodi:docname="BUY.svg"
   inkscape:version="0.91 r13725"
   version="1.1"
   id="svg3336"
   viewBox="0 0 1052.3622 744.09448"
   height="210mm"
   width="297mm">
  <sodipodi:namedview
     inkscape:window-maximized="0"
     inkscape:window-y="30"
     inkscape:window-x="151"
     inkscape:window-height="959"
     inkscape:window-width="1287"
     showgrid="false"
     inkscape:current-layer="layer1"
     inkscape:document-units="mm"
     inkscape:cy="10.181526"
     inkscape:cx="37.713316"
     inkscape:zoom="5.6"
     inkscape:pageshadow="2"
     inkscape:pageopacity="0.0"
     borderopacity="1.0"
     bordercolor="#666666"
     pagecolor="#ffffff"
     id="base" />
  <defs
     id="defs3338" />
  <metadata
     id="metadata3341">
    <rdf:RDF>
      <cc:Work
         rdf:about="">
        <dc:format>image/svg+xml</dc:format>
        <dc:type
           rdf:resource="http://purl.org/dc/dcmitype/StillImage" />
        <dc:title></dc:title>
      </cc:Work>
    </rdf:RDF>
  </metadata>
  <g
     inkscape:label="Layer 1"
     inkscape:groupmode="layer"
     id="layer1"
     transform="translate(0,-308.26772)">
    <g
       id="text3345"
       style="font-style:normal;font-weight:normal;font-size:40px;line-height:125%;font-family:Sans;letter-spacing:0px;word-spacing:0px;fill:#000000;fill-opacity:1;stroke:none;stroke-width:1px;stroke-linecap:butt;stroke-linejoin:miter;stroke-opacity:1">
      <path
         id="path3354"
         style="font-style:normal;font-variant:normal;font-weight:bold;font-stretch:normal;font-size:40px;line-height:125%;font-family:Sans;-inkscape-font-specification:'Sans, Bold';text-align:start;writing-mode:lr-tb;text-anchor:start"
         d="M11.679688 1033.9247L14.375 1033.1434L15.292969 1030.8387L14.375 1028.5536L11.679688 1027.7528L7.5195312 1027.7528L7.5195312 1033.9247L11.679688 1033.9247L11.679688 1033.9247M11.933594 1046.6786L15.332031 1045.7216L16.484375 1042.8309L15.351563 1039.9989L11.933594 1039.0419L7.5195312 1039.0419L7.5195312 1046.6786L11.933594 1046.6786L11.933594 1046.6786M18.925781 1036.1903L21.0742185 1037.191275L22.675781 1038.788L23.67187475 1040.89735L24.003906 1043.4364L23.2910155 1047.118075L21.152344 1049.7255L17.55859375 1051.278225L12.480469 1051.7958L0.0 1051.7958L0.0 1022.6356L11.289063 1022.6356L16.5234375 1023.0946L20.078125 1024.4716L22.12890625 1026.859275L22.8125 1030.3505L21.816406 1033.9833L18.925781 1036.1903L18.925781 1036.1903" />
      <path
         id="path3356"
         style="font-style:normal;font-variant:normal;font-weight:bold;font-stretch:normal;font-size:40px;line-height:125%;font-family:Sans;-inkscape-font-specification:'Sans, Bold';text-align:start;writing-mode:lr-tb;text-anchor:start"
         d="M30.46875 1022.6356L37.988281 1022.6356L37.988281 1040.1161L38.28124975 1043.2167L39.160156 1045.2919L40.722656 1046.449075L43.027344 1046.8348L45.34179675 1046.449075L46.894531 1045.2919L47.7880855 1043.2167L48.085937 1040.1161L48.085937 1022.6356L55.605469 1022.6356L55.605469 1040.1161L54.82910175 1045.516475L52.5 1049.3348L48.5791015 1051.60535L43.027344 1052.3622L37.49023425 1051.60535L33.574219 1049.3348L31.24511725 1045.516475L30.46875 1040.1161L30.46875 1022.6356L30.46875 1022.6356" />
      <path
         id="path3358"
         style="font-style:normal;font-variant:normal;font-weight:bold;font-stretch:normal;font-size:40px;line-height:125%;font-family:Sans;-inkscape-font-specification:'Sans, Bold';text-align:start;writing-mode:lr-tb;text-anchor:start"
         d="M58.90625 1022.6356L67.128906 1022.6356L73.769531 1033.0262L80.410156 1022.6356L88.652344 1022.6356L77.539062 1039.5106L77.539062 1051.7958L70.019531 1051.7958L70.019531 1039.5106L58.90625 1022.6356L58.90625 1022.6356" />
    </g>
    <text
       sodipodi:linespacing="125%"
       id="text3349"
       y="989.22766"
       x="16.667517"
       style="font-style:normal;font-weight:normal;font-size:40px;line-height:125%;font-family:Sans;letter-spacing:0px;word-spacing:0px;fill:#000000;fill-opacity:1;stroke:none;stroke-width:1px;stroke-linecap:butt;stroke-linejoin:miter;stroke-opacity:1"
       xml:space="preserve"><tspan
         y="989.22766"
         x="16.667517"
         id="tspan3351"
         sodipodi:role="line" /></text>
  </g>
</svg>
