<?xml version="1.0" encoding="UTF-8" standalone="no"?>
<!-- Created with Inkscape (http://www.inkscape.org/) -->

<svg
   xmlns:dc="http://purl.org/dc/elements/1.1/"
   xmlns:cc="http://creativecommons.org/ns#"
   xmlns:rdf="http://www.w3.org/1999/02/22-rdf-syntax-ns#"
   xmlns:svg="http://www.w3.org/2000/svg"
   xmlns="http://www.w3.org/2000/svg"
   xmlns:sodipodi="http://sodipodi.sourceforge.net/DTD/sodipodi-0.dtd"
   xmlns:inkscape="http://www.inkscape.org/namespaces/inkscape"
   width="297mm"
   height="210mm"
   viewBox="0 0 1052.3622 744.09448"
   id="svg3336"
   version="1.1"
   inkscape:version="0.91 r13725"
   sodipodi:docname="HOLD.svg">
  <sodipodi:namedview
     id="base"
     pagecolor="#ffffff"
     bordercolor="#666666"
     borderopacity="1.0"
     inkscape:pageopacity="0.0"
     inkscape:pageshadow="2"
     inkscape:zoom="3.959798"
     inkscape:cx="63.880901"
     inkscape:cy="5.3262954"
     inkscape:document-units="mm"
     inkscape:current-layer="layer1"
     showgrid="false"
     inkscape:window-width="1287"
     inkscape:window-height="959"
     inkscape:window-x="151"
     inkscape:window-y="30"
     inkscape:window-maximized="0" />
  <defs
     id="defs3338" />
  <metadata
     id="metadata3341">
    <rdf:RDF>
      <cc:Work
         rdf:about="">
        <dc:format>image/svg+xml</dc:format>
        <dc:type
           rdf:resource="http://purl.org/dc/dcmitype/StillImage" />
        <dc:title></dc:title>
      </cc:Work>
    </rdf:RDF>
  </metadata>
  <g
     inkscape:label="Layer 1"
     inkscape:groupmode="layer"
     id="layer1"
     transform="translate(0,-308.26772)">
    <g
       style="font-style:normal;font-weight:normal;font-size:40px;line-height:125%;font-family:Sans;letter-spacing:0px;word-spacing:0px;fill:#000000;fill-opacity:1;stroke:none;stroke-width:1px;stroke-linecap:butt;stroke-linejoin:miter;stroke-opacity:1"
       id="text3564">
      <path
         d="M0.0 1022.6356L7.5195312 1022.6356L7.5195312 1033.7489L18.613281 1033.7489L18.613281 1022.6356L26.132812 1022.6356L26.132812 1051.7958L18.613281 1051.7958L18.613281 1039.4325L7.5195312 1039.4325L7.5195312 1051.7958L8.881784197e-16 1051.7958L8.881784197e-16 1022.6356L0.0 1022.6356"
         style="font-style:normal;font-variant:normal;font-weight:bold;font-stretch:normal;font-size:40px;line-height:125%;font-family:Sans;-inkscape-font-specification:'Sans, Bold';text-align:start;writing-mode:lr-tb;text-anchor:start"
         id="path3569" />
      <path
         d="M46.835937 1027.5575L43.78417925 1028.192275L41.503906 1030.0966L40.08300775 1033.1532L39.609375 1037.245L40.08300775 1041.322125L41.503906 1044.3739L43.78417925 1046.278225L46.835937 1046.913L49.90234375 1046.278225L52.1875 1044.3739L53.60839825 1041.322125L54.082031 1037.245L53.60839825 1033.1532L52.1875 1030.0966L49.90234375 1028.192275L46.835937 1027.5575L46.835937 1027.5575M46.835937 1022.1083L53.10546825 1023.11415L57.851562 1026.1317L60.83984325 1030.921775L61.835937 1037.245L60.83984325 1043.553575L57.851562 1048.3387L53.10546825 1051.356325L46.835937 1052.3622L40.57617175 1051.356325L35.820312 1048.3387L32.83203075 1043.553575L31.835937 1037.245L32.83203075 1030.921775L35.820312 1026.1317L40.57617175 1023.11415L46.835937 1022.1083L46.835937 1022.1083"
         style="font-style:normal;font-variant:normal;font-weight:bold;font-stretch:normal;font-size:40px;line-height:125%;font-family:Sans;-inkscape-font-specification:'Sans, Bold';text-align:start;writing-mode:lr-tb;text-anchor:start"
         id="path3571" />
      <path
         d="M67.5 1022.6356L75.019531 1022.6356L75.019531 1046.1122L88.222656 1046.1122L88.222656 1051.7958L67.5 1051.7958L67.5 1022.6356L67.5 1022.6356"
         style="font-style:normal;font-variant:normal;font-weight:bold;font-stretch:normal;font-size:40px;line-height:125%;font-family:Sans;-inkscape-font-specification:'Sans, Bold';text-align:start;writing-mode:lr-tb;text-anchor:start"
         id="path3573" />
      <path
         d="M100.48828 1028.3192L100.48828 1046.1122L103.18359 1046.1122L107.2460925 1045.5409L110.21484 1043.827L112.0458975 1041.0243L112.65625 1037.1864L112.0507825 1033.36805L110.23438 1030.5848L107.2607425 1028.8856L103.18359 1028.3192L100.48828 1028.3192L100.48828 1028.3192M92.96875 1022.6356L100.89844 1022.6356L110.78125 1023.5927L113.808595 1024.862225L116.36719 1026.7958L119.41406 1031.3466L120.41016 1037.1864L119.41406 1043.0848L116.36719 1047.6356L113.789065 1049.574075L110.74219 1050.8583L100.89844 1051.7958L92.96875 1051.7958L92.96875 1022.6356L92.96875 1022.6356"
         style="font-style:normal;font-variant:normal;font-weight:bold;font-stretch:normal;font-size:40px;line-height:125%;font-family:Sans;-inkscape-font-specification:'Sans, Bold';text-align:start;writing-mode:lr-tb;text-anchor:start"
         id="path3575" />
    </g>
  </g>
</svg>
