<?xml version="1.0" encoding="UTF-8" standalone="no"?>
<!-- Created with Inkscape (http://www.inkscape.org/) -->

<svg
   xmlns:dc="http://purl.org/dc/elements/1.1/"
   xmlns:cc="http://creativecommons.org/ns#"
   xmlns:rdf="http://www.w3.org/1999/02/22-rdf-syntax-ns#"
   xmlns:svg="http://www.w3.org/2000/svg"
   xmlns="http://www.w3.org/2000/svg"
   xmlns:sodipodi="http://sodipodi.sourceforge.net/DTD/sodipodi-0.dtd"
   xmlns:inkscape="http://www.inkscape.org/namespaces/inkscape"
   width="297mm"
   height="210mm"
   viewBox="0 0 1052.3622 744.09448"
   id="svg3336"
   version="1.1"
   inkscape:version="0.91 r13725"
   sodipodi:docname="SELL.svg">
  <sodipodi:namedview
     id="base"
     pagecolor="#ffffff"
     bordercolor="#666666"
     borderopacity="1.0"
     inkscape:pageopacity="0.0"
     inkscape:pageshadow="2"
     inkscape:zoom="5.6"
     inkscape:cx="52.555803"
     inkscape:cy="28.848827"
     inkscape:document-units="mm"
     inkscape:current-layer="layer1"
     showgrid="false"
     inkscape:window-width="1287"
     inkscape:window-height="959"
     inkscape:window-x="151"
     inkscape:window-y="30"
     inkscape:window-maximized="0" />
  <defs
     id="defs3338" />
  <metadata
     id="metadata3341">
    <rdf:RDF>
      <cc:Work
         rdf:about="">
        <dc:format>image/svg+xml</dc:format>
        <dc:type
           rdf:resource="http://purl.org/dc/dcmitype/StillImage" />
        <dc:title></dc:title>
      </cc:Work>
    </rdf:RDF>
  </metadata>
  <g
     inkscape:label="Layer 1"
     inkscape:groupmode="layer"
     id="layer1"
     transform="translate(0,-308.26772)">
    <g
       style="font-style:normal;font-weight:normal;font-size:40px;line-height:125%;font-family:Sans;letter-spacing:0px;word-spacing:0px;fill:#000000;fill-opacity:1;stroke:none;stroke-width:1px;stroke-linecap:butt;stroke-linejoin:miter;stroke-opacity:1"
       id="text3349"
       transform="translate(-11.799665,8.5407082)" />
    <g
       style="font-style:normal;font-weight:normal;font-size:40px;line-height:125%;font-family:Sans;letter-spacing:0px;word-spacing:0px;fill:#000000;fill-opacity:1;stroke:none;stroke-width:1px;stroke-linecap:butt;stroke-linejoin:miter;stroke-opacity:1"
       id="text3440"
       transform="translate(-11.799665,8.5407082)">
      <path
         d="m 32.893415,1015.0129 0,6.1719 -4.6875,-1.6211 -4.316406,-0.5469 -3.984375,0.7422 -0.966797,0.9473 -0.322265,1.3574 0.859375,1.836 3.164062,1.1132 3.203125,0.6446 4.160156,1.2304 2.753907,1.7383 1.538086,2.4121 0.512695,3.252 -0.717773,4.209 -2.153321,2.9785 -3.608398,1.7578 -5.122071,0.5859 -5.566406,-0.5273 -5.585937,-1.5625 0,-6.3477 5.390625,2.2461 5.039062,0.7422 3.769531,-0.8203 1.308594,-2.3437 -0.898437,-2.1094 -3.535157,-1.3281 -2.910156,-0.6446 -3.789063,-1.2158 -2.617187,-1.7725 -1.508789,-2.4072 -0.50293,-3.1201 0.703125,-3.8525 2.109375,-2.8467 3.427734,-1.7579 4.658204,-0.5859 4.941406,0.3711 5.253906,1.0742 0,0"
         style="font-style:normal;font-variant:normal;font-weight:bold;font-stretch:normal;font-size:40px;line-height:125%;font-family:Sans;-inkscape-font-specification:'Sans, Bold';text-align:start;writing-mode:lr-tb;text-anchor:start"
         id="path3476"
         inkscape:connector-curvature="0" />
      <path
         d="m 41.428572,1014.095 20.292968,0 0,5.6836 -12.773437,0 0,5.4297 12.011719,0 0,5.6835 -12.011719,0 0,6.6797 13.203125,0 0,5.6836 -20.722656,0 0,-29.1601 0,0"
         style="font-style:normal;font-variant:normal;font-weight:bold;font-stretch:normal;font-size:40px;line-height:125%;font-family:Sans;-inkscape-font-specification:'Sans, Bold';text-align:start;writing-mode:lr-tb;text-anchor:start"
         id="path3478"
         inkscape:connector-curvature="0" />
      <path
         d="m 68.772322,1014.095 7.519531,0 0,23.4765 13.203125,0 0,5.6836 -20.722656,0 0,-29.1601 0,0"
         style="font-style:normal;font-variant:normal;font-weight:bold;font-stretch:normal;font-size:40px;line-height:125%;font-family:Sans;-inkscape-font-specification:'Sans, Bold';text-align:start;writing-mode:lr-tb;text-anchor:start"
         id="path3480"
         inkscape:connector-curvature="0" />
      <path
         d="m 94.241072,1014.095 7.519528,0 0,23.4765 13.20313,0 0,5.6836 -20.722658,0 0,-29.1601 0,0"
         style="font-style:normal;font-variant:normal;font-weight:bold;font-stretch:normal;font-size:40px;line-height:125%;font-family:Sans;-inkscape-font-specification:'Sans, Bold';text-align:start;writing-mode:lr-tb;text-anchor:start"
         id="path3482"
         inkscape:connector-curvature="0" />
    </g>
  </g>
</svg>
