  0
SECTION
  2
HEADER
  9
$ACADVER
  1
AC1014
  9
$HANDSEED
  5
FFFF
  9
$MEASUREMENT
 70
     1
  0
ENDSEC
  0
SECTION
  2
TABLES
  0
TABLE
  2
VPORT
  5
8
330
0
100
AcDbSymbolTable
 70
     4
  0
VPORT
  5
2E
330
8
100
AcDbSymbolTableRecord
100
AcDbViewportTableRecord
  2
*ACTIVE
 70
     0
 10
0.0
 20
0.0
 11
1.0
 21
1.0
 12
210.0
 22
148.5
 13
0.0
 23
0.0
 14
10.0
 24
10.0
 15
10.0
 25
10.0
 16
0.0
 26
0.0
 36
1.0
 17
0.0
 27
0.0
 37
0.0
 40
341.0
 41
1.24
 42
50.0
 43
0.0
 44
0.0
 50
0.0
 51
0.0
 71
     0
 72
   100
 73
     1
 74
     3
 75
     0
 76
     0
 77
     0
 78
     0
  0
ENDTAB
  0
TABLE
  2
LTYPE
  5
5
330
0
100
AcDbSymbolTable
 70
     1
  0
LTYPE
  5
14
330
5
100
AcDbSymbolTableRecord
100
AcDbLinetypeTableRecord
  2
BYBLOCK
 70
     0
  3

 72
    65
 73
     0
 40
0.0
  0
LTYPE
  5
15
330
5
100
AcDbSymbolTableRecord
100
AcDbLinetypeTableRecord
  2
BYLAYER
 70
     0
  3

 72
    65
 73
     0
 40
0.0
  0
LTYPE
  5
16
330
5
100
AcDbSymbolTableRecord
100
AcDbLinetypeTableRecord
  2
CONTINUOUS
 70
     0
  3
Solid line
 72
    65
 73
     0
 40
0.0
  0
ENDTAB
  0
TABLE
  2
LAYER
  5
2
100
AcDbSymbolTable
 70
2
  0
LAYER
  5
50
100
AcDbSymbolTableRecord
100
AcDbLayerTableRecord
  2
0
 70
0
  6
CONTINUOUS
  0
LAYER
  5
51
100
AcDbSymbolTableRecord
100
AcDbLayerTableRecord
  2
Layer_1
 70
0
  6
CONTINUOUS
  0
ENDTAB
  0
TABLE
  2
STYLE
  5
3
330
0
100
AcDbSymbolTable
 70
     1
  0
STYLE
  5
11
330
3
100
AcDbSymbolTableRecord
100
AcDbTextStyleTableRecord
  2
STANDARD
 70
     0
 40
0.0
 41
1.0
 50
0.0
 71
     0
 42
2.5
  3
txt
  4

  0
ENDTAB
  0
TABLE
  2
VIEW
  5
6
330
0
100
AcDbSymbolTable
 70
     0
  0
ENDTAB
  0
TABLE
  2
UCS
  5
7
330
0
100
AcDbSymbolTable
 70
     0
  0
ENDTAB
  0
TABLE
  2
APPID
  5
9
330
0
100
AcDbSymbolTable
 70
     2
  0
APPID
  5
12
330
9
100
AcDbSymbolTableRecord
100
AcDbRegAppTableRecord
  2
ACAD
 70
     0
  0
ENDTAB
  0
TABLE
  2
DIMSTYLE
  5
A
330
0
100
AcDbSymbolTable
 70
     1
  0
DIMSTYLE
105
27
330
A
100
AcDbSymbolTableRecord
100
AcDbDimStyleTableRecord
  2
ISO-25
 70
     0
  3

  4

  5

  6

  7

 40
1.0
 41
2.5
 42
0.625
 43
3.75
 44
1.25
 45
0.0
 46
0.0
 47
0.0
 48
0.0
140
2.5
141
2.5
142
0.0
143
0.03937007874016
144
1.0
145
0.0
146
1.0
147
0.625
 71
     0
 72
     0
 73
     0
 74
     0
 75
     0
 76
     0
 77
     1
 78
     8
170
     0
171
     3
172
     1
173
     0
174
     0
175
     0
176
     0
177
     0
178
     0
270
     2
271
     2
272
     2
273
     2
274
     3
340
11
275
     0
280
     0
281
     0
282
     0
283
     0
284
     8
285
     0
286
     0
287
     3
288
     0
  0
ENDTAB
  0
TABLE
  2
BLOCK_RECORD
  5
1
330
0
100
AcDbSymbolTable
 70
     1
  0
BLOCK_RECORD
  5
1F
330
1
100
AcDbSymbolTableRecord
100
AcDbBlockTableRecord
  2
*MODEL_SPACE
  0
BLOCK_RECORD
  5
1B
330
1
100
AcDbSymbolTableRecord
100
AcDbBlockTableRecord
  2
*PAPER_SPACE
  0
ENDTAB
  0
ENDSEC
  0
SECTION
  2
BLOCKS
  0
BLOCK
  5
20
330
1F
100
AcDbEntity
  8
0
100
AcDbBlockBegin
  2
*MODEL_SPACE
 70
     0
 10
0.0
 20
0.0
 30
0.0
  3
*MODEL_SPACE
  1

  0
ENDBLK
  5
21
330
1F
100
AcDbEntity
  8
0
100
AcDbBlockEnd
  0
BLOCK
  5
1C
330
1B
100
AcDbEntity
 67
     1
  8
0
100
AcDbBlockBegin
  2
*PAPER_SPACE
  1

  0
ENDBLK
  5
1D
330
1B
100
AcDbEntity
 67
     1
  8
0
100
AcDbBlockEnd
  0
ENDSEC
  0
SECTION
  2
ENTITIES
  0
LWPOLYLINE
  5
100
100
AcDbEntity
  8
Layer_1
 62
7
100
AcDbPolyline
 90
39
 70
0
 10
5.953125
 20
8.130427
 30
0.0
 10
5.953125
 20
6.388580
 30
0.0
 10
4.630208
 20
6.846090
 30
0.0
 10
3.412023
 20
7.000438
 30
0.0
 10
2.287543
 20
6.790972
 30
0.0
 10
2.014692
 20
6.523623
 30
0.0
 10
1.923742
 20
6.140535
 30
0.0
 10
2.166276
 20
5.622375
 30
0.0
 10
3.059245
 20
5.308205
 30
0.0
 10
3.963238
 20
5.126284
 30
0.0
 10
5.137326
 20
4.779038
 30
0.0
 10
5.914540
 20
4.288451
 30
0.0
 10
6.348622
 20
3.607703
 30
0.0
 10
6.493316
 20
2.689916
 30
0.0
 10
6.290745
 20
1.502043
 30
0.0
 10
5.683030
 20
0.661444
 30
0.0
 10
4.664659
 20
0.165354
 30
0.0
 10
3.219097
 20
-0.000000
 30
0.0
 10
1.648134
 20
0.148816
 30
0.0
 10
0.071658
 20
0.589788
 30
0.0
 10
0.071658
 20
2.381250
 30
0.0
 10
1.593012
 20
1.747351
 30
0.0
 10
3.015148
 20
1.537885
 30
0.0
 10
4.078993
 20
1.769392
 30
0.0
 10
4.448307
 20
2.430836
 30
0.0
 10
4.194748
 20
3.026156
 30
0.0
 10
3.197049
 20
3.400975
 30
0.0
 10
2.375738
 20
3.582896
 30
0.0
 10
1.306380
 20
3.926022
 30
0.0
 10
0.567752
 20
4.426260
 30
0.0
 10
0.141938
 20
5.105626
 30
0.0
 10
0.000000
 20
5.986187
 30
0.0
 10
0.198437
 20
7.073448
 30
0.0
 10
0.793750
 20
7.876850
 30
0.0
 10
1.761133
 20
8.372969
 30
0.0
 10
3.075781
 20
8.538323
 30
0.0
 10
4.470356
 20
8.433590
 30
0.0
 10
5.953125
 20
8.130427
 30
0.0
 10
5.953125
 20
8.130427
 30
0.0
  0
LWPOLYLINE
  5
101
100
AcDbEntity
  8
Layer_1
 62
7
100
AcDbPolyline
 90
14
 70
0
 10
8.361936
 20
8.389479
 30
0.0
 10
14.089063
 20
8.389479
 30
0.0
 10
14.089063
 20
6.785441
 30
0.0
 10
10.484115
 20
6.785441
 30
0.0
 10
10.484115
 20
5.253059
 30
0.0
 10
13.874089
 20
5.253059
 30
0.0
 10
13.874089
 20
3.649049
 30
0.0
 10
10.484115
 20
3.649049
 30
0.0
 10
10.484115
 20
1.763889
 30
0.0
 10
14.210330
 20
1.763889
 30
0.0
 10
14.210330
 20
0.159851
 30
0.0
 10
8.361936
 20
0.159851
 30
0.0
 10
8.361936
 20
8.389479
 30
0.0
 10
8.361936
 20
8.389479
 30
0.0
  0
LWPOLYLINE
  5
102
100
AcDbEntity
  8
Layer_1
 62
7
100
AcDbPolyline
 90
8
 70
0
 10
16.078950
 20
8.389479
 30
0.0
 10
18.201129
 20
8.389479
 30
0.0
 10
18.201129
 20
1.763889
 30
0.0
 10
21.927344
 20
1.763889
 30
0.0
 10
21.927344
 20
0.159851
 30
0.0
 10
16.078950
 20
0.159851
 30
0.0
 10
16.078950
 20
8.389479
 30
0.0
 10
16.078950
 20
8.389479
 30
0.0
  0
LWPOLYLINE
  5
103
100
AcDbEntity
  8
Layer_1
 62
7
100
AcDbPolyline
 90
8
 70
0
 10
23.266797
 20
8.389479
 30
0.0
 10
25.388975
 20
8.389479
 30
0.0
 10
25.388975
 20
1.763889
 30
0.0
 10
29.115192
 20
1.763889
 30
0.0
 10
29.115192
 20
0.159851
 30
0.0
 10
23.266797
 20
0.159851
 30
0.0
 10
23.266797
 20
8.389479
 30
0.0
 10
23.266797
 20
8.389479
 30
0.0
  0
ENDSEC
  0
SECTION
  2
OBJECTS
  0
DICTIONARY
  5
C
330
0
100
AcDbDictionary
  3
ACAD_GROUP
350
D
  3
ACAD_MLINESTYLE
350
17
  0
DICTIONARY
  5
D
330
C
100
AcDbDictionary
  0
DICTIONARY
  5
1A
330
C
100
AcDbDictionary
  0
DICTIONARY
  5
17
330
C
100
AcDbDictionary
  3
STANDARD
350
18
  0
DICTIONARY
  5
19
330
C
100
AcDbDictionary
  0
ENDSEC
  0
EOF
