<?xml version="1.0" encoding="UTF-8" standalone="no"?>
<svg
   xmlns:dc="http://purl.org/dc/elements/1.1/"
   xmlns:cc="http://creativecommons.org/ns#"
   xmlns:rdf="http://www.w3.org/1999/02/22-rdf-syntax-ns#"
   xmlns:svg="http://www.w3.org/2000/svg"
   xmlns="http://www.w3.org/2000/svg"
   xmlns:sodipodi="http://sodipodi.sourceforge.net/DTD/sodipodi-0.dtd"
   xmlns:inkscape="http://www.inkscape.org/namespaces/inkscape"
   height="210mm"
   version="1.2"
   viewBox="0 0 296.99999 210"
   width="297mm"
   id="svg24"
   sodipodi:docname="clarky-profile.svg"
   inkscape:version="0.92.0 unknown">
  <metadata
     id="metadata28">
    <rdf:RDF>
      <cc:Work
         rdf:about="">
        <dc:format>image/svg+xml</dc:format>
        <dc:type
           rdf:resource="http://purl.org/dc/dcmitype/StillImage" />
        <dc:title></dc:title>
      </cc:Work>
    </rdf:RDF>
  </metadata>
  <sodipodi:namedview
     pagecolor="#ffffff"
     bordercolor="#666666"
     borderopacity="1"
     objecttolerance="10"
     gridtolerance="10"
     guidetolerance="10"
     inkscape:pageopacity="0"
     inkscape:pageshadow="2"
     inkscape:window-width="640"
     inkscape:window-height="480"
     id="namedview26"
     showgrid="false"
     inkscape:zoom="1.8203333"
     inkscape:cx="274.86286"
     inkscape:cy="166.6548"
     inkscape:current-layer="svg24"
     inkscape:document-units="mm" />
  <defs
     id="defs2" />
  <path
     style="fill:none;stroke:#ff7f00;stroke-width:0.25"
     inkscape:connector-curvature="0"
     id="path6"
     d="m 105.02676,198.92339 -0.99065,-0.27349 -0.99068,-0.27248 -0.99068,-0.27249 -0.99079,-0.26948 -1.9818,-0.53298 -1.98217,-0.52299 -1.9826,-0.51099 -1.982938,-0.502 -1.98334,-0.49101 -1.983706,-0.48101 -1.984109,-0.47002 -1.984513,-0.45903 -1.984915,-0.44803 -1.985355,-0.43605 -1.985795,-0.42405 -1.986235,-0.41206 -1.986674,-0.40007 -1.987114,-0.38807 -1.98759,-0.37509 -1.988104,-0.36109 -1.988653,-0.34611 -1.989312,-0.32811 -1.989899,-0.31213 -1.990595,-0.29314 -1.991255,-0.27515 -1.991914,-0.25716 -1.992538,-0.24018 -1.993233,-0.22119 -1.993967,-0.2012 -1.994699,-0.18122 -1.995542,-0.15823 -1.996458,-0.13324 -1.997375,-0.10827 -1.998253,-0.0843 -1.999097,-0.0613 -1.999829,-0.0413 -2.000526,-0.0223 -2.001148,-0.005 -2.002028,0.0187 -2.003238,0.0516 -2.004849,0.0956 -2.006792,0.14857 -2.0091,0.21152 -2.011482,0.27648 -2.013791,0.33943 -2.016319,0.40839 -2.01925,0.48833 -2.022732,0.58328 -2.026763,0.69319 -1.015744,0.41106 -1.0182004,0.47801 -1.021718,0.57395 -1.027361,0.72784 -0.826982,0.72118 -0.414829,0.39706 -0.417393,0.46702 -0.211299,0.30446 -0.107518,0.2032 -0.05506,0.13708 -0.05854,0.23201 0.03285,0.46852 0.04531,0.12874 0.09308,0.19054 0.189972,0.27715 0.38588,0.3924 0.389911,0.28248 0.78737,0.35909 0.990754,0.27049 0.99233,0.22751 0.993721,0.18955 0.9953714,0.14457 1.993783,0.2062 1.995286,0.16522 1.996531,0.13125 1.997631,0.10127 1.99862,0.0743 1.99939,0.0533 2.000049,0.0353 2.000599,0.0203 2.000929,0.0113 2.001222,0.003 2.001405,-0.002 2.001442,-0.003 2.001405,-0.002 2.001368,-6.7e-4 2.001332,3.4e-4 2.001332,3.4e-4 2.001331,3.3e-4 2.001332,3.4e-4 2.001332,3.4e-4 2.001332,3.3e-4 2.001368,-6.6e-4 2.001369,-6.6e-4 2.001331,3.3e-4 2.001369,-6.6e-4 2.001332,3.4e-4 2.001368,-6.7e-4 2.001332,3.4e-4 2.001331,3.4e-4 2.001369,-6.6e-4 2.001332,3.3e-4 2.001368,-6.6e-4 2.001332,3.4e-4 2.001368,-6.7e-4 2.001332,3.4e-4 2.001369,-6.6e-4 2.001331,3.3e-4 2.001369,-6.6e-4 2.001331,3.4e-4 2.001332,3.3e-4 2.001369,-6.6e-4 2.001331,3.4e-4 2.001369,-6.7e-4 2.001337,3.4e-4 2.00136,-6.6e-4 2.00134,3.3e-4 1.00068,-3.3e-4 1.00068,-3.3e-4 1.00065,6.7e-4 1.00069,-3.3e-4" />
</svg>
